<?xml version="1.0" encoding="utf-8"?>
<!-- Generator: Adobe Illustrator 18.0.0, SVG Export Plug-In . SVG Version: 6.00 Build 0)  -->
<!DOCTYPE svg PUBLIC "-//W3C//DTD SVG 1.1//EN" "http://www.w3.org/Graphics/SVG/1.1/DTD/svg11.dtd">
<svg version="1.1" id="图层_1" xmlns="http://www.w3.org/2000/svg" xmlns:xlink="http://www.w3.org/1999/xlink" x="0px" y="0px"
	 viewBox="0 0 46.1 46.1" enable-background="new 0 0 46.1 46.1" xml:space="preserve">
<g>
	<path fill="#FCC102" d="M43.9,15.8c-5.3,0-10.6,0-16,0c-5.3,0-10.6,0-16,0c-1.6,0-2.3,0.8-2.3,2.3c0,6.8,0,13.6,0,20.4
		c0,1.5,0.8,2.2,2.2,2.2l32.2,0c1.4,0,2.2-0.8,2.2-2.2c0-6.8,0-13.7,0-20.5C46.1,16.6,45.4,15.8,43.9,15.8z M11.4,17.7h32.8v5H11.4
		V17.7z M44.3,38.9H11.5V24.6h32.8V38.9z"/>
	<path fill="#FCC102" d="M1.8,27.6V7.2h32.9v6.2h1.8c0-0.6,0-1.1,0-1.7c0-1.5,0-3,0-4.5c0-0.4-0.1-1.2-0.9-1.6
		c-0.5-0.2-1-0.4-1.6-0.4c-6.4,0-12.9,0-18.4,0L5,5.3l-1.7,0c-0.4,0-0.8,0-1.2,0c-0.9,0-1.4,0.3-1.7,0.8C0.2,6.6,0,7.2,0,7.7
		C0,13,0,18.4,0,23.6l0,4.3c0,0.2,0,0.3,0,0.5c0.1,1.1,0.8,1.8,1.9,1.9c0.5,0,1,0,1.4,0c0.2,0,0.4,0,0.6,0l3.1,0v-1.8l-4.3,0
		C1.9,28.5,1.8,28.4,1.8,27.6z"/>
</g>
</svg>
