<?xml version="1.0" encoding="utf-8"?>
<!-- Generator: Adobe Illustrator 18.0.0, SVG Export Plug-In . SVG Version: 6.00 Build 0)  -->
<!DOCTYPE svg PUBLIC "-//W3C//DTD SVG 1.1//EN" "http://www.w3.org/Graphics/SVG/1.1/DTD/svg11.dtd">
<svg version="1.1" id="图层_1" xmlns="http://www.w3.org/2000/svg" xmlns:xlink="http://www.w3.org/1999/xlink" x="0px" y="0px"
	 viewBox="0 0 46.1 46.1" enable-background="new 0 0 46.1 46.1" xml:space="preserve">
<g>
	<path fill="#FCC102" d="M43.1,0.1c-13.4,0-26.8,0-40.1,0c-1.6,0-2.8,1.2-2.8,2.8c0,2.2,0,4.4,0,6.6c0,1.6,1.2,2.8,2.8,2.8
		c1.6,0,3.3,0,4.9,0c0.2,0,0.4,0,0.7,0c0,0.3,0,0.6,0,0.8c0,9.9,0,19.8,0,29.6c0,2,1.1,3.1,3.1,3.1c7.6,0,15.2,0,22.8,0
		c2,0,3.1-1.1,3.1-3.1c0-9.9,0-19.8,0-29.6c0-0.2,0-0.5,0-0.8c1.9,0,3.7,0,5.5,0c1.7,0,2.8-1.2,2.9-2.9c0-2.2,0-4.4,0-6.5
		C46,1.3,44.8,0.1,43.1,0.1z M36.5,8.6c0,11.4,0,22.8,0,34.3c0,1.4-0.6,2-2,2c-7.6,0-15.2,0-22.9,0c-1.4,0-2-0.6-2-2
		c0-11.4,0-22.8,0-34.3c0-0.2,0-0.4,0-0.7c9,0,17.9,0,26.9,0C36.5,8.2,36.5,8.4,36.5,8.6z M44.9,9.5c0,1.1-0.7,1.8-1.7,1.8
		c-1.8,0-3.5,0-5.3,0c-0.1,0-0.1,0-0.3,0c0-1.1,0-2.2,0-3.4c0.4,0,0.7,0.1,1,0c0.2-0.1,0.4-0.3,0.6-0.5c-0.2-0.2-0.3-0.4-0.6-0.5
		c-0.1-0.1-0.3,0-0.5,0c-10.1,0-20.2,0-30.3,0c-0.2,0-0.4-0.1-0.6,0C7.2,7,6.9,7.2,6.9,7.4c0,0.2,0.3,0.4,0.5,0.5
		c0.3,0.1,0.7,0,1.1,0c0,1.2,0,2.2,0,3.4c-0.2,0-0.3,0-0.5,0.1c-1.6,0-3.2,0-4.9,0c-1.2,0-1.9-0.7-1.9-1.9c0-2.1,0-4.2,0-6.2
		c0-1.3,0.6-1.9,1.9-1.9c13.3,0,26.6,0,39.8,0c1.3,0,1.9,0.6,1.9,1.9C44.9,5.3,44.9,7.4,44.9,9.5z"/>
	<path fill="#FCC102" d="M22.6,28.7c-1.5,0-3,0-4.5,0c-0.1,0-0.2,0-0.3,0c-0.3,0-0.6,0.3-0.6,0.6c0,0.3,0.2,0.6,0.5,0.6
		c0.1,0,0.2,0,0.3,0c1.6,0,3.1,0,4.7,0c0.1,0,0.2,0,0.4,0c0,0.2,0,0.3,0,0.4c0,1.2,0,2.4,0,3.6c0,0.2,0.1,0.5,0.2,0.7
		c0.2,0.3,0.6,0.3,0.9,0.2c0.3-0.1,0.5-0.4,0.5-0.8c0-1.2,0-2.5,0-3.7c0-0.1,0-0.2,0-0.4c0.2,0,0.3,0,0.4,0c1.6,0,3.1,0,4.7,0
		c0.1,0,0.2,0,0.3,0c0.3-0.1,0.5-0.3,0.5-0.6c0-0.3-0.2-0.6-0.6-0.6c-0.1,0-0.2,0-0.3,0c-1.5,0-3,0-4.6,0c-0.1,0-0.2,0-0.4,0
		c0-0.8,0-1.5,0-2.3c0.1,0,0.2,0,0.4,0c1.5,0,3.1,0,4.6,0c0.1,0,0.2,0,0.3,0c0.3,0,0.5-0.3,0.5-0.6c0-0.3-0.2-0.5-0.5-0.6
		c-0.1,0-0.3,0-0.4,0c-1.2,0-2.5,0-3.7,0c-0.1,0-0.2,0-0.4,0c0.1-0.1,0.1-0.2,0.2-0.3c1.1-1.9,2.3-3.7,3.4-5.6
		c0.1-0.1,0.2-0.3,0.2-0.5c0.1-0.4-0.2-0.7-0.5-0.8c-0.4-0.1-0.7,0-1,0.4c-1.2,2-2.5,4-3.7,6.1c-0.1,0.1-0.1,0.2-0.2,0.3
		c-0.1-0.1-0.1-0.2-0.2-0.3c-0.7-1.2-1.5-2.4-2.2-3.6c-0.5-0.8-1-1.7-1.6-2.5c-0.3-0.5-0.9-0.6-1.3-0.1c-0.2,0.3-0.2,0.6,0,1
		c1.1,1.9,2.3,3.7,3.4,5.6c0.1,0.1,0.1,0.2,0.2,0.3c-0.2,0-0.3,0-0.4,0c-1.2,0-2.5,0-3.7,0c-0.2,0-0.3,0-0.5,0
		c-0.3,0.1-0.5,0.3-0.4,0.6c0,0.3,0.2,0.5,0.5,0.5c0.1,0,0.2,0,0.3,0c1.5,0,3.1,0,4.6,0c0.1,0,0.2,0,0.4,0c0,0.8,0,1.6,0,2.3
		C22.9,28.7,22.7,28.7,22.6,28.7z"/>
</g>
</svg>
