<?xml version="1.0" encoding="utf-8"?>
<!-- Generator: Adobe Illustrator 18.0.0, SVG Export Plug-In . SVG Version: 6.00 Build 0)  -->
<!DOCTYPE svg PUBLIC "-//W3C//DTD SVG 1.1//EN" "http://www.w3.org/Graphics/SVG/1.1/DTD/svg11.dtd">
<svg version="1.1" id="图层_1" xmlns="http://www.w3.org/2000/svg" xmlns:xlink="http://www.w3.org/1999/xlink" x="0px" y="0px"
	 viewBox="0 0 46.1 46.1" enable-background="new 0 0 46.1 46.1" xml:space="preserve">
<g id="_x37_tM9Z2.tif">
	<g>
		<path fill="#FCC102" d="M42.7,41c-3.9,0-7.7,0-11.6,0c0-11,0-22,0-33.1c3.9,0,7.7,0,11.6,0C42.7,19,42.7,30,42.7,41z M32.5,9.4
			c0,10.1,0,20.2,0,30.3c0.2,0,0.4,0,0.6,0c2.5,0,5,0,7.5,0c0.6,0,0.7-0.2,0.7-0.7c0-9.6,0-19.3,0-28.9c0-0.2,0-0.4,0-0.6
			C38.3,9.4,35.4,9.4,32.5,9.4z"/>
		<path fill="#FCC102" d="M28.9,19.1c0,7.3,0,14.6,0,22c-3.9,0-7.7,0-11.6,0c0-7.3,0-14.6,0-22C21.2,19.1,25,19.1,28.9,19.1z
			 M18.7,20.5c0,6.4,0,12.7,0,19.1c2.9,0,5.8,0,8.7,0c0-6.4,0-12.7,0-19.1C24.5,20.5,21.7,20.5,18.7,20.5z"/>
		<path fill="#FCC102" d="M18.6,6.7c-0.3,0-0.5,0-0.7,0c-1.7,0-3.5,0-5.2,0c-0.6,0-1-0.3-1-0.8c0-0.5,0.4-0.8,1-0.8
			c2.5,0,5.1,0,7.6,0c0.8,0,1.1,0.3,1.1,1.1c0,2.5,0,5.1,0,7.6c0,0.7-0.3,1.1-0.8,1.1c-0.5,0-0.8-0.4-0.8-1c0-1.7,0-3.4,0-5.1
			c0-0.2,0-0.4,0-0.8c-0.3,0.2-0.4,0.4-0.6,0.5C14.5,13,9.9,17.6,5.3,22.2c-0.2,0.2-0.3,0.3-0.5,0.4c-0.4,0.3-0.7,0.3-1-0.1
			c-0.3-0.3-0.3-0.7,0-1.1c0.1-0.1,0.2-0.2,0.3-0.3c4.6-4.6,9.2-9.2,13.9-13.9C18.2,7.1,18.3,6.9,18.6,6.7z"/>
		<path fill="#FCC102" d="M15,41c-3.9,0-7.7,0-11.6,0c0-4.2,0-8.3,0-12.5c3.9,0,7.7,0,11.6,0C15,32.7,15,36.8,15,41z M13.6,29.9
			c-2.9,0-5.8,0-8.7,0c0,3.2,0,6.4,0,9.7c2.9,0,5.8,0,8.7,0C13.6,36.4,13.6,33.2,13.6,29.9z"/>
	</g>
</g>
</svg>
