<?xml version="1.0" encoding="utf-8"?>
<!-- Generator: Adobe Illustrator 18.0.0, SVG Export Plug-In . SVG Version: 6.00 Build 0)  -->
<!DOCTYPE svg PUBLIC "-//W3C//DTD SVG 1.1//EN" "http://www.w3.org/Graphics/SVG/1.1/DTD/svg11.dtd">
<svg version="1.1" id="图层_1" xmlns="http://www.w3.org/2000/svg" xmlns:xlink="http://www.w3.org/1999/xlink" x="0px" y="0px"
	 viewBox="0 0 46.1 46.1" enable-background="new 0 0 46.1 46.1" xml:space="preserve">
<g id="ykupzc.tif">
	<g>
		<path fill="#FCC102" d="M23.1,46.1C10.3,46,0,35.7,0,23c0.1-12.8,10.4-23,23.3-23c12.6,0.1,22.9,10.5,22.8,23.1
			C46.1,35.8,35.7,46.1,23.1,46.1z M23.1,2C11.4,2,2,11.4,2,23.1c0,11.7,9.5,21.1,21.2,21.1c11.5,0,21-9.6,20.9-21.1
			C44.1,11.3,34.7,1.9,23.1,2z"/>
		<path fill="#FCC102" d="M20.6,18.8c1.7,0,3.2,0,4.8,0c0.6,0,1,0.3,0.9,0.9c0,0.5-0.4,0.8-1,0.8c-2.3,0-4.5,0-6.8,0
			c-0.2,0-0.4,0-0.7,0c0,1.7,0,3.4,0,5.1c0.2,0,0.4,0,0.6,0c1.6,0,3.1,0,4.7,0c0.7,0,1.1,0.3,1.1,0.8c0,0.6-0.4,0.8-1.1,0.9
			c-1.6,0-3.1,0-4.7,0c-0.2,0-0.4,0-0.7,0c0,1.4,0,2.8,0,4.1c0,0.6,0,1.1,0,1.7c0,0.6-0.3,1-0.8,1c-0.5,0-0.8-0.4-0.8-1
			c0-1.8,0-3.5,0-5.3c0-0.2,0-0.3,0-0.5c-0.2,0-0.4,0-0.6,0c-1.6,0-3.1,0-4.7,0c-0.7,0-1-0.3-1-0.8c0-0.5,0.4-0.8,1-0.8
			c1.8,0,3.5,0,5.4,0c0-1.7,0-3.4,0-5.1c-0.2,0-0.4,0-0.6,0c-2.3,0-4.5,0-6.8,0c-0.7,0-1-0.3-1-0.8c0-0.6,0.3-0.9,1.1-0.9
			c1.3,0,2.6,0,3.9,0c0.2,0,0.4,0,0.7,0c-0.2-0.3-0.3-0.5-0.4-0.7c-0.9-1.5-1.9-3-2.8-4.4c-0.1-0.2-0.2-0.4-0.3-0.6
			c-0.2-0.4,0-0.8,0.4-1c0.4-0.2,0.7-0.1,1,0.2c0.1,0.1,0.2,0.3,0.3,0.5c1.2,1.8,2.3,3.7,3.5,5.5c0.2,0.4,0.5,0.5,0.9,0.5
			c0.8,0,1.5,0,2.3,0c0.4,0,0.6-0.1,0.8-0.4c1.1-1.8,2.2-3.6,3.4-5.4c0.1-0.1,0.2-0.3,0.3-0.4c0.4-0.6,0.8-0.7,1.2-0.4
			c0.4,0.3,0.5,0.8,0.1,1.3c-0.5,0.8-1,1.6-1.5,2.4C21.9,16.8,21.3,17.7,20.6,18.8z"/>
		<path fill="#FCC102" d="M33.2,29.8c-1.2,0-2.4,0-3.5,0c-0.8,0-1-0.2-1-0.8c0-0.2,0-0.3,0-0.5c0.1-0.5,0.3-0.6,0.8-0.6
			c2.4,0,4.9,0,7.3,0c0.5,0,0.7,0.2,0.8,0.6c0,0.2,0,0.4,0,0.7c-0.1,0.5-0.3,0.7-0.9,0.7C35.6,29.8,34.4,29.8,33.2,29.8z"/>
		<path fill="#FCC102" d="M33.2,18.1c1.2,0,2.4,0,3.6,0c0.6,0,0.9,0.2,0.9,0.7c0,0.1,0,0.2,0,0.3c0,0.7-0.3,0.9-1.1,0.9
			c-0.9,0-1.8,0-2.8,0c-1.4,0-2.8,0-4.2,0c-0.7,0-0.9-0.2-1-0.7c0-0.2,0-0.4,0-0.6c0.1-0.5,0.3-0.6,0.9-0.6
			C30.8,18.1,32,18.1,33.2,18.1z"/>
		<path fill="#FCC102" d="M33.2,25.2c-1.2,0-2.4,0-3.6,0c-0.6,0-0.8-0.1-0.9-0.6c0-0.2,0-0.4,0-0.5c0-0.6,0.3-0.8,1-0.8
			c2.4,0,4.8,0,7.2,0c0.6,0,0.9,0.2,0.9,0.7c0,0.2,0,0.4,0,0.6c-0.1,0.4-0.3,0.6-0.8,0.6C35.6,25.2,34.4,25.2,33.2,25.2z"/>
	</g>
</g>
</svg>
