<?xml version="1.0" encoding="utf-8"?>
<!-- Generator: Adobe Illustrator 18.0.0, SVG Export Plug-In . SVG Version: 6.00 Build 0)  -->
<!DOCTYPE svg PUBLIC "-//W3C//DTD SVG 1.1//EN" "http://www.w3.org/Graphics/SVG/1.1/DTD/svg11.dtd">
<svg version="1.1" id="图层_1" xmlns="http://www.w3.org/2000/svg" xmlns:xlink="http://www.w3.org/1999/xlink" x="0px" y="0px"
	 viewBox="0 0 40 32" enable-background="new 0 0 40 32" xml:space="preserve">
<g id="yoj3Ch.tif_1_">
	<g>
		<path fill="#7CC87E" d="M8.6,5.2c1.1,2.2,2.1,4.3,3.1,6.4c0.4,0.7,0.6,1.5,1.1,2.2c0.3,0.4,0.8,0.9,1.3,0.9c0.9,0.1,1,0.6,1,1.3
			c-0.3,3.7-3.2,6.4-7,6.8c-3.3,0.3-6.6-1.9-7.6-5.1c-0.2-0.5-0.3-1-0.4-1.4c-0.1-0.9,0-1.5,1.1-1.6c0.4,0,0.9-0.5,1.1-0.9
			C3.8,10.9,5.2,8,6.6,5C7,4.2,7.6,3.8,8.5,3.8c3.1,0,6.2,0,9.4,0c1.2,0,1.6-0.4,1.5-1.5c0-0.3-0.1-0.6,0-0.8
			c0.1-0.2,0.4-0.4,0.6-0.6c0.1,0.2,0.4,0.4,0.4,0.6c0.2,0.7,0.1,1.8,0.5,2.1c0.5,0.4,1.5,0.2,2.3,0.2c2.6,0,5.2,0.1,7.9,0
			c1.3-0.1,1.9,0.4,2.4,1.5c1.3,2.8,2.6,5.6,4,8.3c0.3,0.5,0.9,1,1.5,1.1c0.8,0.2,1,0.6,0.9,1.4c-0.5,3.8-3.7,6.7-7.5,6.8
			c-3.8,0-7.1-2.9-7.6-6.6c-0.1-0.8,0-1.4,1.1-1.5c0.3,0,0.9-0.2,1-0.5c1.5-3,3-6,4.5-9.1C31,5.1,30.7,5,30.5,5c-2.9,0-5.8,0-8.7,0
			c-0.9,0-1.3,0.3-1.3,1.3c0,7.4,0,14.9,0,22.3c0,1,0.5,1.4,1.4,1.3c1.5,0,2.9,0,4.4,0c0.5,0,1,0.2,1.5,0.3c0,0.2,0,0.3,0,0.5
			c-0.4,0.1-0.9,0.4-1.3,0.4c-4.4,0-8.7,0-13.1,0c-0.4,0-0.8-0.2-1.2-0.3c0-0.2,0-0.3,0-0.5c0.5-0.1,0.9-0.4,1.4-0.4
			c1.5,0,3,0,4.5,0c0.9,0,1.3-0.2,1.3-1.2c0-7.5,0-15,0-22.5c0-0.7,0-1.3-1-1.3c-3,0-6,0-9,0C9.3,5,9.1,5.1,8.6,5.2z M1.1,16.1
			c0.3,0.8,0.4,1.4,0.6,1.9c1,2.3,3.6,3.9,6.1,3.7c2.7-0.1,5.1-1.9,5.9-4.3c0.4-1.2,0.1-1.6-1-1.6c-3.4,0-6.8,0-10.2,0
			C2.1,15.9,1.7,16,1.1,16.1z M26.2,16c0.4,3.3,2.6,5.3,5.9,5.7c2.7,0.3,5.7-1.7,6.5-4.3c0.4-1.3,0.2-1.5-1.2-1.5
			c-3.3,0-6.6,0-9.9,0C27,15.9,26.6,16,26.2,16z M28.1,14.7c3,0,5.7,0,8.7,0c-1.5-3-2.8-5.7-4.2-8.5c-0.1,0-0.3,0.1-0.4,0.1
			C30.8,9,29.5,11.7,28.1,14.7z M3.2,14.7c3,0,5.7,0,8.7,0c-1.5-3-2.8-5.7-4.2-8.5c-0.1,0-0.3,0-0.4,0.1C6,9,4.7,11.7,3.2,14.7z"/>
	</g>
</g>
</svg>
