<?xml version="1.0" encoding="utf-8"?>
<!-- Generator: Adobe Illustrator 18.0.0, SVG Export Plug-In . SVG Version: 6.00 Build 0)  -->
<!DOCTYPE svg PUBLIC "-//W3C//DTD SVG 1.1//EN" "http://www.w3.org/Graphics/SVG/1.1/DTD/svg11.dtd">
<svg version="1.1" id="图层_1" xmlns="http://www.w3.org/2000/svg" xmlns:xlink="http://www.w3.org/1999/xlink" x="0px" y="0px"
	 viewBox="0 0 37.7 39.2" enable-background="new 0 0 37.7 39.2" xml:space="preserve">
<g id="BEjfKa.tif_2_">
	<g>
		<path fill="#FFFFFF" d="M18.9,38.5c-5.5,0-10.8,0-16.4,0c-1.5,0-2.6-1-2.6-2.6c0-1.4,0-2.9,0-4.3c0-1.2,0.5-2.2,1.4-2.9
			c1.7-1.4,3.6-2.6,5.5-3.4c0.3-0.2,0.5-0.3,0.5-0.7c0.5-1.7,0.7-3.3,0.7-5c0-3.3,0-6.5,0-9.8c0.2-4.1,3.3-7.9,7.4-8.8
			c2.6-0.5,5.2-0.5,7.7,0.3c3.6,1.4,6,4.8,6,8.8c0,3.1,0,6,0,9.1c0,1.7,0.2,3.6,0.7,5.3c0,0.3,0.2,0.5,0.5,0.7
			c2.1,0.9,4,2.1,5.7,3.4c0.9,0.7,1.4,1.7,1.4,2.9c0,1.5,0,3.1,0,4.5c0,1.4-1,2.4-2.4,2.4C29.8,38.5,24.3,38.5,18.9,38.5z
			 M18.8,37.3c5.5,0,10.8,0,16.4,0c0.9,0,1.4-0.5,1.4-1.4c0-1.5,0-2.9,0-4.5c0-0.9-0.3-1.5-1-2.1c-2.1-1.5-4.1-2.8-6.5-3.8
			c-0.5-0.2-0.7-0.2-1,0.2c-2.6,2.6-5.2,5.3-7.9,7.9c-1,1-1.7,1-2.8,0c-0.2-0.2-0.2-0.2-0.3-0.3c-2.6-2.6-5.2-5.2-7.7-7.7
			c-0.2-0.2-0.3-0.3-0.7-0.2c-2.4,1-4.6,2.2-6.5,3.8c-0.7,0.5-1,1.2-1,2.2c0,1.4,0,2.8,0,4.1c0,1.2,0.3,1.5,1.5,1.5
			C8.1,37.3,13.4,37.3,18.8,37.3z M17.2,8.1c-0.5,0.5-1,0.9-1.5,1.2c-0.5,0.2-1.2,0.2-1.7,0.3c-1.2,0.2-2.1,1-2.1,2.1
			c0,1.7,0,3.4,0.3,5c0.5,2.6,1.7,4.8,3.8,6.4c1.5,1.2,3.1,1.5,5,0.7c1.5-0.9,2.8-2.1,3.6-3.4c1.4-2.4,1.7-4.8,1.5-7.6
			C26,11,24.6,9.6,22.9,9.4c-0.7,0-1.5,0-2.2,0C19.1,9.6,17.9,9.3,17.2,8.1z M28.9,24.4c0-0.2,0-0.3,0-0.5c-0.2-1.2-0.5-2.4-0.5-3.6
			c0-3.4,0-6.7,0-10.2c0-3.6-2.4-6.9-6-7.9c-1.5-0.5-3.1-0.3-4.5-0.3c-4.8,0-8.4,3.6-8.4,8.4c0,3.1,0,6,0,9.1c0,0.9,0,1.7-0.2,2.4
			C9.1,22.7,9,23.4,9,24.2c1.7-0.5,3.4-0.9,5.2-1.4c-1-1.2-1.7-2.4-2.4-3.8c-1-2.4-1.2-4.8-1-7.4c0-1.9,1.5-3.3,3.4-3.3
			c1.5,0,2.6-1.2,2.6-2.4c0-0.3,0.2-0.5,0.5-0.5s0.5,0.2,0.5,0.5c0,0.2,0,0.2,0,0.3c0.2,1.2,1.2,2.1,2.4,2.1c0.9,0,1.7,0,2.6,0
			c2.2,0.2,4.1,1.9,4.3,4.1c0.3,3.4-0.5,6.7-2.6,9.5c-0.2,0.3-0.5,0.7-0.7,1C25.5,23.4,27.2,23.9,28.9,24.4z M10.5,24.9v0.2
			c0.2,0.2,0.2,0.2,0.3,0.3c2.6,2.6,5,5,7.6,7.6c0.5,0.5,0.5,0.5,1,0c2.6-2.6,5-5,7.6-7.6c0.2-0.2,0.2-0.2,0.3-0.3
			c-0.2,0-0.2-0.2-0.3-0.2c-1.2-0.3-2.6-0.7-3.8-0.9c-0.3-0.2-0.7,0-1,0.2c-1.9,1.4-4,1.5-6,0.3c-0.2-0.2-0.5-0.3-0.7-0.5
			c-0.2,0-0.3-0.2-0.3-0.2C13.6,24.4,12.1,24.8,10.5,24.9z"/>
		<path fill="#FFFFFF" d="M21.7,12.5c0.7,0,1.2,0.2,1.5,0.7c0.2,0.3,0.3,0.7,0,0.9c-0.3,0.3-0.5,0.2-0.9-0.2c-0.3-0.5-1-0.5-1.4,0
			c-0.2,0.3-0.3,0.5-0.7,0.2c-0.3-0.3-0.2-0.5,0-0.9C20.7,12.7,21.2,12.5,21.7,12.5z"/>
		<path fill="#FFFFFF" d="M16,12.5c0.7,0,1.2,0.2,1.5,0.7c0.2,0.3,0.3,0.7,0,0.9c-0.3,0.3-0.7,0.2-0.9,0c-0.3-0.5-1-0.5-1.4,0
			c-0.3,0.2-0.7,0.3-0.9,0c-0.3-0.2-0.3-0.5,0-0.9C14.8,12.7,15.3,12.5,16,12.5z"/>
	</g>
</g>
</svg>
