<?xml version="1.0" encoding="utf-8"?>
<!-- Generator: Adobe Illustrator 18.0.0, SVG Export Plug-In . SVG Version: 6.00 Build 0)  -->
<!DOCTYPE svg PUBLIC "-//W3C//DTD SVG 1.1//EN" "http://www.w3.org/Graphics/SVG/1.1/DTD/svg11.dtd">
<svg version="1.1" id="图层_1" xmlns="http://www.w3.org/2000/svg" xmlns:xlink="http://www.w3.org/1999/xlink" x="0px" y="0px"
	 viewBox="0 0 21.9 22" enable-background="new 0 0 21.9 22" xml:space="preserve">
<g id="BEjfKa.tif_2_">
	<g>
		<path fill="#DCDCDC" d="M11,22c-3.2,0-6.3,0-9.5,0C0.6,22,0,21.4,0,20.5c0-0.8,0-1.7,0-2.5c0-0.7,0.3-1.3,0.8-1.7
			c1-0.8,2.1-1.5,3.2-2c0.2-0.1,0.3-0.2,0.3-0.4c0.3-1,0.4-1.9,0.4-2.9c0-1.9,0-3.8,0-5.7c0.1-2.4,1.9-4.6,4.3-5.1
			c1.5-0.3,3-0.3,4.5,0.2c2.1,0.8,3.5,2.8,3.5,5.1c0,1.8,0,3.5,0,5.3c0,1,0.1,2.1,0.4,3.1c0,0.2,0.1,0.3,0.3,0.4
			c1.2,0.5,2.3,1.2,3.3,2c0.5,0.4,0.8,1,0.8,1.7c0,0.9,0,1.8,0,2.6c0,0.8-0.6,1.4-1.4,1.4C17.3,22,14.1,22,11,22z M10.9,21.3
			c3.2,0,6.3,0,9.5,0c0.5,0,0.8-0.3,0.8-0.8c0-0.9,0-1.7,0-2.6c0-0.5-0.2-0.9-0.6-1.2c-1.2-0.9-2.4-1.6-3.8-2.2
			c-0.3-0.1-0.4-0.1-0.6,0.1c-1.5,1.5-3,3.1-4.6,4.6c-0.6,0.6-1,0.6-1.6,0c-0.1-0.1-0.1-0.1-0.2-0.2c-1.5-1.5-3-3-4.5-4.5
			c-0.1-0.1-0.2-0.2-0.4-0.1c-1.4,0.6-2.7,1.3-3.8,2.2c-0.4,0.3-0.6,0.7-0.6,1.3c0,0.8,0,1.6,0,2.4c0,0.7,0.2,0.9,0.9,0.9
			C4.7,21.3,7.8,21.3,10.9,21.3z M10,4.3C9.7,4.6,9.4,4.8,9.1,5C8.8,5.1,8.4,5.1,8.1,5.2C7.4,5.3,6.9,5.8,6.9,6.4c0,1,0,2,0.2,2.9
			c0.3,1.5,1,2.8,2.2,3.7c0.9,0.7,1.8,0.9,2.9,0.4c0.9-0.5,1.6-1.2,2.1-2c0.8-1.4,1-2.8,0.9-4.4c-0.1-1-0.9-1.8-1.9-1.9
			c-0.4,0-0.9,0-1.3,0C11.1,5.2,10.4,5,10,4.3z M16.8,13.8c0-0.1,0-0.2,0-0.3c-0.1-0.7-0.3-1.4-0.3-2.1c0-2,0-3.9,0-5.9
			c0-2.1-1.4-4-3.5-4.6c-0.9-0.3-1.8-0.2-2.6-0.2c-2.8,0-4.9,2.1-4.9,4.9c0,1.8,0,3.5,0,5.3c0,0.5,0,1-0.1,1.4
			c-0.1,0.5-0.2,0.9-0.2,1.4c1-0.3,2-0.5,3-0.8c-0.6-0.7-1-1.4-1.4-2.2C6.2,9.3,6.1,7.9,6.2,6.4c0-1.1,0.9-1.9,2-1.9
			c0.9,0,1.5-0.7,1.5-1.4c0-0.2,0.1-0.3,0.3-0.3c0.2,0,0.3,0.1,0.3,0.3c0,0.1,0,0.1,0,0.2c0.1,0.7,0.7,1.2,1.4,1.2c0.5,0,1,0,1.5,0
			c1.3,0.1,2.4,1.1,2.5,2.4c0.2,2-0.3,3.9-1.5,5.5c-0.1,0.2-0.3,0.4-0.4,0.6C14.8,13.2,15.8,13.5,16.8,13.8z M6.1,14.1
			c0,0,0,0.1,0,0.1c0.1,0.1,0.1,0.1,0.2,0.2c1.5,1.5,2.9,2.9,4.4,4.4c0.3,0.3,0.3,0.3,0.6,0c1.5-1.5,2.9-2.9,4.4-4.4
			c0.1-0.1,0.1-0.1,0.2-0.2c-0.1,0-0.1-0.1-0.2-0.1c-0.7-0.2-1.5-0.4-2.2-0.5c-0.2-0.1-0.4,0-0.6,0.1c-1.1,0.8-2.3,0.9-3.5,0.2
			c-0.1-0.1-0.3-0.2-0.4-0.3c-0.1,0-0.2-0.1-0.2-0.1C7.9,13.8,7,14,6.1,14.1z"/>
		<path fill="#DCDCDC" d="M12.6,6.9c0.4,0,0.7,0.1,0.9,0.4c0.1,0.2,0.2,0.4,0,0.5c-0.2,0.2-0.3,0.1-0.5-0.1c-0.2-0.3-0.6-0.3-0.8,0
			C12.1,7.9,12,8,11.8,7.8c-0.2-0.2-0.1-0.3,0-0.5C12,7,12.3,6.9,12.6,6.9z"/>
		<path fill="#DCDCDC" d="M9.3,6.9c0.4,0,0.7,0.1,0.9,0.4c0.1,0.2,0.2,0.4,0,0.5C10,8,9.8,7.9,9.7,7.8c-0.2-0.3-0.6-0.3-0.8,0
			C8.7,7.9,8.5,8,8.4,7.8c-0.2-0.1-0.2-0.3,0-0.5C8.6,7,8.9,6.9,9.3,6.9z"/>
	</g>
</g>
</svg>
