<?xml version="1.0" encoding="utf-8"?>
<!-- Generator: Adobe Illustrator 18.0.0, SVG Export Plug-In . SVG Version: 6.00 Build 0)  -->
<!DOCTYPE svg PUBLIC "-//W3C//DTD SVG 1.1//EN" "http://www.w3.org/Graphics/SVG/1.1/DTD/svg11.dtd">
<svg version="1.1" id="图层_1" xmlns="http://www.w3.org/2000/svg" xmlns:xlink="http://www.w3.org/1999/xlink" x="0px" y="0px"
	 viewBox="0 0 39.1 63.1" enable-background="new 0 0 39.1 63.1" xml:space="preserve">
<g>
	<g id="XMLID_75_">
		<path fill="#573415" d="M39.1,19.9V38c0,10.8-8.8,19.6-19.6,19.6h0C8.8,57.5,0,48.8,0,38V19.6C0,8.7,8.9-0.1,19.8,0
			C30.6,0.1,39.1,9.1,39.1,19.9z"/>
	</g>
	<g id="XMLID_74_">
		<path fill="#573415" d="M39.1,29.1v15.8c0,9.4-8.8,17-19.6,17h0C8.8,61.9,0,54.3,0,44.9v-16c0-9.5,8.9-17.1,19.8-17
			C30.6,12,39.1,19.8,39.1,29.1z"/>
	</g>
	<g id="XMLID_73_">
		<path fill="#FBD5A1" d="M31.8,30.6H7.3c-2.5,0-4.6-2-4.6-4.6l0,0c0-2.5,2-4.6,4.6-4.6h24.5c2.5,0,4.6,2,4.6,4.6l0,0
			C36.4,28.6,34.3,30.6,31.8,30.6z"/>
	</g>
	<g id="XMLID_72_">
		<circle fill="#FBD5A1" cx="19.6" cy="21.3" r="15"/>
	</g>
	<g id="XMLID_71_">
		<path fill="#573415" d="M1.8,23.6h3.6c5.2,0,9.4-4.2,9.4-9.4v0l0,0c3.4,5.8,9.6,9.4,16.3,9.4h6.1v-1.3c0-9.8-7.9-17.7-17.7-17.7h0
			c-9.8,0-17.7,7.9-17.7,17.7V23.6z"/>
	</g>
	<g id="XMLID_70_">
		<path fill="#FD76E5" d="M36.1,63.1H4.1V43.4c0-2.8,4.6-5.1,10.4-5.1h11.3c5.7,0,10.4,2.3,10.4,5.1V63.1z"/>
	</g>
	<g id="XMLID_69_">
		<path fill="#FBD5A1" d="M19.6,42c-2.5,0-4.5-2-4.5-4.5v-4.8c0-2.5,2-4.5,4.5-4.5s4.5,2,4.5,4.5v4.8C24,40,22,42,19.6,42z"/>
	</g>
</g>
</svg>
