<?xml version="1.0" encoding="utf-8"?>
<!-- Generator: Adobe Illustrator 18.0.0, SVG Export Plug-In . SVG Version: 6.00 Build 0)  -->
<!DOCTYPE svg PUBLIC "-//W3C//DTD SVG 1.1//EN" "http://www.w3.org/Graphics/SVG/1.1/DTD/svg11.dtd">
<svg version="1.1" id="图层_1" xmlns="http://www.w3.org/2000/svg" xmlns:xlink="http://www.w3.org/1999/xlink" x="0px" y="0px"
	 viewBox="0 0 51.1 59.2" enable-background="new 0 0 51.1 59.2" xml:space="preserve">
<g>
	<path fill="none" stroke="#94C164" stroke-width="2" stroke-miterlimit="10" d="M25.5,58.1C-2.2,38.6,1.1,9.6,1.1,9.6
		S6.9,8.9,14.5,6c3.6-1.4,6.3-2.9,8.1-4c1.8-1.1,4.1-1.1,5.8,0c1.8,1.2,4.5,2.6,8.1,4c7.6,2.9,13.4,3.6,13.4,3.6
		S53.3,38.6,25.5,58.1z"/>
	<g id="yl30z8.tif_1_">
		<g>
			<g>
				<path fill="#94C164" d="M23.1,31.4c0.2-0.3,0.3-0.5,0.5-0.7c3.1-3.1,6.1-6.1,9.2-9.2c0.1-0.1,0.3-0.3,0.4-0.4
					c0.6-0.5,1.1-0.5,1.5-0.1c0.4,0.4,0.4,1-0.1,1.5C30.8,26.4,27,30.2,23.2,34c0,0-0.1,0.1-0.2,0.1c-0.1-0.1-0.3-0.2-0.4-0.3
					c-1.5-1.5-3.1-3.1-4.6-4.6c-0.6-0.6-0.7-1.2-0.2-1.6c0.5-0.5,1-0.4,1.6,0.2C20.7,28.9,21.8,30.1,23.1,31.4z"/>
			</g>
		</g>
	</g>
</g>
</svg>
