<?xml version="1.0" encoding="utf-8"?>
<!-- Generator: Adobe Illustrator 18.0.0, SVG Export Plug-In . SVG Version: 6.00 Build 0)  -->
<!DOCTYPE svg PUBLIC "-//W3C//DTD SVG 1.1//EN" "http://www.w3.org/Graphics/SVG/1.1/DTD/svg11.dtd">
<svg version="1.1" id="图层_1" xmlns="http://www.w3.org/2000/svg" xmlns:xlink="http://www.w3.org/1999/xlink" x="0px" y="0px"
	 viewBox="0 0 51.1 59.2" enable-background="new 0 0 51.1 59.2" xml:space="preserve">
<path fill="none" stroke="#94C164" stroke-width="2" stroke-miterlimit="10" d="M25.5,58.1C-2.2,38.6,1.1,9.6,1.1,9.6
	S6.9,8.9,14.5,6c3.6-1.4,6.3-2.9,8.1-4c1.8-1.1,4.1-1.1,5.8,0c1.8,1.2,4.5,2.6,8.1,4c7.6,2.9,13.4,3.6,13.4,3.6S53.3,38.6,25.5,58.1
	z"/>
<path fill="#94C164" d="M32.1,26.5h-5.2l4.9-7l-0.4-0.3l-0.9-0.5L25,26.4l-5.4-7.8l-1.3,0.8l4.9,7.1h-5.2V28h6.2l0,1.9h-6.2v1.6h6.2
	v4.6h1.5v-4.6h6.2V30l-3.4,0c-0.9,0-1.8,0-2.8,0c0-0.4,0-0.8,0-1.2l0-0.7h6.2V26.5z"/>
</svg>
