<?xml version="1.0" encoding="utf-8"?>
<!-- Generator: Adobe Illustrator 18.0.0, SVG Export Plug-In . SVG Version: 6.00 Build 0)  -->
<!DOCTYPE svg PUBLIC "-//W3C//DTD SVG 1.1//EN" "http://www.w3.org/Graphics/SVG/1.1/DTD/svg11.dtd">
<svg version="1.1" id="图层_1" xmlns="http://www.w3.org/2000/svg" xmlns:xlink="http://www.w3.org/1999/xlink" x="0px" y="0px"
	 viewBox="0 0 51.1 59.2" enable-background="new 0 0 51.1 59.2" xml:space="preserve">
<g>
	<path fill="none" stroke="#94C164" stroke-width="2" stroke-miterlimit="10" d="M25.5,58.1C-2.2,38.6,1.1,9.6,1.1,9.6
		S6.9,8.9,14.5,6c3.6-1.4,6.3-2.9,8.1-4c1.8-1.1,4.1-1.1,5.8,0c1.8,1.2,4.5,2.6,8.1,4c7.6,2.9,13.4,3.6,13.4,3.6
		S53.3,38.6,25.5,58.1z"/>
	<path fill="#94C164" d="M36.2,25.1c-0.1-0.3-0.3-0.4-0.6-0.5c0,0-0.1,0-0.1,0l-0.1,0l-2.6,0c-1.3,0-2.6,0-4,0c0,0-0.1,0-0.1-0.1
		c-0.4-1.4-0.9-2.8-1.4-4.2l-0.7-2.2c-0.1-0.2-0.2-0.6-0.7-0.6c-0.5,0-0.6,0.4-0.7,0.6l-0.9,2.6c-0.4,1.2-0.8,2.5-1.3,3.8
		c-0.6,0-1.2,0-1.7,0l-4.8,0l-0.2,0c0,0-0.1,0-0.1,0c-0.3,0-0.6,0.2-0.6,0.5c0,0.2,0.1,0.4,0.1,0.5c0.1,0.1,0.1,0.2,0.2,0.2l0.7,0.5
		c1.6,1.1,3.1,2.3,4.7,3.4c0,0,0.1,0,0,0.1c-0.4,1.2-0.8,2.5-1.2,3.7l-0.5,1.5c-0.1,0.4-0.3,0.8-0.4,1.2c-0.1,0.3,0,0.6,0.2,0.8
		c0.1,0.1,0.2,0.1,0.4,0.1c0.1,0,0.3,0,0.4-0.1l1.1-0.8c1.5-1.1,2.9-2.1,4.3-3.2c0,0,0,0,0,0c0,0,0,0,0.1,0c1.1,0.8,2.3,1.6,3.4,2.5
		l2,1.5c0.2,0.2,0.6,0.3,0.9,0.1c0.3-0.2,0.3-0.5,0.2-0.9L31.8,34c-0.4-1.4-0.9-2.8-1.4-4.2c0,0,0,0,0.1,0c1.3-0.9,2.5-1.8,3.8-2.7
		l1-0.7c0.3-0.2,0.5-0.4,0.8-0.6C36.2,25.6,36.3,25.4,36.2,25.1z M29.1,30l1.6,4.8l-4.2-3c-0.1-0.1-0.3-0.2-0.5-0.2
		c-0.2,0-0.3,0.1-0.5,0.2l-4.2,3c0.5-1.6,1-3.2,1.6-4.8c0.2-0.6,0.1-0.8-0.4-1.1l-4.1-3l5.2,0c0.5,0,0.7-0.1,0.8-0.6l1.6-4.9
		l1.6,4.9c0.1,0.4,0.3,0.6,0.8,0.6l5.2,0l-4.1,3C29,29.3,28.9,29.5,29.1,30z"/>
</g>
</svg>
