<?xml version="1.0" encoding="utf-8"?>
<!-- Generator: Adobe Illustrator 18.0.0, SVG Export Plug-In . SVG Version: 6.00 Build 0)  -->
<!DOCTYPE svg PUBLIC "-//W3C//DTD SVG 1.1//EN" "http://www.w3.org/Graphics/SVG/1.1/DTD/svg11.dtd">
<svg version="1.1" id="图层_1" xmlns="http://www.w3.org/2000/svg" xmlns:xlink="http://www.w3.org/1999/xlink" x="0px" y="0px"
	 viewBox="0 0 412.4 372.6" enable-background="new 0 0 412.4 372.6" xml:space="preserve">
<g>
	<ellipse opacity="0.32" fill="#52722E" cx="203.7" cy="355.9" rx="71.7" ry="16.8"/>
	<path fill="#F6D797" d="M238.1,249.7h-60.8c-4.4,0-8-3.6-8-8v-6.4c0-4.4,3.6-8,8-8h60.8c4.4,0,8,3.6,8,8v6.4
		C246.1,246.1,242.5,249.7,238.1,249.7z"/>
	<path fill="#EEEEEE" d="M176.7,241.3c0,0,31.7,12.1,51.2,1.9s16.8,65.2,16.8,65.2l-77.3,0.9L176.7,241.3z"/>
	<path fill="#080720" d="M159.9,307.4c0,0,1.9,16.8,14,16.8c12.1,0,56.8,0,60.5,0c3.7,0,15.8-7.5,14.9-15.8L159.9,307.4z"/>
	<path fill="#080720" d="M196.5,323.4c0,0-6.3,43-16.4,40.5c-10.1-2.4-18.2-18.5-18.5-20.6c0,0-7,9.4-10.8,11.5
		c-3.8,2.1-7.3-18.9,4.5-22.4l1.7-0.3l-2.8-2.4l2.8-4.5c0,0,9.4,2.4,14.7,7.7c5.1,5.1,5.6-9.4,5.6-9.4H196.5z"/>
	<path fill="#080720" d="M211.6,323.3c0,0,4.3,43.2,14.6,41.2s19-17.7,19.4-19.7c0,0,6.5,9.7,10.3,12c3.7,2.3,8.2-18.5-3.5-22.5
		l-1.7-0.4l2.9-2.3l-2.6-4.7c0,0-9.5,2-15,7c-5.4,4.9-5.2-9.7-5.2-9.7L211.6,323.3z"/>
	<rect x="169.2" y="255.3" fill="#C9481A" width="70.6" height="8.4"/>
	<rect x="171.3" y="275.8" fill="#C9481A" width="70.6" height="8.4"/>
	<rect x="171.3" y="294.6" fill="#C9481A" width="70.6" height="8.4"/>
	<path fill="#FCE3AF" d="M121.8,150.1c0,0-11.8-13.8-10.9-21.2c3.8-29.6,31.4-23.2,35.6-20.4c4.2,2.8-20.8,5.5-20.8,5.5
		s22,1.6,25.2,5.1c3.2,3.5-22.7-0.1-22.7-0.1s23.4,3.8,24.9,7.8c1.5,4-18.1-2.6-18.1-2.6s21.4,6.2,20,12.2
		c-0.5,2.1-5.3-4.4-13.2-3.7c-29.8,2.8,0.3,0.2,3,5.2c-0.7,4.2-14.3,6.7-14.6,6.9C123.7,149.6,121.8,150.1,121.8,150.1z"/>
	<polygon fill="#1F5885" points="108.5,129.8 125.3,149.5 121,161 101.1,144.4 	"/>
	<g>
		<path fill="#2E6293" d="M101.9,142.6c0,0,16,14.6,19.5,17.4c0,0-15.8,47.3-14.4,57.8l43.8,1.4c0,0,7.6,10.7,17.3,11.4l-4,17.8
			l-25.1,1.4H88.9c0,0-16-3.5-12.5-25.1C79.9,203.1,83.6,176.4,101.9,142.6z"/>
		<path fill="#2E6293" d="M180.2,240.7l-10.8-9.1l-40.7,4.1l15.2,13.5c0,0,14.4,26.4,13,36.8c-1.4,10.4-11.9,26.3-2.8,26.3
			c9.1,0,18.2,0.6,18.2,0.6s13.3-26.3,13.3-44.6C185.4,249.9,180.2,240.7,180.2,240.7z"/>
		<path fill="#1F5885" d="M187.9,242c-0.2-0.9-0.8-1.6-1.6-2.2c-2.3-1.6-8.1-6.1-11.9-6.5c-2.7-0.3-4.2-2.1-6.4-2.8
			c-17.1-4.6-16-14.5-19-10.7c-9.2,11.4,31.6,22,33.5,28c8.2,27.1-11.2,65-10.3,65c0,0,13.4-29,15.4-44.9
			C188.4,260.8,189.5,247.6,187.9,242z"/>
	</g>
	<g>
		<path fill="#FCE3AF" d="M288.1,149.6c0,0,13-10,11.8-19.7c-3.6-29.6-32.3-24.7-36.5-21.9s20.8,5.5,20.8,5.5s-22,1.6-25.2,5.1
			c-3.2,3.5,22.7-0.1,22.7-0.1s-23.4,3.8-24.9,7.8c-1.5,4,18.1-2.6,18.1-2.6s-21.4,6.2-20,12.2c0.5,2.1,5.3-4.4,13.2-3.7
			c29.8,2.8-0.3,0.2-3,5.2c0.7,4.2,14.3,6.7,14.6,6.9C286.1,149.1,288.1,149.6,288.1,149.6z"/>
		<g>
			<path fill="#2E6293" d="M307.9,142c0,0-16.6,13.1-20.1,15.9c0,0,16.4,48.8,15,59.3l-43.8,1.4c0,0-7.6,10.7-17.3,11.4l4,17.8
				l25.1,1.4h50.1c0,0,16-3.5,12.5-25.1C330,202.6,326.2,175.9,307.9,142z"/>
			<path fill="#2E6293" d="M229.6,240.1l10.8-9.1l40.7,4.1L266,248.6c0,0-14.4,26.4-13,36.8c1.4,10.4,11.9,26.3,2.8,26.3
				s-18.2,0.6-18.2,0.6s-13.3-26.3-13.3-44.6C224.4,249.4,229.6,240.1,229.6,240.1z"/>
			<path fill="#1F5885" d="M221.9,241.4c0.2-0.9,0.8-1.6,1.6-2.2c2.3-1.6,8.1-6.1,11.9-6.5c2.7-0.3,4.2-2.1,6.4-2.8
				c17.1-4.6,16-14.5,19-10.7c9.2,11.4-31.6,22-33.5,28c-8.2,27.1,11.2,65,10.3,65c0,0-13.4-29-15.4-44.9
				C221.4,260.3,220.3,247.1,221.9,241.4z"/>
		</g>
	</g>
	<path fill="#FCE3AF" d="M206.3,236.4c-37,1.2-60.3-13.7-59.4-28.1v-96.1c0-7.8,7.5-14.2,16.8-14.2H244c9.2,0,16.8,6.4,16.8,14.2
		v96.1C260.5,225.5,243.3,235.2,206.3,236.4z"/>
	<path fill="#310303" d="M221.8,142.8c5.3-9.6,17.3-10,23.5-0.4c0.4,0.6-0.3,1.4-0.9,1c-9.1-5.1-17.8-1.7-21.6,0.3
		C222.2,144.1,221.5,143.4,221.8,142.8z"/>
	<path fill="#310303" d="M167.2,144.5c5.3-9.2,16.9-9.5,23.1-0.4c0.5,0.7-0.3,1.6-1.1,1.2c-8.7-4.7-17.1-1.7-20.9,0.3
		C167.5,146,166.8,145.2,167.2,144.5z"/>
	<path fill="#310303" d="M182.5,164.6l3.8-3.5c0,0-10.1-9.8-23.8-4.2c0,0,8.7-1.4,12.2,1.7c0,0-11.2,0.7-15,7
		C159.8,165.6,172.7,155.5,182.5,164.6z"/>
	<path fill="#310303" d="M232.2,163.2l-3.8-3.5c0,0,10.1-9.8,23.8-4.2c0,0-8.7-1.4-12.2,1.7c0,0,11.2,0.7,15,7
		C254.9,164.2,242,154.1,232.2,163.2z"/>
	<g>
		<path fill="#FCF7EC" stroke="#EADBCC" stroke-width="0.75" stroke-miterlimit="10" d="M182.4,205c0,0-9.4,5.9-11.2,17.5
			c0,0,22.7-5.2,33.9-4.5s26.2,6.6,27.6,7.7c1.4,1,5.6-13.3-1-18.9C231.6,206.7,192.9,210.2,182.4,205z"/>
		<g opacity="0.6">
			<path opacity="0.5" fill="#2E0303" d="M235.1,214.7c-16.2,0-31.3-0.2-42.7-0.5c-17.9-0.5-17.9-1.1-17.9-1.5h0.5
				c0-0.1,0-0.1-0.1-0.1c1.1,0.8,24.4,1.6,60.2,1.6V214.7z"/>
		</g>
	</g>
	<path opacity="0.8" fill="#CFA481" d="M206.5,177c0,0-8.4,2.8-7.5,8.4s0.9,5.6,0.9,5.6S185.1,178.9,206.5,177z"/>
	<g opacity="0.6">
		<path fill="#FFFFFF" d="M306.2,57.9l-2.4,3.9l-4-2.5l2.4-3.9L306.2,57.9z M304.8,51.7c0.8-0.9,1-1.2,1.8-2.6
			c1.3-2.1,2.6-3.2,4.6-4c1.5-0.6,2.1-0.7,5.5-0.8c2.1-0.1,3.2-0.3,4.2-0.5c1.6-0.4,2.8-1.3,3.6-2.5c1.9-3.1,0.5-6.9-3.4-9.3
			c-2.7-1.7-5.3-2.1-7.7-1.2c-1.3,0.5-2.1,1-3.6,2.5l-3.1-2.7c2.7-2.5,4.4-3.4,7-3.7c2.9-0.4,6.1,0.4,9.3,2.4
			c5.7,3.5,7.8,9.3,5.1,13.7c-1,1.6-2.1,2.6-3.5,3.4c-1.5,0.8-2.7,1.1-6,1.3c-3.5,0.2-4.5,0.3-5.6,0.8c-1.4,0.6-2.4,1.5-3.4,3.1
			c-0.4,0.7-0.8,1.4-1.2,2.4L304.8,51.7z"/>
	</g>
	<g opacity="0.3">
		<path fill="#FFFFFF" d="M387.3,52.6l-2.4,1.9l-1.9-2.5l2.4-1.9L387.3,52.6z M387.9,48.3c0.7-0.4,0.9-0.5,1.7-1.2
			c1.3-1,2.4-1.4,3.8-1.4c1.1,0,1.5,0.1,3.7,0.8c1.4,0.4,2,0.6,2.7,0.7c1.1,0.1,2.1-0.2,2.8-0.7c1.9-1.5,2-4.2,0.1-6.6
			c-1.3-1.7-2.9-2.5-4.6-2.6c-0.9,0-1.5,0.2-2.8,0.7l-1.3-2.4c2.3-0.9,3.6-1.1,5.2-0.7c1.9,0.4,3.7,1.7,5.3,3.7
			c2.7,3.5,2.7,7.7,0,9.8c-1,0.8-1.9,1.2-3,1.3c-1.1,0.1-1.9,0-4-0.6c-2.2-0.7-2.9-0.9-3.7-0.8c-1,0-1.9,0.4-2.9,1.2
			c-0.4,0.3-0.8,0.7-1.3,1.2L387.9,48.3z"/>
	</g>
	<g opacity="0.8">
		<path fill="#FFFFFF" d="M36.6,92.4c-0.5-1.7-0.8-2.2-1.9-4.3c-1.7-3.4-2-5.9-1.5-9c0.4-2.4,0.8-3.2,3.3-7.7
			c1.5-2.8,2.2-4.2,2.6-5.7c0.7-2.3,0.5-4.6-0.4-6.5c-2.4-4.8-8.4-6.1-14.5-3c-4.2,2.1-6.8,5.2-7.6,8.9c-0.4,2-0.3,3.5,0.4,6.5
			l-5.9,1.9c-1-5.4-0.8-8.2,0.7-11.8c1.7-4,5.3-7.4,10.4-10c8.9-4.5,18-2.7,21.5,4.2c1.2,2.5,1.7,4.7,1.6,7
			c-0.2,2.5-0.8,4.3-3.1,8.6c-2.5,4.6-3.1,6-3.4,7.8c-0.4,2.2,0,4.3,1.3,6.8c0.5,1,1.1,2.1,2,3.4L36.6,92.4z M45.6,95.5l3.1,6.1
			l-6.3,3.1l-3.1-6.1L45.6,95.5z"/>
	</g>
	<g opacity="0.4">
		<path fill="#FFFFFF" d="M105.8,24.8c-0.3-0.7-0.5-0.9-1.1-1.8c-0.9-1.4-1.2-2.5-1.2-3.9c0.1-1.1,0.2-1.5,1-3.6
			c0.5-1.3,0.7-2,0.9-2.7c0.2-1.1,0-2.1-0.5-2.9c-1.3-2-4.1-2.2-6.6-0.5c-1.8,1.2-2.7,2.7-2.9,4.4c-0.1,0.9,0.1,1.6,0.5,2.9
			l-2.5,1.2c-0.7-2.3-0.8-3.6-0.3-5.3c0.5-1.9,1.9-3.6,4.1-5c3.7-2.5,7.9-2.2,9.8,0.7c0.7,1,1,2,1.1,3.1c0.1,1.1-0.1,1.9-0.9,4
			c-0.9,2.2-1.1,2.8-1.1,3.6c0,1,0.2,1.9,0.9,3c0.3,0.4,0.6,0.9,1.1,1.4L105.8,24.8z M110,25.7l1.7,2.5l-2.6,1.7l-1.7-2.5L110,25.7z
			"/>
	</g>
	<g>
		<path fill="#404141" d="M284.2,122.7l10.3-0.8c0,0-8.3-8.9-12.9-9.5c-3.9-8.8-14.3-23.7-14.3-23.7s-4.4-6.5,2.2-7.6
			s12.6,13.8,12.6,13.8s0.7,14.7,1.6,5.3c1.3-13.9-11.7-20.1-14.5-22.3c-2.7-2.2,7.5-13.9,7.5-13.9c-3.6-5-10.2-4.9-13.8-4.7
			c-0.3-0.9-1.7-3.9-9.8-4.9C242,53,228.1,68.6,227,65.3c-1.1-3.3,14.7-18.5,14.7-18.5c-4.9-3.3-35.4,12-35.4,12
			c-2.7-2.2,6.5-14.7,6.5-14.7c-22.6,1.5-30,24.5-34.9,26.2c-4.1,1.4-1-12.4,0.2-17c-9.7,3.9-25.8,35.6-25.8,35.6
			c-6.5,1.1-14.7,9.3-14.7,9.3c-1.1-7.6,16.9-23.4,16.9-23.4s-5.4-4.9-21.8,23.4c-3,5.2-4.6,11.3-5.3,17.8h-18.2
			c4.2,8.3,20.5,12.7,20.5,12.7s-6.9,10.1-10.2,12.1c-3.4,2,19.6-5.6,19.6-5.6l0.9,22.4l7.5,6.5l1.4-17.3h-0.1v-23.5l1.2-1
			l104.6-4.9l4.8,8.1l0.8,6.3c0.6-0.3,0.3,0.3,0.3,0.3l1.5,33l5.6-8.4l2.8-12.1c0,0,0,0,3.7-5.6c3.2-4.9,1.1-11.6,0.5-13.2l2-0.1
			l15.8,2.1l-7.9-3.7C284.3,123.4,284.3,123.1,284.2,122.7z M231.3,66.9c19.6-18.9,28.4-9.6,31-7.6
			C250.1,60.3,231.3,66.9,231.3,66.9z"/>
	</g>
	<g>
		<path fill="#FCE3AF" d="M149.5,155.3c0,0-17.9-23.7-19.9,13.3c-2,37,17.3,22.3,17.3,22.3L149.5,155.3z"/>
		<g opacity="0.6">
			<path fill="#E2A286" d="M137.7,182.1c-0.5,0-1-0.1-1.5-0.5c-2.6-2.3,1.3-11.6,3.1-15.5l1.8,0.8c-2.9,6.2-4.6,12.3-3.6,13.2
				c0,0,0.5,0.3,2.6-1c5.2-3.4,3.9-9.3,1.9-13.6c-1.3-2.7-2.8-4.7-2.8-4.7l1.6-1.2c0.1,0.1,1.6,2.1,3,5.1c3.3,7.1,2.4,12.8-2.6,16
				C140.6,181.1,139.1,182.1,137.7,182.1z"/>
		</g>
	</g>
	<g>
		<path fill="#FCE3AF" d="M259.6,159.1c0,0,19.6-22.4,18.9,14.7c-0.7,37-18.9,21-18.9,21V159.1z"/>
		<g opacity="0.6">
			<path fill="#E2A286" d="M269.6,186.7c-1.4,0-3-1.2-3.6-1.7c-4.7-3.6-5.2-9.4-1.4-16.2c1.6-2.8,3.3-4.7,3.4-4.8l1.5,1.3
				c0,0-1.6,1.9-3.1,4.5c-2.3,4.1-4,9.9,0.9,13.7c2,1.5,2.5,1.2,2.5,1.2c1-0.7-0.3-7.1-2.7-13.4l1.8-0.7c1.5,4,4.8,13.6,2,15.7
				C270.5,186.6,270,186.7,269.6,186.7z"/>
		</g>
	</g>
</g>
<polygon fill="#1F5885" points="300.4,130.3 283.5,148.5 287.9,158.2 308.5,143 "/>
</svg>
