<?xml version="1.0" encoding="utf-8"?>
<!-- Generator: Adobe Illustrator 18.0.0, SVG Export Plug-In . SVG Version: 6.00 Build 0)  -->
<!DOCTYPE svg PUBLIC "-//W3C//DTD SVG 1.1//EN" "http://www.w3.org/Graphics/SVG/1.1/DTD/svg11.dtd">
<svg version="1.1" id="图层_1" xmlns="http://www.w3.org/2000/svg" xmlns:xlink="http://www.w3.org/1999/xlink" x="0px" y="0px"
	 viewBox="0 0 273.2 150" enable-background="new 0 0 273.2 150" xml:space="preserve">
<g>
	<g>
		<g id="XMLID_29_">
			<g id="XMLID_34_">
				<circle fill="#CF4F6F" cx="163" cy="92.8" r="9.4"/>
			</g>
			<g id="XMLID_33_">
				<path fill="#CF4F6F" d="M150.9,112.5h-14.3c-1.5,0-2.7-1.2-2.7-2.7l0,0c0-1.5,1.2-2.7,2.7-2.7h14.3c1.5,0,2.7,1.2,2.7,2.7l0,0
					C153.6,111.3,152.4,112.5,150.9,112.5z"/>
			</g>
			<g id="XMLID_32_">
				<path fill="#CF4F6F" d="M153,117.3h-2c-1,0-1.9-0.8-1.9-1.9s0.8-1.9,1.9-1.9h2c0.5,0,0.9-0.4,0.9-0.9v-5.1
					c0-2.5,2.1-4.6,4.6-4.6c1,0,1.9,0.8,1.9,1.9c0,1-0.8,1.9-1.9,1.9c-0.5,0-0.9,0.4-0.9,0.9v5.1C157.6,115.3,155.5,117.3,153,117.3
					z"/>
			</g>
			<g id="XMLID_31_">
				<path fill="#CF4F6F" d="M159.8,106.8h-1.3c-1,0-1.9-0.8-1.9-1.9c0-1,0.8-1.9,1.9-1.9h1.3c1,0,1.9,0.8,1.9,1.9
					C161.6,106,160.8,106.8,159.8,106.8z"/>
			</g>
			<g id="XMLID_30_">
				<path fill="#CF4F6F" d="M163,105.8c-1.5,0-2.8-1.3-2.8-2.8v-3c0-1.5,1.3-2.8,2.8-2.8s2.8,1.3,2.8,2.8v3
					C165.8,104.6,164.6,105.8,163,105.8z"/>
			</g>
		</g>
		<g id="XMLID_28_">
			<circle fill="#EAB362" cx="118.4" cy="88.9" r="9.8"/>
		</g>
		<g id="XMLID_27_">
			<path fill="#573415" d="M172.9,91.9v11.4c0,6.8-5.5,12.3-12.3,12.3h0c-6.8,0-12.3-5.5-12.3-12.3V91.7c0-6.8,5.6-12.3,12.4-12.3
				C167.5,79.6,172.9,85.2,172.9,91.9z"/>
		</g>
		<g id="XMLID_26_">
			<path fill="#573415" d="M172.9,99.3v11.4c0,6.8-5.5,12.3-12.3,12.3h0c-6.8,0-12.3-5.5-12.3-12.3V99.2c0-6.8,5.6-12.3,12.4-12.3
				C167.5,87,172.9,92.6,172.9,99.3z"/>
		</g>
		<g id="XMLID_25_">
			<path fill="#FF75FF" d="M170.5,106.8h-6.1c-1,0-1.9-0.8-1.9-1.9c0-1,0.8-1.9,1.9-1.9h6.1c2.1,0,3.7-1.7,3.7-3.7v-9.8
				c0-1,0.8-1.9,1.9-1.9c1,0,1.9,0.8,1.9,1.9v9.8C178,103.5,174.6,106.8,170.5,106.8z"/>
		</g>
		<g id="XMLID_24_">
			<path fill="#EAB362" d="M126.7,92.9h-16.5c-1.7,0-3.1-1.4-3.1-3.1l0,0c0-1.7,1.4-3.1,3.1-3.1h16.5c1.7,0,3.1,1.4,3.1,3.1l0,0
				C129.8,91.6,128.4,92.9,126.7,92.9z"/>
		</g>
		<g id="XMLID_23_">
			<path fill="#FDD7A3" d="M176.1,93.3c-1.8,0-3.3-1.5-3.3-3.3v-1.7c0-1.8,1.5-3.3,3.3-3.3s3.3,1.5,3.3,3.3V90
				C179.4,91.8,177.9,93.3,176.1,93.3z"/>
		</g>
		<g id="XMLID_22_">
			<path fill="#FDD7A3" d="M168.3,98.7h-15.4c-1.6,0-2.9-1.3-2.9-2.9l0,0c0-1.6,1.3-2.9,2.9-2.9h15.4c1.6,0,2.9,1.3,2.9,2.9l0,0
				C171.1,97.4,169.9,98.7,168.3,98.7z"/>
		</g>
		<g id="XMLID_21_">
			<circle fill="#FDD7A3" cx="160.6" cy="92.8" r="9.4"/>
		</g>
		<g id="XMLID_20_">
			<rect x="108.8" y="99.3" fill="#5E2994" width="19.3" height="25.1"/>
		</g>
		<g id="XMLID_19_">
			<path fill="#FFFF62" d="M147.7,124.4h-13.4V122c0-2.4,1.9-4.3,4.3-4.3h4.7c2.4,0,4.3,1.9,4.3,4.3V124.4z"/>
		</g>
		<g id="XMLID_18_">
			<path fill="#5E2994" d="M110.3,104.9H106c-4.6,0-8.4-3.8-8.4-8.4v-9.8c0-1.5,1.3-2.8,2.8-2.8c1.5,0,2.8,1.3,2.8,2.8v9.8
				c0,1.5,1.3,2.8,2.8,2.8h4.3c1.5,0,2.8,1.3,2.8,2.8C113.1,103.7,111.9,104.9,110.3,104.9z"/>
		</g>
		<g id="XMLID_17_">
			<path fill="#EAB362" d="M100.4,90.1c-1.8,0-3.3-1.5-3.3-3.3v-1.7c0-1.8,1.5-3.3,3.3-3.3s3.3,1.5,3.3,3.3v1.7
				C103.6,88.6,102.2,90.1,100.4,90.1z"/>
		</g>
		<g id="XMLID_16_">
			<path fill="#5E2994" d="M133.6,104.9v7.9h0.5c1.5,0,2.8,1.3,2.8,2.8c0,1.5-1.3,2.8-2.8,2.8h-0.5c-3.1,0-5.5-2.5-5.5-5.5v-7.9
				c-1.5,0-2.7-1.3-2.7-2.8c0-1.5,1.3-2.8,2.8-2.8"/>
		</g>
		<g id="XMLID_15_">
			<path fill="#FDD7A3" d="M148.5,112.5h-14.3c-1.5,0-2.7-1.2-2.7-2.7l0,0c0-1.5,1.2-2.7,2.7-2.7h14.3c1.5,0,2.7,1.2,2.7,2.7l0,0
				C151.2,111.3,150,112.5,148.5,112.5z"/>
		</g>
		<g id="XMLID_14_">
			<circle fill="#FDD7A3" cx="141.2" cy="107.9" r="8.7"/>
		</g>
		<g id="XMLID_13_">
			<path fill="#EAB362" d="M118.4,103.2c-1.5,0-2.8-1.3-2.8-2.8v-3c0-1.5,1.3-2.8,2.8-2.8c1.5,0,2.8,1.3,2.8,2.8v3
				C121.2,101.9,120,103.2,118.4,103.2z"/>
		</g>
		<g id="XMLID_12_">
			<path fill="#FDD7A3" d="M141.2,120.3c-1.5,0-2.8-1.3-2.8-2.8v-3c0-1.5,1.3-2.8,2.8-2.8s2.8,1.3,2.8,2.8v3
				C144,119,142.7,120.3,141.2,120.3z"/>
		</g>
		<g id="XMLID_10_">
			<g id="XMLID_11_">
				<path fill="#573415" d="M151.3,106.5c0-5.6-4.5-10.1-10.1-10.1s-10.1,4.5-10.1,10.1c0,0.8,0.1,1.6,0.3,2.4H151
					C151.2,108.2,151.3,107.4,151.3,106.5z"/>
			</g>
		</g>
		<g id="XMLID_9_">
			<path fill="#573415" d="M149.5,94.3h2.2c3.3,0,5.9-2.7,5.9-5.9v0l0,0c2.1,3.7,6,5.9,10.2,5.9h3.8v-0.8c0-6.1-5-11.1-11.1-11.1h0
				c-6.1,0-11.1,5-11.1,11.1V94.3z"/>
		</g>
		<g id="XMLID_8_">
			<path fill="#573415" d="M107.1,89l3.8-3.8l0,0c2.3,2.3,5.5,3.6,8.8,3.6h10.1v-1.5c0-6.3-5.1-11.4-11.4-11.4h0
				c-6.3,0-11.4,5.1-11.4,11.4V89z"/>
		</g>
		<g id="XMLID_7_">
			<path fill="#FF76E7" d="M150.6,117.3h-2c-1,0-1.9-0.8-1.9-1.9s0.8-1.9,1.9-1.9h2c0.5,0,0.9-0.4,0.9-0.9v-5.1
				c0-2.5,2.1-4.6,4.6-4.6c1,0,1.9,0.8,1.9,1.9c0,1-0.8,1.9-1.9,1.9c-0.5,0-0.9,0.4-0.9,0.9v5.1
				C155.2,115.3,153.1,117.3,150.6,117.3z"/>
		</g>
		<g id="XMLID_6_">
			<path fill="#FDD7A3" d="M147.5,121.2c-1.6,0-2.9-1.3-2.9-2.9v-0.7c0-1.6,1.3-2.9,2.9-2.9s2.9,1.3,2.9,2.9v0.7
				C150.4,119.9,149.1,121.2,147.5,121.2z"/>
		</g>
		<g id="XMLID_5_">
			<path fill="#EAB362" d="M134.6,121.2c-1.6,0-2.9-1.3-2.9-2.9v-0.7c0-1.6,1.3-2.9,2.9-2.9s2.9,1.3,2.9,2.9v0.7
				C137.6,119.9,136.2,121.2,134.6,121.2z"/>
		</g>
		<g id="XMLID_3_">
			<g id="XMLID_4_">
				<path fill="#FF76E7" d="M166.7,106.7c0.3-1.9-1.2-3.7-3.2-3.7h-1.4h-3h-1.4c-2,0-3.5,1.7-3.2,3.7v17.7l0,0h4.6h3h4.6l0,0V106.7z
					"/>
			</g>
		</g>
		<g id="XMLID_2_">
			<path fill="#FF76E7" d="M157.3,106.8h-1.3c-1,0-1.9-0.8-1.9-1.9c0-1,0.8-1.9,1.9-1.9h1.3c1,0,1.9,0.8,1.9,1.9
				C159.2,106,158.4,106.8,157.3,106.8z"/>
		</g>
		<g id="XMLID_1_">
			<path fill="#FDD7A3" d="M160.6,105.8c-1.5,0-2.8-1.3-2.8-2.8v-3c0-1.5,1.3-2.8,2.8-2.8c1.5,0,2.8,1.3,2.8,2.8v3
				C163.4,104.6,162.1,105.8,160.6,105.8z"/>
		</g>
	</g>
	<g>
		<polygon fill="#EDB85D" points="114.6,50.5 109.2,32.3 104.9,41.2 		"/>
		<polygon fill="#EDB85D" points="136.2,44.5 139.5,33.8 141.3,40.6 		"/>
		<polygon fill="#EDB85D" points="99.1,50.1 91,46 89.6,50.3 		"/>
		<polygon fill="#EDB85D" points="94.5,64.1 79.8,61 79.4,67.2 		"/>
		<polygon fill="#EDB85D" points="76.5,89.5 64.4,100.6 74.8,97.6 		"/>
		<path fill="#E93E13" d="M16.5,3"/>
		<g>
			<polygon fill="#D4D1E8" points="5.5,32.8 7.4,39.2 15.1,42.8 15.3,37.5 			"/>
			<polygon fill="#D4D1E8" points="4.7,41.8 0,47 12,47.5 15.1,42.8 			"/>
			<g>
				
					<rect x="-1.4" y="47.3" transform="matrix(0.9407 0.3392 -0.3392 0.9407 18.0772 -6.672)" fill="#C19177" width="59" height="2.2"/>
			</g>
			<polygon fill="#A2AAC7" points="56.9,54.4 53.5,63.2 64.6,62.5 			"/>
		</g>
		<g>
			<polygon fill="#D4D1E8" points="273.2,32.9 266.6,32.2 260.3,37.8 265.1,40 			"/>
			<polygon fill="#D4D1E8" points="265.3,28.7 262.3,22.3 257.1,33.1 260.3,37.8 			"/>
			<g>
				
					<rect x="220.5" y="46.5" transform="matrix(-0.6807 0.7325 -0.7325 -0.6807 455.1053 -103.1324)" fill="#C19177" width="59" height="2.2"/>
			</g>
			<polygon fill="#A2AAC7" points="233.2,71.8 226.4,65.2 222.7,75.6 			"/>
		</g>
		<g>
			<path fill="#E93E13" d="M82,34.9"/>
			<polygon fill="#D4D1E8" points="63.6,0 62.3,4.4 65.3,9.5 67.5,6.5 			"/>
			<polygon fill="#D4D1E8" points="59.7,4.9 55,6.1 61.7,11.1 65.3,9.5 			"/>
			<g>
				
					<rect x="50.1" y="17.1" transform="matrix(0.5891 0.8081 -0.8081 0.5891 43.4597 -49.7525)" fill="#C19177" width="41.2" height="1.6"/>
			</g>
			<polygon fill="#A2AAC7" points="85,32.6 79.5,36.4 86.2,40.3 			"/>
		</g>
		<g>
			<path fill="#E93E13" d="M97.2,138"/>
			<polygon fill="#D4D1E8" points="76.1,144.6 78.4,145.8 81.5,144.6 80,143.1 			"/>
			<polygon fill="#D4D1E8" points="78.3,147.3 78.5,150 82,146.8 81.5,144.6 			"/>
			<g>
				
					<rect x="75.1" y="142.1" transform="matrix(0.9011 -0.4336 0.4336 0.9011 -53.2298 51.6446)" fill="#C19177" width="23.1" height="0.9"/>
			</g>
			<polygon fill="#A2AAC7" points="96.2,136.1 97.7,139.5 100.6,136.2 			"/>
		</g>
		<path fill="#E93E13" d="M125.5,142.5"/>
		<polygon fill="#D4D1E8" points="118.7,136.7 119.5,139.2 122.5,140.5 122.5,138.5 		"/>
		<polygon fill="#D4D1E8" points="118.4,140.2 116.6,142.3 121.3,142.4 122.5,140.5 		"/>
		<g>
			<polygon fill="#C19177" points="125.5,142.5 116.6,139.3 116.8,138.5 125.8,141.7 			"/>
		</g>
		<g>
			<polygon fill="#C19177" points="166.7,141.7 161.7,139.1 161.9,138.3 166.9,140.9 			"/>
		</g>
		<g>
			<polygon fill="#C19177" points="128.1,144.3 133.7,145 133.8,145.9 128.2,145.1 			"/>
		</g>
		<polygon fill="#A2AAC7" points="135,137.6 133.8,141 138.1,140.7 		"/>
		<g>
			<path fill="#E93E13" d="M171.1,140.8"/>
			<polygon fill="#D4D1E8" points="183.3,139.3 181.2,137.7 178,138.2 179.1,139.9 			"/>
			<polygon fill="#D4D1E8" points="181.5,136.2 181.9,133.5 177.9,136 178,138.2 			"/>
			<g>
				<polygon fill="#C19177" points="171.1,140.9 183.6,135.9 183.8,136.8 171.3,141.7 				"/>
			</g>
			<polygon fill="#A2AAC7" points="162.8,149.5 161.9,145.9 158.5,148.5 			"/>
		</g>
		<g>
			<path fill="#E93E13" d="M174.7,51"/>
			<polygon fill="#D4D1E8" points="199.1,33.9 195.7,33.3 192.1,36.1 194.6,37.4 			"/>
			<polygon fill="#D4D1E8" points="195.1,31.4 193.7,28 190.6,33.5 192.1,36.1 			"/>
			<g>
				
					<rect x="170.9" y="40.3" transform="matrix(-0.7285 0.6851 -0.6851 -0.7285 350.1829 -57.0973)" fill="#C19177" width="31" height="1.2"/>
			</g>
			<polygon fill="#A2AAC7" points="176.7,52.9 173.4,49.2 171.1,54.6 			"/>
		</g>
		<g>
			<path fill="#E93E13" d="M83.6,82.7"/>
			<polygon fill="#D4D1E8" points="44.5,77.2 47.3,80.9 53.2,81.4 52.1,77.9 			"/>
			<polygon fill="#D4D1E8" points="46.2,83.2 44.4,87.8 52.4,85.3 53.2,81.4 			"/>
			<g>
				
					<rect x="42.5" y="81.2" transform="matrix(1 -5.039105e-03 5.039105e-03 1 -0.4121 0.319)" fill="#C19177" width="41.2" height="1.6"/>
			</g>
			<polygon fill="#A2AAC7" points="83.4,79 83.3,85.6 90.4,82.4 			"/>
		</g>
		<g>
			<g>
				<polygon fill="#C19177" points="119.4,17.8 131.3,45.3 130,46.1 118.1,18.6 				"/>
			</g>
			<polygon fill="#A2AAC7" points="116.3,19.8 122.2,16.9 116.2,12 			"/>
		</g>
		<g>
			<g>
				<path fill="#FFFFFF" d="M183.3,124.6H92.6V85.1c0-0.7,0.1-1.4,0.2-2.1c1.1-6.1,8.5-36.7,44.9-36.7c0.9,0,1.8,0,2.8,0.1
					c9.8,0.4,18.2,2.8,24.9,7c5.4,3.4,9.6,8.1,12.7,13.8c5.3,9.7,5.3,19.1,5.3,19.5V124.6z M93.7,123.5h88.5V86.7
					c0-0.1,0-9.5-5.1-19c-3-5.6-7.2-10-12.4-13.4c-6.5-4.2-14.7-6.5-24.3-6.8c-0.9,0-1.8-0.1-2.7-0.1c-35.5,0-42.7,29.8-43.8,35.8
					c-0.1,0.6-0.2,1.3-0.2,1.9V123.5z"/>
			</g>
			<g>
				<path fill="#D0A82C" d="M88.1,126.3h99.5l-1.9,1.8c-0.4,0.4-1,0.6-1.6,0.6H91.6c-0.5,0-1-0.2-1.4-0.6L88.1,126.3z"/>
			</g>
			<g>
				<path fill="#F7BF4C" d="M88.1,126.3h99.5l-1.9-1.8c-0.4-0.4-1-0.6-1.6-0.6H91.6c-0.5,0-1,0.2-1.4,0.6L88.1,126.3z"/>
			</g>
			<g opacity="0.5">
				<g>
					<path fill="#F1F1F3" d="M103.1,124c0,0,0.5,1.1,0-34.8c-0.5-35.9,27.4-42.3,27.4-42.3l-6.9,1.8c-23.8,6.6-29.3,29.2-30.3,34.5
						c-0.1,0.7-0.2,1.3-0.2,2V124H103.1z"/>
				</g>
			</g>
		</g>
		<g opacity="0.8">
			<path fill="#F0F0F2" d="M123.4,63.4c0,0-13.5,13-14.9,19.9c0,0-5.3,1.9,0-7.5C113.7,66.4,120.3,60.6,123.4,63.4z"/>
		</g>
		<g opacity="0.8">
			<path fill="#F0F0F2" d="M105.9,85.8c0,0-0.8,8.6-2.5,5C101.8,87.2,105.9,85.8,105.9,85.8z"/>
		</g>
		<g>
			<path fill="#A9D1D8" d="M199.7,87.6c0,0-7-1.9-15-8.1c0,0-5.6,3.7-20.3,8c0,0,10.9,47.1,42.2,56.6
				C206.6,144.1,217.8,126.6,199.7,87.6z"/>
			<path fill="#C7E2E9" d="M201.8,88.3c0,0-9.1-2.5-17.1-8.8c0,0-2.7,4.2-17.4,8.4c0,0,9.8,46,40.1,56.4c0.7,0.3,1.6-0.1,1.9-0.8
				C211.4,139,217.1,121.4,201.8,88.3z"/>
			<path fill="#FAFAFA" d="M201.4,91c0,0-9.1-2.9-15.8-8.1c0,0-0.7,4.3-13,7.8c0,0,8.6,42.4,34.7,50.3
				C207.3,141,216.4,123.4,201.4,91z"/>
			<g>
				<path fill="#FAFAFA" d="M180.5,113.5c-5.7-11.9-7.9-22.9-7.9-22.9c10.8-3.1,12.7-6.8,13-7.6c0.6,1.2,5.8,11.6,11.1,24.7
					C191.8,107.5,185.9,108.5,180.5,113.5z"/>
				<path fill="#FAFAFA" d="M199.6,108.3c4,0.6,7.2,2,8.8,2.8c3.9,17.9-0.3,28.1-1,29.6c-2.1-10.6-6.2-22.4-10.3-32.7
					C198,108.1,198.8,108.2,199.6,108.3z"/>
				<path fill="#E1E2E2" d="M199.6,108c-0.8-0.1-1.7-0.2-2.7-0.3c-5.2-12.9-10.3-23.1-11.1-24.7c6.7,5.1,15.6,8,15.6,8
					c3.4,7.4,5.6,14,6.9,19.9C206.7,110,203.5,108.6,199.6,108z"/>
				<path fill="#E1E2E2" d="M196.8,108c4.1,10.3,8.3,22.2,10.4,32.8c-12.6-3.9-21.1-15.8-26.5-27C186,108.9,192,107.8,196.8,108z"/>
				<path fill="#16627B" d="M207.4,140.9l-0.1,0c0,0,0-0.1,0.1-0.2C207.4,140.8,207.4,140.9,207.4,140.9z"/>
				<path fill="#16627B" d="M185.7,82.7c0,0,0,0.1,0.1,0.2c-0.1-0.1-0.2-0.1-0.2-0.2L185.7,82.7z"/>
				<path fill="#16627B" d="M185.5,82.9l0.1-0.1c0,0,0,0.1-0.1,0.2C185.5,82.9,185.5,82.9,185.5,82.9z"/>
				<path fill="#16627B" d="M207.2,140.9C207.2,140.9,207.2,140.9,207.2,140.9c0,0,0.1,0,0.1,0L207.2,140.9z"/>
			</g>
		</g>
	</g>
</g>
</svg>
