<?xml version="1.0" encoding="utf-8"?>
<!-- Generator: Adobe Illustrator 18.0.0, SVG Export Plug-In . SVG Version: 6.00 Build 0)  -->
<!DOCTYPE svg PUBLIC "-//W3C//DTD SVG 1.1//EN" "http://www.w3.org/Graphics/SVG/1.1/DTD/svg11.dtd">
<svg version="1.1" id="图层_1" xmlns="http://www.w3.org/2000/svg" xmlns:xlink="http://www.w3.org/1999/xlink" x="0px" y="0px"
	 viewBox="0 0 21.9 22" enable-background="new 0 0 21.9 22" xml:space="preserve">
<g id="oBVnlP.tif_2_">
	<g>
		<path fill="#DCDCDC" d="M7.6,13.1c-0.9-1-1.4-2.1-1.5-3.4c0,0,0,0-0.1,0c-0.8-0.2-1-0.5-1-1.3c0-0.4,0-0.8,0.3-1.2
			c0-0.1,0-0.2,0-0.3c0-0.9,0-1.8,0-2.7c0-2.3,1.8-4.1,4.1-4.2c1,0,2,0,3,0c1.9,0,3.6,1.6,3.8,3.5c0.1,1,0.1,2,0.1,3.1
			c0,0.3,0,0.6,0.2,0.9c0.3,0.5,0.2,1.1,0,1.6c-0.1,0.4-0.5,0.5-0.8,0.5c-0.2,0.6-0.2,1.3-0.5,1.8c-0.2,0.6-0.6,1.1-1,1.6
			c0.3,0.1,0.7,0.2,1.1,0.3c2.1,0.6,3.9,1.5,5.6,2.9c0.6,0.4,0.8,1,0.8,1.7c0,0.9,0,1.7,0,2.6c0,0.9-0.6,1.5-1.5,1.5
			c-5.2,0-10.4,0-15.7,0c-1.1,0-2.2,0-3.3,0C0.6,22,0,21.4,0,20.5c0-0.8,0-1.7,0-2.5c0-0.7,0.3-1.3,0.9-1.8
			C2.9,14.7,5.1,13.6,7.6,13.1z M10.9,21.3c3.2,0,6.3,0,9.5,0c0.5,0,0.8-0.2,0.8-0.8c0-0.9,0-1.8,0-2.6c0-0.5-0.2-0.8-0.6-1.1
			c-1.3-1-2.8-1.8-4.3-2.4c-0.2-0.1-0.4-0.1-0.6,0.1c-1.3,1.3-3,2-4.9,2c-1.9,0-3.5-0.7-4.8-2c-0.2-0.2-0.3-0.2-0.5-0.1
			c-1.6,0.6-3,1.4-4.3,2.4C0.9,17,0.7,17.5,0.7,18c0,0.8,0,1.6,0,2.4c0,0.7,0.2,0.9,0.9,0.9C4.7,21.3,7.8,21.3,10.9,21.3z M9.9,4.2
			C9.5,4.9,8.8,5.1,8.1,5.2c-0.7,0-1.2,0.6-1.2,1.3c0,0.2,0,0.4,0,0.6c0,0.3-0.1,0.4-0.4,0.4c-0.2,0-0.3,0-0.4,0.1
			C5.7,7.8,5.7,8.7,6,8.9c0.1,0.1,0.3,0.1,0.4,0.1c0.3,0,0.5,0.1,0.5,0.5c0,0.3,0,0.5,0.1,0.8c0.4,3.1,4,4.6,6.5,2.7
			c1.2-0.9,1.7-2,1.7-3.5c0-0.4,0.1-0.5,0.5-0.5c0.1,0,0.2,0,0.3,0c0.4-0.2,0.2-0.7,0.2-1c0-0.2-0.2-0.3-0.4-0.4c-0.1,0-0.1,0-0.2,0
			c-0.4,0-0.5-0.1-0.5-0.5c0-0.2,0-0.4,0-0.5c0-0.7-0.5-1.3-1.2-1.3c-0.7,0-1.3,0-2,0C11.1,5.2,10.4,4.9,9.9,4.2z M15.8,6.1
			c0-0.8,0-1.5,0-2.3c-0.1-1.5-1.4-3-2.9-3.1c-1.2-0.1-2.4-0.1-3.6,0c-1.4,0.1-2.6,1.1-3,2.4c-0.3,1-0.1,2-0.2,3
			c0.1-0.1,0.1-0.1,0.1-0.1c0.3-1.1,1-1.6,2.1-1.6c0.6,0,1.2-0.5,1.2-1.2c0-0.2,0-0.5,0.4-0.5c0.3,0,0.3,0.3,0.3,0.5
			C10.4,4,11,4.5,11.7,4.5c0.6,0,1.3,0,1.9,0c0.5,0,1,0.1,1.4,0.5C15.4,5.3,15.6,5.7,15.8,6.1z M15.3,14c-0.5-0.1-1-0.2-1.4-0.3
			c-0.1,0-0.3,0-0.4,0.1c-1.6,0.9-3.2,0.9-4.8,0.1c-0.2-0.1-0.5-0.2-0.7-0.1c-0.4,0.1-0.8,0.2-1.3,0.3C8.9,16.4,12.9,16.4,15.3,14z"
			/>
		<path fill="#DCDCDC" d="M9.3,6.6c0.3,0,0.7,0.1,0.9,0.4c0.2,0.2,0.2,0.4,0,0.5C10,7.6,9.8,7.6,9.7,7.4c-0.2-0.3-0.5-0.3-0.8,0
			C8.7,7.6,8.5,7.6,8.3,7.5c-0.2-0.2-0.1-0.4,0-0.5C8.6,6.7,8.9,6.6,9.3,6.6z"/>
		<path fill="#DCDCDC" d="M13.4,7.6c-0.1-0.1-0.2-0.1-0.3-0.2c-0.3-0.3-0.6-0.3-0.8,0c-0.1,0.1-0.3,0.2-0.5,0.1
			c-0.2-0.1-0.2-0.3,0-0.5c0.4-0.6,1.5-0.5,1.9,0.1c0.1,0.1,0.1,0.3,0,0.4C13.6,7.5,13.5,7.5,13.4,7.6z"/>
	</g>
</g>
</svg>
