<?xml version="1.0" encoding="utf-8"?>
<!-- Generator: Adobe Illustrator 18.0.0, SVG Export Plug-In . SVG Version: 6.00 Build 0)  -->
<!DOCTYPE svg PUBLIC "-//W3C//DTD SVG 1.1//EN" "http://www.w3.org/Graphics/SVG/1.1/DTD/svg11.dtd">
<svg version="1.1" id="图层_1" xmlns="http://www.w3.org/2000/svg" xmlns:xlink="http://www.w3.org/1999/xlink" x="0px" y="0px"
	 viewBox="0 0 37.7 39.2" enable-background="new 0 0 37.7 39.2" xml:space="preserve">
<g id="oBVnlP.tif_2_">
	<g>
		<path fill="#FFFFFF" d="M13.1,23.2c-1.5-1.7-2.4-3.6-2.6-5.9c0,0,0,0-0.2,0C9,17,8.6,16.5,8.6,15.1c0-0.7,0-1.4,0.5-2.1
			c0-0.2,0-0.3,0-0.5c0-1.5,0-3.1,0-4.6c0-4,3.1-7.1,7.1-7.2c1.7,0,3.4,0,5.2,0c3.3,0,6.2,2.8,6.5,6c0.2,1.7,0.2,3.4,0.2,5.3
			c0,0.5,0,1,0.3,1.5c0.5,0.9,0.3,1.9,0,2.8c-0.2,0.7-0.9,0.9-1.4,0.9c-0.3,1-0.3,2.2-0.9,3.1c-0.3,1-1,1.9-1.7,2.8
			c0.5,0.2,1.2,0.3,1.9,0.5c3.6,1,6.7,2.6,9.6,5c1,0.7,1.4,1.7,1.4,2.9c0,1.5,0,2.9,0,4.5c0,1.5-1,2.6-2.6,2.6c-9,0-17.9,0-27,0
			c-1.9,0-3.8,0-5.7,0c-1,0-2.1-1-2.1-2.6c0-1.4,0-2.9,0-4.3c0-1.2,0.5-2.2,1.5-3.1C5,26,8.8,24.1,13.1,23.2z M18.8,37.3
			c5.5,0,10.8,0,16.4,0c0.9,0,1.4-0.3,1.4-1.4c0-1.5,0-3.1,0-4.5c0-0.9-0.3-1.4-1-1.9c-2.2-1.7-4.8-3.1-7.4-4.1
			c-0.3-0.2-0.7-0.2-1,0.2c-2.2,2.2-5.2,3.4-8.4,3.4s-6-1.2-8.3-3.4c-0.3-0.3-0.5-0.3-0.9-0.2c-2.8,1-5.2,2.4-7.4,4.1
			c-0.5,0.3-0.9,1.2-0.9,2.1c0,1.4,0,2.8,0,4.1c0,1.2,0.3,1.5,1.5,1.5C8.1,37.3,13.4,37.3,18.8,37.3z M17,7.9
			c-0.7,1.2-1.9,1.5-3.1,1.7c-1.2,0-2.1,1-2.1,2.2c0,0.3,0,0.7,0,1c0,0.5-0.2,0.7-0.7,0.7c-0.3,0-0.5,0-0.7,0.2
			c-0.7,0.3-0.7,1.9-0.2,2.2c0.2,0.2,0.5,0.2,0.7,0.2c0.5,0,0.9,0.2,0.9,0.9c0,0.5,0,0.9,0.2,1.4c0.7,5.3,6.9,7.9,11.2,4.6
			c2.1-1.5,2.9-3.4,2.9-6c0-0.7,0.2-0.9,0.9-0.9c0.2,0,0.3,0,0.5,0c0.7-0.3,0.3-1.2,0.3-1.7c0-0.3-0.3-0.5-0.7-0.7
			c-0.2,0-0.2,0-0.3,0c-0.7,0-0.9-0.2-0.9-0.9c0-0.3,0-0.7,0-0.9c0-1.2-0.9-2.2-2.1-2.2s-2.2,0-3.4,0C19.1,9.6,17.9,9.1,17,7.9z
			 M27.2,11.2c0-1.4,0-2.6,0-4c-0.2-2.6-2.4-5.2-5-5.3c-2.1-0.2-4.1-0.2-6.2,0C13.6,2,11.5,3.8,10.8,6c-0.5,1.7-0.2,3.4-0.3,5.2
			c0.2-0.2,0.2-0.2,0.2-0.2c0.5-1.9,1.7-2.8,3.6-2.8c1,0,2.1-0.9,2.1-2.1c0-0.3,0-0.9,0.7-0.9c0.5,0,0.5,0.5,0.5,0.9
			c0.3,1.4,1.4,2.2,2.6,2.2c1,0,2.2,0,3.3,0c0.9,0,1.7,0.2,2.4,0.9C26.5,9.8,26.9,10.5,27.2,11.2z M26.3,24.8
			c-0.9-0.2-1.7-0.3-2.4-0.5c-0.2,0-0.5,0-0.7,0.2C20.5,26,17.7,26,15,24.6c-0.3-0.2-0.9-0.3-1.2-0.2c-0.7,0.2-1.4,0.3-2.2,0.5
			C15.3,28.9,22.2,28.9,26.3,24.8z"/>
		<path fill="#FFFFFF" d="M16,12c0.5,0,1.2,0.2,1.5,0.7c0.3,0.3,0.3,0.7,0,0.9c-0.3,0.2-0.7,0.2-0.9-0.2c-0.3-0.5-0.9-0.5-1.4,0
			c-0.3,0.3-0.7,0.3-1,0.2c-0.3-0.3-0.2-0.7,0-0.9C14.8,12.2,15.3,12,16,12z"/>
		<path fill="#FFFFFF" d="M23.1,13.7c-0.2-0.2-0.3-0.2-0.5-0.3c-0.5-0.5-1-0.5-1.4,0c-0.2,0.2-0.5,0.3-0.9,0.2
			c-0.3-0.2-0.3-0.5,0-0.9c0.7-1,2.6-0.9,3.3,0.2c0.2,0.2,0.2,0.5,0,0.7C23.4,13.6,23.2,13.6,23.1,13.7z"/>
	</g>
</g>
</svg>
