<?xml version="1.0" encoding="utf-8"?>
<!-- Generator: Adobe Illustrator 18.0.0, SVG Export Plug-In . SVG Version: 6.00 Build 0)  -->
<!DOCTYPE svg PUBLIC "-//W3C//DTD SVG 1.1//EN" "http://www.w3.org/Graphics/SVG/1.1/DTD/svg11.dtd">
<svg version="1.1" id="图层_1" xmlns="http://www.w3.org/2000/svg" xmlns:xlink="http://www.w3.org/1999/xlink" x="0px" y="0px"
	 viewBox="0 0 39.1 63.1" enable-background="new 0 0 39.1 63.1" xml:space="preserve">
<g>
	<g id="XMLID_91_">
		<circle fill="#E8B162" cx="19.4" cy="20.4" r="15.3"/>
	</g>
	<g id="XMLID_90_">
		<path fill="#E8B162" d="M32.4,26.7h-26c-2.7,0-4.8-2.2-4.8-4.8l0,0c0-2.7,2.2-4.8,4.8-4.8h26c2.7,0,4.8,2.2,4.8,4.8l0,0
			C37.2,24.5,35,26.7,32.4,26.7z"/>
	</g>
	<g id="XMLID_89_">
		<path fill="#5E2992" d="M38.2,63H0.9V41.7c0-2.8,5.4-5,12-5h13.2c6.7,0,12,2.2,12,5V63z"/>
	</g>
	<g id="XMLID_88_">
		<path fill="#E8B162" d="M19.4,41.7c-2.4,0-4.4-1.8-4.4-4v-4.4c0-2.2,2-4,4.4-4s4.4,1.8,4.4,4v4.4C23.8,39.9,21.8,41.7,19.4,41.7z"
			/>
	</g>
	<g id="XMLID_87_">
		<path fill="#573415" d="M1.6,20.6l6-6l0,0c3.7,3.7,8.6,5.7,13.8,5.7h15.8v-2.4c0-9.8-8-17.8-17.8-17.8h0C9.6,0.1,1.6,8,1.6,17.9
			V20.6z"/>
	</g>
</g>
</svg>
