<?xml version="1.0" encoding="utf-8"?>
<!-- Generator: Adobe Illustrator 18.0.0, SVG Export Plug-In . SVG Version: 6.00 Build 0)  -->
<!DOCTYPE svg PUBLIC "-//W3C//DTD SVG 1.1//EN" "http://www.w3.org/Graphics/SVG/1.1/DTD/svg11.dtd">
<svg version="1.1" id="图层_1" xmlns="http://www.w3.org/2000/svg" xmlns:xlink="http://www.w3.org/1999/xlink" x="0px" y="0px"
	 viewBox="0 0 40 32" enable-background="new 0 0 40 32" xml:space="preserve">
<g>
	<path fill="#7CC87E" d="M34.5,19.6c-0.3-0.3-0.7-0.3-1,0.1c-0.1,0.1-0.2,0.2-0.3,0.3C31.1,22,29,24,27,26.1
		c-0.1,0.1-0.2,0.3-0.3,0.5c-0.9-0.9-1.7-1.7-2.5-2.5c-0.4-0.4-0.8-0.4-1.1-0.1c-0.3,0.3-0.3,0.7,0.1,1.1c1,1,2.1,2.1,3.1,3.1
		c0.1,0.1,0.2,0.1,0.2,0.2c0.1,0,0.1-0.1,0.1-0.1c2.6-2.6,5.1-5.1,7.7-7.7C34.8,20.3,34.8,19.9,34.5,19.6z"/>
	<path fill="#7CC87E" d="M20.5,29.5l-11.3,0c-1.7,0-2.8-1.1-2.8-2.8c0-7.1,0-14.3,0-21.4c0-1.7,1.1-2.8,2.8-2.8l8.1,0
		c4.5,0,8.9,0,13.4,0c0.3,0,0.6,0,0.8,0.1c1.2,0.3,2,1.3,2,2.7c0,1.9,0,3.9,0,5.8l0,2.8l0,0.1c0,0.1,0,0.2,0,0.3
		c0,0.3,0.2,0.5,0.5,0.5c0.3,0,0.5-0.2,0.5-0.5c0-0.1,0-0.2,0-0.3c0,0,0-0.1,0-0.1V5.3c0-2.3-1.6-3.9-3.9-3.9l-10.7,0l-10.7,0
		C6.9,1.4,5.3,3,5.3,5.3v21.4c0,2.3,1.6,3.9,3.9,3.9l5.7,0h5.7c0.3,0,0.6-0.1,0.7-0.2c0.1-0.1,0.1-0.2,0.1-0.4
		C21.4,29.6,20.9,29.5,20.5,29.5z"/>
	<path fill="#7CC87E" d="M12.7,8.4c0,0,0.1,0,0.1,0l0.2,0l5.3,0l5.4,0l0.2,0c0,0,0.1,0,0.1,0c0.5-0.1,0.6-0.3,0.6-0.6
		c0-0.2-0.1-0.5-0.5-0.5c0,0-0.1,0-0.1,0l-0.1,0l-5.4,0l-5.4,0l-0.1,0c0,0-0.1,0-0.1,0c-0.5,0-0.6,0.3-0.6,0.5
		C12.1,8.2,12.3,8.4,12.7,8.4z"/>
	<path fill="#7CC87E" d="M24.4,11.5c0.1-0.1,0.1-0.2,0.1-0.4c0-0.5-0.5-0.5-0.9-0.5l-4,0c-2.2,0-4.4,0-6.7,0l-0.2,0
		c-0.1,0-0.2,0-0.3,0.1c-0.1,0.1-0.3,0.3-0.3,0.5c0,0.2,0.2,0.3,0.4,0.4c0.1,0,0.1,0,0.2,0c0,0,0.1,0,0.1,0c0,0,0.1,0,0.1,0h10.7
		C24.1,11.7,24.3,11.7,24.4,11.5z"/>
	<path fill="#7CC87E" d="M19,14.9c0.1-0.1,0.1-0.2,0.1-0.4c0-0.2-0.1-0.5-0.7-0.5l-1.1,0l-1.7,0l-0.8,0l-2,0c-0.6,0-0.7,0.3-0.7,0.5
		c0,0.1,0,0.3,0.1,0.4c0.1,0.1,0.3,0.2,0.5,0.2c0.9,0,1.9,0,2.8,0c0.9,0,1.9,0,2.8,0C18.7,15.1,18.9,15,19,14.9z"/>
	<path fill="#7CC87E" d="M15.9,17.3l-1.7,0l-1.4,0c-0.2,0-0.4,0.1-0.5,0.2c-0.1,0.1-0.1,0.2-0.1,0.4c0,0.3,0.2,0.5,0.6,0.5
		c1.3,0,2.6,0,3.9,0h0c0.5,0,0.6-0.3,0.6-0.5c0-0.2,0-0.3-0.1-0.4c-0.1-0.1-0.3-0.2-0.5-0.2C16.4,17.3,16.1,17.3,15.9,17.3z"/>
	<path fill="#7CC87E" d="M10.9,10.2c-0.6,0-1,0.4-1,1c0,0.3,0.1,0.5,0.3,0.7c0.2,0.2,0.4,0.3,0.7,0.3h0c0.3,0,0.5-0.1,0.7-0.3
		c0.2-0.2,0.3-0.4,0.3-0.7C11.9,10.6,11.4,10.2,10.9,10.2z"/>
	<path fill="#7CC87E" d="M10.9,8.9L10.9,8.9c0.6,0,1-0.5,1-1c0-0.6-0.4-1-1-1c-0.6,0-1,0.5-1,1C9.9,8.4,10.3,8.9,10.9,8.9z
		 M10.9,8.7C10.9,8.7,10.9,8.7,10.9,8.7L10.9,8.7L10.9,8.7z"/>
	<path fill="#7CC87E" d="M10.2,18.5c0.2,0.2,0.4,0.3,0.7,0.3h0c0.3,0,0.5-0.1,0.7-0.3c0.2-0.2,0.3-0.4,0.3-0.7c0-0.5-0.4-1-1-1
		c-0.6,0-1,0.4-1,1C9.9,18.1,10,18.3,10.2,18.5z"/>
	<path fill="#7CC87E" d="M10.9,15.5c0.5,0,1-0.4,1-1c0-0.3-0.1-0.5-0.3-0.7c-0.2-0.2-0.4-0.3-0.7-0.3c-0.6,0-1,0.4-1,1
		C9.9,15,10.3,15.5,10.9,15.5L10.9,15.5z"/>
</g>
</svg>
