<?xml version="1.0" encoding="utf-8"?>
<!-- Generator: Adobe Illustrator 18.0.0, SVG Export Plug-In . SVG Version: 6.00 Build 0)  -->
<!DOCTYPE svg PUBLIC "-//W3C//DTD SVG 1.1//EN" "http://www.w3.org/Graphics/SVG/1.1/DTD/svg11.dtd">
<svg version="1.1" id="图层_1" xmlns="http://www.w3.org/2000/svg" xmlns:xlink="http://www.w3.org/1999/xlink" x="0px" y="0px"
	 viewBox="0 0 40 32" enable-background="new 0 0 40 32" xml:space="preserve">
<g id="OwZIMi.tif">
	<g>
		<path fill="#7CC87E" d="M13.6,1.4c6.3-2.9,14.6-1.3,19.3,5.3c4.7,6.6,3.8,15.1-1.6,20.7c-5.6,5.7-14.6,6.2-20.8,1.6
			C3.7,23.8,2.7,15.4,5.4,9.7c0,0,0,0,0.1,0c0.6,0.4,0.7,0.9,0.4,1.6c-2.7,8,1.9,16.7,10,19c6.7,1.9,13.9-1.1,17.2-7.2
			c3-5.6,2.3-12.3-2-17c-2.4-2.6-5.3-4.4-8.9-4.9c-2.4-0.3-4.7,0-7,0.7C14.3,2.2,14.3,2.2,13.6,1.4z"/>
		<path fill="#7CC87E" d="M11.3,13c-0.7,2.5-0.7,4.9,0.6,7.2c1,1.8,2.4,3.2,4.2,4.1c3.4,1.7,7.8,0.9,10.6-1.9
			c2.8-2.9,3.4-7.2,1.6-10.8c-1-2-2.7-3.3-4.7-4.2c-2.1-0.9-4.2-0.8-6.4-0.2c0-0.3,0-0.7,0-0.9c0-0.1,0.2-0.2,0.3-0.3
			c4.1-1.2,8.5,0.4,11,3.9c1.2,1.7,1.9,3.6,2,5.8c0.2,4.9-3.5,9.5-8.4,10.4c-3.4,0.6-6.4-0.1-8.9-2.5c-3-2.8-3.9-6.2-3.1-10.2
			c0.1-0.3,0.2-0.5,0.6-0.4C10.8,13.1,11,13,11.3,13z"/>
		<path fill="#7CC87E" d="M7.3,3.3c0-0.6,0-1.2,0-1.8c0-0.6,0.2-1.1,0.8-1.4C8.6-0.1,9.1,0,9.7,0.5c0.9,0.9,1.9,1.8,2.8,2.8
			c0.6,0.6,1.2,1.2,1.8,1.8c0.5,0.4,0.6,1,0.6,1.6c0,1-0.1,2,0,3c0,0.3,0.2,0.6,0.4,0.8c1.5,1.5,3,3,4.5,4.5
			c0.2,0.2,0.4,0.4,0.6,0.6c0.2,0.2,0.4,0.5,0.1,0.8c-0.2,0.2-0.7,0.1-0.9-0.1c-1.3-1.3-2.6-2.6-3.8-3.9c-0.4-0.4-0.8-0.7-1.1-1.1
			c-0.3-0.4-0.7-0.5-1.2-0.5c-1,0-2,0-3,0c-0.5,0-0.8-0.2-1.1-0.5C7.6,8.8,6.1,7.3,4.6,5.7C4.1,5.3,3.9,4.9,4.1,4.3
			c0.2-0.6,0.6-1,1.3-1C5.9,3.3,6.6,3.3,7.3,3.3z M13.7,9.8c0-1.1,0-2.2,0-3.2c0-0.3-0.2-0.6-0.4-0.8C12,4.3,10.6,3,9.2,1.6
			C9,1.3,8.7,1.1,8.4,0.9c0,0-0.1,0-0.1,0.1c0,1.1,0,2.2,0,3.4c-0.9,0-1.7,0-2.5,0C5.3,4.3,5.1,4.5,5,4.9c0.4,0.3,0.7,0.5,1,0.8
			c1.1,1.1,2.3,2.3,3.4,3.4c0.5,0.5,1.1,0.8,1.9,0.7c0.3,0,0.6,0,1,0C12.7,9.8,13.2,9.8,13.7,9.8z"/>
		<path fill="#7CC87E" d="M15.5,15.3c0.5,0.5,1,0.9,1.2,1.7c0.4,1.6,2,2.7,3.6,2.5c1.7-0.2,3-1.5,3.2-3.1c0.2-1.7-0.9-3.3-2.5-3.7
			c-0.7-0.2-1.2-0.6-1.6-1.1c1.4-0.5,3.6,0.5,4.5,2c1.1,1.8,0.9,4.1-0.6,5.7c-1.5,1.5-3.8,1.8-5.6,0.8C16.1,19.1,15,16.9,15.5,15.3z
			"/>
	</g>
</g>
</svg>
