<?xml version="1.0" encoding="utf-8"?>
<!-- Generator: Adobe Illustrator 18.0.0, SVG Export Plug-In . SVG Version: 6.00 Build 0)  -->
<!DOCTYPE svg PUBLIC "-//W3C//DTD SVG 1.1//EN" "http://www.w3.org/Graphics/SVG/1.1/DTD/svg11.dtd">
<svg version="1.1" id="图形" xmlns="http://www.w3.org/2000/svg" xmlns:xlink="http://www.w3.org/1999/xlink" x="0px" y="0px"
	 viewBox="0 0 1025 1024" enable-background="new 0 0 1025 1024" xml:space="preserve">
<path fill="#999999" d="M1024,422.39999V300.79999c0-32-12.79999-57.59998-44.79999-70.40002
	C960,217.59998,940.79999,217.59998,934.40002,217.59998h-64l12.79999-12.79999c0,0,32-44.79999,25.59998-83.20001
	C902.39996,102.39996,896,83.19995,870.39996,64c-25.59998-12.79999-57.59998-25.59998-83.20001-25.59998
	c-70.40002,0-140.79999,44.79999-185.59998,76.79999C550.39996,153.60004,518.39996,192,518.39996,192l-6.39999,6.40002
	L505.59998,192c0,0-32-38.40002-83.20001-76.79999c-44.79999-32-115.20001-76.79999-185.60001-76.79999
	c-32,0-57.60001,6.40002-83.2,25.59998c-19.2,12.79999-32,32-38.4,57.59998c-6.4,44.79999,25.6,83.20001,25.6,83.20001
	l12.8,12.79999h-64c0,0-25.6,0-44.8,12.79999c-25.6,12.79999-44.8,38.40002-44.8,70.39999v121.60001l0,0c0,0,0,12.79999,6.4,32
	c12.8,19.20001,32,38.39999,57.6,44.79999h12.8l-6.4,6.39999c0,0-6.4,12.79996-6.4,25.60001v364.79999
	c0,6.40002,0,76.79999,89.6,76.79999h352H864c38.40002,0,64-12.79999,76.79999-38.39996
	c12.79999-19.20001,12.79999-38.40002,12.79999-38.40002V531.19995c0-19.20001-6.40002-25.60001-6.40002-25.60001l-6.40002-6.39999
	h12.79999c25.59998-6.39999,51.20001-25.60001,57.59998-44.79999C1024,435.20001,1024,422.39999,1024,422.39999L1024,422.39999z
	 M166.39999,121.59998c6.39999-12.79999,19.2-25.59998,44.8-32l0,0l0,0c6.39999,0,19.2,0,25.60001,0
	c44.8,0,95.99998,19.20001,147.2,57.59998c38.39999,32,64,57.59998,70.39999,57.59998l12.79999,12.79999H217.59998l0,0
	c-32-32-38.39999-51.20001-38.39999-57.59998C166.39999,160,160,140.79999,166.39999,121.59998z M486.39999,940.79999H153.60001l0,0
	c-32,0-44.8-19.20001-44.8-32l0,0v-352c0-44.79999,32-51.19998,38.40001-51.19998l0,0h339.20001L486.39999,940.79999z
	 M492.79999,460.79999H89.59998l0,0c-25.6,0-38.4-32-38.4-32l0,0v-128l0,0c6.4-25.59998,25.6-38.40002,38.4-38.40002l0,0h403.20001
	V460.79999z M576,204.79999c0,0,25.59998-32,70.40002-57.59998c51.20001-38.40002,102.40002-57.59998,147.20001-57.59998
	c6.40002,0,19.20001,0,25.59998,0l0,0l0,0c25.59998,6.40002,38.40002,19.20001,44.79999,32c6.40002,19.20001,0,32-6.40002,38.40002
	c0,6.40002-6.40002,25.59998-38.40002,57.59998l0,0H569.59998L576,204.79999z M908.79999,550.40002v352l0,0
	c0,12.79999-12.79999,32-44.79999,32l0,0H531.20001V499.19998h339.20001l0,0C876.79999,505.60001,915.20001,512,908.79999,550.40002
	z M979.20001,428.79999L979.20001,428.79999c0,0-6.40002,32-38.40002,32l0,0H537.59998V262.40002h403.20001
	c12.79999,0,32,12.79999,38.40002,38.39999l0,0V428.79999z"/>
</svg>
