<?xml version="1.0" encoding="utf-8"?>
<!-- Generator: Adobe Illustrator 18.0.0, SVG Export Plug-In . SVG Version: 6.00 Build 0)  -->
<!DOCTYPE svg PUBLIC "-//W3C//DTD SVG 1.1//EN" "http://www.w3.org/Graphics/SVG/1.1/DTD/svg11.dtd">
<svg version="1.1" id="图层_1" xmlns="http://www.w3.org/2000/svg" xmlns:xlink="http://www.w3.org/1999/xlink" x="0px" y="0px"
	 viewBox="0 0 14.9 14.9" enable-background="new 0 0 14.9 14.9" xml:space="preserve">
<g id="puJd0i.tif_2_">
	<g>
		<path fill="#FFFFFF" d="M4.3,3.3C3.9,3,3.7,2.6,3.6,2.1c-0.2-0.8,0.3-1.6,1-2c0.8-0.4,1.7,0,2.2,0.6c0.2,0.3,0.4,0.6,0.6,1
			c0.2-0.3,0.3-0.5,0.5-0.8c0.2-0.3,0.5-0.6,0.9-0.8c1.2-0.5,2.4,0.3,2.5,1.5c0,0.6-0.1,1.1-0.5,1.5c0,0-0.1,0.1-0.1,0.1
			c0,0,0,0-0.1,0.1c0.1,0,0.2,0,0.2,0c0.8,0,1.5,0,2.3,0c1,0,1.6,0.5,1.7,1.4c0.1,0.7,0.2,1.4-0.4,2c-0.2,0.2-0.4,0.3-0.7,0.4
			c-0.1,0.1-0.2,0.2-0.2,0.3c0,1.8,0,3.7,0,5.5c0,0.9-0.4,1.5-1.3,1.8c-0.1,0-0.2,0-0.2,0c-3,0-5.9,0-8.9,0c-0.8,0-1.5-0.7-1.6-1.4
			c0-0.2,0-0.3,0-0.5c0-1.8,0-3.6,0-5.5c0-0.2,0-0.3-0.3-0.4C0.5,7,0,6.2,0,5.5C0,5.1,0,4.7,0.2,4.3c0.3-0.6,0.8-1,1.5-1
			c0.8,0,1.5,0,2.3,0C4,3.3,4.1,3.3,4.3,3.3z M8.6,10.7c0,1,0,2,0,3c0,0.1,0,0.2,0,0.2c0,0.1,0.1,0.2,0.2,0.2c1,0,2,0,3,0
			c0.6,0,0.9-0.3,1-0.9c0-0.1,0-0.2,0-0.3c0-1.8,0-3.5,0-5.3c0-0.3,0-0.3-0.3-0.3c-1.2,0-2.3,0-3.5,0c-0.4,0-0.4,0-0.4,0.4
			C8.6,8.7,8.6,9.7,8.6,10.7z M6.3,10.7c0-1,0-2.1,0-3.1c0-0.3,0-0.3-0.3-0.3c-1.1,0-2.3,0-3.4,0c-0.4,0-0.4,0-0.4,0.4
			c0,1.7,0,3.4,0,5.2c0,0.8,0.4,1.2,1.2,1.2c0.9,0,1.8,0,2.7,0c0.3,0,0.3,0,0.3-0.3C6.3,12.8,6.3,11.8,6.3,10.7z M11,6.5
			c0.7,0,1.4,0,2.1,0c0.6,0,0.9-0.4,1-0.9c0-0.2,0-0.3,0-0.5c0-0.5-0.3-0.9-0.9-0.9c-1.5,0-3,0-4.4,0c-0.2,0-0.2,0.1-0.2,0.2
			c0,0.6,0,1.2,0,1.9c0,0.2,0.1,0.3,0.3,0.3C9.5,6.5,10.3,6.5,11,6.5z M3.8,4.1C3.8,4.1,3.8,4.1,3.8,4.1c-0.7,0-1.4,0-2.1,0
			c-0.4,0-0.8,0.3-0.9,0.7c0,0.2,0,0.5,0,0.7c0,0.6,0.4,1,1,1c1.4,0,2.8,0,4.2,0c0.3,0,0.3,0,0.3-0.3c0-0.6,0-1.2,0-1.8
			c0-0.3,0-0.3-0.3-0.3C5.2,4.1,4.5,4.1,3.8,4.1z M8.5,3.2C9.1,3.2,9.7,3,10.2,2.5c0.4-0.4,0.4-1.1-0.1-1.5c-0.4-0.4-1-0.3-1.4,0.1
			C8.3,1.6,8.1,2.1,8,2.7C7.9,3.1,8,3.2,8.4,3.2C8.4,3.2,8.4,3.2,8.5,3.2z M6.4,3.2c0.4,0,0.5-0.2,0.5-0.5C6.8,2.1,6.5,1.6,6.1,1.1
			C5.7,0.7,5,0.7,4.6,1.1C4.2,1.5,4.3,2.2,4.7,2.6C5.2,3,5.8,3.2,6.4,3.2z"/>
	</g>
</g>
</svg>
