<?xml version="1.0" encoding="utf-8"?>
<!-- Generator: Adobe Illustrator 18.0.0, SVG Export Plug-In . SVG Version: 6.00 Build 0)  -->
<!DOCTYPE svg PUBLIC "-//W3C//DTD SVG 1.1//EN" "http://www.w3.org/Graphics/SVG/1.1/DTD/svg11.dtd">
<svg version="1.1" id="图层_1" xmlns="http://www.w3.org/2000/svg" xmlns:xlink="http://www.w3.org/1999/xlink" x="0px" y="0px"
	 viewBox="0 0 233 74.9" enable-background="new 0 0 233 74.9" xml:space="preserve">
<g>
	<path fill="#FFFFFF" d="M158.1,14.2h5v-14H174v14h3.1v11.2H174v10c1-0.4,3.4-0.9,3.4-0.9l0.4,11.8c0,0-3.4,0.7-3.8,0.9v18.1
		c0.2,5.2-2.4,8-7.8,8.4c-1.2,0.2-8.8,0.4-8.8,0.4l-0.3-10.6c0,0,3.1,0.2,3.7,0c1.4,0,2.2-0.7,2.2-2.2V50.3l-5.3,1.6l-0.6-12.8
		l5.9-1.2V25.4h-5V14.2z M199.3,49.4l11.1,0l-0.9,8.4c0,0,9.2,3.2,15.9,5.3c3.3,1,5.8,1.9,7.5,2.5l-5.6,9.3
		c-3.5-1.5-8.5-3.5-14.9-6.2c-3.1-1.2-5.5-2.2-7.2-2.8c-3.3,3.9-11.6,6.9-24.9,9c-1.7-2.9-3.4-6-5.3-9.3c14.1-2.1,21.1-4.3,22.4-7.2
		C198.3,56.4,199.5,53.5,199.3,49.4z M177.1,13.9l3.8-11.8l7.1,0l-1.1,4.1l2.7,0V0.2h9.6v5.9h3.7v7.5h-3.7v3.7h4.4v7.8h-3.7v4.4
		c0.4-0.4,4.1-1.9,4.4-1.9c0,0.6,0.3,3.9,0.3,4.4c2.1-2.1,3.2-4.4,3.4-6.8h-4.7v-7.8h12.2v-3.7l-5-0.1l-1,3.5l-6.5-2.8l3.1-12.5h7.2
		l-1.2,4.4l3.3,0V0.2h9.3v5.9h5.9v7.5h-5.9v3.7h7.5v7.8h-6.5v4.7c0,0.6,0.3,0.9,0.9,0.9c0.6,0,0.9-0.3,0.9-0.9
		c0-0.2,0.1-3.3,0.1-3.3l5.3,0.1c0,0-0.2,2.9-0.5,5.7c-0.4,2.7-2.1,4.8-5.5,5h-3.1c-4.2,0.2-6.1-1.9-5.9-6.2v-5.9h-2.2
		c0,5-2,9.4-5.9,13.4h18.7v20.9h-11.2V47.5h-25.2v13.1h-11.5V38.5h1.2c-0.6-0.6-4.7-4.3-5.3-4.7c3.7-2.5,5.6-5.4,5.6-8.7h-4v-7.8
		h11.5v-3.7l-4.7-0.1l-1.2,3.2L177.1,13.9z M189.9,25.1c0,5.4-2.2,9.9-6.5,13.4h9.6l-2.8-5c1.2-1,1.9-2.3,1.9-3.7v-4.7H189.9z
		 M196.7,37.6c-0.8,0.2-1.6,0.5-2.2,0.9H207c-0.4-0.6-1.2-1.4-2.5-2.5c-0.6-0.6-1-1-1.2-1.2C201.2,35.6,199,36.5,196.7,37.6z"/>
	<path fill="#FFFFFF" d="M18.4,32c2.9,4.6,4.4,9.8,4.4,15.6c0.2,8.3-2.6,13-8.4,14c-0.2,0-3.1,0.6-3.7,0.6l-1.2-5v17.4H0V2.7h22.1
		v11.2L18.4,32z M9.3,12.7v38h1.6c1.7,0,2.5-1.8,2.5-5.3c0.2-3.3-0.9-7.6-3.4-12.8l3.7-19.9H9.3z M52,63.1c10.8,0,21.5-0.3,21.5-0.3
		l0,10.2c0,0-18.2-0.1-23-0.3c-10,0.2-16.5-2.2-19.6-7.2c-0.2,0.2-0.5,0.5-0.9,0.9c-1.9,2.3-4.3,5.1-7.2,8.4l-6.5-9.6
		c1-1,2.4-2.4,4-4c2.5-2.7,4.5-4.7,5.9-5.9v-19h-4.4V25.4h14.3v30.5C38.8,60.7,44.1,63.1,52,63.1z M33.6,1.1L38,18.9l-10.3,2.8
		L23.3,3.3L33.6,1.1z M51.4,60.9H42V34.5l-4.8,6.7l0.1-12.7l8.3-12.7h-6.7V6.4h9.7L49,0l10.5,0.1l0,6.3h13.7v9.3H56l-2,3.1h16.6v33
		c0.2,6-2.4,9-7.8,9c-2.9,0-7.8,0-7.8,0l0-7.6c0,0,1.9-0.2,3.7-0.2s2.7-0.8,2.5-2.5V50h-10V60.9z M51.4,27.9v3.4h10v-3.4H51.4z
		 M51.4,38.8v3.7h10v-3.7H51.4z"/>
	<path fill="#FFFFFF" d="M85,23.6l11.8,3.7v-9h13.7v37c-0.2,3.5,1.4,5.2,5,5h4.4c3.1,0,5-1.7,5.6-5c0.2-2.8,0-5.8,0-5.8l13.1,0.2
		c0,0-0.2,9.2-1.3,13.4c-1.5,6.2-6.4,9.2-14.9,9h-10.9c-10,0.2-14.8-4.6-14.6-14.3V28.2l-8.7,28.9l-11.8-4.7L85,23.6z M139.1,22.3
		l14.3,23l-11.5,6.5l-14-23.7L139.1,22.3z"/>
	<g id="O7dTHi.tif">
		<g>
			<path fill="#FFFFFF" d="M124.6,8.6c0.1-0.2,0.2-0.3,0.2-0.5c1-1.9,2.3-3.4,4.4-4.2c2.9-1.1,6.1-0.2,7.8,2.3
				c1.7,2.6,2.2,5.4,1.2,8.3c-0.5,1.6-1.7,2.8-3,3.7c-1.2,0.9-2.5,1.7-3.8,2.5c-2.4,1.5-4.4,3.3-6.1,5.6c-0.1,0.2-0.3,0.4-0.4,0.6
				c-0.1,0.2-0.2,0.4-0.3,0.5c-0.6-0.8-1.2-1.7-1.9-2.5c-1.7-2-3.9-3.4-6.1-4.8c-1.2-0.7-2.4-1.5-3.4-2.4c-2.3-1.9-3.1-4.4-2.7-7.3
				c0.2-1.7,0.7-3.3,1.8-4.7c2.3-2.9,6.3-3.4,9.2-1.2c1.2,0.9,2.1,2.1,2.7,3.5C124.4,8.3,124.5,8.4,124.6,8.6z"/>
		</g>
	</g>
</g>
</svg>
