<?xml version="1.0" encoding="utf-8"?>
<!-- Generator: Adobe Illustrator 18.0.0, SVG Export Plug-In . SVG Version: 6.00 Build 0)  -->
<!DOCTYPE svg PUBLIC "-//W3C//DTD SVG 1.1//EN" "http://www.w3.org/Graphics/SVG/1.1/DTD/svg11.dtd">
<svg version="1.1" id="图层_1" xmlns="http://www.w3.org/2000/svg" xmlns:xlink="http://www.w3.org/1999/xlink" x="0px" y="0px"
	 viewBox="0 0 39.8 35.1" enable-background="new 0 0 39.8 35.1" xml:space="preserve">
<path fill-rule="evenodd" clip-rule="evenodd" fill="#FFFFFF" d="M39.8,12.8c0-0.4,0-0.3-0.4-0.3h-4.4h-7.5l-1.8-3.1L20.8,0
	c-0.4,0-0.4,0-0.9,0l-4.4,9.3l-1.8,3.1H6.3H0v0.2l2.5,1.8l7,6.2L7.9,34.7c0,0.4,0.1,0.4,1,0.4l11.5-7.1l11.5,7.1
	c0.4,0,0.5,0,0.9-0.4l-2.2-14.1l6.6-5.7L39.8,12.8z M10.7,26.3l12.8-10.4l-11.9-2h18.1l-11,10l11.5,2.5H10.7z"/>
</svg>
