<?xml version="1.0" encoding="utf-8"?>
<!-- Generator: Adobe Illustrator 18.0.0, SVG Export Plug-In . SVG Version: 6.00 Build 0)  -->
<!DOCTYPE svg PUBLIC "-//W3C//DTD SVG 1.1//EN" "http://www.w3.org/Graphics/SVG/1.1/DTD/svg11.dtd">
<svg version="1.1" id="图层_1" xmlns="http://www.w3.org/2000/svg" xmlns:xlink="http://www.w3.org/1999/xlink" x="0px" y="0px"
	 viewBox="0 0 39.8 35.1" enable-background="new 0 0 39.8 35.1" xml:space="preserve">
<g>
	<path fill-rule="evenodd" clip-rule="evenodd" fill="#FFFFFF" d="M26.8,11.3c0.4,0,0.9,0,1.3,0.1c-1.2-5.6-7.2-9.7-14-9.7
		C6.6,1.7,0.4,6.8,0.4,13.4c0,3.8,2.1,6.9,5.5,9.3l-1.4,4.2l4.8-2.4c1.7,0.3,3.1,0.7,4.8,0.7c0.4,0,0.9,0,1.3-0.1
		c-0.3-0.9-0.4-1.9-0.4-2.9C15,16.2,20.2,11.3,26.8,11.3z M19.4,7.5c1,0,1.7,0.7,1.7,1.7c0,1-0.7,1.7-1.7,1.7c-1,0-2.1-0.7-2.1-1.7
		C17.3,8.2,18.3,7.5,19.4,7.5z M9.7,11c-1,0-2.1-0.7-2.1-1.7c0-1,1-1.7,2.1-1.7c1,0,1.7,0.7,1.7,1.7C11.4,10.3,10.7,11,9.7,11z"/>
	<path fill-rule="evenodd" clip-rule="evenodd" fill="#FFFFFF" d="M39.4,22.1c0-5.5-5.5-10-11.7-10c-6.6,0-11.8,4.5-11.8,10
		c0,5.5,5.2,10,11.8,10c1.4,0,2.8-0.3,4.1-0.7l3.8,2.1l-1-3.5C37.3,27.9,39.4,25.2,39.4,22.1z M23.9,20.3c-0.7,0-1.4-0.7-1.4-1.4
		c0-0.7,0.7-1.4,1.4-1.4c1,0,1.7,0.7,1.7,1.4C25.6,19.6,24.9,20.3,23.9,20.3z M31.5,20.3c-0.7,0-1.4-0.7-1.4-1.4
		c0-0.7,0.7-1.4,1.4-1.4c1,0,1.7,0.7,1.7,1.4C33.2,19.6,32.5,20.3,31.5,20.3z"/>
</g>
</svg>
