<?xml version="1.0" encoding="utf-8"?>
<!-- Generator: Adobe Illustrator 18.0.0, SVG Export Plug-In . SVG Version: 6.00 Build 0)  -->
<!DOCTYPE svg PUBLIC "-//W3C//DTD SVG 1.1//EN" "http://www.w3.org/Graphics/SVG/1.1/DTD/svg11.dtd">
<svg version="1.1" id="图层_1" xmlns="http://www.w3.org/2000/svg" xmlns:xlink="http://www.w3.org/1999/xlink" x="0px" y="0px"
	 viewBox="0 0 39.8 35.1" enable-background="new 0 0 39.8 35.1" xml:space="preserve">
<g>
	<path fill="#FFFFFF" d="M28.9,17.2c-1.5-0.3-0.7-1.1-0.7-1.1s1.4-2.4-0.3-4.1c-2.1-2.1-7.3,0.3-7.3,0.3c-2,0.6-1.4-0.3-1.2-1.8
		c0-1.8-0.6-4.8-5.8-3c-5.2,1.8-9.7,8.1-9.7,8.1C0.8,19.7,1.2,23,1.2,23c0.8,7.1,8.3,9.1,14.2,9.5c6.2,0.5,14.5-2.1,17.1-7.5
		C35,19.6,30.4,17.5,28.9,17.2z M15.8,30.5c-6.1,0.3-11.1-2.8-11.1-6.9c0-4.1,5-7.4,11.1-7.7c6.1-0.3,11.1,2.2,11.1,6.3
		C26.9,26.3,22,30.2,15.8,30.5z"/>
	<path fill="#FFFFFF" d="M14.6,18.6c-6.2,0.7-5.5,6.5-5.5,6.5s-0.1,1.8,1.7,2.8c3.6,2,7.3,0.8,9.2-1.7
		C21.9,23.8,20.8,17.9,14.6,18.6z M13.1,26.7c-1.2,0.1-2.1-0.5-2.1-1.5c0-1,0.8-2,2-2.1c1.3-0.1,2.2,0.6,2.2,1.6
		C15.1,25.7,14.2,26.6,13.1,26.7z M16.7,23.6c-0.4,0.3-0.9,0.3-1.1-0.1c-0.2-0.3-0.1-0.9,0.3-1.2c0.5-0.3,0.9-0.2,1.1,0.1
		C17.2,22.8,17.1,23.3,16.7,23.6z"/>
	<path fill="#FFFFFF" d="M31.9,14.7c0.5,0,0.9-0.4,1-0.8c0,0,0-0.1,0-0.1c0.8-6.8-5.6-5.6-5.6-5.6c-0.6,0-1,0.5-1,1c0,0.6,0.4,1,1,1
		c4.5-1,3.5,3.5,3.5,3.5C30.9,14.2,31.3,14.7,31.9,14.7z"/>
	<path fill="#FFFFFF" d="M31.2,2.8c-2.2-0.5-4.4-0.1-5.1,0c0,0-0.1,0.1-0.1,0.1c0,0,0,0,0,0c-0.6,0.2-1.1,0.7-1.1,1.4
		c0,0.8,0.7,1.5,1.5,1.5c0,0,0.8-0.1,1.3-0.3c0.5-0.2,5.1-0.2,7.3,3.6c1.2,2.7,0.5,4.6,0.5,4.9c0,0-0.3,0.7-0.3,1.4
		c0,0.8,0.7,1.3,1.5,1.3c0.7,0,1.2-0.1,1.4-1.2h0C40.4,7.5,35.1,3.7,31.2,2.8z"/>
</g>
</svg>
