<?xml version="1.0" encoding="iso-8859-1"?>
<!-- Generator: Adobe Illustrator 18.0.0, SVG Export Plug-In . SVG Version: 6.00 Build 0)  -->
<!DOCTYPE svg PUBLIC "-//W3C//DTD SVG 1.0//EN" "http://www.w3.org/TR/2001/REC-SVG-20010904/DTD/svg10.dtd" [
	<!ENTITY ns_extend "http://ns.adobe.com/Extensibility/1.0/">
	<!ENTITY ns_ai "http://ns.adobe.com/AdobeIllustrator/10.0/">
	<!ENTITY ns_graphs "http://ns.adobe.com/Graphs/1.0/">
	<!ENTITY ns_vars "http://ns.adobe.com/Variables/1.0/">
	<!ENTITY ns_imrep "http://ns.adobe.com/ImageReplacement/1.0/">
	<!ENTITY ns_sfw "http://ns.adobe.com/SaveForWeb/1.0/">
	<!ENTITY ns_custom "http://ns.adobe.com/GenericCustomNamespace/1.0/">
	<!ENTITY ns_adobe_xpath "http://ns.adobe.com/XPath/1.0/">
]>
<svg version="1.0" id="&#x56FE;&#x5C42;_1" xmlns:x="&ns_extend;" xmlns:i="&ns_ai;" xmlns:graph="&ns_graphs;"
	 xmlns="http://www.w3.org/2000/svg" xmlns:xlink="http://www.w3.org/1999/xlink" x="0px" y="0px" width="25px" height="30px"
	 viewBox="0 0 25 30" enable-background="new 0 0 25 30" xml:space="preserve">
<metadata>
	<sfw  xmlns="&ns_sfw;">
		<slices></slices>
		<sliceSourceBounds  height="28.41" width="24.42" bottomLeftOrigin="true" x="0.29" y="-29.2"></sliceSourceBounds>
	</sfw>
</metadata>
<g>
	<path fill-rule="evenodd" clip-rule="evenodd" fill="#FFFFFF" d="M7.85,0.92l1.46,2.12c0.96-0.39,2.02-0.61,3.13-0.61
		c1.17,0,2.29,0.24,3.29,0.67l1.53-2.21c0.06-0.09,0.19-0.12,0.28-0.05l0.04,0.03c0.09,0.06,0.12,0.19,0.05,0.28l-1.48,2.15
		c2.14,1.08,3.67,3.06,3.99,5.4H4.76C5.08,6.3,6.68,4.28,8.89,3.22L7.48,1.17C7.42,1.08,7.44,0.96,7.54,0.89l0.04-0.03
		C7.66,0.8,7.79,0.83,7.85,0.92L7.85,0.92z M15.82,4.84c0.42,0,0.77,0.34,0.77,0.77c0,0.42-0.34,0.77-0.77,0.77
		c-0.42,0-0.77-0.34-0.77-0.77C15.06,5.19,15.4,4.84,15.82,4.84L15.82,4.84z M9.21,4.84c0.42,0,0.77,0.34,0.77,0.77
		c0,0.42-0.34,0.77-0.77,0.77c-0.42,0-0.77-0.34-0.77-0.77C8.44,5.19,8.78,4.84,9.21,4.84L9.21,4.84z"/>
	<path fill-rule="evenodd" clip-rule="evenodd" fill="#FFFFFF" d="M1.82,9.81h0.34c0.84,0,1.53,0.88,1.53,1.96v6.28
		C3.69,19.12,3,20,2.16,20H1.82c-0.84,0-1.53-0.88-1.53-1.96v-6.28C0.29,10.69,0.98,9.81,1.82,9.81L1.82,9.81z"/>
	<path fill-rule="evenodd" clip-rule="evenodd" fill="#FFFFFF" d="M22.84,9.84h0.34c0.84,0,1.53,0.88,1.53,1.96v6.28
		c0,1.08-0.69,1.96-1.53,1.96h-0.34c-0.84,0-1.53-0.88-1.53-1.96V11.8C21.31,10.72,22,9.84,22.84,9.84L22.84,9.84z"/>
	<path fill-rule="evenodd" clip-rule="evenodd" fill="#FFFFFF" d="M11.13,23.66v3.54c0,1.08-0.69,1.96-1.53,1.96H9.26
		c-0.84,0-1.53-0.88-1.53-1.96v-3.54H6.33c-0.86,0-1.56-0.7-1.56-1.56V9.71h15.49V22.1c0,0.86-0.7,1.56-1.56,1.56H17.4v3.58
		c0,1.08-0.69,1.96-1.53,1.96h-0.34c-0.84,0-1.53-0.88-1.53-1.96v-3.58H11.13L11.13,23.66z"/>
</g>
</svg>
