<?xml version="1.0" encoding="iso-8859-1"?>
<!-- Generator: Adobe Illustrator 18.0.0, SVG Export Plug-In . SVG Version: 6.00 Build 0)  -->
<!DOCTYPE svg PUBLIC "-//W3C//DTD SVG 1.0//EN" "http://www.w3.org/TR/2001/REC-SVG-20010904/DTD/svg10.dtd" [
	<!ENTITY ns_extend "http://ns.adobe.com/Extensibility/1.0/">
	<!ENTITY ns_ai "http://ns.adobe.com/AdobeIllustrator/10.0/">
	<!ENTITY ns_graphs "http://ns.adobe.com/Graphs/1.0/">
	<!ENTITY ns_vars "http://ns.adobe.com/Variables/1.0/">
	<!ENTITY ns_imrep "http://ns.adobe.com/ImageReplacement/1.0/">
	<!ENTITY ns_sfw "http://ns.adobe.com/SaveForWeb/1.0/">
	<!ENTITY ns_custom "http://ns.adobe.com/GenericCustomNamespace/1.0/">
	<!ENTITY ns_adobe_xpath "http://ns.adobe.com/XPath/1.0/">
]>
<svg version="1.0" id="&#x56FE;&#x5C42;_1" xmlns:x="&ns_extend;" xmlns:i="&ns_ai;" xmlns:graph="&ns_graphs;"
	 xmlns="http://www.w3.org/2000/svg" xmlns:xlink="http://www.w3.org/1999/xlink" x="0px" y="0px" width="8px" height="13px"
	 viewBox="0 0 8 13" enable-background="new 0 0 8 13" xml:space="preserve">
<metadata>
	<sfw  xmlns="&ns_sfw;">
		<slices></slices>
		<sliceSourceBounds  height="13" width="8" bottomLeftOrigin="true" x="235" y="394"></sliceSourceBounds>
	</sfw>
</metadata>
<g>
	<path fill="#999999" enable-background="new    " d="M7,13H1c-0.55,0-1-0.45-1-1V1c0-0.55,0.45-1,1-1h6c0.55,0,1,0.45,1,1v11
		C8,12.55,7.55,13,7,13z"/>
	<rect x="0.83" y="0.92" fill="#F6F6F8" width="6.33" height="9.93"/>
	<path fill="#FFFFFF" d="M4.63,12.05H3.37c-0.09,0-0.16-0.07-0.16-0.16v-0.01c0-0.09,0.07-0.16,0.16-0.16h1.25
		c0.09,0,0.16,0.07,0.16,0.16v0.01C4.79,11.98,4.72,12.05,4.63,12.05z"/>
</g>
</svg>
