<?xml version="1.0" encoding="utf-8"?>
<!-- Generator: Adobe Illustrator 18.0.0, SVG Export Plug-In . SVG Version: 6.00 Build 0)  -->
<!DOCTYPE svg PUBLIC "-//W3C//DTD SVG 1.1//EN" "http://www.w3.org/Graphics/SVG/1.1/DTD/svg11.dtd">
<svg version="1.1" id="图层_1" xmlns="http://www.w3.org/2000/svg" xmlns:xlink="http://www.w3.org/1999/xlink" x="0px" y="0px"
	 viewBox="0 0 72.53 76.71" enable-background="new 0 0 72.53 76.71" xml:space="preserve">
<g id="P2Bar3.tif_1_">
	<g>
		<path fill="#FFFFFF" stroke="#FFFFFF" stroke-width="3" stroke-miterlimit="10" d="M36.26,74c-10.65,0-21.3,0-31.95,0
			c-0.83,0-0.84-0.06-0.62-0.92c0.86-3.26,2.89-5.61,5.65-7.43c2.03-1.33,4.23-2.3,6.46-3.21c2.3-0.94,4.61-1.85,6.86-2.89
			c1.98-0.92,3.83-2.08,5.18-3.86c0.79-1.04,1.36-2.15,1.37-3.51c0.01-0.86,0.1-1.73,0.18-2.59c0.03-0.38-0.06-0.54-0.49-0.59
			c-2.87-0.33-5.75-0.66-8.53-1.46c-1.21-0.34-2.35-0.91-3.52-1.38c-0.31-0.12-0.37-0.29-0.19-0.62c0.76-1.41,1.06-2.96,1.27-4.53
			c0.46-3.39,0.42-6.81,0.56-10.22c0.12-3.02,0.25-6.05,0.56-9.06c0.31-3.01,0.9-5.97,2.1-8.79c0.97-2.27,2.25-4.33,4.1-6
			c1.65-1.49,3.56-2.52,5.67-3.21c1.72-0.57,3.5-0.93,5.29-1.01c1.05-0.05,2.13,0.19,3.18,0.37c1.07,0.19,1.98,0.79,2.87,1.4
			c0.23,0.16,0.54,0.24,0.82,0.27c1.01,0.09,2.03,0.07,3.02,0.24c1.77,0.3,3.26,1.17,4.46,2.53c1.33,1.51,2.11,3.3,2.67,5.2
			c0.96,3.27,1.32,6.63,1.42,10.02c0.12,3.96,0.15,7.93,0.18,11.9c0.02,2.63,0.1,5.25,0.56,7.84c0.18,1.01,0.58,1.99,0.96,2.95
			c0.15,0.39,0.14,0.55-0.22,0.77c-1.3,0.76-2.73,1.19-4.17,1.53c-1.36,0.32-2.74,0.57-4.12,0.79c-1.31,0.21-2.63,0.35-3.95,0.5
			c-0.59,0.07-0.62,0.09-0.59,0.69c0.05,1.04,0.09,2.09,0.15,3.13c0.06,1.11,0.66,1.99,1.29,2.84c1.17,1.58,2.76,2.67,4.5,3.52
			c1.87,0.91,3.79,1.72,5.71,2.52c2.4,1,4.85,1.91,7.1,3.24c2.58,1.53,4.84,3.38,6.07,6.22c0.33,0.76,0.54,1.57,0.8,2.36
			c0.1,0.31,0.01,0.5-0.36,0.47c-0.1-0.01-0.21,0-0.31,0C57.59,74,46.92,74,36.26,74z"/>
	</g>
</g>
</svg>
