<?xml version="1.0" encoding="utf-8"?>
<!-- Generator: Adobe Illustrator 18.0.0, SVG Export Plug-In . SVG Version: 6.00 Build 0)  -->
<!DOCTYPE svg PUBLIC "-//W3C//DTD SVG 1.1//EN" "http://www.w3.org/Graphics/SVG/1.1/DTD/svg11.dtd">
<svg version="1.1" id="图层_1" xmlns="http://www.w3.org/2000/svg" xmlns:xlink="http://www.w3.org/1999/xlink" x="0px" y="0px"
	 viewBox="0 0 16 16" enable-background="new 0 0 16 16" xml:space="preserve">
<g>
	<path fill="#80cbc4" d="M7.83,3.23c1.1,0.17,2.03-0.76,1.86-1.86C9.59,0.68,9.03,0.12,8.34,0.02c-1.1-0.17-2.03,0.76-1.86,1.86
		C6.59,2.56,7.15,3.12,7.83,3.23z"/>
	<path fill="#80cbc4" d="M13.58,1.48c0-0.38-0.31-0.7-0.7-0.7c-0.18,0-0.33,0.07-0.49,0.18c-0.16,0.11-2.25,1.64-3.62,2.66H7.3
		C5.93,2.61,3.76,1.02,3.6,0.91C3.45,0.81,3.3,0.73,3.12,0.73c-0.39,0-0.7,0.31-0.7,0.7c0,0.18,0.07,0.34,0.18,0.46l0,0L2.61,1.9
		C2.66,1.96,2.72,2,2.79,2.04l3.42,2.61v4.31l0,1.23v4.95c0,0.47,0.38,0.86,0.86,0.86c0.47,0,0.86-0.38,0.86-0.86
		c0-0.02,0-0.04,0-0.06V10.2h0.5v4.95C8.42,15.62,8.8,16,9.28,16c0.47,0,0.86-0.38,0.86-0.86c0-0.02,0-0.04,0-0.06V10.2h0V4.45
		l3.08-2.35c0.07-0.04,0.13-0.08,0.18-0.14l0.01-0.01l0,0C13.51,1.82,13.58,1.66,13.58,1.48z"/>
</g>
</svg>
