<?xml version="1.0" encoding="utf-8"?>
<!-- Generator: Adobe Illustrator 18.0.0, SVG Export Plug-In . SVG Version: 6.00 Build 0)  -->
<!DOCTYPE svg PUBLIC "-//W3C//DTD SVG 1.1//EN" "http://www.w3.org/Graphics/SVG/1.1/DTD/svg11.dtd">
<svg version="1.1" id="图层_1" xmlns="http://www.w3.org/2000/svg" xmlns:xlink="http://www.w3.org/1999/xlink" x="0px" y="0px"
	 viewBox="0 0 72.53 76.71" enable-background="new 0 0 72.53 76.71" xml:space="preserve">
<path fill="#FFFFFF" stroke="#FFFFFF" stroke-width="3" stroke-miterlimit="10" d="M71.02,74.84c-0.16-1.24-0.27-2.48-0.45-3.72
	c-0.25-1.68-0.84-3.25-1.68-4.73c-1.55-2.72-3.87-4.63-6.51-6.19c-2.35-1.39-4.91-2.33-7.41-3.38c-1.88-0.79-3.75-1.64-5.58-2.54
	c-0.9-0.44-1.73-1.06-2.33-1.9c-0.27-0.37-0.53-0.83-0.56-1.27c-0.1-1.41-0.07-2.84-0.15-4.25c-0.04-0.87-0.01-1.68,0.72-2.29
	c0.01-0.01,0.02-0.02,0.02-0.03c1.25-1.85,2.16-3.86,2.73-6.02c0.15-0.59,0.38-1.05,0.94-1.4c0.42-0.26,0.77-0.69,1.07-1.11
	c0.81-1.12,1.13-2.43,1.32-3.77c0.24-1.69,0.13-3.33-0.88-4.81c-0.09-0.14-0.1-0.38-0.06-0.55c0.16-0.7,0.36-1.38,0.53-2.08
	c0.6-2.41,0.93-4.85,0.95-7.33c0.02-1.84-0.18-3.65-0.71-5.41c-0.51-1.69-1.33-3.23-2.58-4.52c-1.16-1.2-2.55-2.01-4.13-2.48
	c-0.66-0.2-1.31-0.34-1.77-0.94c-0.23-0.3-0.58-0.52-0.9-0.75c-1.79-1.24-3.84-1.69-5.96-1.82c-2.62-0.16-5.22,0.12-7.75,0.83
	c-1.49,0.42-2.9,1.02-4.22,1.85c-1.69,1.07-3.07,2.45-4.1,4.16c-1.41,2.32-2.06,4.9-2.25,7.59c-0.24,3.52,0.17,6.98,0.95,10.41
	c0.1,0.44,0.22,0.85-0.11,1.31c-0.65,0.91-0.9,1.98-0.92,3.09c-0.02,1.2,0.26,2.34,0.64,3.46c0.39,1.11,0.93,2.15,1.91,2.86
	c0.42,0.31,0.67,0.64,0.73,1.15c0.02,0.16,0.09,0.32,0.14,0.48c0.66,2.36,1.67,4.54,3.24,6.45c0.15,0.19,0.27,0.48,0.27,0.72
	c-0.01,1.59-0.09,3.17-0.09,4.76c0,0.95-0.42,1.67-1.05,2.3c-0.88,0.86-1.91,1.54-3.03,2.03c-2.37,1.05-4.77,2.03-7.16,3.03
	c-3.09,1.3-6.05,2.82-8.51,5.16c-1.09,1.03-1.98,2.21-2.7,3.53c-1.2,2.17-1.68,4.53-1.85,6.98c-0.03,0.49-0.09,0.97-0.14,1.51
	c0.25,0.01,0.47,0.03,0.69,0.03c22.68,0,45.35,0,68.03,0c0.11,0,0.23-0.01,0.34,0C70.96,75.23,71.06,75.13,71.02,74.84z"/>
</svg>
