<?xml version="1.0" encoding="utf-8"?>
<!-- Generator: Adobe Illustrator 18.0.0, SVG Export Plug-In . SVG Version: 6.00 Build 0)  -->
<!DOCTYPE svg PUBLIC "-//W3C//DTD SVG 1.1//EN" "http://www.w3.org/Graphics/SVG/1.1/DTD/svg11.dtd">
<svg version="1.1" id="图层_1" xmlns="http://www.w3.org/2000/svg" xmlns:xlink="http://www.w3.org/1999/xlink" x="0px" y="0px"
	 viewBox="0 0 16 16" enable-background="new 0 0 16 16" xml:space="preserve">
<path fill="#DDDDDD" d="M8.11,3.25c0.9,0,1.62-0.73,1.62-1.62C9.73,0.73,9,0,8.11,0c-0.9,0-1.62,0.73-1.62,1.62
	C6.48,2.52,7.21,3.25,8.11,3.25z M11.61,6.07c0-1.41-1.14-2.55-2.55-2.55H6.95c-1.41,0-2.55,1.14-2.55,2.55v3.41h0c0,0,0,0,0,0
	c0,0.37,0.3,0.68,0.68,0.68c0.37,0,0.68-0.3,0.68-0.68c0-0.01,0-0.01,0-0.02V5.95h0.31v4.25h0v4.95l0,0c0,0.47,0.38,0.86,0.86,0.86
	c0.47,0,0.86-0.38,0.86-0.86c0-0.02,0-0.04,0-0.06V10.2h0.5v4.95l0,0c0,0.47,0.38,0.86,0.86,0.86c0.47,0,0.86-0.38,0.86-0.86
	c0-0.02,0-0.04,0-0.06V10.2h0V5.95h0.28v3.53l0,0c0,0,0,0,0,0c0,0.37,0.3,0.68,0.68,0.68c0.37,0,0.68-0.3,0.68-0.68c0,0,0,0,0,0l0,0
	V6.07z"/>
</svg>
