<?xml version="1.0" encoding="utf-8"?>
<!-- Generator: Adobe Illustrator 18.0.0, SVG Export Plug-In . SVG Version: 6.00 Build 0)  -->
<!DOCTYPE svg PUBLIC "-//W3C//DTD SVG 1.1//EN" "http://www.w3.org/Graphics/SVG/1.1/DTD/svg11.dtd">
<svg version="1.1" id="图层_1" xmlns="http://www.w3.org/2000/svg" xmlns:xlink="http://www.w3.org/1999/xlink" x="0px" y="0px"
	 viewBox="0 0 37.7002 39.17622" enable-background="new 0 0 37.7002 39.17622" xml:space="preserve">
<path fill="#366384" d="M11.04323,24.70979l-1.34493,1.23503v0.99529h8.08959v-1.34539h-5.69213v-0.03816l1.01351-0.88539
	c2.67073-2.43333,4.36622-4.22227,4.36622-6.43454c0-1.71542-1.14963-3.48443-3.87857-3.48443
	c-1.46209,0-2.70889,0.51621-3.58708,1.21641l0.54586,1.14472c0.58481-0.46263,1.54012-1.01574,2.68981-1.01574
	c1.89164,0,2.51558,1.12604,2.51558,2.34251C15.74098,20.2459,14.27889,21.79698,11.04323,24.70979z M26.61662,26.94011V23.6768
	h1.77357v-1.27273h-1.77357v-7.44891H24.7641l-5.6522,7.65186v1.06977h5.88645v3.26331H26.61662z M20.84641,22.40407v-0.03719
	l3.09949-4.07524c0.35142-0.55299,0.66198-1.06795,1.05253-1.77037h0.05815c-0.03816,0.62708-0.05815,1.25457-0.05815,1.88028
	v4.00252H20.84641z M35.46489,13.28929l-1.3275,0.60962c1.0107,2.20345,1.52383,4.56042,1.52383,7.00367
	c0,9.26998-7.54119,16.81185-16.81117,16.81185c-9.26994,0-16.81108-7.54191-16.81108-16.81185
	c0-9.26958,7.54114-16.81149,16.81108-16.81149c1.50466,0,2.98594,0.19832,4.41899,0.5883l-3.15771,0.90173l0.40116,1.40616
	l5.11648-1.46111l-0.01971-0.06914l1.11252,0.39322L22.35977,0l-1.17202,0.87439l1.63173,2.18882
	c-1.29625-0.28946-2.6246-0.43326-3.96943-0.43326c-10.07577,0-18.27291,8.1971-18.27291,18.27255
	c0,10.07617,8.19715,18.27372,18.27291,18.27372c10.07586,0,18.27301-8.19755,18.27301-18.27372
	C37.12306,18.24728,36.56561,15.68549,35.46489,13.28929z"/>
</svg>
