<?xml version="1.0" encoding="utf-8"?>
<!-- Generator: Adobe Illustrator 18.0.0, SVG Export Plug-In . SVG Version: 6.00 Build 0)  -->
<!DOCTYPE svg PUBLIC "-//W3C//DTD SVG 1.1//EN" "http://www.w3.org/Graphics/SVG/1.1/DTD/svg11.dtd">
<svg version="1.1" id="图层_1" xmlns="http://www.w3.org/2000/svg" xmlns:xlink="http://www.w3.org/1999/xlink" x="0px" y="0px"
	 viewBox="0 0 21.48111 38.06155" enable-background="new 0 0 21.48111 38.06155" xml:space="preserve">
<g>
	<path fill="#B3B3B3" d="M21.48112,37.95712l-0.10056-9.35221l-3.52398-3.93783l0.20136-9.96753
		c-0.60411-6.64502-6.77404-14.69958-6.77404-14.69958h-1.08664c0,0-6.16994,8.05456-6.77405,14.69958l0.20136,9.96753
		l-3.52581,3.914l0.00194,0.01258L0,37.95712c0,0,3.75505-4.22866,9.29257-4.12798l0.00088,4.23239h2.90478l-0.00968-4.23239
		C17.72603,33.72847,21.48112,37.95712,21.48112,37.95712z M10.74056,16.99069c-2.0122,0-3.64338-1.63122-3.64338-3.64342
		c0-2.01216,1.63118-3.64338,3.64338-3.64338s3.64338,1.63122,3.64338,3.64338
		C14.38394,15.35947,12.75276,16.99069,10.74056,16.99069z"/>
</g>
</svg>
