<?xml version="1.0" encoding="utf-8"?>
<!-- Generator: Adobe Illustrator 18.0.0, SVG Export Plug-In . SVG Version: 6.00 Build 0)  -->
<!DOCTYPE svg PUBLIC "-//W3C//DTD SVG 1.1//EN" "http://www.w3.org/Graphics/SVG/1.1/DTD/svg11.dtd">
<svg version="1.1" id="图层_1" xmlns="http://www.w3.org/2000/svg" xmlns:xlink="http://www.w3.org/1999/xlink" x="0px" y="0px"
	 viewBox="0 0 37.7002 39.17622" enable-background="new 0 0 37.7002 39.17622" xml:space="preserve">
<g>
	<path fill="#366384" d="M17.53027,33.54172l-11.9917-0.00098c-1.78223-0.00049-2.88965-1.10303-2.89014-2.87695
		c-0.00146-7.57031-0.00146-15.14014,0-22.71045c0.00049-1.74121,1.12305-2.8667,2.86035-2.86719l11.35547-0.00146l11.35547,0.00146
		c1.77783,0.00049,2.88281,1.10547,2.8833,2.88379l0.00049,5.17773l-0.00049,3.96826
		c-0.00146,0.10986-0.00195,0.21973,0.01025,0.32812c0.04492,0.3999,0.30518,0.64355,0.71387,0.65137
		c0.36914,0,0.63232-0.23242,0.70459-0.62109c0.02002-0.10693,0.0166-0.21045,0.01367-0.30176l-0.00195-9.26709
		c0-2.46826-1.78857-4.26025-4.25342-4.26074l-9.43896-0.00049L5.50244,3.64524c-2.52832,0-4.29443,1.76611-4.29492,4.29492
		l-0.00049,8.51611l0.00049,14.23291c0.00049,2.52637,1.76807,4.2915,4.29883,4.29199H9.5166h8.02002
		c0.39795,0,0.67432-0.08301,0.84424-0.25342c0.12061-0.12158,0.18408-0.28564,0.18311-0.4751
		C18.55957,33.54172,17.78467,33.54172,17.53027,33.54172z"/>
	<path fill="#366384" d="M21.22266,9.91477c-0.05029-0.00684-0.10059-0.00928-0.15186-0.00928L9.43701,9.90793L9.30273,9.90647
		c-0.03906,0-0.07812,0.00098-0.1167,0.00439c-0.45752,0.03662-0.7251,0.29639-0.73389,0.71143
		c-0.00879,0.41943,0.25,0.68848,0.70898,0.7373c0.05127,0.00586,0.10352,0.00732,0.15576,0.00732l11.5459-0.00244l0.17969,0.00244
		c0.05225,0,0.10449-0.00146,0.15576-0.00732c0.45557-0.05029,0.71338-0.31885,0.70752-0.7373
		C21.90088,10.2302,21.65137,9.9719,21.22266,9.91477z"/>
	<path fill="#366384" d="M21.00537,14.88547c0.12158,0.00879,0.25439,0.03662,0.4165-0.06299
		c0.28711-0.17432,0.44629-0.36182,0.47217-0.55615c0.03467-0.25146-0.14209-0.53174-0.32129-0.68604
		c-0.15967-0.1377-0.39697-0.16406-0.60498-0.13721l-5.76465-0.00244L9.43799,13.4426l-0.14941-0.00195
		c-0.13916,0-0.29834,0.01367-0.42139,0.11768c-0.09668,0.08252-0.41016,0.37549-0.37842,0.68311
		c0.02539,0.24854,0.25684,0.42285,0.4917,0.58008c0.07227,0.04785,0.16016,0.07129,0.26855,0.07129
		c0.04102,0,0.08496-0.00342,0.12842-0.00684c0.02832-0.00244,0.05664-0.00537,0.08301-0.00537l5.70703,0.00049l5.74561-0.00049
		C20.94287,14.88059,20.97412,14.88303,21.00537,14.88547z"/>
	<path fill="#366384" d="M15.97314,18.17698c0.12402-0.13525,0.17969-0.31348,0.16211-0.51514
		c-0.02686-0.30811-0.19336-0.67529-0.84619-0.67529c-0.42285,0.00244-0.84521,0.00342-1.26758,0.00342l-3.38428-0.00195
		l-1.27246,0.00098c-0.81689,0.00098-0.90527,0.50342-0.90527,0.71973c0,0.34619,0.229,0.71631,0.87256,0.71777
		c0.96777,0.00195,1.93555,0.00342,2.90332,0.00342c1.02051,0,2.04102-0.00146,3.06104-0.00391
		C15.66846,18.42502,15.87012,18.29026,15.97314,18.17698z"/>
	<path fill="#366384" d="M11.33887,20.52707l-2.0791-0.00195c-0.47266,0-0.7627,0.25049-0.79639,0.68701
		c-0.01514,0.19336,0.0415,0.36572,0.16309,0.49805c0.146,0.15869,0.37061,0.24316,0.6499,0.24512l0.84668,0.00244l1.19287-0.00146
		l1.26416,0.00146l0.81445-0.00244c0.354-0.00244,0.54785-0.13037,0.64746-0.2373c0.12109-0.12988,0.17871-0.30225,0.1665-0.49902
		c-0.02783-0.44092-0.31641-0.69385-0.79346-0.69385L11.33887,20.52707z"/>
	<path fill="#366384" d="M8.11182,13.3386c-0.4541-0.46143-1.26221-0.4624-1.7085-0.0166
		c-0.2251,0.22656-0.34814,0.53174-0.34668,0.85986c0.00293,0.65771,0.5376,1.19238,1.19189,1.19238H7.2749
		c0.63281-0.01416,1.17432-0.55908,1.18213-1.18945C8.46094,13.86936,8.33838,13.56907,8.11182,13.3386z M7.24854,15.12034
		c0.00006,0,0.00012,0,0.00024,0l-0.00024,0.00391V15.12034z"/>
	<path fill="#366384" d="M7.2334,11.84055h0.00342c0.31836-0.00098,0.61768-0.12695,0.84229-0.35498
		c0.22852-0.23145,0.35205-0.53857,0.34863-0.86475C8.41992,9.96506,7.88574,9.43137,7.20654,9.43137H7.20605
		C6.88721,9.43967,6.59131,9.572,6.37207,9.80344c-0.22217,0.23486-0.33936,0.54443-0.33008,0.87109
		C6.06055,11.3176,6.59473,11.84055,7.2334,11.84055z M7.2334,11.58976L7.2334,11.58976v0.00079V11.58976z"/>
	<path fill="#366384" d="M7.25195,16.51584c-0.6792,0-1.19287,0.51025-1.19482,1.18701
		c-0.00098,0.32471,0.12354,0.62891,0.35059,0.85645c0.22461,0.2251,0.52393,0.34912,0.84229,0.34912h0.00879
		c0.31445-0.00195,0.62549-0.1377,0.85303-0.37207c0.22559-0.23193,0.35107-0.54248,0.34424-0.85107
		C8.44238,17.03684,7.91992,16.52317,7.25195,16.51584z M7.25,18.65714L7.25,18.65714v0.00128V18.65714z"/>
	<path fill="#366384" d="M6.05713,21.20823c-0.00781,0.3291,0.10889,0.63623,0.32812,0.86523
		c0.21826,0.22705,0.51807,0.35596,0.84424,0.36182h0.02148c0.65576,0,1.19531-0.53076,1.20264-1.18359
		c0.00684-0.6416-0.5127-1.18115-1.20068-1.20312C6.58643,20.04856,6.07227,20.54709,6.05713,21.20823z M7.25079,22.18192
		c0.00006,0,0.00012-0.00006,0.00018-0.00006v0.00342L7.25079,22.18192z"/>
	<path fill="#366384" d="M36.43994,33.35471c-0.19189-1.01416-0.79834-1.79053-1.854-2.37402
		c-0.72949-0.40283-1.52637-0.56348-2.29688-0.71875l-0.25879-0.05273c-0.4668-0.0957-0.9375-0.25439-1.39258-0.40771
		l-0.32959-0.11035c-0.1123-0.03711-0.15967-0.10205-0.15918-0.21631c0.00439-0.62598,0.0542-1.28125,0.38623-1.83301
		c0.28369-0.47168,0.62256-0.93848,1.00732-1.38672c0.55322-0.64355,0.87988-1.31299,0.99902-2.04688
		c0.04883-0.29834,0.06836-0.68701-0.21143-1.04492c-0.02734-0.03467-0.05469-0.12109-0.05371-0.20703
		c0.00244-0.26318,0.01318-0.52637,0.02344-0.78955c0.01758-0.44727,0.03564-0.90918,0.01562-1.36719
		c-0.06299-1.43848-0.75391-2.43457-2.05322-2.96143c-0.77197-0.31348-1.5625-0.53564-2.34961-0.66016
		c-1.0083-0.1582-1.88916-0.18066-2.71973-0.06738c-0.36621,0.04932-0.5498,0.22119-0.63916,0.35645
		c-0.09326,0.14111-0.18213,0.3916-0.07568,0.77637c0.00195,0.01758-0.00928,0.06885-0.03076,0.10498
		c-0.01562,0.02686-0.05908,0.06348-0.10156,0.09912c-0.0332,0.02783-0.06592,0.05615-0.09668,0.08594
		c-0.56494,0.55176-0.87891,1.13818-0.96045,1.79248c-0.12402,0.98682-0.11719,1.86865,0.01953,2.6958
		c0.0166,0.1001,0.00244,0.11328-0.0293,0.14307c-0.23193,0.21582-0.33154,0.51172-0.28809,0.85596
		c0.10596,0.83057,0.40039,1.50928,0.8999,2.07568c0.20654,0.2334,0.40918,0.47119,0.6084,0.70996
		c0.60889,0.73291,0.90674,1.56982,0.91162,2.55957c0.00146,0.25-0.0835,0.30176-0.17871,0.33643l-0.15479,0.05615
		c-0.35938,0.13135-0.73096,0.26758-1.09961,0.36133c-0.29053,0.07373-0.58496,0.1333-0.87939,0.19238
		c-0.43457,0.08789-0.88379,0.17822-1.31787,0.31543c-1.76465,0.55615-2.80762,1.93213-2.72168,3.58984
		c0.03027,0.59326,0.20752,0.76465,0.78955,0.76465l4.70654,0.00195c1.25244,0,2.50488-0.00098,3.75684-0.00439h0.13086
		c0.9126,0,1.729,0.03564,2.48438,0.47461c0.08887,0.05176,0.18311,0.07764,0.28027,0.07764
		c0.19922,0,0.38477-0.11523,0.49658-0.30811c0.16162-0.2793,0.0957-0.5835-0.16797-0.7749
		c-0.12207-0.08887-0.26172-0.1665-0.42627-0.23779c-0.65674-0.28467-1.38525-0.42285-2.24365-0.42285
		c-1.96729,0.00391-3.93457,0.00488-5.90137,0.00586l-2.70312,0.00195c0.02637-0.16895,0.05078-0.31592,0.09619-0.45068
		c0.24658-0.72754,0.79346-1.23828,1.62598-1.51904c0.45947-0.15527,0.95361-0.25781,1.43115-0.35742
		c0.20996-0.04395,0.42041-0.08789,0.62891-0.13574c0.58984-0.13623,1.25879-0.29053,1.86572-0.64551
		c0.44434-0.26074,0.68311-0.66162,0.69092-1.16016c0.01025-0.71973-0.04199-1.65283-0.54199-2.4873
		c-0.35889-0.59961-0.80859-1.16162-1.20166-1.6416c-0.3457-0.42139-0.55957-0.85449-0.65332-1.3252
		c-0.02783-0.13574-0.0083-0.16016,0.03467-0.19775c0.2959-0.25928,0.30176-0.61035,0.28027-0.85156L24.5,22.82102
		c-0.04492-0.50439-0.09131-1.02588-0.09961-1.53467c-0.01562-0.9375,0.25049-1.58936,0.83643-2.05225
		c0.34619-0.27197,0.51514-0.6123,0.49268-0.98047c0.53809-0.04199,1.10107-0.02051,1.76318,0.07178
		c1.09277,0.15186,1.94922,0.41064,2.69385,0.81348c0.43262,0.23438,0.70215,0.58105,0.82471,1.06104
		c0.24268,0.9502,0.1626,1.92334,0.06543,2.66553c-0.05273,0.4043,0.03125,0.72314,0.26367,1.00244
		c0.01172,0.0166,0.02588,0.07324,0.02148,0.11426c-0.06348,0.56494-0.33252,1.08057-0.84717,1.62354
		c-1.10059,1.15918-1.62109,2.49268-1.54736,3.96387c0.02344,0.46436,0.20801,0.80762,0.54932,1.01904
		c0.27686,0.17188,0.5752,0.34766,0.90723,0.43799c0.55957,0.15234,1.13281,0.27686,1.6875,0.39795l0.45996,0.10059
		c0.67432,0.14941,1.4458,0.37793,2.05127,0.93652c0.42285,0.39014,0.6416,0.81885,0.67822,1.33447l-1.99512-0.00146
		c-0.24316,0-0.48584,0.00098-0.729,0.00342c-0.34863,0.00391-0.604,0.25244-0.60645,0.59033
		c-0.00342,0.33203,0.23438,0.56982,0.59131,0.59229l1.0376,0.00195l2.21875-0.00098
		c0.57568-0.00098,0.66699-0.35547,0.66992-0.56592l0.00146-0.0874C36.49561,34.00949,36.50195,33.67942,36.43994,33.35471z"/>
</g>
</svg>
