<?xml version="1.0" encoding="utf-8"?>
<!-- Generator: Adobe Illustrator 18.0.0, SVG Export Plug-In . SVG Version: 6.00 Build 0)  -->
<!DOCTYPE svg PUBLIC "-//W3C//DTD SVG 1.1//EN" "http://www.w3.org/Graphics/SVG/1.1/DTD/svg11.dtd">
<svg version="1.1" id="图形" xmlns="http://www.w3.org/2000/svg" xmlns:xlink="http://www.w3.org/1999/xlink" x="0px" y="0px"
	 viewBox="391.24207 274.39914 20 20" enable-background="new 391.24207 274.39914 20 20" xml:space="preserve">
<g>
	<path fill="#F77C00" d="M401.24207,279.53802c-1.80554,0-3.19446,1.38889-3.19446,3.19446
		c0,1.80554,1.38892,3.19443,3.19446,3.19443s3.19446-1.52777,3.19446-3.19443
		C404.43652,280.92691,403.04761,279.53802,401.24207,279.53802z"/>
	<path fill="#F77C00" d="M401.24207,274.39914c-5.55554,0-10,4.44446-10,10s4.44446,10,10,10s10-4.44446,10-10
		S406.79761,274.39914,401.24207,274.39914z M401.79761,287.03802v0.55557c0.41669,0,2.5,0,2.5,0v1.25c0,0-2.2222,0-2.5,0
		c0,0.27777,0,1.66666,0,1.66666h-1.25c0,0,0-1.38889,0-1.66666c-0.41666,0-2.5,0-2.5,0v-1.25c0,0,2.22223,0,2.5,0v-0.55557
		c-2.08331-0.27777-3.75-2.22223-3.75-4.44443c0-2.36111,2.08334-4.44446,4.44446-4.44446c2.5,0,4.44446,1.94446,4.44446,4.44446
		C405.68652,284.8158,404.01984,286.62137,401.79761,287.03802z"/>
</g>
</svg>
