<?xml version="1.0" encoding="utf-8"?>
<!-- Generator: Adobe Illustrator 18.0.0, SVG Export Plug-In . SVG Version: 6.00 Build 0)  -->
<!DOCTYPE svg PUBLIC "-//W3C//DTD SVG 1.1//EN" "http://www.w3.org/Graphics/SVG/1.1/DTD/svg11.dtd">
<svg version="1.1" id="图层_1" xmlns="http://www.w3.org/2000/svg" xmlns:xlink="http://www.w3.org/1999/xlink" x="0px" y="0px"
	 viewBox="0 0 37.7002 39.17622" enable-background="new 0 0 37.7002 39.17622" xml:space="preserve">
<g>
	<g id="acWrjT.tif">
		<g>
			<g>
				<path fill="#366384" d="M25.19284,15.84294c0,1.97018,0,3.93924,0,5.9053c-1.99808-0.05016-3.95668-0.0824-5.91348-0.1599
					c-0.51261-0.0203-0.7323,0.14284-0.91271,0.62789c-0.64071,1.72258-1.79453,3.06859-3.23585,4.18761
					c-1.35684,1.05344-2.83974,1.88498-4.3441,2.58737c-0.37211-0.39313-0.70274-0.74242-1.01892-1.07646
					c3.02495-1.37059,6.21132-2.66653,7.60965-6.22482c-1.76559,0-3.45888,0-5.22508,0c0-1.79146,0-3.6585,0-5.66719
					c-0.51621,0.40485-0.91981,0.72138-1.30906,1.02667c-0.36515-0.31355-0.71315-0.61238-1.05669-0.90737
					c3.79476-2.7938,3.79476-2.7938,5.7978-5.95695c0.50119,0.27693,1.00306,0.55423,1.51734,0.8384
					c-0.55037,0.45142-1.07499,0.88171-1.5996,1.31201c0.0246,0.03638,0.04921,0.07277,0.07381,0.10915
					c2.56822,0,5.13643,0,7.7851,0c-0.80363,1.12365-1.59687,2.23278-2.43043,3.39828
					C22.38961,15.84294,23.76961,15.84294,25.19284,15.84294z M19.34457,16.9311c-0.13079,1.2425-0.25766,2.44777-0.38837,3.68952
					c1.6461,0,3.29919,0,4.97869,0c0-1.24751,0-2.45663,0-3.68952C22.37866,16.9311,20.85953,16.9311,19.34457,16.9311z
					 M18.18418,16.94122c-1.69839,0-3.23645,0-4.77703,0c0,1.25811,0,2.46794,0,3.71651c1.3535,0,2.65334,0.01114,3.95238-0.01603
					c0.14067-0.00294,0.37799-0.21248,0.39882-0.35185C17.92093,19.20219,18.04148,18.10825,18.18418,16.94122z M21.32833,13.46207
					c-0.35537,0-0.55972,0-0.76406,0c-1.55479,0-3.11187,0.05072-4.66347-0.01957c-0.88896-0.04027-1.55658,0.15566-2.09547,0.89989
					c-0.36258,0.50073-0.85623,0.90655-1.41158,1.47885c2.36896,0.04848,4.56077,0.09632,6.7528,0.13111
					c0.13795,0.00219,0.32943-0.05651,0.40802-0.15622C20.1268,15.0701,20.67648,14.32628,21.32833,13.46207z"/>
			</g>
			<g>
				<path fill="#366384" d="M18.93148,22.17795c0.45909,0.02934,0.98998,0.06327,1.59056,0.10166
					c-0.65888,1.28717-0.30986,2.65669-0.40412,3.98963c-0.04143,0.58587,0.24107,0.9128,0.79048,0.92554
					c1.33502,0.03097,2.6734,0.05878,4.00606-0.00439c0.77826-0.03689,1.30953-0.54212,1.57664-1.28617
					c0.10422-0.2903,0.19386-0.58582,0.29338-0.88882c0.39167,0.23635,0.7695,0.46435,1.1484,0.69299
					c-0.63944,2.16928-1.4303,2.63237-3.18367,2.63933c-1.51206,0.006-3.02818-0.01193-4.53535-0.11954
					c-1.02682-0.07331-1.28003-0.45382-1.28175-1.49897C18.92963,25.21961,18.93148,23.71,18.93148,22.17795z"/>
			</g>
		</g>
	</g>
	<g>
		<path fill="#366384" d="M18.8501,38.43821C8.45605,38.43821,0,29.98215,0,19.58811s8.45605-18.8501,18.8501-18.8501
			s18.8501,8.45605,18.8501,18.8501S29.24414,38.43821,18.8501,38.43821z M18.8501,2.43821
			c-9.45654,0-17.1499,7.69336-17.1499,17.1499s7.69336,17.1499,17.1499,17.1499S36,29.04465,36,19.58811
			S28.30664,2.43821,18.8501,2.43821z"/>
	</g>
</g>
<g>
	<g id="acWrjT.tif_1_">
		<g>
			<g>
				<path fill="#366384" d="M25.19284,15.84294c0,1.97018,0,3.93924,0,5.9053c-1.99808-0.05016-3.95668-0.0824-5.91348-0.1599
					c-0.51261-0.0203-0.7323,0.14284-0.91271,0.62789c-0.64071,1.72258-1.79453,3.06859-3.23585,4.18761
					c-1.35684,1.05344-2.83974,1.88498-4.3441,2.58737c-0.37212-0.39313-0.70274-0.74242-1.01892-1.07646
					c3.02495-1.37059,6.21132-2.66653,7.60965-6.22482c-1.76559,0-3.45888,0-5.22508,0c0-1.79146,0-3.6585,0-5.66719
					c-0.51621,0.40485-0.91981,0.72138-1.30906,1.02667c-0.36515-0.31355-0.71315-0.61238-1.05669-0.90737
					c3.79476-2.7938,3.79476-2.7938,5.7978-5.95695c0.50119,0.27693,1.00306,0.55423,1.51734,0.8384
					c-0.55037,0.45142-1.07499,0.88171-1.59961,1.31201c0.0246,0.03638,0.04921,0.07277,0.07381,0.10915
					c2.56822,0,5.13643,0,7.7851,0c-0.80363,1.12365-1.59687,2.23278-2.43043,3.39828
					C22.38961,15.84294,23.76961,15.84294,25.19284,15.84294z M19.34457,16.9311c-0.13079,1.2425-0.25766,2.44777-0.38837,3.68952
					c1.6461,0,3.29919,0,4.97869,0c0-1.24751,0-2.45663,0-3.68952C22.37866,16.9311,20.85953,16.9311,19.34457,16.9311z
					 M18.18418,16.94122c-1.69839,0-3.23645,0-4.77703,0c0,1.25811,0,2.46794,0,3.71651c1.3535,0,2.65334,0.01114,3.95238-0.01603
					c0.14067-0.00294,0.37799-0.21248,0.39882-0.35185C17.92093,19.20219,18.04148,18.10825,18.18418,16.94122z M21.32833,13.46207
					c-0.35537,0-0.55972,0-0.76406,0c-1.55479,0-3.11187,0.05072-4.66347-0.01957c-0.88896-0.04027-1.55658,0.15566-2.09547,0.89989
					c-0.36258,0.50073-0.85623,0.90655-1.41157,1.47885c2.36896,0.04848,4.56077,0.09632,6.7528,0.13111
					c0.13795,0.00219,0.32943-0.05651,0.40802-0.15622C20.1268,15.0701,20.67648,14.32628,21.32833,13.46207z"/>
			</g>
			<g>
				<path fill="#366384" d="M18.93148,22.17795c0.45909,0.02934,0.98998,0.06327,1.59056,0.10166
					c-0.65888,1.28717-0.30986,2.65669-0.40412,3.98963c-0.04143,0.58587,0.24107,0.9128,0.79048,0.92554
					c1.33502,0.03097,2.6734,0.05878,4.00606-0.00439c0.77826-0.03689,1.30953-0.54212,1.57664-1.28617
					c0.10422-0.2903,0.19386-0.58582,0.29338-0.88882c0.39167,0.23635,0.7695,0.46435,1.1484,0.69299
					c-0.63944,2.16928-1.4303,2.63237-3.18367,2.63933c-1.51206,0.006-3.02818-0.01193-4.53535-0.11954
					c-1.02682-0.07331-1.28003-0.45382-1.28175-1.49897C18.92963,25.21961,18.93148,23.71,18.93148,22.17795z"/>
			</g>
		</g>
	</g>
	<g>
		<path fill="#366384" d="M18.8501,38.43821C8.45605,38.43821,0,29.98215,0,19.58811s8.45605-18.8501,18.8501-18.8501
			s18.8501,8.45605,18.8501,18.8501S29.24414,38.43821,18.8501,38.43821z M18.8501,2.43821
			c-9.45654,0-17.1499,7.69336-17.1499,17.1499s7.69336,17.1499,17.1499,17.1499S36,29.04465,36,19.58811
			S28.30664,2.43821,18.8501,2.43821z"/>
	</g>
</g>
</svg>
