<?xml version="1.0" encoding="utf-8"?>
<!-- Generator: Adobe Illustrator 18.0.0, SVG Export Plug-In . SVG Version: 6.00 Build 0)  -->
<!DOCTYPE svg PUBLIC "-//W3C//DTD SVG 1.1//EN" "http://www.w3.org/Graphics/SVG/1.1/DTD/svg11.dtd">
<svg version="1.1" id="图层_1" xmlns="http://www.w3.org/2000/svg" xmlns:xlink="http://www.w3.org/1999/xlink" x="0px" y="0px"
	 viewBox="0 0 48.5861 48.53307" enable-background="new 0 0 48.5861 48.53307" xml:space="preserve">
<g id="FCG7Qq.tif_1_">
	<g>
		<path fill="#FFFFFF" d="M12.08178,13.38371c0.00006-1.76595,0.01584-3.53211-0.00801-5.29774
			c-0.00905-0.66972,0.25483-1.09322,0.84167-1.40883c3.64246-1.95898,7.27643-3.93382,10.90659-5.91552
			c0.37398-0.20416,0.68195-0.20389,1.05716,0.00118c3.6292,1.98349,7.26416,3.95647,10.90348,5.92134
			c0.57913,0.31267,0.85278,0.75193,0.85061,1.41614c-0.01146,3.51084-0.0098,7.02174-0.00095,10.53259
			c0.00149,0.59019-0.2006,1.03265-0.66796,1.41246c-3.58821,2.91596-7.16229,5.84931-10.74345,8.77396
			c-0.74492,0.60835-1.02218,0.60648-1.76074,0.00284c-3.53114-2.88605-7.0543-5.78192-10.59643-8.65441
			c-0.55622-0.45107-0.80556-0.95908-0.79223-1.67557C12.1032,16.78987,12.08172,15.08659,12.08178,13.38371z M33.86353,7.77368
			c-0.26498-0.16518-0.41679-0.27102-0.57839-0.35888c-2.7465-1.49321-5.49951-2.97461-8.2367-4.48467
			c-0.48271-0.2663-0.87233-0.24955-1.34477,0.01163c-2.71747,1.50236-5.44843,2.98031-8.17309,4.4697
			c-0.1904,0.10408-0.36685,0.2337-0.56803,0.36318c0.0939,0.10238,0.12799,0.1592,0.17797,0.19122
			c2.93426,1.87986,5.87319,3.75247,8.80091,5.64244c0.35531,0.22937,0.61436,0.13001,0.91628-0.06456
			c1.18229-0.76192,2.37286-1.51098,3.55719-2.26976C30.19799,10.13158,31.97841,8.98503,33.86353,7.77368z M34.82084,9.45755
			c-0.34541,0.20101-0.52413,0.29694-0.69479,0.40554c-2.71066,1.72495-5.41175,3.4652-8.13744,5.16603
			c-0.53646,0.33475-0.72625,0.72786-0.72226,1.33793c0.02019,3.08961,0.00862,6.17942,0.0108,9.26917
			c0.00014,0.20046,0.02213,0.4009,0.04107,0.72186c0.27378-0.21021,0.45524-0.34166,0.62817-0.4835
			c2.72929-2.23868,5.44983-4.48813,8.19322-6.70938c0.47387-0.38368,0.66072-0.80534,0.65696-1.40226
			c-0.01269-2.01708,0.01414-4.03439,0.02375-6.05163C34.82365,11.00974,34.82084,10.30815,34.82084,9.45755z M23.38325,26.38917
			c0-0.28819,0-0.42676,0-0.56532c-0.00002-3.19143-0.01199-6.38295,0.01122-9.57421
			c0.00405-0.55734-0.20623-0.87761-0.66187-1.16421c-2.75191-1.73096-5.48874-3.48591-8.23183-5.23091
			c-0.16698-0.10623-0.34447-0.19594-0.61145-0.3466c0,0.34826,0,0.57415,0,0.80004c0,2.18361,0.07353,4.37064-0.02787,6.54954
			c-0.0598,1.28491,0.343,2.12909,1.36875,2.92152C17.95242,21.88204,20.5823,24.10459,23.38325,26.38917z"/>
		<path fill="#FFFFFF" d="M2.56967,20.17528c0,2.31191,0.01741,4.624-0.00617,6.93567
			c-0.01553,1.52208,0.47937,2.82471,1.45681,3.98435c2.69493,3.19727,5.36685,6.41393,8.05381,9.61794
			c0.57225,0.68237,0.93848,1.41996,0.9149,2.34415c-0.03056,1.19727,0.00772,2.39614-0.00447,3.59411
			c-0.00741,0.72775-0.39772,1.19541-0.94328,1.1893c-0.56471-0.00633-0.92273-0.44621-0.93118-1.19503
			c-0.0128-1.13476,0.03782-2.27211-0.02587-3.40345c-0.02388-0.42427-0.19687-0.91255-0.46373-1.23955
			c-2.72367-3.33744-5.46055-6.66467-8.238-9.95741c-1.17478-1.39273-1.6853-2.99298-1.69537-4.75688
			c-0.02821-4.93983-0.01039-9.87991-0.00952-14.8199c0.00031-1.74991,1.35901-3.23885,3.04644-3.34275
			c1.77878-0.10952,3.32318,1.12619,3.47119,2.92765c0.12182,1.48269,0.07822,2.97968,0.09046,4.47047
			c0.01225,1.4924,0.01461,2.98514-0.0045,4.4774c-0.00549,0.42873,0.13086,0.60421,0.57217,0.60258
			c1.00218-0.0037,1.82917,0.43442,2.51837,1.12897c2.82755,2.84949,5.66376,5.69074,8.4618,8.56903
			c1.67219,1.72015,2.44421,3.83635,2.48041,6.22512c0.04553,3.00413,0.08671,6.00832,0.12329,9.01257
			c0.00277,0.22726,0.03344,0.52089-0.08841,0.66839c-0.22046,0.26691-0.54414,0.61226-0.82869,0.61593
			c-0.27776,0.00357-0.62936-0.33164-0.81879-0.60729c-0.14629-0.21288-0.11849-0.56324-0.12271-0.85315
			c-0.0422-2.89909-0.02696-5.79997-0.12604-8.69698c-0.07549-2.20721-0.9811-4.11077-2.53195-5.67849
			c-2.60187-2.63019-5.22588-5.2385-7.84587-7.85071c-0.82428-0.82183-1.84096-0.88081-2.57092-0.17167
			c-0.70599,0.68585-0.63056,1.731,0.19587,2.56365c2.23577,2.25257,4.47886,4.4979,6.70819,6.7568
			c0.27516,0.27881,0.59186,0.59237,0.69118,0.94553c0.08271,0.29411-0.02004,0.81298-0.23373,0.97068
			c-0.22664,0.16727-0.68383,0.04919-1.03442,0.00683c-0.12252-0.0148-0.23586-0.16667-0.3392-0.27012
			c-2.42124-2.42364-4.87176-4.81915-7.24851-7.28572c-1.42881-1.4828-1.42845-3.17753-0.20667-4.85569
			c0.19558-0.26863,0.3411-0.64424,0.34383-0.97179c0.02561-3.06888,0.02455-6.13811,0.01025-9.20714
			c-0.00569-1.22074-0.91495-1.9415-1.92478-1.48939c-0.34669,0.15522-0.59693,0.58077-0.82307,0.9273
			c-0.1138,0.17438-0.10072,0.44825-0.10131,0.67725c-0.00632,2.48048-0.00394,4.96098-0.00394,7.44148
			C2.54825,20.17533,2.55896,20.17531,2.56967,20.17528z"/>
		<path fill="#FFFFFF" d="M41.38036,21.56417c0-0.79315-0.00002-1.5462,0-2.29924c0.00008-2.24947-0.01007-4.49901,0.0036-6.74841
			c0.01049-1.72528,1.14713-3.03019,2.85637-3.32237c1.50858-0.25788,2.99289,0.64987,3.55611,2.18795
			c0.07002,0.19121,0.10754,0.40568,0.10774,0.60943c0.0051,5.15065,0.02615,10.30148-0.01037,15.45189
			c-0.01218,1.71807-0.53749,3.28153-1.6803,4.63784c-2.74893,3.26246-5.44879,6.56623-8.18283,9.84132
			c-0.35827,0.42917-0.53848,0.87393-0.52547,1.43186c0.02204,0.94464,0.00594,1.89018,0.00539,2.83535
			c-0.00012,0.21021,0.00836,0.42113-0.0055,0.63051c-0.04129,0.62351-0.38519,1.02951-0.87766,1.05013
			c-0.49308,0.02065-0.89188-0.3612-0.92391-0.99183c-0.04259-0.83857-0.02029-1.68046-0.02335-2.52094
			c-0.00038-0.10468,0.036-0.21299,0.01923-0.31359c-0.2695-1.61656,0.42754-2.81418,1.46477-4.00964
			c2.6024-2.99942,5.07548-6.11065,7.63633-9.14676c0.81616-0.96763,1.2336-2.04857,1.24063-3.28374
			c0.02791-4.89793,0.03407-9.79599,0.04583-14.69401c0.00055-0.23076-0.00787-0.46343-0.03701-0.69203
			c-0.09916-0.77779-0.64695-1.24507-1.41965-1.22453c-0.74472,0.01979-1.29502,0.54641-1.35984,1.30589
			c-0.0107,0.12534-0.00641,0.2521-0.00642,0.3782c-0.0003,2.88017-0.03386,5.76104,0.02598,8.63996
			c0.01317,0.63394,0.24308,1.33007,0.57239,1.8778c0.86971,1.44657,0.82236,3.04388-0.36853,4.28581
			c-1.68746,1.75977-3.43152,3.4653-5.15277,5.19263c-0.71228,0.71479-1.4201,1.43431-2.14478,2.13637
			c-0.65234,0.63199-1.22756,0.71392-1.63505,0.26608c-0.40018-0.43982-0.29436-0.95988,0.33022-1.58495
			c2.24373-2.24547,4.48996-4.48844,6.73191-6.73568c0.22201-0.22254,0.44858-0.44894,0.62589-0.70606
			c0.48912-0.70931,0.40339-1.5799-0.18158-2.12395c-0.65138-0.60582-1.56103-0.66848-2.22874-0.07249
			c-0.68867,0.6147-1.31591,1.29816-1.97122,1.95032c-1.99607,1.98648-4.01963,3.94624-5.98158,5.96587
			c-1.95451,2.01199-2.81167,4.49884-2.85224,7.26921c-0.03509,2.39612-0.00733,4.79317-0.00738,7.18981
			c0,0.14716,0.00226,0.29437-0.00075,0.44147c-0.01487,0.72589-0.37224,1.2305-0.88632,1.25387
			c-0.53384,0.02427-0.95569-0.49249-0.96663-1.25109c-0.01759-1.21909-0.01534-2.43872-0.00281-3.65793
			c0.01642-1.59649,0.04218-3.19301,0.07962-4.78914c0.07366-3.14012,1.30298-5.77164,3.51802-7.97168
			c2.35665-2.3407,4.70392-4.69085,7.05444-7.03773C39.10924,21.93084,39.51914,21.73523,41.38036,21.56417z"/>
	</g>
</g>
</svg>
