<?xml version="1.0" encoding="utf-8"?>
<!-- Generator: Adobe Illustrator 18.0.0, SVG Export Plug-In . SVG Version: 6.00 Build 0)  -->
<!DOCTYPE svg PUBLIC "-//W3C//DTD SVG 1.1//EN" "http://www.w3.org/Graphics/SVG/1.1/DTD/svg11.dtd">
<svg version="1.1" id="图层_1" xmlns="http://www.w3.org/2000/svg" xmlns:xlink="http://www.w3.org/1999/xlink" x="0px" y="0px"
	 viewBox="0 0 48.5861 48.53307" enable-background="new 0 0 48.5861 48.53307" xml:space="preserve">
<g id="YcZFWK.tif_1_">
	<g>
		<path fill="#FFFFFF" d="M33.1265,44.09965c0-12.16855,0-24.29953,0-36.4805c4.25863,0,8.4868,0,12.77069,0
			c0,12.14741,0,24.29214,0,36.4805C41.66795,44.09965,37.43909,44.09965,33.1265,44.09965z M34.7037,42.56023
			c0.28573,0,0.51943,0,0.75313,0c2.70579,0,5.41186-0.02053,8.11718,0.01497c0.64695,0.00849,0.83711-0.15046,0.83568-0.82192
			c-0.02248-10.58502-0.01578-21.17009-0.01578-31.75515c0-0.25272,0-0.50544,0-0.77103c-3.28457,0-6.47482,0-9.69022,0
			C34.7037,20.3296,34.7037,31.38522,34.7037,42.56023z"/>
		<path fill="#FFFFFF" d="M17.93491,19.8778c4.29334,0,8.52142,0,12.78554,0c0,8.08729,0,16.12801,0,24.21709
			c-4.25748,0-8.50311,0-12.78554,0C17.93491,36.02827,17.93491,27.98752,17.93491,19.8778z M19.53868,21.44063
			c0,7.00803,0,14.01978,0,21.06495c3.18538,0,6.36899,0,9.56066,0c0-7.04937,0-14.04396,0-21.06495
			C25.90098,21.44063,22.74812,21.44063,19.53868,21.44063z"/>
		<path fill="#FFFFFF" d="M19.17779,6.21804c-2.00549,0-4.01099,0.00019-6.01648-0.00027
			c-0.21629-0.00005-0.43647,0.02156-0.64811-0.01087c-0.51856-0.07945-0.82145-0.38627-0.80581-0.92351
			c0.01488-0.51083,0.33585-0.77124,0.8176-0.84855c0.1268-0.02035,0.25908-0.00828,0.38884-0.0083
			c2.7258-0.00032,5.4516-0.00188,8.17739,0.00061c0.99358,0.00091,1.26493,0.27552,1.26539,1.27172
			c0.00129,2.81233,0.00377,5.62467-0.00277,8.43699c-0.0014,0.60166-0.36031,1.00127-0.86417,1.01233
			c-0.4973,0.01092-0.87339-0.39035-0.91393-0.98272c-0.01032-0.15076-0.00278-0.30276-0.00279-0.45419
			c-0.0001-1.79556,0.00089-3.59113-0.00139-5.38669c-0.00026-0.20774-0.01853-0.41546-0.03494-0.75907
			c-0.28225,0.26436-0.48347,0.4424-0.67314,0.63199c-5.0337,5.03179-10.06595,10.065-15.09985,15.09656
			c-0.1831,0.18302-0.36858,0.3673-0.57361,0.52395c-0.38628,0.29514-0.78354,0.25782-1.1073-0.08534
			c-0.34187-0.36237-0.34448-0.77796-0.02982-1.17219c0.12075-0.15128,0.26973-0.2802,0.40735-0.41783
			c5.06323-5.06352,10.12587-10.12763,15.19285-15.1874c0.19693-0.19665,0.43565-0.35145,0.65489-0.52575
			C19.26459,6.35903,19.22119,6.28854,19.17779,6.21804z"/>
		<path fill="#FFFFFF" d="M15.46593,30.30323c0,4.61989,0,9.19685,0,13.80683c-4.27365,0-8.50554,0-12.77701,0
			c0-4.60395,0-9.18141,0-13.80683C6.93562,30.30323,11.16504,30.30323,15.46593,30.30323z M4.30738,31.86106
			c0,3.56843,0,7.09782,0,10.65874c3.21363,0,6.38085,0,9.57377,0c0-3.57156,0-7.10255,0-10.65874
			C10.67244,31.86106,7.50654,31.86106,4.30738,31.86106z"/>
	</g>
</g>
</svg>
