<?xml version="1.0" encoding="utf-8"?>
<!-- Generator: Adobe Illustrator 18.0.0, SVG Export Plug-In . SVG Version: 6.00 Build 0)  -->
<!DOCTYPE svg PUBLIC "-//W3C//DTD SVG 1.1//EN" "http://www.w3.org/Graphics/SVG/1.1/DTD/svg11.dtd">
<svg version="1.1" id="图层_1" xmlns="http://www.w3.org/2000/svg" xmlns:xlink="http://www.w3.org/1999/xlink" x="0px" y="0px"
	 viewBox="0 0 85 35.22833" enable-background="new 0 0 85 35.22833" xml:space="preserve">
<g>
	<path fill="#666666" d="M45.35519,5.62182c-5.55699,1.35043-9.2006,5.57917-9.45015,10.90736
		c-0.041,0.87544-0.17476,1.7692-0.42231,2.60826c-0.98686,3.34504-4.6705,5.40899-7.94809,4.50974
		c-3.48654-0.95659-5.73417-4.53372-4.93217-7.84966c0.87949-3.63644,4.28123-5.99284,7.77819-5.11848
		c1.51724,0.37936,2.88539,1.35486,4.49216,2.14348c0.48591-0.81974,1.02602-1.95104,1.77158-2.92509
		c0.70924-0.92665,0.47092-1.45025-0.36663-2.0447c-3.24155-2.30065-6.72269-3.08341-10.59502-1.88517
		c-6.22606,1.92656-9.73329,8.66134-7.69883,14.859c2.03747,6.20694,9.03236,9.59021,15.16907,7.33699
		c4.65652-1.70972,7.5394-5.80122,7.71577-10.95046c0.12204-3.56355,2.63589-6.30806,6.13813-6.70135
		c3.15393-0.3542,6.17125,1.83121,7.04547,5.12914c0.19772,0.74586,0.31351,1.51344,0.47462,2.30865
		c0.27758-0.02416,0.46137-0.02117,0.63665-0.05836c1.87633-0.39808,1.87015-0.39824,2.36559,1.41033
		c0.18393,0.67147,0.62638,1.44571,0.82895,2.11209c0.16838,0.00467,0.1125-0.10277,0.28087-0.0981
		c0.23496-0.56605,0.62118-1.11705,0.67934-1.70072c0.28979-2.90825,0.11816-5.68575-1.49997-8.33618
		C55.28714,7.13246,49.84081,4.53178,45.35519,5.62182z"/>
	<path fill="#666666" d="M19.93987,5.57801c-0.83961-0.05847-1.37799-0.12766-1.9165-0.12851
		C13.02675,5.44148,8.03011,5.44826,3.03349,5.44455C-0.23738,5.44212,0.08306,5.1991,0.00136,8.48239
		c-0.03338,1.34213,0.54691,1.70721,1.7543,1.68517c2.52091-0.04604,5.04309-0.02861,7.56472-0.02606
		c1.62091,0.00164,1.74417,0.22881,1.02867,1.68086C7.772,17.05235,5.21973,22.29463,2.62216,27.51439
		c-0.49611,0.99688-0.27593,1.38479,0.81204,1.37158c1.35407-0.01646,2.71053-0.05905,4.0619,0.00084
		c0.95799,0.04247,1.44933-0.43507,1.82619-1.21529c3.18507-6.59417,6.38178-13.18273,9.56997-19.77541
		C19.21197,7.23501,19.49831,6.55781,19.93987,5.57801z"/>
	<path fill="#666666" d="M80.66562,14.20684c1.27242,1.26697,2.11383,1.07126,3.42091,0.26849
		c1.02406-0.62895,1.04819-1.08276,0.36205-1.93766c-2.95154-3.67754-8.10075-4.82776-12.40285-2.7306
		c-4.19905,2.04691-6.3163,6.67339-5.22961,11.42741c0.97998,4.28719,5.21724,7.53942,9.80262,7.5238
		c2.82467-0.00962,5.97737-1.4832,7.59311-3.60013c0.22678-0.29712,0.46928-0.79637,0.37088-1.09044
		c-0.42322-1.26467-2.74381-1.74872-3.75011-0.84154c-2.56962,2.31651-6.29086,2.29982-8.60728-0.03865
		c-2.48273-2.50633-2.57151-6.16777-0.21066-8.6874C74.33703,12.02154,78.20394,11.75572,80.66562,14.20684z"/>
	<path fill="#666666" d="M55.78183,18.97706c-1.74176,0.53175-3.46616,1.12037-5.30349,1.72938
		c1.49496,1.62992,1.43554,1.88344-0.46865,2.63921c-2.68105,1.06411-5.01777,0.38306-7.10882-1.46135
		c-0.29234-0.25787-0.59028-0.50938-0.9615-0.82922c-0.64557,1.17977-1.09665,2.26513-1.77707,3.17996
		c-0.80857,1.08712-0.45939,1.6901,0.49493,2.38711c4.3637,3.18719,10.591,2.88315,14.7734-0.71438
		c0.55394-0.47648,1.31815-0.70851,1.98496-1.05376c0.16746,0.04957,0.3349,0.09914,0.50233,0.14872
		c-0.49559-1.87118-0.97647-3.74654-1.5088-5.60719C56.35394,19.20262,55.94144,18.92833,55.78183,18.97706z"/>
	<path fill="#666666" d="M69.32269,6.89487c-0.02187-1.28462-1.21247-2.50757-2.48697-2.55453
		c-1.32747-0.04892-2.60663,1.17716-2.64297,2.53323c-0.03667,1.36881,1.16161,2.58643,2.55218,2.59339
		C68.11959,9.47385,69.34575,8.25038,69.32269,6.89487z M65.34534,6.92132c0-0.82573,0.66938-1.49511,1.49509-1.49511
		s1.49509,0.66938,1.49509,1.49511c0,0.82572-0.66938,1.4951-1.49509,1.4951S65.34534,7.74703,65.34534,6.92132z"/>
</g>
</svg>
