<?xml version="1.0" encoding="utf-8"?>
<!-- Generator: Adobe Illustrator 18.0.0, SVG Export Plug-In . SVG Version: 6.00 Build 0)  -->
<!DOCTYPE svg PUBLIC "-//W3C//DTD SVG 1.1//EN" "http://www.w3.org/Graphics/SVG/1.1/DTD/svg11.dtd">
<svg version="1.1" id="图层_1" xmlns="http://www.w3.org/2000/svg" xmlns:xlink="http://www.w3.org/1999/xlink" x="0px" y="0px"
	 viewBox="0 0 58.0107 61.77204" enable-background="new 0 0 58.0107 61.77204" xml:space="preserve">
<g id="CIXnpD.tif">
	<g>
		<path fill="#366484" d="M49.19466,17.13553c0.42115,0.0703,0.77354,0.10713,1.11487,0.18969
			c2.10903,0.51013,3.60296,2.34448,3.60732,4.55512c0.01804,9.14367,0.0274,18.28746-0.00291,27.43107
			c-0.01065,3.21396-2.57428,5.77023-5.80768,5.82668c-3.15775,0.05514-6.31711,0.01997-9.47577,0.02037
			c-9.42871,0.0012-18.85742,0.00386-28.28613-0.00163c-3.01171-0.00176-5.26546-1.62421-6.02459-4.35525
			c-0.15662-0.56343-0.23148-1.16797-0.23214-1.75368c-0.01311-11.73243-0.01122-23.46489-0.0088-35.19733
			c0.00061-2.94947,2.02089-4.96598,4.96767-4.9668c6.07997-0.00169,12.15998,0.00699,18.23987-0.01509
			c0.4752-0.00173,0.98152-0.13954,1.41814-0.33652c1.08006-0.48727,2.12304-1.05606,3.19202-1.56895
			c0.31571-0.15147,0.66127-0.27131,1.00578-0.32582c0.70921-0.11222,1.35592,0.024,1.63311,0.78729
			c0.44627,1.22881,1.27255,1.55953,2.56287,1.49359c2.39249-0.12225,4.7957-0.03774,7.19443-0.03428
			c2.81055,0.00405,4.8592,2.01907,4.89928,4.82826C49.20817,14.84621,49.19466,15.9806,49.19466,17.13553z M6.41931,18.87524
			c-0.0165,0.36479-0.03245,0.55324-0.03247,0.74169c-0.00118,9.80759-0.00497,19.61518,0.00198,29.42276
			c0.00161,2.27589,1.51417,3.82158,3.79112,3.82386c12.5385,0.01252,25.07703,0.01284,37.61553-0.00037
			c2.28125-0.0024,3.75833-1.54368,3.76264-3.83409c0.00455-2.42221,0.00216-4.84443-0.00068-7.26664
			c-0.0003-0.25034-0.02432-0.50066-0.04073-0.81629c-0.35318,0-0.63397,0.0019-0.91472-0.00032
			c-1.37683-0.01089-2.75649,0.02923-4.12986-0.04573c-2.5658-0.14006-4.44557-2.27241-4.36268-4.86824
			c0.07977-2.49789,2.14983-4.50052,4.68028-4.51708c1.37728-0.00901,2.75467,0.00014,4.132-0.00376
			c0.20268-0.00057,0.40528-0.02814,0.63743-0.04541c0-3.06236,0.00151-6.05358-0.00053-9.0448
			c-0.00137-2.0188-0.88063-2.88768-2.91702-2.88772c-12.72849-0.00026-25.45699,0.00046-38.18548-0.001
			C9.11246,19.53193,7.75019,19.66152,6.41931,18.87524z M36.711,17.17463c-1.39944-2.767-2.72842-5.39465-4.02837-7.96494
			c-5.82482,2.65907-11.51197,5.2553-17.19912,7.85152c0.01277,0.03781,0.02554,0.07561,0.03831,0.11341
			C22.51437,17.17463,29.50692,17.17463,36.711,17.17463z M23.46321,11.41112c-0.00993-0.05423-0.01986-0.10846-0.0298-0.16269
			c-0.23416,0-0.46832,0-0.70249,0c-4.48372,0-8.96761,0.02132-13.451-0.01712c-0.9519-0.00816-1.62364,0.35427-2.05358,1.12451
			c-0.32961,0.5905-0.58627,1.24313-0.75062,1.89937c-0.23726,0.94734,0.04193,1.80586,0.82543,2.41185
			c0.80201,0.62031,1.70249,0.76769,2.67111,0.36193c2.44626-1.02477,4.89784-2.03681,7.3465-3.05585
			C19.36749,13.1205,21.4151,12.26522,23.46321,11.41112z M36.28945,11.23397c0.14222,0.31368,0.23224,0.52654,0.33372,0.73378
			c0.7605,1.55297,1.54234,3.09593,2.27289,4.66281c0.2015,0.43215,0.43702,0.59119,0.90969,0.58601
			c2.08742-0.0229,4.17523-0.00873,6.2629-0.0114c0.23144-0.0003,0.46286-0.02244,0.73041-0.03632
			c0-1.35314,0.07178-2.65746-0.02218-3.94973c-0.07842-1.07856-1.03973-1.95684-2.10469-1.97202
			C41.92361,11.20791,39.17411,11.23397,36.28945,11.23397z M51.53205,33.8129c-1.72422,0-3.37927-0.0311-5.03156,0.02279
			c-0.39231,0.01279-0.82172,0.24684-1.1535,0.48934c-0.83276,0.60867-1.12432,1.64178-0.81318,2.60118
			c0.32058,0.98848,1.16485,1.64373,2.31863,1.67505c1.32677,0.03603,2.65577-0.00697,3.98375-0.02111
			c0.22535-0.0024,0.45041-0.03234,0.69587-0.05111C51.53205,36.93678,51.53205,35.42319,51.53205,33.8129z"/>
		<path fill="#366484" d="M49.15397,35.08002c0,0.78209,0,1.48364,0,2.22528c-0.76662,0-1.49294,0-2.27246,0
			c0-0.72143,0-1.44289,0-2.22528C47.61878,35.08002,48.35957,35.08002,49.15397,35.08002z"/>
	</g>
</g>
</svg>
