<?xml version="1.0" encoding="utf-8"?>
<!-- Generator: Adobe Illustrator 18.0.0, SVG Export Plug-In . SVG Version: 6.00 Build 0)  -->
<!DOCTYPE svg PUBLIC "-//W3C//DTD SVG 1.1//EN" "http://www.w3.org/Graphics/SVG/1.1/DTD/svg11.dtd">
<svg version="1.1" id="图层_1" xmlns="http://www.w3.org/2000/svg" xmlns:xlink="http://www.w3.org/1999/xlink" x="0px" y="0px"
	 viewBox="0 0 58.0107 61.77204" enable-background="new 0 0 58.0107 61.77204" xml:space="preserve">
<g id="W0JdNC.tif">
	<g>
		<path fill="#366484" d="M19.99581,59.30204c-0.53267,0.12727-0.9925,0.37763-1.39969,0.31019
			c-1.78943-0.29636-3.59419-0.57742-5.33374-1.0733c-1.39338-0.39719-1.79941-1.33632-1.50313-2.79704
			c0.16422-0.80965,0.36991-1.61539,0.62666-2.40008c0.15258-0.46632,0.12727-0.7512-0.32543-1.0265
			c-1.54366-0.93876-2.87916-2.11287-4.10659-3.4528c-0.49052-0.53547-1.344-0.83387-2.08728-1.01757
			c-0.87337-0.21585-1.80946-0.16555-2.7131-0.27434c-1.24748-0.15018-2.08789-0.88733-2.50689-2.02786
			c-1.05449-2.87036-0.74768-5.71014,0.40282-8.47384c0.36409-0.87462,1.14439-1.36567,2.12064-1.32716
			c0.84858,0.03347,1.11757-0.30761,1.22247-1.14076c0.47917-3.80587,2.49695-6.78311,5.2242-9.34886
			c1.20717-1.13569,1.21239-1.13671,0.29392-2.53221c-0.42515-0.64596-0.89644-1.26314-1.29466-1.92476
			c-0.31108-0.51683-0.60266-1.06128-0.7967-1.6297c-0.58783-1.72196,0.01762-2.85519,1.80918-2.99659
			c1.46104-0.11531,3.03659-0.14783,4.4062,0.27985c1.87054,0.58411,3.58691,1.65481,5.38575,2.48125
			c0.39184,0.18002,0.87127,0.34296,1.27931,0.28707c3.7244-0.51017,7.44689-1.05137,11.22053-0.86001
			c11.26857,0.57141,19.09926,8.50802,21.36032,18.26619c0.25447,1.09821,0.3821,2.2286,0.51901,3.35011
			c0.07001,0.57355,0.35173,0.82948,0.87544,0.68225c0.76599-0.21533,1.50107-0.53943,2.26495-0.76403
			c0.28413-0.08354,0.80627-0.12761,0.88058,0.00315c0.16199,0.28503,0.27315,0.85387,0.11012,1.02394
			c-0.65314,0.68123-1.32726,1.5342-2.16262,1.80798c-1.61938,0.53072-2.31985,1.47429-2.7886,3.10006
			c-0.95869,3.32506-2.9658,6.0125-5.86684,7.98981c-0.26906,0.18339-0.49919,0.59228-0.53363,0.91901
			c-0.09242,0.87655-0.06366,1.7655-0.09222,2.64922c-0.08254,2.55465-1.17791,3.9056-3.70218,4.29084
			c-1.04381,0.15931-2.15841,0.10958-3.2048-0.06321c-1.52595-0.25199-2.1386-1.01903-2.38397-2.55779
			c-0.02122-0.13311-0.06897-0.26199-0.12179-0.45712c-0.88579,0.10979-1.75234,0.28657-2.62309,0.31047
			c-1.73954,0.04774-3.48209,0.03882-5.22182-0.00692c-0.49961-0.01313-0.73856,0.03744-0.83418,0.59193
			c-0.21444,1.2435-0.62602,1.76279-1.88782,1.81235c-1.55457,0.06106-3.13276-0.07419-4.67652-0.29436
			C20.89767,60.87785,20.19131,60.23425,19.99581,59.30204z M10.10528,19.08687c0.2599,0.43011,0.42714,0.77166,0.65315,1.06846
			c0.61957,0.81364,1.31198,1.57553,1.88826,2.41765c1.17587,1.71832,1.70833,2.39352-0.3924,4.14391
			c-2.76924,2.30742-4.71072,5.17793-5.18933,8.87262c-0.16572,1.27927-1.04966,2.1461-2.18535,2.33683
			c-1.44059,0.24194-1.6747,1.1379-1.81571,2.25793c-0.07931,0.63001-0.20117,1.25949-0.21889,1.89159
			c-0.07933,2.83108,0.38681,3.32698,3.22864,3.44388c1.7881,0.07355,3.21079,0.82185,4.42187,2.12804
			c0.74506,0.80357,1.62836,1.48017,2.46024,2.20149c0.35405,0.30699,0.74972,0.56623,1.10147,0.8756
			c0.95328,0.83845,1.20812,1.8639,0.80219,3.06946c-0.16687,0.49557-0.28454,1.00773-0.42371,1.5126
			c-0.19624,0.71186,0.08929,1.21783,0.74391,1.45476c0.72284,0.26162,1.47084,0.4705,2.22343,0.6282
			c0.70047,0.14678,1.22821-0.16374,1.57408-0.79908c0.25013-0.45947,0.51472-0.91309,0.80356-1.34897
			c0.38662-0.58343,0.96091-0.6876,1.61017-0.57019c0.64089,0.11589,0.95634,0.55296,1.03153,1.13935
			c0.06921,0.53971-0.02829,1.10355,0.06358,1.6368c0.08762,0.50855,0.23615,1.35168,0.51256,1.41975
			c0.93423,0.23008,1.95468,0.31845,2.90838,0.19657c0.7942-0.10149,0.72194-0.99714,0.86858-1.62752
			c0.19812-0.85165,0.59196-1.15866,1.46215-1.11186c0.66181,0.03559,1.3271,0.17674,1.98228,0.13534
			c2.53226-0.16,5.06336-0.34945,7.59011-0.58025c1.07141-0.09786,1.64439,0.23766,1.67291,1.15154
			c0.06313,2.02325,0.39784,2.34102,2.4281,2.28208c0.27451-0.00797,0.55109-0.04367,0.82097-0.09604
			c1.24791-0.24214,1.56524-0.60389,1.61425-1.89849c0.03555-0.93904,0.00163-1.8812,0.05222-2.81908
			c0.055-1.01965,0.36274-1.86869,1.26187-2.5598c4.28035-3.29006,6.27148-7.6607,5.62131-13.04327
			c-1.19696-9.9093-10.00031-17.73363-19.97152-17.8876C27.69846,20.9534,24.14969,21.49,20.6205,22.16868
			c-0.73464,0.14127-1.23375-0.07564-1.82309-0.47099c-1.32287-0.88743-2.66798-1.77364-4.10168-2.45481
			C13.30738,18.58328,11.78878,18.42867,10.10528,19.08687z"/>
		<path fill="#366484" d="M33.23559,0.00208c4.22081,0.02659,7.89612,2.52197,9.48635,6.4399
			c1.58508,3.90522,0.65274,8.38062-2.35518,11.30443c-0.09907,0.09629-0.19132,0.20208-0.30089,0.28466
			c-0.54715,0.41237-1.30176,0.35991-1.72062-0.14011c-0.48681-0.58116-0.35351-1.12961,0.17175-1.59965
			c1.17968-1.05567,2.05642-2.2843,2.43502-3.85555c1.06287-4.41108-1.56865-8.88179-5.84301-9.88383
			c-4.36837-1.02408-8.72787,1.73629-9.61012,6.18365c-0.5069,2.55527-0.13403,4.96554,1.82559,6.89716
			c0.45065,0.44421,0.5796,0.8578,0.18133,1.36882c-0.40833,0.52392-1.11492,0.66857-1.60814,0.20383
			c-0.59646-0.56202-1.17233-1.18857-1.59494-1.88553c-2.9058-4.79223-0.95806-11.46853,4.08039-14.13406
			C29.90359,0.38141,31.51313-0.0332,33.23559,0.00208z"/>
		<path fill="#366484" d="M33.26542,8.98677c0.92828-1.27763,1.78481-2.4565,2.69621-3.71089
			c0.56288,0.33848,1.09172,0.6565,1.70797,1.02708c-1.13887,1.50372-2.22937,2.94359-3.45347,4.55984
			c1.11297,0,2.02536,0,2.98772,0c0,0.6046,0,1.08568,0,1.68698c-0.93729,0-1.83196,0-2.79948,0c0,1.05035,0,1.98256,0,2.98262
			c-0.7751,0-1.47752,0-2.28117,0c0-0.94818,0-1.92538,0-3.00813c-0.99057,0-1.88475,0-2.81992,0c0-0.5873,0-1.06781,0-1.6374
			c0.91046,0,1.78186,0,2.90319,0c-1.24932-1.55814-2.35803-2.94091-3.53424-4.40787
			c0.54792-0.40528,1.06621-0.78864,1.64441-1.21632C31.29202,6.49452,32.23005,7.67918,33.26542,8.98677z"/>
		<path fill="#366484" d="M17.74984,34.5368c-1.21836-0.01697-2.24336-1.0834-2.22595-2.31591
			c0.01742-1.23318,1.08502-2.27616,2.29705-2.24406c1.22587,0.03246,2.27146,1.11545,2.23515,2.31508
			C20.01873,33.52619,18.96314,34.5537,17.74984,34.5368z"/>
	</g>
</g>
</svg>
