<?xml version="1.0" encoding="utf-8"?>
<!-- Generator: Adobe Illustrator 18.0.0, SVG Export Plug-In . SVG Version: 6.00 Build 0)  -->
<!DOCTYPE svg PUBLIC "-//W3C//DTD SVG 1.1//EN" "http://www.w3.org/Graphics/SVG/1.1/DTD/svg11.dtd">
<svg version="1.1" id="图层_1" xmlns="http://www.w3.org/2000/svg" xmlns:xlink="http://www.w3.org/1999/xlink" x="0px" y="0px"
	 viewBox="0 0 58.29187 35.22833" enable-background="new 0 0 58.29187 35.22833" xml:space="preserve">
<g id="VoCorh.tif">
	<g>
		<path fill="#666666" d="M18.02886,23.92393c-3.60406,0-7.2082-0.01228-10.81209,0.01212
			c-0.59916,0.00406-0.81822-0.17591-0.76926-0.77519c0.0437-0.5349,0.03169-1.07775-0.00053-1.61439
			c-0.02667-0.44418,0.15092-0.57585,0.57491-0.56868c1.11815,0.0189,2.23757-0.01959,3.35507,0.01298
			c0.52111,0.01518,0.67167-0.16421,0.6696-0.67448c-0.01618-3.97676-0.00613-7.95363-0.00839-11.93046
			c-0.00051-0.89316-0.00812-0.89325,0.91431-0.8932c4.03903,0.0002,8.07813,0.01168,12.11702-0.012
			c0.57311-0.00336,0.73425,0.16397,0.73123,0.7295c-0.02139,3.99748,0.00365,7.99525-0.02683,11.99261
			c-0.00497,0.6521,0.20731,0.8156,0.81791,0.79308c1.13767-0.04196,2.27848,0.00695,3.41694-0.02245
			c0.4871-0.01258,0.60774,0.1933,0.58819,0.62853c-0.02507,0.55817-0.04043,1.12038-0.00148,1.67675
			c0.03459,0.49402-0.1399,0.65901-0.63032,0.649c-1.22155-0.02493-2.44396-0.00733-3.66603-0.00724
			c-2.42342,0.00017-4.84684,0.00005-7.27026,0.00005C18.02886,23.92163,18.02886,23.92278,18.02886,23.92393z M17.8772,12.24155
			c0.78489,0,1.56986,0.00676,2.35467-0.00145c1.50417-0.01573,1.29487,0.2372,1.34035-1.35919
			c0.01628-0.57149-0.20849-0.69084-0.72502-0.68313c-1.71399,0.0256-3.4286,0.00916-5.14298,0.0101
			c-1.44717,0.0008-1.42845,0.00148-1.42113,1.45123c0.00239,0.47449,0.17641,0.60165,0.61996,0.59081
			C15.8939,12.2257,16.88575,12.24235,17.8772,12.24155z M21.37798,14.6799c-2.36655,0-4.69242,0-7.08608,0
			c0,0.45766,0.02483,0.86995-0.00654,1.27793c-0.03595,0.46762,0.1514,0.60704,0.60723,0.60136
			c1.67551-0.0209,3.35143-0.00749,5.02721-0.00779C21.66348,16.55109,21.67746,16.53337,21.37798,14.6799z M17.86705,19.05849
			c-0.82716,0-1.65439-0.00696-2.48145,0.00158c-1.34509,0.01388-1.1688-0.20139-1.21053,1.23773
			c-0.01635,0.5638,0.19828,0.70129,0.72338,0.69337c1.73664-0.02616,3.47397-0.00118,5.21092-0.0131
			c1.57932-0.01083,1.29902,0.2438,1.34582-1.40285c0.01186-0.41712-0.15618-0.53111-0.54847-0.5233
			C19.89385,19.07207,18.88032,19.05867,17.86705,19.05849z"/>
		<path fill="#666666" d="M37.8314,3.12955c1.85063,0,3.5815,0,5.44365,0c-0.29182-0.90774-0.56457-1.7562-0.87073-2.70855
			C43.78209,0.27691,45.08443,0.1407,46.42973,0c0.17397,0.87801,0.36246,1.68237,0.48399,2.49674
			c0.07518,0.5038,0.26937,0.69038,0.80146,0.67891c1.69746-0.0366,3.3964-0.00094,5.09418-0.02919
			c0.50705-0.00844,0.71283,0.13371,0.67407,0.66273c-0.04075,0.55619-0.02195,1.11807-0.00481,1.67672
			c0.01124,0.36623-0.11259,0.51205-0.50087,0.51136C47.8416,5.98814,42.70538,5.98335,37.56927,6.00443
			c-0.62701,0.00258-0.42076-0.46565-0.53276-0.76687c-0.06382-0.0117-0.12763-0.0234-0.19144-0.0351
			c-0.16764,0.62805-0.47666,1.25517-0.48082,1.8843c-0.0371,5.61226-0.03006,11.22491-0.00592,16.83732
			c0.00267,0.62246-0.2001,0.78916-0.78402,0.74529c-0.63848-0.04797-1.28515-0.0439-1.92461-0.00404
			c-0.52159,0.03251-0.66998-0.15314-0.66695-0.66687c0.02001-3.39639,0.01089-6.79295,0.01124-10.18945
			c0.00005-0.43233,0.00001-0.86466,0.00001-1.4893c-0.48233,0.70168-0.86422,1.25725-1.31313,1.91032
			c-0.70402-0.87506-1.34488-1.65282-1.95465-2.45424c-0.07283-0.09572-0.0352-0.36383,0.05007-0.47861
			c2.34329-3.15409,3.66809-6.74248,4.51385-10.53574c0.08635-0.38728,0.21042-0.57435,0.67065-0.43882
			c1.01157,0.29788,2.04582,0.5182,3.05988,0.80836c0.65318,0.1869,0.71289,0.39236,0.3829,0.99332
			C38.23698,2.4277,38.06144,2.72618,37.8314,3.12955z"/>
		<path fill="#666666" d="M45.03029,15.38401c1.92619,0.00091,3.85257,0.01575,5.77844-0.00941
			c0.48828-0.00638,0.64069,0.13075,0.63654,0.62973c-0.02261,2.71301-0.01885,5.42637-0.00128,8.13946
			c0.00288,0.44411-0.09499,0.64147-0.58277,0.61604c-0.72297-0.0377-1.45068-0.03776-2.17374-0.00151
			c-0.48232,0.02418-0.64141-0.17013-0.5808-0.61273c0.08052-0.58799-0.1474-0.78475-0.75776-0.76969
			c-1.67661,0.04137-3.35514,0.02783-5.03246,0.00395c-0.4981-0.00709-0.75331,0.12927-0.67276,0.66051
			c0.07698,0.50771-0.16801,0.64536-0.64062,0.62417c-0.66135-0.02966-1.32545-0.01533-1.98782,0.0016
			c-0.36938,0.00944-0.52022-0.13323-0.5193-0.50848c0.00677-2.75463,0.01024-5.50933-0.00596-8.26388
			c-0.00292-0.49675,0.27237-0.51464,0.63745-0.51353C41.09505,15.38627,43.06267,15.3831,45.03029,15.38401z M44.76907,20.88054
			c0.91063,0,1.82153-0.01286,2.73176,0.00617c0.37668,0.00788,0.51788-0.12316,0.50335-0.5027
			c-0.02295-0.59932-0.01694-1.20038-0.00309-1.80023c0.00798-0.34524-0.12872-0.47479-0.47607-0.47296
			c-1.80048,0.0095-3.60107,0.00748-5.40156-0.00171c-0.3428-0.00175-0.48954,0.13024-0.4828,0.47532
			c0.01131,0.57926,0.02103,1.15977-0.00484,1.73813c-0.01979,0.44238,0.16691,0.57596,0.5878,0.5648
			C43.07156,20.86487,43.92052,20.88067,44.76907,20.88054z"/>
		<path fill="#666666" d="M16.04766,2.6324c-0.10612-0.70922-0.17248-1.28233-0.28314-1.84676
			c-0.0741-0.3779,0.04023-0.53939,0.42322-0.56111c1.05459-0.05983,2.10919-0.12416,3.16193-0.20949
			c0.3886-0.0315,0.5192,0.1457,0.53534,0.49176c0.02122,0.45498,0.0919,0.91179,0.06718,1.36376
			c-0.0322,0.58873,0.17314,0.78054,0.77806,0.77205c2.34035-0.03284,4.68145-0.01188,7.02227-0.01104
			c0.16572,0.00006,0.3327,0.01257,0.49693-0.00324c0.48473-0.04666,0.64737,0.15251,0.6376,0.6461
			c-0.02909,1.4702-0.02458,2.94158-0.00133,4.41199c0.00719,0.45473-0.12894,0.6331-0.59814,0.61262
			c-0.72372-0.03159-1.4499-0.02116-2.17467-0.00807c-0.34255,0.00619-0.48609-0.11694-0.47522-0.46995
			c0.01848-0.60018-0.01153-1.20199,0.01187-1.80183c0.01515-0.38833-0.09667-0.55642-0.51883-0.55567
			c-4.8059,0.00853-9.61184,0.00502-14.41774-0.00447c-0.37976-0.00075-0.514,0.14936-0.50402,0.51677
			c0.01631,0.60029-0.01353,1.20202,0.00948,1.80186c0.01427,0.37187-0.11174,0.52873-0.49302,0.51866
			c-0.68317-0.01805-1.3674-0.0215-2.05054-0.00468C7.30693,8.30071,7.15723,8.178,7.16115,7.79267
			c0.0158-1.55349,0.02244-3.10742,0.00076-4.66074C7.15473,2.61775,7.45705,2.632,7.80758,2.63232
			c2.46509,0.00224,4.93019,0.00053,7.39529,0.00009C15.44618,2.63237,15.6895,2.6324,16.04766,2.6324z"/>
		<path fill="#666666" d="M44.97832,10.09363c-2.0097-0.00026-4.01949-0.01067-6.02903,0.00757
			c-0.4622,0.00419-0.69225-0.09658-0.64911-0.61858c0.04422-0.53506,0.03009-1.07734,0.00582-1.61485
			c-0.01759-0.38948,0.14492-0.49749,0.5113-0.4967c4.14369,0.00888,8.28741,0.01063,12.4311,0.0008
			c0.39195-0.00093,0.50758,0.15631,0.49728,0.51665c-0.01538,0.53818-0.02902,1.07876,0.00469,1.6153
			c0.03009,0.4788-0.17511,0.60057-0.61869,0.59712C49.08067,10.08498,47.02946,10.09389,44.97832,10.09363z"/>
		<path fill="#666666" d="M44.97116,11.37894c2.04742,0.00017,4.095,0.01409,6.14214-0.01002
			c0.48668-0.00573,0.67654,0.12849,0.6361,0.62949c-0.03814,0.47244-0.02593,0.95186,0.00259,1.4259
			c0.02607,0.43318-0.14159,0.5891-0.57212,0.57989c-0.97157-0.0208-1.94388-0.00813-2.91588-0.00776
			c-3.10213,0.00117-6.20441-0.0119-9.30628,0.01733c-0.60083,0.00566-0.8213-0.17247-0.75856-0.76989
			c0.04298-0.40912,0.03321-0.82823,0.00229-1.23951c-0.03603-0.47931,0.12537-0.64386,0.62763-0.63709
			C40.87611,11.39487,42.92374,11.37877,44.97116,11.37894z"/>
		<path fill="#666666" d="M39.35592,33.67452c0,0.49913,0,0.90622,0,1.36362c-1.87279,0-3.72253,0-5.6242,0
			c-0.01925-0.1501-0.05684-0.30754-0.05705-0.46503c-0.00332-2.46462,0.01155-4.92938-0.01224-7.39377
			c-0.00502-0.51955,0.15458-0.67368,0.66912-0.66229c1.4284,0.03163,2.8587,0.03769,4.28668-0.0023
			c0.56339-0.01578,0.64085,0.2222,0.64145,0.69518c0.00062,0.49299-0.07,0.77225-0.67263,0.73604
			c-0.846-0.05083-1.69791,0.00591-2.54651-0.01497c-0.40976-0.01008-0.59372,0.09992-0.60733,0.54969
			c-0.04448,1.4697-0.06004,1.4707,1.40873,1.47741c0.55918,0.00255,1.11908,0.01311,1.6774-0.01009
			c0.54021-0.02244,0.47205,0.34817,0.45706,0.67183c-0.01473,0.31811,0.15145,0.75478-0.44581,0.74739
			c-0.84903-0.0105-1.69859,0.01222-2.54735-0.00593c-0.40535-0.00867-0.53112,0.15129-0.54406,0.54821
			c-0.05748,1.76263-0.06802,1.76261,1.6804,1.76487C37.84166,33.6753,38.56372,33.67452,39.35592,33.67452z"/>
		<path fill="#666666" d="M22.96103,29.64602c0-0.87888,0.0264-1.66157-0.00952-2.44139
			c-0.02297-0.49872,0.11279-0.71113,0.64906-0.6874c1.23374,0.0546,1.11325-0.1975,1.11398,1.12896
			c0.00125,2.27533-0.00912,4.55091,0.02413,6.82581c0.00737,0.50429-0.14141,0.68365-0.62633,0.61692
			c-0.14209-0.01955-0.29099-0.01751-0.43363,0.00007c-0.42208,0.05202-0.74067-0.02557-0.71437-0.39874
			c-0.66306,0.15749-1.31282,0.42604-1.96812,0.44032c-0.94984,0.02069-1.61351-0.5313-1.98954-1.41921
			c-0.40689-0.96076-0.42426-1.93165-0.0999-2.90894C19.48502,29.06018,21.15772,28.53925,22.96103,29.64602z M20.40648,32.07299
			c0.07156,0.42212,0.1088,0.83589,0.21686,1.23025c0.13554,0.49468,0.53914,0.82002,1.00933,0.74548
			c0.37121-0.05886,0.83699-0.32936,1.01463-0.64457c0.47129-0.83627,0.45349-1.77794-0.0037-2.61244
			c-0.17081-0.31178-0.67711-0.62237-1.01643-0.60778c-0.33814,0.01454-0.75708,0.37574-0.95941,0.69851
			C20.46433,31.20695,20.48417,31.67141,20.40648,32.07299z"/>
		<path fill="#666666" d="M6.97537,29.24811c-0.64553,0-1.21599,0-1.79382,0c-0.1799-0.62419-0.33205-1.23129-1.02519-1.47223
			c-0.75542-0.2626-1.40467-0.0974-1.7397,0.61884c-0.73996,1.58192-0.70923,3.20568-0.02279,4.80066
			c0.23391,0.54351,0.71107,0.77355,1.32016,0.72008c0.61512-0.054,1.04558-0.33388,1.2858-0.91378
			c0.09545-0.23041,0.213-0.60487,0.36641-0.62967c0.48149-0.07783,0.98597-0.03461,1.47782,0.00644
			c0.04815,0.00402,0.12461,0.32635,0.09588,0.48418c-0.15263,0.83855-0.57901,1.48918-1.36021,1.88685
			c-2.21829,1.12922-4.68775,0.1896-5.3197-2.06535c-0.40126-1.4318-0.33769-2.87066,0.18768-4.26903
			c0.28503-0.75867,0.75667-1.3899,1.52108-1.72153c1.32369-0.57426,2.63944-0.49372,3.86039,0.25727
			C6.62212,27.43856,6.94171,28.24395,6.97537,29.24811z"/>
		<path fill="#666666" d="M58.29187,32.57656c-1.29668,0-2.48598,0-3.69507,0c-0.11178,0.58897-0.09885,1.14579,0.42062,1.34804
			c0.35909,0.1398,1.04365,0.1237,1.23293-0.10822c0.56306-0.68996,1.2099-0.40812,1.91631-0.45744
			c-0.12183,0.84943-0.53092,1.43907-1.26677,1.58548c-0.77206,0.15362-1.59729,0.18544-2.38019,0.0985
			c-0.7946-0.08823-1.3151-0.66456-1.55257-1.43542c-0.30801-0.99982-0.28621-2.00008,0.09643-2.97947
			c0.42503-1.08791,1.34306-1.66724,2.58532-1.64939c1.21044,0.0174,2.1537,0.6028,2.4777,1.69561
			C58.29635,31.24688,58.24003,31.88655,58.29187,32.57656z M55.54329,31.39157c0-0.00369,0-0.00738,0-0.01107
			c0.24595,0,0.50181,0.04018,0.73362-0.01707c0.1147-0.02833,0.28979-0.30135,0.25825-0.35201
			c-0.18438-0.2961-0.37299-0.6922-0.65517-0.79584c-0.28069-0.10308-0.73211,0.01327-0.99761,0.19535
			c-0.19699,0.1351-0.21635,0.52923-0.31482,0.80798c0.22272,0.05755,0.44392,0.12252,0.66889,0.16922
			C55.33473,31.40855,55.44077,31.39157,55.54329,31.39157z"/>
		<path fill="#666666" d="M17.64131,33.3518c-0.07984,0.87238-0.50003,1.43909-1.2081,1.58653
			c-0.77091,0.16053-1.60053,0.20832-2.38044,0.11133c-0.86917-0.10809-1.48895-0.73565-1.58491-1.60777
			c-0.0973-0.88437-0.11409-1.82039,0.07146-2.68265c0.25207-1.17136,1.45579-1.86022,2.73328-1.77998
			c1.3532,0.08499,2.28446,0.88565,2.51295,2.16052c0.25852,1.44246,0.25852,1.44289-1.18606,1.44423
			c-0.70338,0.00065-1.40695,0.00849-2.11008-0.00491c-0.36119-0.00688-0.53985,0.17072-0.41653,0.48707
			c0.13286,0.34084,0.30476,0.78691,0.58487,0.91666c0.29053,0.13456,0.91859,0.08223,1.07203-0.12754
			C16.25522,33.13692,16.92067,33.39536,17.64131,33.3518z M16.04449,31.38729c-0.04548-0.87777-0.34135-1.23463-0.9431-1.26169
			c-0.52053-0.02341-0.96669,0.30584-0.997,0.80547c-0.00882,0.1454,0.18559,0.42442,0.30574,0.4354
			C14.93818,31.41473,15.47315,31.38729,16.04449,31.38729z"/>
		<path fill="#666666" d="M40.80953,30.79153c0.02002-0.82092,0.36784-1.32281,1.00048-1.53893
			c0.49789-0.17009,1.04753-0.26272,1.57391-0.26159c1.6217,0.00347,2.33871,0.75157,2.3465,2.36914
			c0.00585,1.21398,0.00116,2.428,0.00116,3.63977c-1.02361,0.22397-1.29875,0.14878-1.64289-0.49474
			c-0.53544,0.60137-1.22267,0.7295-1.97355,0.6446c-0.94308-0.10662-1.50603-0.61309-1.60241-1.44621
			c-0.1069-0.92401,0.48523-1.8899,1.40036-2.17418c0.46857-0.14556,0.97749-0.15607,1.45906-0.26714
			c0.22462-0.05181,0.6203-0.23855,0.60852-0.29392c-0.06733-0.31636-0.1587-0.72271-0.39022-0.8795
			c-0.19166-0.12979-0.79373-0.05016-0.86105,0.09754C42.29673,31.13565,41.53457,30.71048,40.80953,30.79153z M44.01788,32.56196
			c-0.09781-0.06024-0.27463-0.25904-0.46096-0.26839c-0.82788-0.04153-1.3859,0.34468-1.40084,0.90735
			c-0.01313,0.4949,0.34203,0.85833,0.854,0.87388C43.59893,34.09268,44.01049,33.55206,44.01788,32.56196z"/>
		<path fill="#666666" d="M51.61533,30.7024c-0.64492-0.00862-1.28685,0.24439-1.77808-0.4101
			c-0.10616-0.14143-0.46732-0.15845-0.69245-0.12103c-0.16105,0.02678-0.3825,0.22406-0.40899,0.37478
			c-0.02601,0.148,0.11963,0.41647,0.26134,0.48549c0.32901,0.16025,0.69541,0.2595,1.05684,0.33427
			c0.82699,0.17109,1.44686,0.57327,1.76092,1.39327c0.28193,0.73612,0.08865,1.47581-0.60102,1.88236
			c-1.10469,0.65119-2.27272,0.69128-3.46035,0.22175c-0.09516-0.03762-0.21354-0.08027-0.26341-0.15774
			c-0.22734-0.35315-0.44023-0.71634-0.63577-1.08778c-0.01477-0.02805,0.15553-0.22294,0.22495-0.21473
			c0.48448,0.05727,1.01988-0.24225,1.45168,0.25226c0.17354,0.19875,0.46091,0.35682,0.72097,0.40741
			c0.37905,0.07373,0.84201-0.01932,0.86485-0.4671c0.01243-0.2435-0.30111-0.60803-0.55845-0.73755
			c-0.43524-0.21907-0.94962-0.2744-1.41795-0.43567c-0.84131-0.28969-1.24674-0.82333-1.24496-1.5814
			c0.0019-0.8047,0.41371-1.35192,1.26582-1.63335c0.76199-0.25167,1.5364-0.3211,2.31958-0.07697
			C51.21996,29.36098,51.60564,29.86335,51.61533,30.7024z"/>
		<path fill="#666666" d="M32.59907,34.12329c0.19946,0.8855,0.14453,0.96521-0.67787,1.0078
			c-1.90462,0.09864-2.24413-0.2281-2.24276-2.15535c0.00049-0.68286-0.02513-1.36678,0.00564-2.0482
			c0.02018-0.4471-0.11262-0.67428-0.5848-0.61889c-0.46711,0.05479-0.59817-0.16736-0.60871-0.61427
			c-0.01132-0.47974,0.17177-0.63614,0.61829-0.57947c0.42219,0.05358,0.63536-0.12402,0.56264-0.56236
			c-0.08196-0.49404,0.18022-0.71245,0.61106-0.83299c0.35176-0.09841,0.695-0.22729,1.14084-0.37552
			c0,0.45768,0.03102,0.82607-0.00762,1.187c-0.05162,0.48209,0.15088,0.64437,0.60062,0.58714
			c0.42799-0.05446,0.69878,0.01226,0.68707,0.5684c-0.01053,0.49961-0.18484,0.6829-0.65937,0.62221
			c-0.48333-0.06182-0.66211,0.13446-0.63534,0.63248c0.03882,0.72213,0.00766,1.44795,0.00919,2.17219
			c0.00183,0.86711,0.08263,0.94741,0.94898,0.97163C32.44683,34.08733,32.52613,34.11081,32.59907,34.12329z"/>
		<path fill="#666666" d="M11.49186,29.12475c0,0.49791,0,0.96209,0,1.39063c-0.05414,0.04896-0.06901,0.07433-0.08451,0.07472
			c-1.38803,0.03502-1.7474,0.29855-1.72015,1.99681c0.01062,0.66187-0.01092,1.32437,0.00554,1.986
			c0.00892,0.35863-0.09427,0.52507-0.49012,0.51766c-1.43097-0.02677-1.20359,0.151-1.22279-1.15048
			c-0.02136-1.44782-0.01947-2.896-0.0454-4.34371c-0.00596-0.33277,0.06415-0.50941,0.44089-0.48178
			c0.34491,0.0253,0.69314,0.00537,1.07023,0.00537c0.03277,0.32164,0.05861,0.57527,0.09652,0.94728
			C10.07508,29.40669,10.6167,28.96083,11.49186,29.12475z"/>
		<path fill="#666666" d="M26.01255,32.06447c0-0.82738,0.01103-1.65497-0.00524-2.48203
			c-0.00685-0.34797,0.12211-0.47444,0.4691-0.4706c1.56094,0.01726,1.24402-0.126,1.26203,1.16351
			c0.01936,1.38559-0.01444,2.77209,0.01631,4.15728c0.01145,0.51585-0.15155,0.68386-0.66906,0.66496
			c-1.26944-0.04634-1.05459,0.1068-1.06814-1.04747c-0.00777-0.6618-0.00141-1.32376-0.00141-1.98565
			C26.01495,32.06447,26.01375,32.06447,26.01255,32.06447z"/>
		<path fill="#666666" d="M26.90802,28.14143c-0.86483-0.12247-1.22072-0.64916-0.89826-1.40006
			c0.04235-0.09862,0.20435-0.17628,0.32455-0.2035c0.15661-0.03545,0.32682-0.01148,0.49119-0.01192
			c0.98262-0.00258,1.20494,0.23398,0.92316,1.18364C27.68674,27.91831,27.19944,28.00081,26.90802,28.14143z"/>
	</g>
</g>
</svg>
