<?xml version="1.0" encoding="utf-8"?>
<!-- Generator: Adobe Illustrator 18.0.0, SVG Export Plug-In . SVG Version: 6.00 Build 0)  -->
<!DOCTYPE svg PUBLIC "-//W3C//DTD SVG 1.1//EN" "http://www.w3.org/Graphics/SVG/1.1/DTD/svg11.dtd">
<svg version="1.1" id="图层_1" xmlns="http://www.w3.org/2000/svg" xmlns:xlink="http://www.w3.org/1999/xlink" x="0px" y="0px"
	 viewBox="0 0 100.11053 35.22833" enable-background="new 0 0 100.11053 35.22833" xml:space="preserve">
<g>
	<polygon fill="#666666" points="78.66479,12.4866 79.60834,16.82425 82.68121,16.62247 81.86389,12.20309 	"/>
	<path fill="#666666" d="M32.39886,10.50497v-0.05524c-0.02942,0.09558-0.06592,0.198-0.10431,0.30219L32.39886,10.50497z"/>
	<polygon fill="#666666" points="42.59845,6.06308 38.74817,6.16019 38.74738,8.98752 33.40875,9.00461 33.2749,11.61948 
		49.15454,11.61948 49.15454,8.98752 42.5979,8.98752 	"/>
	<path fill="#666666" d="M34.02863,6.14511L30.16168,6.1116L25.4787,18.10306l2.75714-0.04987v10.82043h3.43439l0.15625-13.69354
		c0.04053-0.07587-1.32037-0.21997-1.32037-0.21997L34.02863,6.14511z"/>
	<polygon fill="#666666" points="71.5329,15.09097 72.40002,12.4866 69.69116,12.40439 68.72223,15.10855 	"/>
	<path fill="#666666" d="M18.73309,13.17905H4.68323v12.92798H0v2.82782h23.62451v-2.82782h-4.89142V13.17905z M15.29871,26.10703
		H7.90942v-1.81793h7.38928V26.10703z M15.29871,21.86502H8.01343v-1.81793h7.28528V21.86502z M15.40265,17.72397H8.01343v-1.91882
		h7.38922V17.72397z"/>
	<polygon fill="#666666" points="3.85059,11.32706 19.56561,11.32706 19.56561,13.95901 22.89594,13.95901 22.89594,8.69498 
		13.84155,8.69498 13.94598,6.25797 9.83521,6.25778 9.78271,8.69498 0.72827,8.69498 0.72827,13.95901 3.85059,13.95901 	"/>
	<rect x="33.54358" y="16.591" fill="#666666" width="14.88342" height="2.43695"/>
	<rect x="33.65558" y="12.88666" fill="#666666" width="14.77142" height="2.53461"/>
	<path fill="#666666" d="M33.85577,29.02695l13.9986,0.11481V20.2952h-13.9986V29.02695z M37.27283,23.28275h6.83386v2.98767
		h-6.83386V23.28275z"/>
	<polygon fill="#666666" points="56.67981,12.39981 53.974,12.54489 54.90985,15.12833 57.72009,15.08054 	"/>
	<polygon fill="#666666" points="60.11292,9.37802 60.11298,9.1824 59.59393,9.1824 	"/>
	<path fill="#666666" d="M53.71222,29.09293l18.52808-0.11267V19.1254H53.71222V29.09293z M57.85834,21.9415h9.97687v1.12628
		h-9.97687V21.9415z M57.85834,25.54599h9.97687v1.12653h-9.97687V25.54599z"/>
	<path fill="#666666" d="M67.08722,11.52194h6.34851V9.1824h-4.47412l-0.00165-3.07153L65.7865,6.06308l0.0011,3.11932h-5.67462
		l-0.00006,0.19562L59.59393,9.1824h0.51904l0.00128-3.07056l-3.43414-0.00098l0.05096,3.07153h-4.11011v2.33954h6.34851v4.48419
		H51.164v2.43689h23.62457v-2.43689h-7.70135V11.52194z M63.96503,16.00613h-2.08142v-4.48419h2.08142V16.00613z"/>
	<polygon fill="#666666" points="93.03363,22.5925 93.03363,20.99881 99.43506,20.99881 99.43506,18.40927 93.03363,18.40927 
		93.03363,16.26797 89.49506,16.26584 89.49506,18.40927 83.56213,18.40927 83.56213,20.99881 89.49506,20.99881 89.49506,22.5925 
		82.93842,22.5925 82.93842,25.28171 89.49506,25.28171 89.49506,29.16605 93.03363,29.16605 93.03363,25.28171 100.11053,25.28171 
		100.11053,22.5925 	"/>
	<path fill="#666666" d="M84.03082,17.17514c0,0,3.38434-0.82819,5.40497-1.729c0,0,1.94531-0.74402,2.14087-0.8056l1.52423,0.71094
		c2.1084,0.90173,6.48932,1.82367,6.48932,1.82367l-0.00128-2.82678c0,0-3.60706-0.94159-4.9942-1.65741
		c1.10907-1.16974,2.42773-3.34631,3.95471-6.53131l0.10413-0.09735H84.39563v2.63208h1.5611
		c0.00299,0.00714,0.00659,0.01385,0.00964,0.021h3.74536c-0.00244-0.00726-0.00598-0.01379-0.00842-0.021h3.64252
		c-0.90253,1.69049-1.5611,2.56781-1.97742,2.63196c-0.63458-0.5932-1.58472-1.01263-1.93097-1.83038h-3.71588
		c0.58716,1.28729,1.76984,2.16168,2.62878,3.19501c-1.80511,0.97491-4.47418,1.85223-4.47418,1.85223L84.03082,17.17514z"/>
	<polygon fill="#666666" points="82.0517,9.91336 80.23236,6.06277 77.00549,6.20737 78.92926,9.96017 	"/>
	<polygon fill="#666666" points="79.92041,18.13028 76.38184,29.02335 79.92041,29.069 83.0426,18.17648 	"/>
</g>
</svg>
