<?xml version="1.0" encoding="utf-8"?>
<!-- Generator: Adobe Illustrator 18.0.0, SVG Export Plug-In . SVG Version: 6.00 Build 0)  -->
<!DOCTYPE svg PUBLIC "-//W3C//DTD SVG 1.1//EN" "http://www.w3.org/Graphics/SVG/1.1/DTD/svg11.dtd">
<svg version="1.1" id="图层_1" xmlns="http://www.w3.org/2000/svg" xmlns:xlink="http://www.w3.org/1999/xlink" x="0px" y="0px"
	 viewBox="0 0 183.66667 39.18" enable-background="new 0 0 183.66667 39.18" xml:space="preserve">
<g>
	<path fill="#666666" d="M19.70337,4.60014h-0.12282C12.56073,4.78299,2.77128,6.69285,0.92354,13.03479
		c-0.06138,0.24566-0.12316,0.43087-0.12316,0.61685v0.86141c0.36882,3.63342,5.72612,7.81884,14.53196,7.81884l-4.74154,2.83305
		l8.43635,4.30994l0.55336-0.24566v-0.00033l8.92866-4.37137l-8.92866-3.69519l-0.86169-0.36905
		c0,0-12.93123,0.49366-11.8228-8.49638c1.35582-3.63342,7.02016-5.78993,12.68457-5.91107
		c6.15807-0.1863,12.43755,2.15444,13.29971,7.63354h5.91174C38.85372,6.75464,26.10777,4.41425,19.70337,4.60014z
		 M19.33421,23.19442l0.24633,0.12351l3.57203,1.84706l-3.57203,1.84705l-0.12282,0.06279l-3.44853-1.90986L19.33421,23.19442z"/>
	<path fill="#666666" d="M23.52206,16.85349l4.67875-2.77133l-8.3736-4.37234l-0.55506,0.30838l-8.92764,4.30994l8.92764,3.75556
		l0.80139,0.30844c0,0,12.93123-0.43155,11.88318,8.49638c-1.41551,3.63239-7.0188,5.78892-12.68456,5.9114
		c-6.21844,0.12351-12.43722-2.21621-13.29971-7.63496H0c0,7.2658,12.74634,9.54381,19.14933,9.4203h0.12282
		c7.02055-0.24566,16.81029-2.09271,18.65804-8.43567c0.06105-0.18528,0.12349-0.36809,0.12349-0.61581v-0.79968
		C37.68459,21.03892,32.26511,16.91319,23.52206,16.85349z M19.51983,15.99001l-0.24768-0.05935l-3.57095-1.84813l3.57095-1.90884
		l0.12386-0.06281l3.44818,1.97163L19.51983,15.99001z"/>
	<path fill="#666666" d="M60.31614,21.51189c0.59339,0.03176,1.19398,0.05003,1.79392,0.04625
		c1.07772,0.09903,2.00855,0.19765,2.80269,0.29534c1.1412,0.13215,2.14341-0.47469,2.96555-1.76736l0.06592-0.13797
		c0.16731-0.50299,0.15351-0.92907-0.04211-1.26577c-0.12074-0.20874-0.36983-0.47852-0.99531-0.59339
		c-1.80914,0-4.48798,0.09037-8.18075,0.27459c-0.42777-1.08158-0.6058-1.9323-0.53023-2.53392l0.01966-0.15385L58.161,15.53162
		c-0.10383-0.27459-0.22146-0.50781-0.34847-0.70553c1.01945-0.01691,1.91709,0.01103,2.65196,0.06483
		c2.08134,0.25012,3.23979-0.65618,3.36363-2.58503c-0.11728-1.86086-0.00102-2.66919,0.11661-3.02002l0.03036-0.15143
		c0.06003-0.78657-0.11592-1.42518-0.52335-1.89742c-0.42918-0.49852-1.09569-0.78381-2.07305-0.84729
		c-1.25471,0.09727-3.18219,0.14662-5.7061,0.1473c-2.71887-0.09591-4.85538-0.19488-6.36263-0.29601
		c-2.50635-0.11005-3.94666,1.15331-4.05948,3.60482c0.09938,3.43299,0.14765,5.84928,0.14871,7.42175
		c0.09762,1.77979,0.1473,3.36296,0.1473,4.70465c0,2.71712-0.04347,5.01336-0.12837,6.83459
		c-0.30014,0.10728-0.76657,0.24186-1.46831,0.39051h-0.3046l-0.13871,0.07349c-1.71497,0.91663-2.52325,2.11652-2.40109,3.56684
		l0.01899,0.227l0.16108,0.16216c0.32602,0.32603,0.76035,0.49197,1.29026,0.49197c0.60717,0,1.34237-0.21976,2.24622-0.67132
		l0.1104-0.07071c0.19529-0.15628,1.2309-0.70309,6.61929-2.4132c1.19365-0.39571,2.4046-0.8497,3.50681-1.31958
		c0.67964-0.16595,1.06879-0.71173,1.06879-1.49554v-0.25877l-0.18353-0.18319c-0.46332-0.46264-1.09503-0.59202-1.49346-0.45642
		c-1.07739,0.29291-3.05416,0.77521-5.72889,1.4003l-0.00379-6.10116c0.66375,0.36502,1.62627,0.28805,2.64053-0.16249
		c0.36192-0.09037,1.0298-0.18422,1.92262-0.27843c1.0229,0,2.20446-0.04137,3.51788-0.12451
		c3.35538,5.33695,7.34861,9.33715,11.87452,11.89353l0.1763,0.06693c1.54868,0.33462,3.26425-0.15108,5.08237-1.43409
		l0.12836-0.09037l0.07004-0.13905c0.34982-0.69721,0.12452-1.37481-0.67929-1.76877
		C67.70377,28.43201,63.29235,25.54238,60.31614,21.51189z M51.01386,18.53466c-1.09604,0.07935-1.82049,0.45778-2.298,0.94597
		l-0.00175-3.77557c0.01825-0.11486,0.06828-0.41985,0.92528-0.51645c1.69908-0.16974,3.45164-0.266,5.23935-0.28804
		c-0.0966,0.315-0.09836,0.67754,0.00243,1.06806c0.0818,0.7469,0.29601,1.59661,0.63894,2.53291
		C53.97839,18.69089,52.64602,18.70543,51.01386,18.53466z M53.57678,12.1644h-4.73946c-0.05178,0-0.09072-0.00311-0.11525-0.00447
		l-0.00621-1.80117c0.05691-0.40396,0.47541-0.72067,1.24436-0.94353L60.1381,9.40659
		c0.33117,0.05556,0.46852,0.1932,0.51577,0.42052v1.54727c-0.16872,0.59094-0.45297,0.64237-0.70829,0.64237
		C57.20228,12.01677,55.04543,12.0668,53.57678,12.1644z"/>
	<path fill="#666666" d="M109.65908,28.75425c-0.00033,0-0.00175,0-0.00243,0c-1.94643,0.0976-6.64108-0.05139-14.03862-0.44574
		c-0.29393,0-0.52127-0.01209-0.69688-0.03176l0.13007-6.11427c0.52543,0.02414,1.45207,0.0876,2.19586,0.13903l3.01454-0.00723
		c1.96435,0.30634,2.75822-0.45162,3.06696-1.18777c0.11383-0.39916,0.06105-0.78244-0.15182-1.10706
		c-0.34671-0.52991-1.075-0.85349-2.29178-1.01565l-0.13008-0.01826l-0.12592,0.03657
		c-0.22565,0.06449-0.91111,0.17319-2.97034,0.17319c-0.74725,0-1.61764-0.01345-2.61051-0.04137l-0.12696-3.79383h4.61595
		c0.44263,0.11214,0.85142,0.16974,1.21644,0.16974c1.38549,0,1.993-0.78867,2.25761-1.45101l0.03725-0.1318
		c0.07937-0.48644-0.00655-0.8825-0.25566-1.1754c-0.24701-0.29115-0.61826-0.43886-1.10225-0.43886h-6.92944l-0.00278-2.12097
		c0.09383-0.85626,0.19077-1.53591,0.30013-2.14171c0-1.26369-0.60858-2.13443-1.76013-2.51844l-0.21011-0.07037l-0.20699,0.0776
		c-0.72553,0.27222-1.59106,0.97977-1.59106,2.80716l0.00068,1.06913c0.05177,0.98841,0.11661,2.26833,0.13903,2.90828
		l-2.259,0.14248c-0.54301,0.06828-0.94456,0.11351-1.24544,0.14283h-0.89794c-0.18009,0-0.3046-0.01176-0.3881-0.0252
		c0.02624-0.46089-0.28082-1.01256-0.76412-1.71942v-0.25877l-0.1832-0.1832c-0.39849-0.39917-0.78001-0.59304-1.16709-0.59304
		c-0.3557,0-0.84938,0.16217-1.18196,0.93562l-0.04658,0.17284c-0.27633,2.30625-1.55523,4.51833-3.82074,6.59342
		c-0.49367,0.49436-0.71345,0.88872-0.71241,1.2768c0.00067,0.24531,0.09727,0.47508,0.26566,0.64204
		c0.10072,0.1014,0.28188,0.2222,0.5737,0.2222c0.20078,0,0.51267-0.04521,1.31823-0.39051
		c1.3565-0.62616,2.52013-1.47343,3.46091-2.51946l0.0945-0.13905c0.28012-0.56059,0.80624-0.88141,1.60628-0.97666
		c0.38395,0.07794,1.57178,0.09281,4.27201-0.01346c0.57784-0.06348,0.98254-0.10728,1.23232-0.12837v3.79179
		c-2.43044,0.1694-4.22679,0.11592-5.29593-0.15284l-0.13317-0.03279l-0.13419,0.02555
		c-2.29072,0.42986-2.91064,1.6173-3.01833,2.56604c-0.10934,0.40398,0.02827,0.681,0.12386,0.81417
		c0.38538,0.53578,1.29471,0.53471,2.78268,0.07694c1.6632-0.18455,3.57135-0.28223,5.67509-0.29047
		c-0.00311,2.74511-0.039,4.72155-0.10728,5.89342c-2.89862,0.18183-5.18067,0.31738-6.8215,0.40884
		c-1.95609,0-3.48198-0.04866-4.53423-0.14628l-0.09417-0.00864l-0.09282,0.01933c-2.73543,0.57891-3.30981,2.18274-3.30981,3.42676
		v0.14763l0.06591,0.13181c0.45434,0.90454,1.52901,1.05359,3.18253,0.29189c0.83105-0.36882,2.41631-0.70208,4.68633-0.98633
		c2.34039-0.19422,5.22002-0.34326,8.51537-0.44196c5.26003,0.19529,9.44476,0.73587,12.33263,1.56348
		c0.63718,0.3188,1.25436,0.47988,1.83503,0.47988c1.31681,0,2.42354-0.7959,3.26082-2.32179
		c0.2691-0.40539,0.40052-0.76035,0.40052-1.08638v-0.14905l-0.06725-0.13317
		C110.71822,29.15342,110.40807,28.75425,109.65908,28.75425z"/>
	<path fill="#666666" d="M142.43909,14.35682c-0.25803,0-0.53334,0.01033-0.78104,0.02969c-0.4054,0-1.08359,0.0476-2.07404,0.14763
		c-3.81419,0-4.55939-0.08349-4.77223-0.13662c-1.12262-0.21252-1.86086-0.01758-2.32106,0.53854
		c-0.40121,0.48333-0.51022,1.1754-0.3412,2.06168c0.09558,0.97909,0.14455,3.00177,0.14763,5.94968
		c-0.10211,1.01424,0.06139,1.74322,0.49989,2.22898c0.34537,0.38085,0.82869,0.57473,1.43619,0.57473
		c0.47231,0,1.01498-0.11592,1.65628-0.35502c1.98677-0.28082,4.00258-0.42505,5.99489-0.4285
		c0.28735,0.06348,0.5627,0.09524,0.81868,0.09524c1.08705,0,2.43529-0.552,2.69023-3.23844l-0.00313-2.16064
		c0.09349-0.95112,0.19043-1.67874,0.27669-2.11548c0.24458-0.88386,0.15561-1.61283-0.26566-2.16687
		C144.87677,14.69183,143.9084,14.35682,142.43909,14.35682z M142.07649,20.98822c-0.15486,0.99843-0.38429,1.1243-0.36774,1.13262
		l-0.19907-0.03279c-2.25037,0-4.06018,0.05002-5.37906,0.14905l-0.13251,0.02555c-0.14384,0.0428-0.23666,0.04521-0.35014,0.04866
		c-0.00211-0.00102-0.15216-0.18528-0.03003-1.07915c0-0.11592-0.02312-0.33568-0.14838-1.18506l-0.00175-1.82637
		c-0.05449-0.6983,0.09071-0.9363,0.15628-1.00701c0.02414-0.02691,0.09868-0.10626,0.35191-0.10626
		c0.04482,0,0.09181,0.00243,0.20146,0.01l2.29869-0.0052c0.76656-0.09524,1.58762-0.14283,2.48152-0.14385
		c0.5537-0.03175,0.95457,0.05725,1.16161,0.27843c0.19975,0.21354,0.28322,0.59304,0.24908,1.11807
		C142.27144,19.52099,142.17377,20.40105,142.07649,20.98822z"/>
	<path fill="#666666" d="M129.30501,13.77513c-0.3136-0.28223-0.7421-0.42505-1.27368-0.42505
		c-0.46677,0-1.01566,0.10761-1.67807,0.32704l-0.13837,0.06658c-0.02068,0.01034-0.22389,0.10005-1.04258,0.10005
		c-0.29115,0-0.62685-0.01137-1.00701-0.03347c0.42952-1.23854,0.69444-2.61604,0.78867-4.13127
		c0-2.22067-0.88527-2.85169-1.65907-2.97933c-0.54855-0.1825-1.03459-0.07794-1.3665,0.27702
		c-0.37465,0.40153-0.51645,1.08535-0.44123,2.032c-0.1984,1.57416-0.44433,3.05105-0.74101,4.44345
		c-0.00933,0.07416-0.01899,0.13763-0.02865,0.19285c-0.39984-0.01-1.2551-0.12215-3.15805-0.59027
		c-1.6432-0.11904-2.76302,0.32772-3.41745,1.38063c-0.40982,0.82038-0.4978,1.3413-0.29531,1.74566l0.1135,0.15872
		c0.22044,0.22321,0.75034,0.46264,1.61317,0.21976c0.36119,0.07659,0.86075,0.0476,1.68456-0.03555
		c1.41964-0.08794,2.30761-0.13419,2.79405-0.14283c-0.00482,0.0169-0.01034,0.03414-0.01623,0.0538
		c-1.64697,4.74359-4.04915,8.96111-7.13441,12.52794c-1.24887,1.4024-1.05048,2.24622-0.62651,2.71955
		c0.27357,0.43467,0.68444,0.67274,1.16399,0.67274c0.5737,0,1.20296-0.32846,2.01437-1.06806
		c3.20767-3.40953,5.79684-8.17385,7.70499-14.19903c0.14141-0.57026,0.29425-0.70444,0.28568-0.71173h2.51392
		c0.18183,0,0.26358,0.50401,0.26358,0.98734c-0.09524,3.51444-1.30302,6.936-3.51855,10.09026l-0.36739,0.37983
		c-0.6672,0.9532-0.91253,1.56868-0.82038,2.05681c0.04211,0.22355,0.15937,0.41742,0.33224,0.55545
		c1.03738,1.00459,2.32971,0.81072,3.74866-0.87905c1.61871-2.53047,2.79546-6.04836,3.50476-10.5563
		c0-1.16709,0.17143-2.06059,0.53889-2.71023C130.31581,14.77459,129.75175,14.07222,129.30501,13.77513z"/>
	<path fill="#666666" d="M183.08966,29.85272c-0.10869-0.28425-0.38155-0.50165-0.67136-0.69687l-0.1387-0.06969
		c-1.30925-0.46609-2.69334-1.28024-4.13744-2.43529c-2.88826-2.09718-3.39433-2.51703-3.47711-2.59985l-0.10625-0.10761
		l-0.14352-0.04625c-0.16182-0.0538-0.21767-0.10869-0.2263-0.12452l-0.01003-0.01588
		c0.62408-0.40776,1.28267-0.95699,1.96364-1.63838l0.11729-0.16216c0.2049-0.41019,0.34152-1.07807-0.17043-1.93365
		l-0.09592-0.12215c-0.08904-0.08902-0.1794-0.16486-0.2708-0.22943c0.66754-0.24531,1.04671-0.83247,1.04533-1.65042
		c0.19011-2.47186,0.6172-4.38794,1.30582-5.78304c0.28979-0.91629,0.217-1.71253-0.21492-2.36696
		c-0.62372-0.94353-1.93987-1.50034-4.08327-1.70531l-7.79126,0.00623c-0.9142,0.1318-1.57381,0.46745-1.96233,0.99841
		c-0.34705,0.4761-0.46263,1.08082-0.34636,1.76703c0.38882,3.31428,0.48677,7.31685,0.29288,11.88974
		c-0.25632,4.70565-0.86661,5.71409-1.1512,5.96177l-0.14763,0.14763l-0.13251,0.19528
		c-0.35152,0.82038-0.46088,1.52246-0.31013,2.23622c0.42197,1.16466,1.06569,1.40895,1.53212,1.40895
		c0.40776,0,0.81488-0.18319,1.30748-0.6213c0.52234-0.60784,1.63493-1.24644,3.26393-1.88363
		c1.3513-0.41505,2.51534-0.99843,3.42053-1.70531c0.51436-0.34191,0.71756-0.91076,0.55716-1.56003l-0.04901-0.1318
		c-0.23424-0.46264-0.74277-0.64719-1.44897-0.47265l-0.1694,0.06969c-0.31013,0.18563-1.04733,0.50401-2.74611,0.95699
		c-0.51714,0.08794-0.83177,0.13419-0.93253,0.13938l-0.19908,0.03279c-0.02069,0.00623-0.039,0.01209-0.05484,0.01588
		c-0.00552-0.039-0.01001-0.09281-0.01001-0.16353v-1.43686c0.03001-0.46365,0.0766-1.09361,0.14798-1.94576l0.14763-3.70242
		l-0.03381-0.21597c0.00067-0.00137,0.09486-0.07212,0.52855-0.07694c1.39307-0.18563,3.66174-0.28323,6.69278-0.29426
		c-0.06004,0.06003-0.12041,0.12837-0.17975,0.20766c-0.76035,1.09846-2.43076,1.65528-5.05615,1.66149
		c-1.41827,0.20631-1.57144,1.12295-1.5666,1.4293c-0.07625,0.60684,0.03554,1.08535,0.33151,1.421
		c0.2739,0.31116,0.66444,0.45264,1.07393,0.45885c0.65306,0.11005,1.36372,0.06246,2.1075-0.13903
		c0.32428,0.01447,0.60818,0.11451,0.8118,0.25977c2.24377,2.24622,4.37994,4.48143,6.36917,6.66519
		c1.11572,1.11429,2.63431,1.00221,4.5873-0.59202C183.26668,30.54507,183.23592,30.11522,183.08966,29.85272z M173.61317,16.04555
		l-0.01826,0.0745l0.00864,0.71276c-0.02968,0.17664-0.07002,0.23767-0.07314,0.24045l-0.19908-0.02069
		c-0.79211,0-2.15898,0.049-4.14743,0.14763h-2.04202l-0.00725-1.25611c-0.02103-0.12316-0.00447-0.1794,0.00345-0.19042
		c0.01967-0.02555,0.11006-0.0828,0.31635-0.11696h2.34593c2.40318-0.09178,3.44366-0.17217,3.93008-0.24186
		C173.71219,15.58636,173.67319,15.80369,173.61317,16.04555z M174.03922,12.58289c-0.011,0.01413-0.01689,0.02346-0.01689,0.02691
		l-3.53168,0.14763c-0.79623,0.03379-1.45209,0.05556-1.96643,0.06658l0.57129-0.58783l-1.80428,0.45297v-0.9363
		c0-0.16905,0-0.60095,1.05533-0.82693c0.54337,0.13074,1.19434,0.04625,2.50566-0.03034l2.25276-0.15216
		c0.62614,0.07868,0.83348,0.36882,0.93422,0.6603C174.03922,11.40371,174.03922,12.58289,174.03922,12.58289z"/>
	<path fill="#666666" d="M162.83022,27.15523l-0.10869-0.22734c-0.4978-0.6603-1.16121-0.82003-1.7339-0.43918
		c-0.36569,0.2439-1.28957,0.68099-3.63342,1.38651c0.0031-0.03657,0.00725-0.07794,0.01344-0.12696l0.00067-5.15141
		l2.98759-0.00588c0.97601,0.13526,1.7115-0.24186,2.16374-1.16228c0.1842-0.55404,0.05247-0.94112-0.09038-1.16709
		c-0.23941-0.38085-0.66896-0.60548-1.39171-0.69207h-3.52167v-1.95672c0.00656-0.02448,0.01208-0.04139,0.01276-0.05105
		l1.60695-0.01243c0.10524,0.02069,0.20699,0.03177,0.30669,0.03177c0.46814-0.00102,1.12225-0.22322,1.57759-1.28646
		l0.0507-0.24668c0-0.42228-0.20456-1.16086-1.66217-1.36582h-6.07216c-0.17839,0-0.34636,0.00898-0.50366,0.02793
		c0.33636-0.52233,0.68552-1.10949,1.0498-1.76459l0.06281-0.16284c0.00134-0.00136,0.10936-0.10869,0.46021-0.11972
		c1.61559,0.30324,3.59206,0.35882,5.87343,0.16284c0.08072,0.01068,0.15871,0.01554,0.23424,0.01554
		c0.52089,0,1.23677-0.22356,1.6915-1.28681l0.04279-0.14526c0.08728-0.53268-0.09526-0.88074-0.26393-1.07845
		c-0.30635-0.36086-0.80936-0.53579-1.53795-0.53579l-0.23322,0.04521c-0.08902,0.0352-0.52957,0.15249-2.45186,0.15249
		c-0.64374,0-1.39893-0.01278-2.26414-0.03866c0.1832-0.47779,0.40468-1.10949,0.67863-1.95123
		c0.15216-0.9284-0.25391-1.58247-1.10847-1.75392c-0.96976-0.16109-1.59038,0.27702-1.74664,1.06636
		c-0.6555,2.80857-2.37563,5.3325-5.09827,7.4911c-0.56818,0.42607-0.8394,0.8925-0.80557,1.38306
		c0.03413,0.50056,0.37949,0.9353,1.02531,1.29403l0.13008,0.0538c0.81729,0.23802,1.59729,0.10106,2.34183-0.44574
		c0.03792,0.08314,0.08659,0.15526,0.14107,0.21976c0.25803,0.39052,0.73242,0.52748,1.67531,0.40539
		c0.49814,0.08558,1.03804,0.04521,1.60594-0.11485c0.00102,0.0048,0.00313,0.00864,0.00479,0.01345l-0.00554,1.95434
		l-2.11685,0.00378c-1.39027-0.1442-2.16963,0.49679-2.43388,0.92041c-0.97842,0.97632-0.93697,1.79325-0.73068,2.30592
		l0.07938,0.1404c0.47021,0.62718,1.29782,0.74831,2.19484,0.35982c0.96877-0.35016,1.99232-0.58093,3.01279-0.68476v4.68876
		c0,0.90217-0.26802,1.57106-0.88695,2.11203c-0.5451,0.63718-0.99532,1.69666-0.04521,3.12251l0.11903,0.13283
		c0.38329,0.32014,0.80037,0.48231,1.23921,0.48231c0.49855,0,1.00079-0.21355,1.56796-0.7093
		c0.28979-0.34914,0.95944-0.90075,2.50357-1.56971c0.2001-0.04137,0.4254-0.15385,0.72136-0.35536
		c1.12051-0.6113,2.05405-1.23402,2.7123-1.80536C162.78569,28.37339,162.98888,27.80585,162.83022,27.15523z M159.44237,16.93698
		v0.01933l-0.00554-0.01933C159.43861,16.93698,159.44031,16.93698,159.44237,16.93698z"/>
</g>
</svg>
