<?xml version="1.0" encoding="utf-8"?>
<!-- Generator: Adobe Illustrator 18.0.0, SVG Export Plug-In . SVG Version: 6.00 Build 0)  -->
<!DOCTYPE svg PUBLIC "-//W3C//DTD SVG 1.1//EN" "http://www.w3.org/Graphics/SVG/1.1/DTD/svg11.dtd">
<svg version="1.1" id="图层_1" xmlns="http://www.w3.org/2000/svg" xmlns:xlink="http://www.w3.org/1999/xlink" x="0px" y="0px"
	 viewBox="0 0 85 35.22833" enable-background="new 0 0 85 35.22833" xml:space="preserve">
<g id="U3dPuH_1_">
	<g>
		<path fill="#666666" d="M77.4379,16.84262c0.2183,2.05201,0.29829,2.12535,2.09433,2.11865
			c0.90829-0.00339,1.82069,0.05536,2.7239-0.0121c1.17994-0.08812,1.32597,0.54065,1.32968,1.51433
			c0.00366,0.96283-0.22768,1.48251-1.3008,1.4135c-0.89993-0.05787-1.80654-0.01189-2.95795,0.28268
			c1.0071,0.77475,1.95725,1.64241,3.03458,2.30254c1.63105,0.9994,2.0673,1.74226,1.61575,3.635
			c-0.06007,0.25183-0.71874,0.61381-0.96568,0.52972c-3.10557-1.05752-5.72634-2.81432-7.50856-5.6321
			c-0.51275-0.81069-1.06882-1.20481-2.08273-1.15781c-1.94219,0.09004-3.89262,0.06345-5.83743,0.00817
			c-0.87372-0.02484-1.25654,0.19502-1.22995,1.145c0.08543,3.05206-0.37827,2.60135,2.60091,2.63973
			c0.82166,0.01059,1.65534-0.08136,2.46127,0.03195c0.54542,0.07669,1.37717,0.31418,1.50869,0.6835
			c0.28041,0.78743-0.70354,2.02452-1.5105,2.08991c-0.85961,0.06967-1.72867,0.02642-2.59361,0.02587
			c-1.42728-0.00091-2.85684,0.04169-4.28123-0.02462c-1.46785-0.06833-2.23225-0.85017-2.23933-2.31536
			c-0.02591-5.3632-0.02451-10.72666-0.00105-16.08987c0.00626-1.4304,0.73484-2.1309,2.20493-2.13636
			c5.70924-0.0212,11.41862-0.0202,17.12788-0.00405c1.27757,0.00361,1.90343,0.6521,1.92061,1.92726
			c0.02271,1.68653,0.01624,3.37374-0.00037,5.06043c-0.01331,1.35229-0.60829,1.93701-2.00222,1.95927
			C80.18271,16.85969,78.81577,16.84262,77.4379,16.84262z M73.0307,14.01091c0-0.00203,0-0.00406,0-0.00609
			c1.42505,0,2.85011-0.00324,4.27516,0.00068c2.90762,0.008,2.09801,0.22876,2.18787-2.38784
			c0.00973-0.28299-0.49586-0.83463-0.76853-0.83856c-3.84252-0.05548-7.68635-0.05537-11.52888-0.00041
			c-0.27766,0.00397-0.65137,0.49447-0.79184,0.83627c-0.13677,0.33277,0.00165,0.76858-0.03849,1.15312
			c-0.09689,0.92834,0.20736,1.31408,1.22477,1.26658C69.4005,13.95016,71.21702,14.01091,73.0307,14.01091z M73.63135,18.96886
			c-0.36608-0.89756,0.20096-2.06943-1.18587-2.10935c-1.75964-0.05066-3.5221,0.00546-5.28278-0.02164
			c-0.77335-0.0119-0.79307,0.457-0.78526,1.01499c0.00816,0.58381-0.02081,1.13358,0.83273,1.12371
			C69.26431,18.95279,71.31892,18.96886,73.63135,18.96886z"/>
		<path fill="#666666" d="M59.18323,17.67355c0,1.72964-0.00434,3.4593,0.00134,5.18893
			c0.00486,1.48347-0.57069,2.15269-2.07292,2.19641c-1.85787,0.05408-3.71922,0.05083-5.57739,0.0047
			c-0.853-0.02117-1.25784,0.16081-1.22256,1.13637c0.1102,3.04759,0.25472,2.58678-2.86934,2.67009
			c-0.85698,0.02285-1.11739-0.38359-1.15441-1.17289c-0.12288-2.61996-0.14005-2.61965-2.80396-2.61872
			c-1.25401,0.00044-2.50859,0.02781-3.7619-0.00108c-1.69267-0.03903-2.41066-0.71711-2.42307-2.36649
			c-0.02634-3.5023-0.02421-7.00513,0.0063-10.50739c0.01346-1.5455,0.70686-2.20265,2.23874-2.21647
			c1.85925-0.01677,3.71897-0.01842,5.57809,0.00507c0.80952,0.01023,1.34728-0.1207,1.20522-1.14546
			c-0.11271-0.81304,0.37838-1.17897,1.17589-1.16363c0.51863,0.00998,1.03783,0.01621,1.55627,0.00346
			c0.90394-0.02224,1.43334,0.33268,1.27328,1.30848c-0.14596,0.88991,0.33432,1.00493,1.04955,0.99614
			c1.90235-0.02337,3.8053-0.01905,5.70781-0.00288c1.58568,0.01348,2.10559,0.55494,2.10154,2.1074
			c-0.00483,1.85931-0.00114,3.71864-0.00114,5.57796C59.18813,17.67354,59.18568,17.67354,59.18323,17.67355z M46.31866,17.53456
			c0-1.20833-0.04417-2.41883,0.01537-3.62422c0.04039-0.81759-0.30165-1.07981-1.05664-1.06043
			c-0.94877,0.02436-1.90045,0.0358-2.84766-0.01163c-0.7534-0.03772-0.98241,0.29607-0.97127,0.99624
			c0.02471,1.55325,0.00517,3.1072,0.00452,4.66086c-0.00165,3.93188-0.00287,3.91587,3.94674,3.57034
			c0.72059-0.06304,0.9628-0.30654,0.92311-1.03644C46.26968,19.86751,46.31597,18.69978,46.31866,17.53456z M50.33228,12.86081
			c0,2.9663-0.01388,5.79664,0.03079,8.62605c0.00302,0.19156,0.43864,0.52464,0.68716,0.53848
			c1.11671,0.06215,2.24347,0.09106,3.3551-0.00343c0.28981-0.02464,0.76274-0.53107,0.77022-0.8259
			c0.06233-2.45418,0.06201-4.91127,0.00353-7.36563c-0.00782-0.32844-0.42737-0.90693-0.68826-0.92573
			C53.16972,12.8094,51.83804,12.86081,50.33228,12.86081z"/>
		<path fill="#666666" d="M26.81762,25.94084c-5.05638-0.21181-8.84442-2.13061-12.45196-4.50665
			c-0.89886-0.59202-1.72166-1.29854-2.61019-1.90753c-0.70909-0.486-0.86464-0.86371-0.05929-1.44786
			c4.29072-3.11223,9.00532-5.09667,14.34293-5.34065c1.23469-0.05644,2.49302,0.1961,3.72628,0.39464
			c0.74246,0.11953,0.99467,0.67403,0.69587,1.36742c-0.97013,2.2513-0.40784,4.30415,0.77877,6.27595
			c1.28992,2.14347,0.85195,3.64193-1.49379,4.50986C28.63158,25.69844,27.40746,25.815,26.81762,25.94084z"/>
		<path fill="#666666" d="M9.71304,15.27592c0.37654-3.68911,0.84722-7.58341,2.68326-11.14972
			c0.25524-0.49577,0.53406-1.00395,0.90925-1.40636c0.36006-0.38617,0.85957-0.64232,1.2978-0.95561
			c0.24144,0.41256,0.54593,0.80135,0.71215,1.24226c0.44652,1.18442,1.72543,1.78453,3.60325,1.52928
			c1.10744-0.15053,2.19309-0.45784,3.29914-0.62404c0.38191-0.05739,0.93008-0.03359,1.15592,0.19574
			c0.20897,0.2122,0.21638,0.79471,0.09381,1.13546c-1.51472,4.21119-4.55127,7.1531-8.17746,9.54996
			c-1.25335,0.82845-2.62784,1.47863-3.96839,2.1687c-1.28002,0.65893-1.47972,0.52546-1.60675-0.94571
			C9.70025,15.84448,9.71304,15.67068,9.71304,15.27592z"/>
		<path fill="#666666" d="M9.70848,20.18061c0.49227,0.0854,0.716,0.07619,0.89379,0.16209
			c4.4586,2.15408,8.08106,5.10407,9.46951,10.12187c0.39623,1.43196-0.16847,2.05612-1.44991,1.40435
			c-2.02775-1.03137-3.4776-0.69817-4.90395,1.03568c-0.82096,0.99795-1.86411,0.61789-2.4408-0.79732
			c-0.35393-0.86856-0.63173-1.80445-0.7328-2.73306C10.21957,26.39045,9.99289,23.39601,9.70848,20.18061z"/>
		<path fill="#666666" d="M8.82631,19.63004c0.14876,2.8404,0.34391,5.35244,0.38188,7.86684
			c0.01603,1.06149-0.13192,2.19445-0.51989,3.1698c-0.27831,0.69968-1.00727,1.51447-1.67178,1.66179
			c-0.43675,0.09683-1.48481-0.82144-1.6193-1.42718c-0.41876-1.88606-1.61485-2.72342-3.30578-3.21579
			c-0.66479-0.19358-1.03349-0.74767-0.59959-1.41756C3.25932,23.53916,5.70539,21.55121,8.82631,19.63004z"/>
		<path fill="#666666" d="M8.30705,17.40087c-2.77722-1.46495-4.84253-3.59751-5.81716-6.6578
			C2.38182,10.40374,2.81652,9.5662,3.15136,9.46571c1.74409-0.52343,2.34072-1.8871,2.85629-3.39867
			c0.1409-0.4131,0.49683-0.75286,0.75408-1.12627c0.36366,0.26723,0.88,0.45711,1.06199,0.81637
			c0.51932,1.02519,1.23163,2.10607,1.27509,3.18884c0.11115,2.76964-0.09929,5.55219-0.18111,8.32957
			C8.71414,17.31733,8.51059,17.3591,8.30705,17.40087z"/>
		<path fill="#666666" d="M1.68964,22.32644c-1.81,0.01632-1.93053-0.36508-1.44523-1.90815
			c0.31654-1.00648,0.33379-2.19893,0.1519-3.25043c-0.33727-1.94973,0.11381-2.52352,2.04436-2.21993
			c2.25081,0.35395,3.75884,1.82698,5.17644,3.41493c0.17746,0.19878,0.19372,0.86597,0.03095,0.9943
			C5.81408,20.80309,3.92585,22.17633,1.68964,22.32644z"/>
	</g>
</g>
</svg>
