<?xml version="1.0" encoding="utf-8"?>
<!-- Generator: Adobe Illustrator 18.0.0, SVG Export Plug-In . SVG Version: 6.00 Build 0)  -->
<!DOCTYPE svg PUBLIC "-//W3C//DTD SVG 1.1//EN" "http://www.w3.org/Graphics/SVG/1.1/DTD/svg11.dtd">
<svg version="1.1" id="图层_1" xmlns="http://www.w3.org/2000/svg" xmlns:xlink="http://www.w3.org/1999/xlink" x="0px" y="0px"
	 viewBox="0 0 544.85168 485.37006" enable-background="new 0 0 544.85168 485.37006" xml:space="preserve">
<g>
	<polygon fill="#EDEDED" points="205.80646,394.95798 191.53087,475.853 353.32086,475.853 341.42453,371.16534 	"/>
	<rect x="170.11748" y="475.853" fill="#DCD8DB" width="204.61678" height="9.51706"/>
	<path fill="#DBDBDB" d="M0.00005,311.68372h544.85162v71.21408c0,7.9747-6.46478,14.43945-14.43945,14.43945H14.4395
		c-7.97469,0-14.43945-6.46475-14.43945-14.43945L0.00005,311.68372z"/>
	<circle fill="#3F3F3F" cx="272.42587" cy="354.5105" r="11.89632"/>
	<path fill="#3F3F44" d="M530.41223,0H14.43948C6.4648,0,0.00002,6.46478,0.00002,14.43945v299.62354h544.85168V14.43945
		C544.85168,6.46478,538.3869,0,530.41223,0z M522.22638,294.66815H22.62533V24.4295h499.60104V294.66815z"/>
</g>
</svg>
