<?xml version="1.0" encoding="utf-8"?>
<!-- Generator: Adobe Illustrator 18.0.0, SVG Export Plug-In . SVG Version: 6.00 Build 0)  -->
<!DOCTYPE svg PUBLIC "-//W3C//DTD SVG 1.1//EN" "http://www.w3.org/Graphics/SVG/1.1/DTD/svg11.dtd">
<svg version="1.1" id="图形" xmlns="http://www.w3.org/2000/svg" xmlns:xlink="http://www.w3.org/1999/xlink" x="0px" y="0px"
	 viewBox="391.24207 274.39914 20 20" enable-background="new 391.24207 274.39914 20 20" xml:space="preserve">
<g>
	<path fill="#4E7DA3" d="M401.24207,274.39914c-5.55554,0-10,4.44446-10,10s4.44446,10,10,10s10-4.44446,10-10
		S406.79761,274.39914,401.24207,274.39914z M405.96429,282.5936c0,0,0-1.38892,0-1.94446
		c-0.41669,0.41666-1.66669,1.52777-2.22223,2.08334c0.55554,0.69443,0.97223,1.66666,0.97223,2.77777
		c0,2.36111-1.94446,4.30554-4.44446,4.30554c-2.36111,0-4.44443-1.94443-4.44443-4.30554s1.94443-4.30557,4.44443-4.30557
		c0.97223,0,1.80557,0.2778,2.5,0.83334c0.55557-0.55554,1.80557-1.66666,2.22223-2.08334c-0.55554,0-2.22223,0-2.22223,0v-1.25
		h4.16669v3.88892H405.96429z"/>
	<path fill="#4E7DA3" d="M400.40872,282.17691c-1.66666,0-3.19443,1.38889-3.19443,3.05557
		c0,1.66666,1.38889,3.05554,3.19443,3.05554c1.66669,0,3.19446-1.38889,3.19446-3.05554
		C403.46429,283.70468,402.07541,282.17691,400.40872,282.17691z"/>
</g>
</svg>
