<?xml version="1.0" encoding="utf-8"?>
<!-- Generator: Adobe Illustrator 18.0.0, SVG Export Plug-In . SVG Version: 6.00 Build 0)  -->
<!DOCTYPE svg PUBLIC "-//W3C//DTD SVG 1.1//EN" "http://www.w3.org/Graphics/SVG/1.1/DTD/svg11.dtd">
<svg version="1.1" id="图层_1" xmlns="http://www.w3.org/2000/svg" xmlns:xlink="http://www.w3.org/1999/xlink" x="0px" y="0px"
	 viewBox="0 0 12 6.8506" enable-background="new 0 0 12 6.8506" xml:space="preserve">
<g id="GypnV1.tif_9_" opacity="0.6">
	<g>
		<path fill="#999999" d="M6.0088,4.84976c0.06694-0.09893,0.0972-0.16331,0.14449-0.2107
			c1.43717-1.44,2.87758-2.87678,4.31319-4.31834c0.26221-0.2633,0.55853-0.38891,0.9233-0.2834
			c0.57045,0.165,0.79399,0.84177,0.44051,1.31928c-0.04707,0.06358-0.10218,0.12193-0.15825,0.17803
			c-1.65513,1.65613-3.31204,3.31048-4.96526,4.96851c-0.25754,0.25829-0.548,0.42293-0.91375,0.31265
			C5.62705,6.76574,5.45959,6.66175,5.33601,6.5388C3.64408,4.85538,1.95863,3.16544,0.27434,1.47435
			c-0.36342-0.36488-0.36365-0.88917-0.01332-1.23344C0.5997-0.0919,1.12691-0.07893,1.48188,0.27566
			c1.45544,1.45389,2.90983,2.90883,4.36356,4.36443C5.89272,4.68743,5.92869,4.74608,6.0088,4.84976z"/>
	</g>
</g>
</svg>
