<?xml version="1.0" encoding="utf-8"?>
<!-- Generator: Adobe Illustrator 18.0.0, SVG Export Plug-In . SVG Version: 6.00 Build 0)  -->
<!DOCTYPE svg PUBLIC "-//W3C//DTD SVG 1.1//EN" "http://www.w3.org/Graphics/SVG/1.1/DTD/svg11.dtd">
<svg version="1.1" id="图层_1" xmlns="http://www.w3.org/2000/svg" xmlns:xlink="http://www.w3.org/1999/xlink" x="0px" y="0px"
	 viewBox="0 0 48.5861 48.53307" enable-background="new 0 0 48.5861 48.53307" xml:space="preserve">
<g id="vVAXzp.tif_1_">
	<g>
		<path fill="#FFFFFF" d="M44.27908,0.47156c0,15.88797,0,31.71318,0,47.58994c-13.31229,0-26.61105,0-39.97207,0
			c0-15.83909,0-31.69245,0-47.58994C17.61374,0.47156,30.91277,0.47156,44.27908,0.47156z M42.37443,46.23437
			c0-14.67031,0-29.28517,0-43.88744c-12.10005,0-24.13856,0-36.18136,0c0,14.65556,0,29.25482,0,43.88744
			C18.26566,46.23437,30.28861,46.23437,42.37443,46.23437z"/>
		<path fill="#FFFFFF" d="M35.66634,10.9862c0,0.58934,0,1.11665,0,1.69851c-7.58523,0-15.16102,0-22.7734,0
			c0-0.56444,0-1.10714,0-1.69851C20.48153,10.9862,28.04027,10.9862,35.66634,10.9862z"/>
		<path fill="#FFFFFF" d="M30.85671,39.7452c1.71565-1.71855,3.33055-3.33619,4.93736-4.94572
			c0.60684,0.59679,1.16376,1.14449,1.67833,1.65055c-2.19292,2.19253-4.38426,4.38348-6.53319,6.53203
			c-1.16984-1.17088-2.39442-2.39656-3.63483-3.63808c0.50019-0.45918,1.07756-0.9892,1.76909-1.62402
			C29.62423,38.34546,30.23134,39.03497,30.85671,39.7452z"/>
		<path fill="#FFFFFF" d="M12.89088,26.03829c0-0.58049,0-1.1234,0-1.70601c4.4119,0,8.78947,0,13.20357,0
			c0,0.56251,0,1.10589,0,1.70601C21.72505,26.03829,17.35149,26.03829,12.89088,26.03829z"/>
		<path fill="#FFFFFF" d="M12.9171,31.81375c0-0.58555,0-1.10844,0-1.68747c4.39761,0,8.76989,0,13.18706,0
			c0,0.55115,0,1.09078,0,1.68747C21.72545,31.81375,17.35321,31.81375,12.9171,31.81375z"/>
		<path fill="#FFFFFF" d="M35.6838,24.33933c0,0.59006,0,1.14927,0,1.74463c-1.54413,0-3.04953,0-4.59845,0
			c0-0.577,0-1.137,0-1.74463C32.58908,24.33933,34.09367,24.33933,35.6838,24.33933z"/>
		<path fill="#FFFFFF" d="M31.07568,31.78214c0-0.57528,0-1.09705,0-1.66508c1.52229,0,3.01163,0,4.55683,0
			c0,0.53442,0,1.07278,0,1.66508C34.14214,31.78214,32.63624,31.78214,31.07568,31.78214z"/>
	</g>
</g>
</svg>
