<?xml version="1.0" encoding="utf-8"?>
<!-- Generator: Adobe Illustrator 18.0.0, SVG Export Plug-In . SVG Version: 6.00 Build 0)  -->
<!DOCTYPE svg PUBLIC "-//W3C//DTD SVG 1.1//EN" "http://www.w3.org/Graphics/SVG/1.1/DTD/svg11.dtd">
<svg version="1.1" id="图层_1" xmlns="http://www.w3.org/2000/svg" xmlns:xlink="http://www.w3.org/1999/xlink" x="0px" y="0px"
	 viewBox="0 0 37.7 39.18" enable-background="new 0 0 37.7 39.18" xml:space="preserve">
<g id="uY9Xyb.tif">
	<g>
		<path fill="#366384" d="M29.48831,12.09834c-0.21875,0.16172-0.35505,0.25531-0.48357,0.35858
			c-2.10293,1.68978-4.56638,2.52329-7.17234,3.01148c-4.72165,0.88455-9.40181,0.73644-14.02436-0.61301
			c-1.8093-0.52818-3.49571-1.30922-4.92365-2.57579c-0.05595-0.04963-0.12498-0.08453-0.2381-0.15959
			c-0.01404,0.17538-0.03323,0.30614-0.03359,0.43695c-0.00261,0.94273,0.05556,1.88974-0.0146,2.82722
			c-0.10852,1.44996,0.56271,2.46269,1.6502,3.28734c1.61036,1.22115,3.47496,1.8592,5.40747,2.32703
			c1.90101,0.46021,3.84262,0.59627,5.79026,0.66883c0.21872,0.00815,0.44026,0.01948,0.65413,0.0616
			c0.38554,0.07593,0.62993,0.30123,0.58504,0.72039c-0.0441,0.41175-0.32518,0.60775-0.71381,0.60413
			c-0.47011-0.00439-0.93973-0.05648-1.40964-0.0867c-2.33639-0.15026-4.66129-0.35848-6.90114-1.11869
			c-1.7664-0.59952-3.45662-1.3295-4.86159-2.59984c-0.03129-0.02829-0.07886-0.0386-0.20586-0.09799
			c0,0.60217-0.00231,1.15658,0.00059,1.71096c0.00361,0.69115,0.02578,1.38253,0.01381,2.07335
			c-0.01389,0.80206,0.28646,1.46475,0.82496,2.03835c1.07043,1.14021,2.40842,1.83808,3.8594,2.35776
			c3.25706,1.16654,6.62742,1.49626,10.05983,1.38394c0.29769-0.00974,0.59617-0.00014,0.89418,0.00573
			c0.39361,0.00775,0.62731,0.21735,0.64542,0.60297c0.01779,0.37878-0.19359,0.63986-0.56829,0.69448
			c-0.43365,0.06321-0.87453,0.09569-1.31299,0.10413c-3.62166,0.06968-7.1784-0.30921-10.59087-1.60792
			c-1.26998-0.48333-2.44082-1.14927-3.46899-2.04967C2.87008,26.39417,2.7803,26.335,2.64469,26.23279
			c-0.02146,0.16238-0.04888,0.27586-0.04946,0.38948c-0.00387,0.7537,0.02701,1.5088-0.00851,2.26085
			c-0.05909,1.25109,0.45432,2.21883,1.39022,2.99608c1.50898,1.25317,3.29033,1.92891,5.1606,2.40559
			c3.63823,0.92728,7.31378,1.08577,11.02302,0.51456c0.44969-0.06925,0.90107-0.12812,1.35243-0.18576
			c0.49674-0.06344,0.84554,0.13678,0.91944,0.51951c0.08599,0.44533-0.1222,0.76812-0.66287,0.84164
			c-1.39823,0.19014-2.79876,0.3957-4.20537,0.48538c-3.13906,0.20015-6.24471-0.06516-9.2746-0.94765
			c-1.99948-0.58237-3.93062-1.32792-5.48092-2.79749C1.762,31.72282,1.18245,30.5524,1.18979,29.05247
			C1.22184,22.50059,1.22327,15.94836,1.18886,9.3965c-0.00799-1.52155,0.5925-2.69228,1.65572-3.69003
			c1.22813-1.15249,2.72053-1.84869,4.28183-2.40084c2.65961-0.94056,5.4214-1.31661,8.2292-1.37849
			c3.22618-0.07111,6.39516,0.31022,9.45874,1.3574c1.7166,0.58677,3.36059,1.32937,4.64851,2.67324
			c0.9052,0.94453,1.41467,2.03333,1.38743,3.3834c-0.04152,2.05748-0.01052,4.11641-0.01153,6.17472
			c-0.00008,0.17262,0.00222,0.34649-0.01652,0.5176c-0.04848,0.44259-0.31978,0.71324-0.68011,0.69356
			c-0.38452-0.021-0.63962-0.28666-0.64842-0.72545c-0.01417-0.70678-0.00499-1.41403-0.00534-2.12108
			C29.48808,13.32186,29.48831,12.76318,29.48831,12.09834z M16.04254,14.65271c2.55112-0.0321,5.07809-0.26785,7.52972-1.01349
			c1.82445-0.55488,3.59539-1.22865,4.96874-2.64665c1.20964-1.24897,1.21112-2.70942,0.00534-3.9596
			c-1.10952-1.15038-2.48766-1.84684-3.96961-2.35495c-3.33743-1.14429-6.77316-1.62758-10.28722-1.28795
			c-1.82069,0.17597-3.64462,0.44563-5.42786,0.84718C6.97,4.6632,5.19185,5.43329,3.72234,6.76725
			C2.26383,8.09123,2.21879,9.66792,3.59135,11.0804c0.12002,0.12351,0.25149,0.23695,0.38482,0.3463
			c0.94475,0.77485,2.01642,1.32703,3.15272,1.75356C10.00177,14.25864,12.99453,14.62599,16.04254,14.65271z"/>
		<path fill="#366384" d="M36.49628,21.61888c-0.2961,6.47766-2.79551,11.77319-8.28779,15.46877
			c-0.36413,0.245-0.69969,0.2162-1.04362,0.00314c-4.64248-2.87599-7.17714-7.12505-8.02685-12.43798
			c-0.19005-1.18829-0.19814-2.40564-0.29109-3.60953c-0.0223-0.28883,0.06451-0.46925,0.38673-0.53186
			c2.34926-0.45645,4.52357-1.39184,6.62224-2.50395c1.25408-0.66455,2.44649-0.61159,3.68178,0.02673
			c1.60273,0.82819,3.22131,1.62891,4.98427,2.07597c0.50169,0.12722,1.00269,0.26372,1.51142,0.3543
			c0.35904,0.06393,0.5221,0.21382,0.46756,0.58941C36.47411,21.23854,36.49628,21.43032,36.49628,21.61888z M35.07326,22.30519
			c0.166-0.4636-0.14131-0.67783-0.63649-0.81821c-1.96619-0.55741-3.85321-1.31508-5.65536-2.28331
			c-0.76305-0.40996-1.51681-0.37744-2.28901,0.03267c-1.83047,0.97215-3.70942,1.83581-5.7341,2.33121
			c-0.39464,0.09656-0.55511,0.29875-0.49478,0.70347c0.1893,1.2697,0.26595,2.56596,0.56974,3.80702
			c0.96073,3.92476,3.02665,7.12436,6.42412,9.40685c0.3404,0.22869,0.55797,0.18092,0.85561-0.03828
			C32.50977,32.2085,34.70334,27.80034,35.07326,22.30519z"/>
	</g>
</g>
</svg>
