<?xml version="1.0" encoding="utf-8"?>
<!-- Generator: Adobe Illustrator 18.0.0, SVG Export Plug-In . SVG Version: 6.00 Build 0)  -->
<!DOCTYPE svg PUBLIC "-//W3C//DTD SVG 1.1//EN" "http://www.w3.org/Graphics/SVG/1.1/DTD/svg11.dtd">
<svg version="1.1" id="图层_1" xmlns="http://www.w3.org/2000/svg" xmlns:xlink="http://www.w3.org/1999/xlink" x="0px" y="0px"
	 viewBox="0 0 48.5861 48.53307" enable-background="new 0 0 48.5861 48.53307" xml:space="preserve">
<g>
	<path fill="#FFFFFF" d="M43.16232,9.06324C38.546,3.31657,31.67728,0.02052,24.31717,0.02052
		c-3.44021,0-6.80882,0.72564-9.78004,2.10289c0.00438,0.0039,0.00877,0.00877,0.01364,0.01266
		c0.31022,0.2737,0.60389,0.53278,0.85859,0.8396c0.34675,0.41882,0.48749,0.33506,0.9292,0.18506
		c9.06025-3.10125,17.1947-1.3266,23.89735,5.21388c7.09664,6.92424,8.68135,17.59453,3.94328,26.55348
		c-3.84053,7.26028-11.66768,11.95208-19.94141,11.95208c-1.62562,0-3.24589-0.18311-4.81648-0.5435
		C8.90734,43.92503,1.61249,34.74303,1.68116,24.00846c0.01705-2.69314,0.53181-5.34829,1.53017-7.89338
		c0.05649-0.14415,0.08036-0.29707,0.07305-0.34383c-0.32045-0.35357-0.71054-0.75388-1.12352-1.17758l-0.05649-0.05844
		c-4.01292,8.83915-2.63519,21.58797,7.82374,29.31772c4.14344,3.06229,9.09531,4.68012,14.3199,4.68012
		c6.55704,0,12.88568-2.65418,17.3632-7.28073C50.28965,32.28463,50.94175,18.74783,43.16232,9.06324z"/>
	<path fill="#FFFFFF" d="M8.77439,26.39478c1.10063,7.82228,7.5705,13.49881,15.38352,13.49881
		c0.76216,0,1.53504-0.05649,2.2972-0.16851c5.89374-0.862,10.01721-4.07428,12.25549-9.54628
		c2.24656-5.4905,1.53115-10.7073-2.12529-15.5043c-2.923-3.83565-7.37667-6.03594-12.21848-6.03594
		c-1.49219,0-2.9795,0.21526-4.42152,0.63798c-0.07402,0.0224-0.15974,0.06428-0.21379,0.0974
		c-0.02581,0.52207-0.02192,1.04706-0.01851,1.60322l0.00049,0.11006c4.28711-1.35582,8.26107-0.90875,11.86101,1.32563
		c3.90529,2.42236,6.1163,5.94731,6.57068,10.47548c0.3862,3.8415-0.77142,7.55832-3.25953,10.46282
		c-2.50223,2.92203-6.02571,4.64798-9.92127,4.85934c-3.95594,0.22207-7.39079-1.04901-10.17646-3.73533
		c-4.18045-4.03045-5.43644-8.98525-3.73728-14.73191l-1.73082-0.00487C8.64582,21.94063,8.46222,24.17891,8.77439,26.39478z"/>
	<path fill="#FFFFFF" d="M1.50827,9.36908c2.10776,2.12237,4.28662,4.31681,6.47084,6.43139
		c0.35405,0.34285,0.91898,0.59902,1.37433,0.62531c1.49121,0.08279,3.31456,0.07013,5.09067,0.01948c0.00195,0,0.00438,0,0.00633,0
		c0.60778,0,0.98716,0.15779,1.35144,0.52499c1.9563,1.97529,3.92283,3.93987,5.89033,5.90445l1.67627,1.67432
		c0.0487,0.0487,0.09594,0.10519,0.14318,0.16169c0.04188,0.04967,0.10519,0.12565,0.13393,0.14318l0.07695,0.01656
		c0.33944,0.08377,0.70811,0.1685,0.94917,0.11104c0.28539-0.06721,0.45194-0.33311,0.39594-0.63116
		c-0.0638-0.33895-0.22646-0.67304-0.42321-0.87271c-1.59689-1.62173-3.20498-3.23274-4.81356-4.84278
		c-0.97644-0.97693-1.95289-1.95484-2.9269-2.93469c-0.31607-0.3185-0.47678-0.61947-0.47727-0.89609
		c-0.00292-1.33829,0.02192-2.67658,0.04724-4.01487l0.01802-0.97985c0.01364-0.78408-0.21331-1.39868-0.69398-1.87789
		l-1.9714-1.97335c-1.75712-1.76004-3.51472-3.52007-5.28109-5.27037C7.83885-0.01357,7.04065-0.17915,6.18401,0.1939
		c-0.84642,0.37012-1.25745,1.04901-1.2555,2.07367L4.929,4.95778L3.04672,4.9607c-0.30097,0-0.59658-0.00097-0.89171-0.00487
		c0,0-0.00049,0-0.00097,0c-0.94625,0-1.57692,0.39837-1.96604,1.21849c-0.37061,0.77823-0.18506,1.68017,0.48408,2.35224
		L1.50827,9.36908z M2.0542,6.62139h4.56324V1.29258L7.4775,2.0338c0.14318,0.1198,0.25032,0.21136,0.35016,0.31071l1.13083,1.1279
		c1.77806,1.77367,3.5566,3.54735,5.31469,5.3405c0.28733,0.29318,0.48847,0.77921,0.50162,1.20972
		c0.03068,1.05583,0.0263,2.11263,0.02143,3.20547l-0.00341,1.59348H14.4188c-0.37158,0-0.7383-0.00682-1.10161-0.01266
		c-0.80502-0.01558-1.59397-0.03019-2.37659,0.03214c-0.10763,0.00779-0.21185,0.01266-0.31314,0.01266
		c-0.93602,0-1.6865-0.35162-2.43357-1.13959c-1.51848-1.6003-3.11976-3.17722-4.66795-4.70252l-1.1172-1.10258
		C2.34933,7.85059,2.22368,7.798,2.10242,7.74832C2.0206,7.71423,1.93927,7.68014,1.86281,7.64216l-0.38376-0.1948L2.0542,6.62139z"
		/>
	<path fill="#FFFFFF" d="M19.02098,25.0263c-0.01023-0.06526-0.0375-0.23571-0.0711-0.28051
		c-0.48067-0.50649-0.97547-1.00323-1.47855-1.50874L17.39,23.1562c-0.59317,2.2675,0.6633,5.34634,2.90742,6.88333
		c1.18537,0.81232,2.55824,1.24089,3.96958,1.24089c1.82578,0,3.5678-0.71492,4.9056-2.01231
		c2.35467-2.28406,2.77642-5.96581,1.00226-8.75343c-1.23018-1.93439-3.55855-3.23372-5.79439-3.23372
		c-0.44123,0-0.86687,0.05065-1.27157,0.15c0.01997,0.01948,0.03993,0.03799,0.0599,0.05747
		c0.38814,0.3672,0.75486,0.71395,1.14544,1.01881c0.39253,0.30779,0.7534,0.49869,1.07287,0.56882
		c2.44087,0.53571,4.291,2.84801,4.21211,5.26453c-0.0901,2.77204-2.23438,5.06778-4.88223,5.22752
		C21.79253,29.74538,19.47779,27.87041,19.02098,25.0263z"/>
</g>
</svg>
