<?xml version="1.0" encoding="utf-8"?>
<!-- Generator: Adobe Illustrator 18.0.0, SVG Export Plug-In . SVG Version: 6.00 Build 0)  -->
<!DOCTYPE svg PUBLIC "-//W3C//DTD SVG 1.1//EN" "http://www.w3.org/Graphics/SVG/1.1/DTD/svg11.dtd">
<svg version="1.1" id="图层_1" xmlns="http://www.w3.org/2000/svg" xmlns:xlink="http://www.w3.org/1999/xlink" x="0px" y="0px"
	 viewBox="0 0 122.18201 30.00212" enable-background="new 0 0 122.18201 30.00212" xml:space="preserve">
<g>
	<g>
		<g>
			<path fill="#FFFFFF" d="M56.16028,0.3673c-1.74512-0.8631-3.85901-0.14863-4.72203,1.59633
				c-0.86265,1.7442-0.14742,3.85768,1.5977,4.72078c1.74389,0.86249,3.85736,0.14805,4.72001-1.59615
				C58.61898,3.3433,57.90416,1.22979,56.16028,0.3673z M55.80469,4.11013l-0.22074,0.44631l-0.94518-0.46747l-0.12714,0.25707
				l0.94518,0.46747l-0.20997,0.42454l-0.94518-0.46747l-0.38731,0.78311L53.41071,5.3046l0.38731-0.78311L52.8476,4.05143
				l0.20997-0.42454l0.95042,0.47006l0.12714-0.25707l-0.95042-0.47006l0.22074-0.44631l0.75176,0.37181l-0.08353-2.1785
				l0.56078,0.27735l0.05016,1.60533c0.00427,0.13364,0.0027,0.24726-0.00222,0.34733
				c0.07753-0.06105,0.17522-0.13811,0.29671-0.22897l1.25834-0.93088l0.59264,0.29311l-1.77777,1.25793L55.80469,4.11013z"/>
		</g>
	</g>
	<g>
		<g>
			<path fill="#FFFFFF" d="M0.36292,6.29049h1.93556V0.84674H6.5325v5.44375h1.20972v4.355H6.5325v3.87111
				c0.40242-0.16047,1.3307-0.36292,1.3307-0.36292l0.13825,4.59242c0,0-1.30848,0.28782-1.46895,0.36744v7.01639
				c0.07962,2.01518-0.92828,3.10393-3.02431,3.26625c-0.48389,0.07962-3.40697,0.14689-3.40697,0.14689L0,25.40411
				c0,0,1.20972,0.08147,1.45167,0c0.56351,0,0.84681-0.28144,0.84681-0.84681v-4.23403l-2.05653,0.60486L0,15.96828
				l2.29847-0.48389V10.6455H0.36292V6.29049z M16.3757,19.94431l4.31056,0.01605l-0.36292,3.26625
				c0,0,3.58781,1.25107,6.16959,2.05653c1.28934,0.40427,2.25712,0.72583,2.90334,0.96778l-2.1775,3.62917
				c-1.37205-0.56536-3.30761-1.37205-5.80667-2.41945c-1.20972-0.48389-2.138-0.84681-2.78236-1.08875
				c-1.29119,1.53129-4.51733,2.70089-9.67778,3.5082c-0.64621-1.1301-1.3307-2.33983-2.05653-3.62917
				c5.48325-0.80545,8.21624-1.68497,8.71-2.78236C15.96337,22.67303,16.45532,21.55831,16.3757,19.94431z M7.74223,6.16952
				l1.4706-4.59324l2.76343-0.0037l-0.44603,1.58375l1.05089-0.01111V0.84674h3.75014v2.29847h1.45167v2.90334h-1.45167v1.45167
				h1.69361v3.02431H16.5732v1.69361c0.16047-0.16047,1.61214-0.72583,1.69361-0.72583c0,0.24194,0.12097,1.53314,0.12097,1.69361
				c0.80545-0.80545,1.24922-1.69361,1.33069-2.66139h-1.83631V7.50022h4.73965V6.04855l-1.92733-0.04814l-0.37115,1.37884
				l-2.54042-1.08875l1.20972-4.83889h2.78236l-0.4485,1.70472l1.29531-0.01111V0.84674h3.62917v2.29847h2.29847v2.90334h-2.29847
				v1.45167h2.90334v3.02431H26.6139v1.81458c0,0.24194,0.12097,0.36292,0.36292,0.36292c0.24195,0,0.36292-0.12097,0.36292-0.36292
				c0-0.07962,0.05678-1.28255,0.05678-1.28255l2.05406,0.0395c0,0-0.079,1.14553-0.19751,2.21206
				c-0.13825,1.0653-0.82952,1.85655-2.15528,1.93432h-1.20972c-1.61399,0.08147-2.37994-0.72583-2.29847-2.41945v-2.29847h-0.84681
				c0,1.93556-0.76719,3.67052-2.29847,5.20181h7.25834v8.10514h-4.355v-4.59695H13.5489v5.08084H9.07292v-8.58903h0.48389
				c-0.24194-0.24194-1.81458-1.65226-2.05653-1.81458c1.45167-0.96778,2.1775-2.09603,2.1775-3.38722H8.10514V7.50022h4.47597
				V6.04855L10.7402,6.00041l-0.45756,1.25786L7.74223,6.16952z M12.70209,10.52452c0,2.09788-0.84681,3.83161-2.54042,5.20181
				h3.75014l-1.08875-1.93556c0.48389-0.40242,0.72583-0.88631,0.72583-1.45167v-1.81458H12.70209z M15.36348,15.36341
				c-0.32342,0.08147-0.60486,0.20244-0.84681,0.36292h4.83889c-0.16232-0.24194-0.48389-0.56351-0.96778-0.96778
				c-0.24195-0.24194-0.40427-0.40242-0.48389-0.48389C17.09659,14.59808,16.24979,14.961,15.36348,15.36341z"/>
			<path fill="#FFFFFF" d="M45.48558,0.84674h4.71792c0,0,0.0395,3.67052,0.12097,5.20181l3.38723-0.36292
				c-0.16233-0.07962,1.81458-0.24194,1.81458-0.24194l3.56334-0.44398L59.15545,9.2l-8.58903,1.08258l0.12097,1.93556
				l9.10008-1.20108l0.0395,4.14762l-3.45388,0.44069l2.66139,2.54042c-0.32342,0.32342-2.29847,2.1775-2.29847,2.1775
				l4.197,0.00288c0,0-1.33502,4.95698-1.65658,5.92476c-0.8073,2.1775-2.29847,3.2249-4.47598,3.14528
				c-2.41945,0.07962-4.27538-1.17022-5.56472-3.75014c-1.77508,0.72583-6.04861,2.54042-6.04861,2.54042l-1.20972-1.93556
				l-6.29056,3.5082l-1.40821-3.5082l-0.04345-6.16959h-3.02431v-3.87111h3.02431v-2.29847h-2.29847v-3.14528
				c-0.08147-0.24194-1.20972-2.1775-1.20972-2.1775l3.50326-8.01339l4.23897,0.75505l-1.13155,2.82639l4.76072-0.04403
				L41.81444,8.0018l-6.00418-0.05267l-0.84927,1.97053h6.29056v3.99209h-2.66139v2.29847h3.26625v3.87111h-3.26625v3.5082
				c1.3702-0.72583,2.45895-1.3702,3.26625-1.93556c0.07962,0.72583,0.12097,1.45167,0.12097,2.1775
				c0.32157-0.07962,3.95073-1.61214,5.56473-2.41945c-0.32342-1.12825-0.60486-2.57992-0.84681-4.355l-4.09084,0.53039
				l-0.05267-4.16079l3.65962-0.60363l-0.24194-2.05653l-3.68102,0.50076l0.079-4.27929l3.36007-0.33453L45.48558,0.84674z
				 M51.65517,18.99258c1.3702-0.96778,2.70089-2.05653,3.99208-3.26625l-4.47597,0.60486
				C51.2509,17.29897,51.41322,18.18713,51.65517,18.99258z M56.61503,20.32328c-1.1301,1.04925-2.29847,1.97691-3.5082,2.78236
				c0.07962,0.08147,0.52339,0.88816,0.60486,0.96778c0.32156,0.48389,0.68448,0.72583,1.08875,0.72583
				c0.40242,0,0.72583-0.32157,0.96778-0.96778C55.84784,23.671,56.37309,21.69533,56.61503,20.32328z"/>
			<path fill="#FFFFFF" d="M83.633,0.83892l-0.28309,5.45157h6.77444c0,5.96899-0.08147,12.13858-0.24194,18.50876
				c-0.08147,2.66139-1.32822,4.26551-3.74767,4.42783c-0.40427,0-5.18781,0-5.18781,0s-0.01646-3.78162-0.01646-3.94394
				c-0.60239,1.09986-3.26625,4.71792-3.26625,4.71792s-1.81458-2.4608-2.05653-2.78236
				c-1.1301,0.07962-13.77932,1.3237-13.77932,1.3237l-0.01152-4.58995h1.33069V1.81452h12.46015v21.29112
				c0.40242,0,0.76534-0.0395,1.08875-0.12097c1.28934-2.01518,1.93555-6.12823,1.93555-12.33917h-2.41945v-4.355h2.54042
				l0.12097-5.44375L83.633,0.83892z M67.62351,5.92758V9.3148h3.62917V5.92758H67.62351z M67.62351,13.06494v3.38723h3.62917
				v-3.38723H67.62351z M67.62351,23.58953c1.20972,0,2.41944-0.07962,3.62917-0.24194v-3.14528h-3.62917V23.58953z
				 M85.5274,10.6455h-2.29847c-0.16232,7.01639-0.84681,11.69481-2.05653,14.03278c0.96777,0,1.77323,0,2.41944,0
				c1.0474,0,1.61214-0.52339,1.69361-1.57264C85.44594,19.47647,85.5274,15.32391,85.5274,10.6455z"/>
			<path fill="#FFFFFF" d="M120.00451,9.67772v4.47598h-9.31487V17.178h11.49237v4.59695h-11.49237v2.1775
				c0.07962,3.46684-1.50043,5.43018-4.72533,5.51165c-0.56536,0.07962-7.16287-0.02633-7.16287-0.02633l0.03291-4.6385
				c0,0,2.25713,0.12097,4.11306,0.12097c1.77323,0.08147,2.62004-0.72583,2.54042-2.41945v-0.72583H93.02769V17.178h12.46015
				v-3.02431H95.20519V9.67772h10.28265V6.77438c-3.22675,0.08147-9.91973,0.36292-9.91973,0.36292l0.02058-4.71833
				l24.43755-0.84639l0.05316,4.58584c0,0-6.00253,0.21355-9.38976,0.37403v3.14528H120.00451z"/>
		</g>
	</g>
</g>
</svg>
