<?xml version="1.0" encoding="utf-8"?>
<!-- Generator: Adobe Illustrator 18.0.0, SVG Export Plug-In . SVG Version: 6.00 Build 0)  -->
<!DOCTYPE svg PUBLIC "-//W3C//DTD SVG 1.1//EN" "http://www.w3.org/Graphics/SVG/1.1/DTD/svg11.dtd">
<svg version="1.1" id="图层_1" xmlns="http://www.w3.org/2000/svg" xmlns:xlink="http://www.w3.org/1999/xlink" x="0px" y="0px"
	 viewBox="0 0 122.18201 30.00212" enable-background="new 0 0 122.18201 30.00212" xml:space="preserve">
<g>
	<path fill="#FFFFFF" d="M38.33896,13.13366V13.1336v-1.70972h-5.37347v1.22119l-0.73273-0.36633V8.00445h6.96106v4.03003h4.64069
		V5.07342H32.23276V4.2185h10.50262V1.28759H17.08933V4.2185h10.38055v0.85492H15.86808v6.96106h4.64075V8.00445h6.96106v4.27429
		l-0.73279,0.48853v-1.34338h-5.37341v1.70972h4.76288c-2.93103,1.54791-6.71692,2.60663-11.35754,3.17523
		c0.73279,1.54791,1.70972,4.15222,1.70972,4.15222l2.32037-0.6106v2.56458h3.05304l-1.93573,2.94269l7.9198,2.31158v0.6076h0.00006
		v-0.60754l7.98865,2.33167l2.0188-3.27051l-3.04639-0.77386l5.98413-3.41949V19.6062l2.56458,0.6106
		c0,0,1.38306-4.06976,1.46545-4.15222c-4.47888-0.5686-8.18231-1.54559-11.11334-2.93091H38.33896z M21.97434,22.41504h5.86188
		v1.58179L21.97434,22.41504z M29.66813,24.49115l-1.83185-0.49432v-1.58179h5.86188L29.66813,24.49115z M27.83628,18.99554
		v-1.13599l0.2442,1.13599H27.83628z M33.75626,17.25891c0.828,0.36133,1.69147,0.69366,2.59033,0.99689
		c0.79901,0.26953,1.62598,0.51611,2.48083,0.73975h-6.22833l-0.32733-1.9151h-4.43549V16.5531h-0.00006v0.52734H27.6688
		l0.16742,0.77881v1.13629h-5.98407c0.28998-0.08386,0.57635-0.17096,0.85919-0.26129
		c0.84839-0.27094,1.66473-0.57092,2.44891-0.90002c0.21783-0.09137,0.43323-0.18506,0.64606-0.28094
		c0.42578-0.19177,0.84161-0.39252,1.24756-0.60229c0.50739-0.26215,0.99927-0.53833,1.47571-0.82855
		c0.47638-0.29022,0.93738-0.59448,1.38281-0.91272C31.09482,15.97357,32.37626,16.65661,33.75626,17.25891z"/>
	<rect x="21.36368" y="8.85922" fill="#FFFFFF" width="5.37341" height="1.70978"/>
	<rect x="32.96549" y="8.85922" fill="#FFFFFF" width="5.37347" height="1.70978"/>
	<path fill="#FFFFFF" d="M73.38852,18.99554c0.48853-0.48853,0.89453-0.89453,1.22125-1.22125l-2.68671-2.56457l3.51147-0.47113
		l-0.21417-4.29175l-9.03717,1.34344l-0.12213-1.95404l8.67084-1.09906l-0.14526-4.17352l-3.51843,0.38763l2.07611-2.44244
		L69.11417,0.3106l-2.68671,3.0531l2.80884,1.83185l-3.41943,0.36639c-0.08252-1.54565-0.12207-3.29742-0.12207-5.25134h-4.76287
		c0,1.30365,0.2442,5.86194,0.2442,5.86194l-3.38623,0.32916v4.32031l3.63049-0.49725l0.24426,2.07611l-3.7132,0.6015
		l-0.02692,4.22613l4.22858-0.55334c0.24426,1.79218,0.85486,4.39648,0.85486,4.39648l-5.61774,2.44244l-0.12207-2.19818
		l-3.39484,1.98254v-3.54163l3.39484-0.02856v-3.90796l-3.39484,0.02863v-2.32037l2.78418-0.02863V9.46991h-6.3504l0.97693-1.95398
		h6.22833V3.60791h-4.64075l1.24396-2.71857l-3.87616-0.88831l-4.03766,8.31763l1.05225,2.0061v3.17517h2.32031v2.32037h-3.05304
		v3.90796h3.05304l-0.0213,6.27545l1.48688,3.49451l6.35034-3.54163l1.22125,1.95404c0,0,4.31409-1.83185,6.1062-2.56464
		c1.30133,2.60431,3.17523,3.86597,5.61774,3.78583c2.19824,0.08014,3.70337-0.97699,4.51855-3.17523
		c0.49982-1.16418,1.71112-5.76715,1.71112-5.76715l-4.2757-0.21692C72.2894,19.97253,72.89999,19.40387,73.38852,18.99554z
		 M67.16013,18.62921c-0.24414-0.81293-0.40833-1.70978-0.48846-2.68677l4.51862-0.6106
		c-1.14075,1.0686-2.31183,2.04364-3.51337,2.92523C67.50528,18.38305,67.33304,18.50708,67.16013,18.62921z M71.55661,22.6593
		c-0.0412,0.20416-0.08228,0.37744-0.12299,0.5199s-0.08112,0.25403-0.12122,0.33496
		c-0.12207,0.32629-0.26483,0.57056-0.4278,0.73322c-0.16296,0.16272-0.34613,0.24377-0.54919,0.24377
		c-0.06079,0-0.12054-0.00555-0.17944-0.01654c-0.11774-0.02203-0.23169-0.06592-0.34198-0.13116
		c-0.05511-0.03265-0.10938-0.07062-0.16266-0.11389c-0.01263-0.01019-0.02545-0.0191-0.03796-0.02997
		c-0.13141-0.11383-0.2572-0.26056-0.37714-0.44116c-0.02606-0.02545-0.05212-0.05658-0.07806-0.09045
		c-0.04614-0.06024-0.09198-0.13422-0.13739-0.22113c-0.00952-0.01831-0.01917-0.03528-0.02869-0.05481
		c-0.08209-0.16223-0.15369-0.29425-0.21472-0.39606c-0.0611-0.10181-0.11163-0.1734-0.15167-0.2146
		c0.61066-0.40643,1.21075-0.84375,1.80084-1.31195c0.59009-0.46814,1.17023-0.96716,1.74072-1.49683
		C71.923,21.35791,71.71848,22.25323,71.55661,22.6593z"/>
	<path fill="#FFFFFF" d="M103.431,20.09466c0,0,0.84613-0.95502,0.85486-3.78583c0.1618-5.29101,0.24432-9.80957,0.24432-13.55579
		H88.65402c0.40607-0.73273,1.27582-2.59052,1.27582-2.59052l-5.79443,0.02594c-1.38538,3.17523-3.62402,5.98407-6.71686,8.42657
		c0.1618,0.48846,1.30145,4.56055,1.46552,5.37341c0.5686-0.48853,1.13879-1.01666,1.70972-1.58759V22.9035
		c-0.164,4.06982,1.83191,6.0238,5.98413,5.862h14.16638c3.33698,0.08008,5.20929-1.01898,5.61768-3.29736
		c0.3244-1.05719,1.05103-5.27869,1.05103-5.27869L103.431,20.09466z M84.38651,13.25494
		c-0.20557-0.11005-0.40417-0.22784-0.59528-0.35291c-0.28662-0.18756-0.55634-0.39148-0.80725-0.60986
		c-0.40155-0.34943-0.75494-0.73584-1.05261-1.15179c0.02319-0.02167,0.04474-0.04169,0.0683-0.0636
		c1.35919,1.65698,3.8136,2.76508,6.62109,2.76508c3.38934,0,6.24506-1.62085,7.2981-3.86755
		c0.10889-0.20923,0.20514-0.42346,0.2713-0.64789H83.87723c0.04089-0.03827,0.08038-0.0752,0.11835-0.11078
		c0.13281-0.12433,0.24652-0.23108,0.33344-0.31323c0.04346-0.04102,0.08026-0.07593,0.10938-0.10376
		s0.0506-0.04865,0.06348-0.06146c0.48846-0.65033,0.85486-1.13886,1.09906-1.46552h14.04425
		c0,3.90796-0.02551,6.38977-0.10565,8.09949c-0.00671,0.17499-0.01764,0.33313-0.034,0.47607
		c-0.00824,0.07141-0.01776,0.1391-0.02881,0.20319c-0.0332,0.19214-0.08008,0.35187-0.14478,0.48462
		c-0.02155,0.04425-0.0451,0.08551-0.0708,0.12396c-0.10272,0.15381-0.23962,0.26282-0.42065,0.33997
		c-0.22632,0.09637-0.52155,0.14294-0.90509,0.16473h-1.70966V9.34778h-0.00311c-0.24469,0.90387-0.72949,1.73431-1.39728,2.44592
		c-0.1908,0.20331-0.39655,0.39691-0.61591,0.57977s-0.45233,0.35498-0.69757,0.5152
		c-0.24524,0.16028-0.50281,0.30872-0.7713,0.44427c-0.40271,0.20337-0.83008,0.37769-1.27765,0.51947v2.57855h-6.1062v-2.73541
		c-0.11261-0.04272-0.22369-0.08759-0.33313-0.13452C84.80466,13.46716,84.59207,13.36493,84.38651,13.25494z M102.19022,21.33886
		c-0.01648,0.11554-0.03259,0.20972-0.04999,0.29498c-0.00995,0.04871-0.02039,0.09521-0.03143,0.14105
		c-0.0069,0.02826-0.01404,0.05682-0.02155,0.08557c-0.01691,0.06482-0.03571,0.13293-0.05707,0.21002
		c-0.00708,0.02539-0.0144,0.05188-0.02209,0.07965c-0.01532,0.05554-0.03198,0.11633-0.05011,0.18414
		c-0.00909,0.03387-0.01855,0.06958-0.02838,0.10718c-0.01727,0.06586-0.03583,0.13818-0.05579,0.21771
		c-0.00989,0.03943-0.01984,0.07892-0.03046,0.12219c-0.00836,0.07269-0.02191,0.14355-0.03668,0.21393
		c-0.02081,0.09949-0.04596,0.1972-0.07928,0.29108c-0.03796,0.10681-0.08386,0.20953-0.1377,0.30731
		c-0.08069,0.14673-0.17908,0.28217-0.29468,0.40332c-0.07428,0.07788-0.15564,0.1499-0.24396,0.21515
		c-0.08832,0.06519-0.18359,0.12372-0.28564,0.17462c-0.08508,0.04248-0.17487,0.07965-0.26929,0.11108
		c-0.07086,0.02362-0.14429,0.04401-0.22028,0.06091c-0.11401,0.02539-0.23389,0.04309-0.35938,0.05243
		c-0.06274,0.00464-0.12689,0.0072-0.1925,0.00757c-0.06555,0.00037-0.13257-0.00146-0.20093-0.00549H88.0433
		c-0.24426,0.02051-0.47198,0.02637-0.68317,0.01752c-1.47839-0.06177-2.14709-0.84192-2.00342-2.33789v-1.70972h9.15918
		l0.07074,1.30212c0,0,0.21985,0.00415,0.57373,0.00812c0.08844,0.00098,0.1853,0.00195,0.28918,0.00287
		c0.31165,0.00269,0.68658,0.00464,1.08856,0.00397c0.53601-0.00092,1.12018-0.00641,1.66663-0.02087
		c0.54645-0.01453,1.0553-0.03802,1.44049-0.07495c0.70087-0.06726,1.19922-0.13818,1.59381-0.23322
		c0.19727-0.04749,0.36853-0.10107,0.52625-0.16309c0.15765-0.06207,0.30176-0.13263,0.44446-0.21429
		C102.20309,21.24646,102.19662,21.29376,102.19022,21.33886z"/>
</g>
</svg>
