<?xml version="1.0" encoding="utf-8"?>
<!-- Generator: Adobe Illustrator 18.0.0, SVG Export Plug-In . SVG Version: 6.00 Build 0)  -->
<!DOCTYPE svg PUBLIC "-//W3C//DTD SVG 1.1//EN" "http://www.w3.org/Graphics/SVG/1.1/DTD/svg11.dtd">
<svg version="1.1" id="图层_1" xmlns="http://www.w3.org/2000/svg" xmlns:xlink="http://www.w3.org/1999/xlink" x="0px" y="0px"
	 viewBox="259.8 533 120.1 68.4" enable-background="new 259.8 533 120.1 68.4" xml:space="preserve">
<g>
	<path id="XMLID_345_" fill="#9ACE5A" d="M319.9,587.5c-21.5,0-41.9,5-60,13.9h120C361.8,592.5,341.4,587.5,319.9,587.5z"/>
	
		<line id="XMLID_344_" fill="none" stroke="#FFC649" stroke-width="3" stroke-linejoin="round" stroke-miterlimit="10" x1="278.2" y1="583.1" x2="357" y2="583.1"/>
	<path id="XMLID_342_" fill="#74A73C" d="M335.8,601.3h-31.8c-1.2,0-2.3-1-2.3-2.3l0,0c0-1.2,1-2.3,2.3-2.3h31.8
		c1.2,0,2.3,1,2.3,2.3l0,0C338.1,600.3,337.1,601.3,335.8,601.3z"/>
	<path id="XMLID_318_" fill="#74A73C" d="M315.4,596.7h-31.8c-1.2,0-2.3-1-2.3-2.3l0,0c0-1.2,1-2.3,2.3-2.3h31.8
		c1.2,0,2.3,1,2.3,2.3l0,0C317.6,595.7,316.6,596.7,315.4,596.7z"/>
	<path id="XMLID_317_" fill="#74A73C" d="M363.6,601.3h-31.8c-1.2,0-2.3-1-2.3-2.3l0,0c0-1.2,1-2.3,2.3-2.3h31.8
		c1.2,0,2.3,1,2.3,2.3l0,0C365.9,600.3,364.8,601.3,363.6,601.3z"/>
	<path id="XMLID_308_" fill="none" stroke="#FFC649" stroke-width="3" stroke-linejoin="round" stroke-miterlimit="10" d="
		M311.8,591.7h-33.6c-2.4,0-4.3-1.9-4.3-4.3l0,0c0-2.4,1.9-4.3,4.3-4.3"/>
	<g id="XMLID_303_">
		<path id="XMLID_306_" fill="none" stroke="#FFC649" stroke-width="3" stroke-linejoin="round" stroke-miterlimit="10" d="
			M306.3,568.9l1.3-5c0.3-1.2,0.9-2.2,1.8-3.1l2.5-2.5c1.1-1.1,2.5-1.8,4-2h0c2.5-0.3,4.9,0.8,7.6,4.1l14.3,20.1
			c1.9,2.6,1.9,6.2-0.1,8.7c-0.2,0.2-0.4,0.4-0.5,0.6l-0.6,0.6"/>
		
			<line id="XMLID_304_" fill="none" stroke="#6335C2" stroke-width="4.0583" stroke-linecap="round" stroke-miterlimit="10" x1="306.3" y1="568.9" x2="307.2" y2="565.5"/>
	</g>
	<g id="XMLID_289_">
		<g id="XMLID_300_">
			<path fill="#FF5282" d="M338.5,578.1C338.5,578.1,338.5,578.1,338.5,578.1c0-5.6-4.5-10.1-10.1-10.1c-3.4,0-6.4,1.7-8.3,4.3
				c-1.8-2.6-4.8-4.3-8.3-4.3c-5.6,0-10.1,4.5-10.1,10.1c0,3-0.6,7.2,11.5,16.4c2.9,2.2,5.3,4.6,6.8,6.2c1.5-1.6,3.9-3.9,6.8-6.2
				C338.9,585.3,338.5,581.1,338.5,578.1z"/>
		</g>
		<g id="XMLID_296_">
			<g>
				<path fill="#FF5282" d="M320.1,572.3c-1.8-2.6-4.8-4.3-8.3-4.3c-5.6,0-10.1,4.5-10.1,10.1c0,3-0.6,7.2,11.5,16.4
					c2.9,2.2,5.3,4.6,6.8,6.2 M338.5,578.1"/>
			</g>
		</g>
		
			<path id="XMLID_295_" fill="none" stroke="#FFA9FF" stroke-width="3" stroke-linecap="round" stroke-linejoin="round" stroke-miterlimit="10" d="
			M334.6,576.1c0.2,0.6,0.3,1.2,0.3,1.9"/>
		
			<path id="XMLID_294_" fill="none" stroke="#FFA9FF" stroke-width="3" stroke-linecap="round" stroke-linejoin="round" stroke-miterlimit="10" d="
			M328.4,571.5c1.8,0,3.4,0.7,4.5,1.8"/>
		
			<path id="XMLID_293_" fill="none" stroke="#FFFFFF" stroke-width="3" stroke-linecap="round" stroke-linejoin="round" stroke-miterlimit="10" d="
			M332.9,573.4c0.2,0.2,0.4,0.4,0.5,0.6c0.5,0.6,0.9,1.4,1.2,2.2"/>
	</g>
	<path id="XMLID_288_" fill="#5D2E93" d="M307.7,591.7c0-2.2,1.8-4,4-4v-3c-3.9,0-7.1,3.2-7.1,7.1s3.2,7.1,7.1,7.1v-3
		C309.5,595.8,307.7,594,307.7,591.7z"/>
	<path id="XMLID_287_" fill="#5D2E93" d="M311.8,584.7v3c2.2,0,4,1.8,4,4c0,2.2-1.8,4-4,4v3c3.9,0,7.1-3.2,7.1-7.1
		S315.7,584.7,311.8,584.7z"/>
	<path id="XMLID_286_" fill="#FFEF8D" stroke="#6335C2" stroke-width="2.0292" stroke-miterlimit="10" d="M315.8,591.7
		c0-2.2-1.8-4-4-4v8.1C314,595.8,315.8,594,315.8,591.7z"/>
	<path id="XMLID_284_" fill="#FFC649" stroke="#6335C2" stroke-width="2.0292" stroke-miterlimit="10" d="M307.7,591.7
		c0,2.2,1.8,4,4,4v-8.1C309.5,587.7,307.7,589.5,307.7,591.7z"/>
	<path id="XMLID_283_" fill="#FFC649" d="M315.3,591.7c0-2-1.6-3.5-3.5-3.5v7.1C313.7,595.3,315.3,593.7,315.3,591.7z"/>
	<path id="XMLID_281_" fill="#FFC649" d="M308.2,591.7c0,2,1.6,3.5,3.5,3.5v-7.1C309.8,588.2,308.2,589.8,308.2,591.7z"/>
	<g id="XMLID_255_">
		<path id="XMLID_280_" fill="none" stroke="#FFC649" stroke-width="3" stroke-linejoin="round" stroke-miterlimit="10" d="
			M357,583.1c4.4,0,8,3.6,8,8l0,0c0,4.4-3.6,8-8,8h-11.9c-4.7,0-8.5-3.8-8.5-8.5l0,0l-0.6,0.6c-0.2,0.2-0.4,0.3-0.6,0.5
			c-2.6,2.1-6.3,2-8.9,0.1l-20-14.2c-3.3-2.7-4.4-5.1-4.1-7.6l0,0c0.2-1.5,0.9-2.9,2-4l2.5-2.5c0.9-0.9,1.9-1.5,3.1-1.8l5-1.3"/>
		
			<line id="XMLID_256_" fill="none" stroke="#6335C2" stroke-width="4.0583" stroke-linecap="round" stroke-miterlimit="10" x1="314.9" y1="560.3" x2="311.5" y2="561.2"/>
	</g>
</g>
</svg>
