<?xml version="1.0" encoding="utf-8"?>
<!-- Generator: Adobe Illustrator 18.0.0, SVG Export Plug-In . SVG Version: 6.00 Build 0)  -->
<!DOCTYPE svg PUBLIC "-//W3C//DTD SVG 1.1//EN" "http://www.w3.org/Graphics/SVG/1.1/DTD/svg11.dtd">
<svg version="1.1" id="图层_1" xmlns="http://www.w3.org/2000/svg" xmlns:xlink="http://www.w3.org/1999/xlink" x="0px" y="0px"
	 viewBox="259.8 533 120.1 68.4" enable-background="new 259.8 533 120.1 68.4" xml:space="preserve">
<g>
	<g id="XMLID_449_">
		<g id="XMLID_450_">
			<path fill="#F4729D" d="M319.9,587.5c-21.5,0-41.9,5-60,13.9h120C361.8,592.5,341.4,587.5,319.9,587.5z"/>
		</g>
	</g>
	<g id="XMLID_416_">
		<defs>
			<path id="SVGID_1_" d="M319.9,587.5c-21.5,0-41.9,5-60,13.9h120C361.8,592.5,341.4,587.5,319.9,587.5z"/>
		</defs>
		<use xlink:href="#SVGID_1_"  overflow="visible" fill="#9ACE5A"/>
		<clipPath id="SVGID_2_">
			<use xlink:href="#SVGID_1_"  overflow="visible"/>
		</clipPath>
		<g id="XMLID_420_" clip-path="url(#SVGID_2_)">
			<g id="XMLID_421_">
				<g id="XMLID_448_">
					<circle fill="#D84E89" cx="302.6" cy="569.4" r="8.8"/>
				</g>
				<g id="XMLID_447_">
					<path fill="#D84E89" d="M351.6,572.1v10.2c0,6.1-4.9,11.1-11.1,11.1h0c-6.1,0-11.1-4.9-11.1-11.1V572c0-6.2,5-11.1,11.2-11.1
						C346.8,561,351.6,566,351.6,572.1z"/>
				</g>
				<g id="XMLID_446_">
					<path fill="#74A73C" d="M351.6,578.8v10.2c0,6.1-4.9,11.1-11.1,11.1h0c-6.1,0-11.1-4.9-11.1-11.1v-10.4c0-6.2,5-11.1,11.2-11.1
						C346.8,567.7,351.6,572.7,351.6,578.8z"/>
				</g>
				<g id="XMLID_445_">
					<path fill="#D84E89" d="M349.5,586.1H344c-1.2,0-2.2-1-2.2-2.2s1-2.2,2.2-2.2h5.5c1.5,0,2.8-1.3,2.8-2.8V570
						c0-1.2,1-2.2,2.2-2.2s2.2,1,2.2,2.2v8.8C356.8,582.8,353.5,586.1,349.5,586.1z"/>
				</g>
				<g id="XMLID_444_">
					<path fill="#D84E89" d="M310,573.1h-14.9c-1.5,0-2.8-1.2-2.8-2.8l0,0c0-1.5,1.2-2.8,2.8-2.8H310c1.5,0,2.8,1.2,2.8,2.8l0,0
						C312.8,571.8,311.6,573.1,310,573.1z"/>
				</g>
				<g id="XMLID_443_">
					<path fill="#D84E89" d="M354.6,574.3c-2.2,0-3.9-1.8-3.9-3.9v-1.5c0-2.2,1.8-3.9,3.9-3.9s3.9,1.8,3.9,3.9v1.5
						C358.5,572.6,356.7,574.3,354.6,574.3z"/>
				</g>
				<g id="XMLID_442_">
					<path fill="#D84E89" d="M347.5,578.2h-13.8c-1.4,0-2.6-1.2-2.6-2.6l0,0c0-1.4,1.2-2.6,2.6-2.6h13.8c1.4,0,2.6,1.2,2.6,2.6l0,0
						C350.1,577.1,348.9,578.2,347.5,578.2z"/>
				</g>
				<g id="XMLID_441_">
					<circle fill="#D84E89" cx="340.6" cy="573" r="8.5"/>
				</g>
				<g id="XMLID_440_">
					<rect x="293.9" y="578.8" fill="#74A73C" width="17.4" height="22.6"/>
				</g>
				<g id="XMLID_439_">
					<path fill="#74A73C" d="M329.8,601.5h-13.4v-2.3c0-2.4,1.9-4.3,4.3-4.3h4.7c2.4,0,4.3,1.9,4.3,4.3V601.5z"/>
				</g>
				<g id="XMLID_436_">
					<path fill="#D84E89" d="M295.2,584.7h-3.9c-4.6,0-8.4-3.8-8.4-8.4v-8.8c0-1.9,1.5-3.4,3.4-3.4s3.4,1.5,3.4,3.4v8.8
						c0,0.9,0.7,1.7,1.7,1.7h3.9c1.9,0,3.4,1.5,3.4,3.4S297.1,584.7,295.2,584.7z"/>
				</g>
				<g id="XMLID_435_">
					<path fill="#D84E89" d="M286.3,571.5c-2.2,0-3.9-1.8-3.9-3.9V566c0-2.2,1.8-3.9,3.9-3.9s3.9,1.8,3.9,3.9v1.5
						C290.2,569.7,288.5,571.5,286.3,571.5z"/>
				</g>
				<g id="XMLID_433_">
					<path fill="#D84E89" d="M316.7,596.9h-0.5c-3.2,0-5.9-2.6-5.9-5.9v-6.4c-1.4-0.4-2.5-1.7-2.5-3.3c0-1.9,1.5-3.4,3.4-3.4
						c3.2,0,5.9,2.6,5.9,5.9v6.3c1.7,0.2,3,1.6,3,3.3C320.1,595.4,318.6,596.9,316.7,596.9z"/>
				</g>
				<g id="XMLID_431_">
					<path fill="#D84E89" d="M329.7,590.7h-12.9c-1.3,0-2.4-1.1-2.4-2.4v0c0-1.3,1.1-2.4,2.4-2.4h12.9c1.3,0,2.4,1.1,2.4,2.4v0
						C332.1,589.6,331,590.7,329.7,590.7z"/>
				</g>
				<g id="XMLID_430_">
					<circle fill="#D84E89" cx="323.1" cy="586.5" r="7.9"/>
				</g>
				<g id="XMLID_429_">
					<path fill="#D84E89" d="M302.6,583.1c-1.9,0-3.4-1.5-3.4-3.4v-2.7c0-1.9,1.5-3.4,3.4-3.4s3.4,1.5,3.4,3.4v2.7
						C305.9,581.6,304.4,583.1,302.6,583.1z"/>
				</g>
				<g id="XMLID_428_">
					<path fill="#D84E89" d="M323.1,598.5c-1.9,0-3.4-1.5-3.4-3.4v-2.7c0-1.9,1.5-3.4,3.4-3.4s3.4,1.5,3.4,3.4v2.7
						C326.4,597,324.9,598.5,323.1,598.5z"/>
				</g>
				<g id="XMLID_426_">
					<g id="XMLID_427_">
						<path fill="#D84E89" d="M332.2,585.3c0-5-4.1-9.1-9.1-9.1c-5,0-9.1,4.1-9.1,9.1c0,0.7,0.1,1.5,0.3,2.2h17.7
							C332.1,586.8,332.2,586.1,332.2,585.3z"/>
					</g>
				</g>
				<g id="XMLID_425_">
					<path fill="#D84E89" d="M330.6,574.2h2c2.9,0,5.3-2.4,5.3-5.3l0,0l0,0c1.9,3.3,5.4,5.3,9.2,5.3h3.4v-0.8c0-5.5-4.5-10-10-10h0
						c-5.5,0-10,4.5-10,10V574.2z"/>
				</g>
				<g id="XMLID_2517_">
					<path fill="#D84E89" d="M292.3,569.5l3.5-3.5l0,0c2.1,2.1,5,3.3,7.9,3.3h9.1V568c0-5.7-4.6-10.2-10.2-10.2h0
						c-5.7,0-10.2,4.6-10.2,10.2V569.5z"/>
				</g>
				<g id="XMLID_2516_">
					<path fill="#D84E89" d="M331.6,595.6h-1.8c-1.2,0-2.2-1-2.2-2.2s1-2.2,2.2-2.2h1.8c0.1,0,0.2-0.1,0.2-0.2v-4.6
						c0-2.6,2.1-4.7,4.7-4.7c1.2,0,2.2,1,2.2,2.2s-1,2.2-2.2,2.2c-0.1,0-0.2,0.1-0.2,0.2v4.6C336.3,593.5,334.2,595.6,331.6,595.6z"
						/>
				</g>
				<g id="XMLID_424_">
					<path fill="#74A73C" d="M329.5,599.4c-2.2,0-3.9-1.8-3.9-3.9v-0.7c0-2.2,1.8-3.9,3.9-3.9s3.9,1.8,3.9,3.9v0.7
						C333.5,597.7,331.7,599.4,329.5,599.4z"/>
				</g>
				<g id="XMLID_2514_">
					<path fill="#D84E89" d="M316.7,599.4c-2.2,0-3.9-1.8-3.9-3.9v-0.7c0-2.2,1.8-3.9,3.9-3.9s3.9,1.8,3.9,3.9v0.7
						C320.6,597.7,318.9,599.4,316.7,599.4z"/>
				</g>
				<g id="XMLID_422_">
					<g id="XMLID_2513_">
						<path fill="#74A73C" d="M346.1,585.5c0.2-1.7-1.1-3.3-2.9-3.3h-1.3h-2.7h-1.3c-1.8,0-3.1,1.6-2.9,3.3v16l0,0h4.2h2.7h4.2l0,0
							V585.5z"/>
					</g>
				</g>
				<g id="XMLID_2511_">
					<path fill="#D84E89" d="M337.6,586.1h-1.1c-1.2,0-2.2-1-2.2-2.2s1-2.2,2.2-2.2h1.1c1.2,0,2.2,1,2.2,2.2
						S338.9,586.1,337.6,586.1z"/>
				</g>
				<g id="XMLID_2510_">
					<path fill="#D84E89" d="M340.6,585.5c-1.9,0-3.4-1.5-3.4-3.4v-2.7c0-1.9,1.5-3.4,3.4-3.4s3.4,1.5,3.4,3.4v2.7
						C344,584,342.4,585.5,340.6,585.5z"/>
				</g>
			</g>
		</g>
	</g>
	<g id="XMLID_415_">
		<circle fill="#EAB368" cx="300.4" cy="569.4" r="8.8"/>
	</g>
	<g id="XMLID_413_">
		<path fill="#563418" d="M349.4,572.1v10.2c0,6.1-4.9,11.1-11.1,11.1h0c-6.1,0-11.1-4.9-11.1-11.1V572c0-6.2,5-11.1,11.2-11.1
			C344.6,561,349.4,566,349.4,572.1z"/>
	</g>
	<g id="XMLID_407_">
		<path fill="#563418" d="M349.4,578.8v10.2c0,6.1-4.9,11.1-11.1,11.1h0c-6.1,0-11.1-4.9-11.1-11.1v-10.4c0-6.2,5-11.1,11.2-11.1
			C344.6,567.7,349.4,572.7,349.4,578.8z"/>
	</g>
	<g id="XMLID_405_">
		<path fill="#FF7AFF" d="M347.3,586.1h-5.5c-1.2,0-2.2-1-2.2-2.2s1-2.2,2.2-2.2h5.5c1.5,0,2.8-1.3,2.8-2.8V570c0-1.2,1-2.2,2.2-2.2
			s2.2,1,2.2,2.2v8.8C354.6,582.8,351.4,586.1,347.3,586.1z"/>
	</g>
	<g id="XMLID_403_">
		<path fill="#EAB368" d="M307.9,573.1h-14.9c-1.5,0-2.8-1.2-2.8-2.8l0,0c0-1.5,1.2-2.8,2.8-2.8h14.9c1.5,0,2.8,1.2,2.8,2.8l0,0
			C310.6,571.8,309.4,573.1,307.9,573.1z"/>
	</g>
	<g id="XMLID_402_">
		<path fill="#FDD7A7" d="M352.4,574.3c-2.2,0-3.9-1.8-3.9-3.9v-1.5c0-2.2,1.8-3.9,3.9-3.9s3.9,1.8,3.9,3.9v1.5
			C356.3,572.6,354.5,574.3,352.4,574.3z"/>
	</g>
	<g id="XMLID_400_">
		<path fill="#FDD7A7" d="M345.3,578.2h-13.8c-1.4,0-2.6-1.2-2.6-2.6l0,0c0-1.4,1.2-2.6,2.6-2.6h13.8c1.4,0,2.6,1.2,2.6,2.6l0,0
			C347.9,577.1,346.7,578.2,345.3,578.2z"/>
	</g>
	<g id="XMLID_398_">
		<circle fill="#FDD7A7" cx="338.4" cy="573" r="8.5"/>
	</g>
	<g id="XMLID_395_">
		<rect x="291.7" y="578.8" fill="#5D2E93" width="17.4" height="22.6"/>
	</g>
	<g id="XMLID_392_">
		<path fill="#FFFF6E" d="M326.8,601.5h-12.1v-2.2c0-2.2,1.8-3.9,3.9-3.9h4.3c2.2,0,3.9,1.8,3.9,3.9V601.5z"/>
	</g>
	<g id="XMLID_391_">
		<path fill="#5D2E93" d="M293.1,584.7h-3.9c-4.6,0-8.4-3.8-8.4-8.4v-8.8c0-1.9,1.5-3.4,3.4-3.4s3.4,1.5,3.4,3.4v8.8
			c0,0.9,0.7,1.7,1.7,1.7h3.9c1.9,0,3.4,1.5,3.4,3.4S294.9,584.7,293.1,584.7z"/>
	</g>
	<g id="XMLID_390_">
		<path fill="#EAB368" d="M284.1,571.5c-2.2,0-3.9-1.8-3.9-3.9V566c0-2.2,1.8-3.9,3.9-3.9s3.9,1.8,3.9,3.9v1.5
			C288,569.7,286.3,571.5,284.1,571.5z"/>
	</g>
	<g id="XMLID_386_">
		<path fill="#5D2E93" d="M314.5,596.9H314c-3.2,0-5.9-2.6-5.9-5.9v-6.4c-1.4-0.4-2.5-1.7-2.5-3.3c0-1.9,1.5-3.4,3.4-3.4
			c3.2,0,5.9,2.6,5.9,5.9v6.3c1.7,0.2,3,1.6,3,3.3C317.9,595.4,316.4,596.9,314.5,596.9z"/>
	</g>
	<g id="XMLID_382_">
		<path fill="#FDD7A7" d="M327.5,590.7h-12.9c-1.3,0-2.4-1.1-2.4-2.4v0c0-1.3,1.1-2.4,2.4-2.4h12.9c1.3,0,2.4,1.1,2.4,2.4v0
			C329.9,589.6,328.8,590.7,327.5,590.7z"/>
	</g>
	<g id="XMLID_381_">
		<circle fill="#FDD7A7" cx="320.9" cy="586.5" r="7.9"/>
	</g>
	<g id="XMLID_380_">
		<path fill="#EAB368" d="M300.4,583.1c-1.9,0-3.4-1.5-3.4-3.4v-2.7c0-1.9,1.5-3.4,3.4-3.4s3.4,1.5,3.4,3.4v2.7
			C303.8,581.6,302.3,583.1,300.4,583.1z"/>
	</g>
	<g id="XMLID_379_">
		<path fill="#FDD7A7" d="M320.9,598.5c-1.9,0-3.4-1.5-3.4-3.4v-2.7c0-1.9,1.5-3.4,3.4-3.4s3.4,1.5,3.4,3.4v2.7
			C324.3,597,322.7,598.5,320.9,598.5z"/>
	</g>
	<g id="XMLID_367_">
		<g id="XMLID_369_">
			<path fill="#563418" d="M330,585.3c0-5-4.1-9.1-9.1-9.1c-5,0-9.1,4.1-9.1,9.1c0,0.7,0.1,1.5,0.3,2.2h17.7
				C329.9,586.8,330,586.1,330,585.3z"/>
		</g>
	</g>
	<g id="XMLID_366_">
		<path fill="#563418" d="M328.4,574.2h2c2.9,0,5.3-2.4,5.3-5.3l0,0l0,0c1.9,3.3,5.4,5.3,9.2,5.3h3.4v-0.8c0-5.5-4.5-10-10-10h0
			c-5.5,0-10,4.5-10,10V574.2z"/>
	</g>
	<g id="XMLID_365_">
		<path fill="#563418" d="M290.2,569.5l3.5-3.5l0,0c2.1,2.1,5,3.3,7.9,3.3h9.1V568c0-5.7-4.6-10.2-10.2-10.2h0
			c-5.7,0-10.2,4.6-10.2,10.2V569.5z"/>
	</g>
	<g id="XMLID_364_">
		<path fill="#FF7AE6" d="M329.4,595.6h-1.8c-1.2,0-2.2-1-2.2-2.2s1-2.2,2.2-2.2h1.8c0.1,0,0.2-0.1,0.2-0.2v-4.6
			c0-2.6,2.1-4.7,4.7-4.7c1.2,0,2.2,1,2.2,2.2s-1,2.2-2.2,2.2c-0.1,0-0.2,0.1-0.2,0.2v4.6C334.1,593.5,332,595.6,329.4,595.6z"/>
	</g>
	<g id="XMLID_363_">
		<path fill="#FDD7A7" d="M326.6,599.5c-2,0-3.6-1.6-3.6-3.6v-0.6c0-2,1.6-3.6,3.6-3.6s3.6,1.6,3.6,3.6v0.6
			C330.1,597.9,328.5,599.5,326.6,599.5z"/>
	</g>
	<g id="XMLID_358_">
		<path fill="#EAB368" d="M315,599.5c-2,0-3.6-1.6-3.6-3.6v-0.6c0-2,1.6-3.6,3.6-3.6s3.6,1.6,3.6,3.6v0.6
			C318.5,597.9,316.9,599.5,315,599.5z"/>
	</g>
	<g id="XMLID_353_">
		<g id="XMLID_356_">
			<path fill="#FF7AE6" d="M343.9,585.5c0.2-1.7-1.1-3.3-2.9-3.3h-1.3H337h-1.3c-1.8,0-3.1,1.6-2.9,3.3v16l0,0h4.2h2.7h4.2l0,0
				V585.5z"/>
		</g>
	</g>
	<g id="XMLID_351_">
		<path fill="#FF7AE6" d="M335.5,586.1h-1.1c-1.2,0-2.2-1-2.2-2.2s1-2.2,2.2-2.2h1.1c1.2,0,2.2,1,2.2,2.2S336.7,586.1,335.5,586.1z"
			/>
	</g>
	<g id="XMLID_346_">
		<path fill="#FDD7A7" d="M338.4,585.5c-1.9,0-3.4-1.5-3.4-3.4v-2.7c0-1.9,1.5-3.4,3.4-3.4s3.4,1.5,3.4,3.4v2.7
			C341.8,584,340.3,585.5,338.4,585.5z"/>
	</g>
</g>
</svg>
