<?xml version="1.0" encoding="utf-8"?>
<!-- Generator: Adobe Illustrator 18.0.0, SVG Export Plug-In . SVG Version: 6.00 Build 0)  -->
<!DOCTYPE svg PUBLIC "-//W3C//DTD SVG 1.1//EN" "http://www.w3.org/Graphics/SVG/1.1/DTD/svg11.dtd">
<svg version="1.1" id="图层_1" xmlns="http://www.w3.org/2000/svg" xmlns:xlink="http://www.w3.org/1999/xlink" x="0px" y="0px"
	 viewBox="259.8 533 120.1 68.4" enable-background="new 259.8 533 120.1 68.4" xml:space="preserve">
<g id="XMLID_451_">
	<g id="XMLID_2657_">
		<path id="XMLID_2659_" fill="#9ACE5A" d="M319.9,587.5c-21.5,0-41.9,5-60,13.9h120C361.8,592.5,341.4,587.5,319.9,587.5z"/>
	</g>
	<g id="XMLID_2637_">
		<defs>
			<path id="XMLID_2654_" d="M319.9,587.5c-21.5,0-41.9,5-60,13.9h120C361.8,592.5,341.4,587.5,319.9,587.5z"/>
		</defs>
		<clipPath id="XMLID_2_">
			<use xlink:href="#XMLID_2654_"  overflow="visible"/>
		</clipPath>
		<ellipse id="XMLID_2656_" clip-path="url(#XMLID_2_)" fill="#84B635" cx="319.7" cy="592.4" rx="25.6" ry="6.2"/>
	</g>
	<g id="XMLID_452_">
		<g id="XMLID_453_">
			<g id="XMLID_2507_">
				
					<line id="XMLID_2636_" fill="none" stroke="#B78932" stroke-width="6.4449" stroke-linecap="round" stroke-linejoin="round" stroke-miterlimit="10" x1="315.4" y1="573.3" x2="306.2" y2="582.5"/>
				<circle id="XMLID_2634_" fill="#B78932" cx="306.2" cy="581.1" r="3.2"/>
				<circle id="XMLID_2618_" fill="#B78932" cx="334.3" cy="581.1" r="3.2"/>
				
					<line id="XMLID_2508_" fill="none" stroke="#B78932" stroke-width="6.4449" stroke-linecap="round" stroke-linejoin="round" stroke-miterlimit="10" x1="325.1" y1="573.3" x2="334.4" y2="582.5"/>
			</g>
			<g id="XMLID_2499_">
				<circle id="XMLID_2505_" fill="#C49336" cx="308.8" cy="552.4" r="5.4"/>
				<circle id="XMLID_2504_" fill="#DEC26D" cx="308.8" cy="552.4" r="2.6"/>
				<circle id="XMLID_2502_" fill="#C49336" cx="331.6" cy="552.4" r="5.4"/>
				<circle id="XMLID_2501_" fill="#DEC26D" cx="331.6" cy="552.4" r="2.6"/>
			</g>
			<g id="XMLID_2495_">
				
					<line id="XMLID_2498_" fill="none" stroke="#B78932" stroke-width="9.2069" stroke-linecap="round" stroke-linejoin="round" stroke-miterlimit="10" x1="316.1" y1="584" x2="308.4" y2="591.7"/>
				
					<line id="XMLID_2496_" fill="none" stroke="#B78932" stroke-width="9.2069" stroke-linecap="round" stroke-linejoin="round" stroke-miterlimit="10" x1="324.3" y1="584" x2="332" y2="591.7"/>
			</g>
			<g id="XMLID_473_">
				<g id="XMLID_2490_">
					<path id="XMLID_2493_" fill="#C49336" d="M307.4,596.1L307.4,596.1c-1.8,0-3.4-1.3-3.7-3.1l-1-5.8c-0.5-2.9,1.7-5.6,4.7-5.6
						l0,0c2.9,0,5.2,2.7,4.7,5.6l-1,5.8C310.8,594.8,309.2,596.1,307.4,596.1z"/>
					<path id="XMLID_2492_" fill="#DEC26D" d="M307.4,594.1c-0.8,0-1.4-0.5-1.5-1.2l-1-5.3c-0.1-0.7,0.1-1.4,0.6-1.9
						c0.5-0.5,1.2-0.8,1.9-0.8s1.4,0.3,1.9,0.8c0.5,0.5,0.7,1.2,0.6,1.9l-1,5.3C308.8,593.6,308.2,594.1,307.4,594.1z"/>
				</g>
				<g id="XMLID_474_">
					<path id="XMLID_2489_" fill="#C49336" d="M333,596.1L333,596.1c-1.8,0-3.4-1.3-3.7-3.1l-1-5.8c-0.5-2.9,1.7-5.6,4.7-5.6l0,0
						c2.9,0,5.2,2.7,4.7,5.6l-1,5.8C336.4,594.8,334.8,596.1,333,596.1z"/>
					<path id="XMLID_475_" fill="#DEC26D" d="M333,594.1c-0.8,0-1.4-0.5-1.5-1.2l-1-5.3c-0.1-0.7,0.1-1.4,0.6-1.9
						c0.5-0.5,1.2-0.8,1.9-0.8c0.8,0,1.4,0.3,1.9,0.8c0.5,0.5,0.7,1.2,0.6,1.9l-1,5.3C334.4,593.6,333.8,594.1,333,594.1z"/>
				</g>
			</g>
			<g id="XMLID_458_">
				<path id="XMLID_471_" fill="#B78932" d="M320.2,588.2L320.2,588.2c-4.4,0-8-3.5-8-7.9v-3.9c0-4.4,3.5-7.9,7.9-7.9h0
					c4.4,0,7.9,3.5,7.9,7.9v3.9C328.1,584.7,324.6,588.2,320.2,588.2z"/>
				<path id="XMLID_470_" fill="#FF9ED0" d="M320.2,574.5L320.2,574.5c-4.1,0-7.3-3.2-7.3-7.2v-6.9c0-4,3.2-7.3,7.3-7.3h0
					c4,0,7.3,3.2,7.3,7.3v6.9C327.5,571.3,324.2,574.5,320.2,574.5z"/>
				<path id="XMLID_466_" fill="#B78932" d="M334.2,561.6c0,6.6-6.3,11.2-14,11.2s-14-4.6-14-11.2s6.3-12.7,14-12.7
					S334.2,555,334.2,561.6z"/>
				<ellipse id="XMLID_465_" fill="#DEC26D" cx="320.2" cy="566.9" rx="5" ry="5"/>
				
					<path id="XMLID_464_" fill="none" stroke="#403413" stroke-width="0.9207" stroke-linecap="round" stroke-linejoin="round" stroke-miterlimit="10" d="
					M323.4,566.9c0,1.8-1.4,3.2-3.2,3.2c-1.8,0-3.2-1.5-3.2-3.2"/>
				<circle id="XMLID_463_" fill="#403413" cx="320.2" cy="564.5" r="1.8"/>
				<circle id="XMLID_462_" fill="#FFFFFF" cx="320.2" cy="563.9" r="0.7"/>
				<g id="XMLID_460_">
					<path id="XMLID_461_" fill="#A26E36" d="M319.9,551.5c-0.4,0-0.7,0.3-0.7,0.7c0,0,0,0,0,0c0,1.2-0.5,2.3-1.4,3.1
						c0.5,0.2,1.1,0.3,1.7,0.3c1.3-0.1,2.4-1,2.9-2.3c0.1-0.4,0.2-0.8,0.2-1.2c0-0.4-0.3-0.7-0.7-0.7H319.9z"/>
				</g>
				<ellipse id="XMLID_459_" fill="#DEC26D" cx="320.2" cy="580.7" rx="5.5" ry="5.5"/>
			</g>
			<g id="XMLID_455_">
				<path id="XMLID_457_" fill="#403413" d="M313.6,564.4L313.6,564.4c-0.8,0-1.4-0.6-1.4-1.4v-0.3c0-0.8,0.6-1.4,1.4-1.4l0,0
					c0.8,0,1.4,0.6,1.4,1.4v0.3C315,563.7,314.4,564.4,313.6,564.4z"/>
				<path id="XMLID_456_" fill="#403413" d="M326.8,564.4L326.8,564.4c-0.8,0-1.4-0.6-1.4-1.4v-0.3c0-0.8,0.6-1.4,1.4-1.4l0,0
					c0.8,0,1.4,0.6,1.4,1.4v0.3C328.2,563.7,327.5,564.4,326.8,564.4z"/>
			</g>
		</g>
	</g>
</g>
</svg>
