<?xml version="1.0" encoding="utf-8"?>
<!-- Generator: Adobe Illustrator 18.0.0, SVG Export Plug-In . SVG Version: 6.00 Build 0)  -->
<!DOCTYPE svg PUBLIC "-//W3C//DTD SVG 1.1//EN" "http://www.w3.org/Graphics/SVG/1.1/DTD/svg11.dtd">
<svg version="1.1" id="图层_1" xmlns="http://www.w3.org/2000/svg" xmlns:xlink="http://www.w3.org/1999/xlink" x="0px" y="0px"
	 viewBox="259.8 533 120.1 68.4" enable-background="new 259.8 533 120.1 68.4" xml:space="preserve">
<g>
	<g id="XMLID_2903_">
		<path id="XMLID_2904_" fill="#9ACE5A" d="M319.9,587c-21.5,0-41.9,5-60,13.9h120C361.8,592,341.4,587,319.9,587z"/>
	</g>
	<path id="XMLID_2901_" fill="#74A73C" d="M330.8,597.5h-23.6c-1,0-1.8-0.8-1.8-1.8v-0.5c0-1,0.8-1.8,1.8-1.8h23.6
		c1,0,1.8,0.8,1.8,1.8v0.5C332.6,596.7,331.8,597.5,330.8,597.5z"/>
	<g id="XMLID_2675_">
		<path id="XMLID_2900_" fill="none" stroke="#564B34" stroke-width="2" stroke-miterlimit="10" d="M324.6,571.2h-11.2v-35.2
			c0-1.4,1.1-2.5,2.5-2.5h6.1c1.4,0,2.5,1.1,2.5,2.5V571.2z"/>
		<path id="XMLID_2898_" fill="#FFDC34" d="M329.7,590.1h-21.5c-2.4,0-4.3-1.9-4.3-4.3v-29.1c0-2.4,1.9-4.3,4.3-4.3h21.5
			c2.4,0,4.3,1.9,4.3,4.3v29.1C334,588.2,332.1,590.1,329.7,590.1z"/>
		<g id="XMLID_2676_">
			<g id="XMLID_2894_">
				<circle id="XMLID_2897_" fill="#564B34" cx="309.6" cy="592.5" r="2.7"/>
				<circle id="XMLID_2895_" fill="#FFFFFF" cx="309.6" cy="592.5" r="0.9"/>
			</g>
			<g id="XMLID_2678_">
				<circle id="XMLID_2893_" fill="#564B34" cx="328.3" cy="592.5" r="2.7"/>
				<circle id="XMLID_2679_" fill="#FFFFFF" cx="328.3" cy="592.5" r="0.9"/>
			</g>
		</g>
	</g>
	<path id="XMLID_2673_" fill="#FBF6FF" d="M320.9,562.2h-6.3c-0.6,0-1.1-0.5-1.1-1.1v-3.6c0-0.6,0.5-1.1,1.1-1.1h6.3
		c0.6,0,1.1,0.5,1.1,1.1v3.6C322,561.7,321.5,562.2,320.9,562.2z"/>
	<path id="XMLID_2672_" fill="#D9C4C9" d="M315.6,588.6l-6-1.9c-0.6-0.2-0.9-0.8-0.7-1.3l1.1-3.5c0.2-0.6,0.8-0.9,1.3-0.7l6,1.9
		c0.6,0.2,0.9,0.8,0.7,1.3l-1.1,3.5C316.8,588.5,316.2,588.8,315.6,588.6z"/>
	<path id="XMLID_2670_" fill="#FFFFFF" d="M323.1,582l-7.9-1.4c-0.6-0.1-1-0.7-0.9-1.2l0.8-4.4c0.1-0.6,0.7-1,1.2-0.9l7.9,1.4
		c0.6,0.1,1,0.7,0.9,1.2l-0.8,4.4C324.3,581.7,323.7,582.1,323.1,582z"/>
	<path id="XMLID_2669_" fill="#FFFFC3" d="M318.5,571.1l-10.6,2.8c-0.6,0.2-1.2-0.2-1.3-0.8l-1.2-4.3c-0.2-0.6,0.2-1.2,0.8-1.3
		l10.6-2.8c0.6-0.2,1.2,0.2,1.3,0.8l1.2,4.3C319.4,570.4,319.1,570.9,318.5,571.1z"/>
	<path id="XMLID_2667_" fill="#E68400" d="M328.8,570.2l-5.9,2.1c-0.6,0.2-1.2-0.1-1.4-0.7l-1.2-3.4c-0.2-0.6,0.1-1.2,0.7-1.4
		l5.9-2.1c0.6-0.2,1.2,0.1,1.4,0.7l1.2,3.4C329.6,569.4,329.3,570,328.8,570.2z"/>
	<path id="XMLID_2666_" fill="#DBDBDB" d="M293.7,560.5c-0.4-0.6-2.2-1.5-8.3-1.5c0,0-0.3,0-0.8,0c-0.2,0-0.4-0.1-0.5-0.2l-2.9-3.4
		h0.1c0.4,0,0.7-0.3,0.7-0.7V554c0-0.4-0.3-0.7-0.7-0.7h-1.5c-0.2,0-0.4-0.1-0.5-0.2l-0.7-0.8h0c0.4,0,0.7-0.3,0.7-0.7v-0.6
		c0-0.4-0.3-0.7-0.7-0.7h-1.4c-0.2,0-0.4-0.1-0.5-0.2l-3.5-4.1c-0.1-0.1-0.3-0.2-0.5-0.2H272c-0.5,0-0.8,0.5-0.6,0.9l4.6,10
		c0.2,0.5,0.4,1,0.5,1.6c0.1,0.4-0.3,0.7-0.6,0.7c-1.7,0-3.3,0.1-4.3,0.1c-1.1,0-2.2,0.1-3.2,0.2c-0.2,0-0.4,0-0.6-0.2l-4.1-4.2
		c-0.1-0.1-0.3-0.2-0.5-0.2l-0.1,0c-0.5,0-0.7,0.5-0.6,0.9l2.1,4.6c0.1,0.2,0.1,0.4,0,0.6l-2.1,4.6c-0.2,0.4,0.1,0.9,0.6,0.9l0.1,0
		c0.2,0,0.4-0.1,0.5-0.2l4.1-4.2c0.1-0.1,0.3-0.2,0.6-0.2c1,0.1,2.1,0.2,3.2,0.2c1.1,0,2.6,0.1,4.3,0.1c0.4,0,0.7,0.4,0.6,0.7
		c-0.1,0.5-0.2,1.1-0.5,1.6l-4.6,10c-0.2,0.4,0.1,0.9,0.6,0.9h0.6c0.2,0,0.4-0.1,0.5-0.2l3.5-4.1c0.1-0.1,0.3-0.2,0.5-0.2h1.4
		c0.4,0,0.7-0.3,0.7-0.7v-0.6c0-0.4-0.3-0.7-0.7-0.7h0l0.7-0.8c0.1-0.1,0.3-0.2,0.5-0.2h1.5c0.4,0,0.7-0.3,0.7-0.7v-0.6
		c0-0.4-0.3-0.7-0.7-0.7h-0.1l2.9-3.4c0.1-0.1,0.3-0.2,0.5-0.2c0.5,0,0.8,0,0.8,0c6,0,7.8-0.9,8.3-1.5c0-0.1,0.1-0.1,0.1-0.2
		C293.7,560.6,293.7,560.6,293.7,560.5z"/>
	<circle id="XMLID_2663_" fill="#FFFFFF" cx="329.2" cy="582.3" r="3.6"/>
	
		<ellipse id="XMLID_2662_" transform="matrix(0.8466 0.5322 -0.5322 0.8466 347.4996 -88.3989)" fill="#FFFFA6" cx="327.1" cy="558.7" rx="4.1" ry="2.8"/>
	<path id="XMLID_2660_" fill="#FFFFFF" d="M309.5,561.6l-2.9-0.9c-0.6-0.2-0.9-0.8-0.7-1.3l0.9-2.9c0.2-0.6,0.8-0.9,1.3-0.7l2.9,0.9
		c0.6,0.2,0.9,0.8,0.7,1.3l-0.9,2.9C310.7,561.5,310.1,561.8,309.5,561.6z"/>
</g>
</svg>
