<svg version="1.1" id="图层_1" xmlns="http://www.w3.org/2000/svg" xmlns:xlink="http://www.w3.org/1999/xlink" x="0px" y="0px" viewBox="0 0 904.46539 285.427" enable-background="new 0 0 904.46539 285.427" xml:space="preserve">
  <g>
    <path fill="#F2E347" d="M19.76121,157.22581c0,0-2.8593-10.59897,5.41547-19.30487
		c8.27477-8.70592,13.0791-15.35517,12.38424-18.23854c-0.69485-2.88336-11.42952-9.4489-11.42952-9.4489
		s-6.29799,13.11084-15.42737,20.80238c-9.12938,7.69153-5.65511,22.10837-5.65511,22.10837L19.76121,157.22581z" />
    <g>
      <g>
        <g>
          <path fill-rule="evenodd" clip-rule="evenodd" fill="#FF5B58" d="M683.25421,91.26015
					c-0.05487-0.12547-0.22388-0.14654-0.30786-0.0385l-16.15283,20.77483c-1.29248,1.66234-1.10687,3.96899,0.41473,5.15206
					l18.45728,14.35085c1.52155,1.18303,3.8028,0.79446,5.09534-0.86787l16.15277-20.77483
					c0.08405-0.10808,0.02191-0.26665-0.11316-0.28895l-16.64917-2.74279c-0.06036-0.00993-0.11157-0.04976-0.13605-0.10577
					L683.25421,91.26015z" />
          <path fill-rule="evenodd" clip-rule="evenodd" fill="#FFEB92" d="M683.05731,91.07893l-0.25146,0.32341l5.42627,13.2817
					c0.78027,1.78348,2.41022,3.05079,4.33099,3.36748l14.21008,1.98586l0.25146-0.32341L683.05731,91.07893z" />
        </g>
      </g>
      <g>
        <path fill="#FFF4C7" d="M678.47229,118.7959l2.03027-2.6123l-3.33984-2.59668l0.58008-0.74609l3.33984,2.59668l0.83594-1.07422
				l-3.34082-2.59766l0.58105-0.74609l2.80078,2.17773l-0.10352-7.33691l2.02539,1.57617l-0.14941,4.81641
				c-0.0498,0.77539-0.10449,1.37988-0.19434,2.02832l0.06543,0.05078c0.54004-0.25098,1.17969-0.49512,1.94043-0.71875
				l4.69531-1.23438l1.9834,1.54199l-7.37402,1.52246l2.80176,2.17773l-0.58105,0.74707l-3.3623-2.61426l-0.83496,1.0752
				l3.3623,2.61328l-0.58008,0.74609l-3.3623-2.61328l-2.03125,2.61133L678.47229,118.7959z" />
      </g>
    </g>
    <path fill="#F2E347" d="M715.51678,232.95471c0,0-6.82257,1.7137-12.30811-3.685s-9.69208-8.55098-11.54718-8.13794
		c-1.8551,0.41302-6.18134,7.21742-6.18134,7.21742s8.32977,4.18132,13.15588,10.11626
		c4.82605,5.93492,14.10162,3.8698,14.10162,3.8698L715.51678,232.95471z" />
    <path fill="#F2E347" d="M897.11804,103.85791c0,0-5.53052,9.74297-17.78217,10.1229s-20.50916,1.75766-22.07391,4.3486
		c-1.56476,2.59095,1.51385,15.05802,1.51385,15.05802s13.97797-4.99487,26.12189-4.02548s19.96771-11.98532,19.96771-11.98532
		L897.11804,103.85791z" />
    <g>
      <g>
        <defs>
          <circle id="SVGID_1_" cx="401.46634" cy="273.95871" r="260.81824" />
        </defs>
        <clipPath id="SVGID_2_">
          <use xlink:href="#SVGID_1_" overflow="visible" />
        </clipPath>
        <rect x="117.33438" y="1.57407" clip-path="url(#SVGID_2_)" fill="#FFFFFF" width="576.98901" height="280.20331" />
      </g>
      <g>
        <path fill="#E14442" d="M407.37552,147.06184h160.81821c0.05096,0,0.10016,0.00687,0.15088,0.00769h12.50049
				c4.94678,0,8.9942,4.04739,8.9942,8.99419v4.11784l0.15167-0.04794v-10.78517c0-1.30304-0.23187-2.56062-0.63641-3.75882
				H407.37552V147.06184z" />
        <path fill="#E14442" d="M218.7256,147.06184h188.64992v-1.47221h181.97903c-1.96857-5.82933-8.37048-10.13695-15.92731-10.13695
				H226.29514c-9.11002,0-16.56372,6.25313-16.56372,13.89577v6.70758C209.73141,151.10925,213.77872,147.06184,218.7256,147.06184z
				" />
        <path fill="#E14442" d="M568.19373,147.06184H407.37552v0.00769H568.3446
				C568.29388,147.06871,568.24469,147.06184,568.19373,147.06184z" />
        <path fill="#E14442" d="M407.37552,216.02127v-68.95174v-0.00769H218.7256c-4.94688,0-8.99419,4.04741-8.99419,8.99419v7.94099
				L407.37552,216.02127z" />
        <path fill="#E14442" d="M580.84509,147.06953H568.3446c4.87726,0.08208,8.84332,4.09068,8.84332,8.9865v8.12766l12.65137-4.00212
				v-4.11784C589.83929,151.11693,585.79187,147.06953,580.84509,147.06953z" />
        <path fill="#E14442" d="M568.3446,147.06953H407.37552v68.95174l3.24289,0.85364l166.56952-52.69122v-8.12766
				C577.18793,151.16022,573.22186,147.15161,568.3446,147.06953z" />
        <path fill="#FFF698" d="M569.45856,273.57501h-338.0069c-3.3,0-6-2.69998-6-6V79.58011c0-3.3,2.7-6,6-6h338.0069
				c3.30005,0,6,2.7,6,6v187.9949C575.45856,270.87503,572.75861,273.57501,569.45856,273.57501z" />
        <path fill="none" d="M589.35455,145.58963c0.40454,1.1982,0.63641,2.45578,0.63641,3.75882v10.78517l-0.15167,0.04794v169.78056
				c0,4.94678-4.04742,8.99417-8.9942,8.99417H407.37552v1.82312h192.83408V145.58963H589.35455z" />
        <path fill="#FF5B58" d="M209.73141,162.81415v114.5069c0,3.41318,4.0473,6.20581,8.99419,6.20581h188.64992v-84.81714
				L209.73141,162.81415z" />
        <path fill="#FA504D" d="M577.18793,162.94293v0.16287l-166.55515,36.1929l-3.25726-0.58899v84.81714v0.00528h173.46957
				c4.94678,0,8.9942-2.7926,8.9942-6.20578V160.18156L577.18793,162.94293z" />
      </g>
      <g>
        <path fill="#EBA800" d="M374.64075,165.68555v12.02734h-48.87695c0.52881-4.5459,2.1167-8.85449,4.76367-12.92578
				c2.646-4.07031,7.87256-9.46875,15.68018-16.19629c6.28516-5.4375,10.13916-9.12402,11.56201-11.05957
				c1.91797-2.67285,2.87793-5.31445,2.87793-7.92578c0-2.88672-0.83545-5.10645-2.50586-6.6582
				c-1.6709-1.55078-3.97803-2.32715-6.92236-2.32715c-2.91113,0-5.22705,0.81445-6.94678,2.44238
				c-1.7207,1.62793-2.71289,4.33105-2.97754,8.10938l-13.89404-1.29004c0.82666-7.12598,3.42432-12.24121,7.79102-15.34473
				c4.3667-3.10156,9.82471-4.65332,16.375-4.65332c7.17822,0,12.81836,1.79688,16.9209,5.39062
				c4.10156,3.59473,6.15283,8.06445,6.15283,13.40918c0,3.04199-0.5874,5.9375-1.76123,8.68652
				c-1.1748,2.75-3.03564,5.62988-5.58252,8.63965c-1.68701,1.99707-4.73096,4.86914-9.13037,8.61719
				c-4.3999,3.74805-7.1875,6.23633-8.36133,7.46484c-1.17432,1.22852-2.12598,2.42676-2.85303,3.59375H374.64075z" />
        <path fill="#EBA800" d="M431.15979,165.68555v12.02734h-48.87695c0.52881-4.5459,2.1167-8.85449,4.76367-12.92578
				c2.646-4.07031,7.87256-9.46875,15.68018-16.19629c6.28516-5.4375,10.13916-9.12402,11.56201-11.05957
				c1.91797-2.67285,2.87793-5.31445,2.87793-7.92578c0-2.88672-0.83545-5.10645-2.50586-6.6582
				c-1.6709-1.55078-3.97803-2.32715-6.92236-2.32715c-2.91113,0-5.22705,0.81445-6.94678,2.44238
				c-1.7207,1.62793-2.71289,4.33105-2.97754,8.10938l-13.89404-1.29004c0.82666-7.12598,3.42432-12.24121,7.79102-15.34473
				c4.3667-3.10156,9.82471-4.65332,16.375-4.65332c7.17822,0,12.81836,1.79688,16.9209,5.39062
				c4.10156,3.59473,6.15283,8.06445,6.15283,13.40918c0,3.04199-0.5874,5.9375-1.76123,8.68652
				c-1.1748,2.75-3.03564,5.62988-5.58252,8.63965c-1.68701,1.99707-4.73096,4.86914-9.13037,8.61719
				c-4.3999,3.74805-7.1875,6.23633-8.36133,7.46484c-1.17432,1.22852-2.12598,2.42676-2.85303,3.59375H431.15979z" />
        <path fill="#EBA800" d="M464.15784,109.88379c7.0459,0,12.55371,2.33496,16.52344,7.00391
				c4.73047,5.5293,7.09668,14.69922,7.09668,27.50977c0,12.7793-2.38184,21.96484-7.14551,27.55566
				c-3.9375,4.60742-9.42871,6.91113-16.47461,6.91113c-7.08008,0-12.78613-2.52637-17.11914-7.58008
				c-4.33447-5.05273-6.50049-14.06152-6.50049-27.02539c0-12.71777,2.38184-21.87207,7.14502-27.46289
				C451.61975,112.1875,457.11096,109.88379,464.15784,109.88379z M464.15784,120.62012c-1.6875,0-3.19336,0.5-4.51562,1.49707
				c-1.32324,0.99902-2.34961,2.78809-3.07617,5.36914c-0.95996,3.34863-1.43945,8.98535-1.43945,16.91113
				s0.42969,13.37109,1.29004,16.33496c0.86035,2.96484,1.94336,4.93848,3.25,5.9209
				c1.30664,0.9834,2.80371,1.47461,4.49121,1.47461c1.68652,0,3.19238-0.49902,4.51562-1.49707
				c1.32227-0.99805,2.34863-2.78809,3.07617-5.36816c0.95898-3.31836,1.43945-8.93945,1.43945-16.86523
				s-0.43066-13.37109-1.29004-16.33594c-0.86133-2.96387-1.94434-4.94531-3.25098-5.94434
				C467.34143,121.12012,465.84436,120.62012,464.15784,120.62012z" />
      </g>
      <g>
        <path fill="#EBA800" d="M276.11536,129.99414l1.13281-0.16211l-0.13477,2.2666l-0.99805,0.13477v0.29688
				c0,1.26758,0.02686,2.02246,0.13477,2.75098h-2.96729c0.10791-0.64746,0.16162-1.34863,0.16162-2.69727l-9.33398,1.16016
				l-0.53955-2.69824c0.21582,0.02734,0.35059,0.02734,0.53955,0.02734c0.18848,0,0.91699-0.02734,2.21191-0.1084v-8.38965
				c-1.13281,0-1.86133,0.02734-2.6709,0.16211v-2.64453c0.72852,0.13574,1.43018,0.16211,2.77881,0.16211h19.07324
				c1.37598,0,2.05029-0.02637,2.80566-0.16211v2.64453c-0.86328-0.13477-1.51074-0.16211-2.83252-0.16211h-9.36133V129.99414z
				 M285.42249,117.01758c0,1.05273,0.02686,1.7002,0.10791,2.34766c-0.62012-0.05469-1.5918-0.08105-2.50879-0.08105h-13.70459
				c-1.21387,0-1.94238,0.02637-2.77881,0.08105c0.08105-0.6748,0.10791-1.34961,0.10791-2.32031v-3.64258
				c0-0.99805-0.02686-1.67188-0.10791-2.34668c0.89062,0.08105,1.61865,0.1084,2.85986,0.1084h13.27295
				c1.24072,0,1.94238-0.02734,2.85938-0.1084c-0.08105,0.64746-0.10791,1.29492-0.10791,2.34668V117.01758z M268.96643,122.5752
				v1.21387h4.47803v-1.21387H268.96643z M268.96643,125.75879v1.29492h4.47803v-1.29492H268.96643z M268.96643,129.02246v1.72656
				c0.32373-0.02637,0.32373-0.02637,0.91699-0.08105c0.21582,0,0.83643-0.08008,1.78076-0.18848
				c0.4043-0.02734,0.97119-0.08105,1.78027-0.16211v-1.29492H268.96643z M269.42493,114.32031h13.19189v-1.0791h-13.19189
				V114.32031z M269.42493,117.28711h13.19189v-1.10547h-13.19189V117.28711z M287.44592,125.19238
				c-0.18896,0.26953-0.24268,0.37695-0.43164,0.78223c-0.78223,1.78027-1.69971,3.2373-2.91357,4.66699
				c1.05225,0.72852,2.50879,1.34863,4.2627,1.86133c-0.54004,0.80957-0.97168,1.64551-1.37598,2.64355
				c-2.50879-1.10547-3.45312-1.64551-4.69434-2.64355c-1.21387,1.0791-2.40088,1.86133-4.23535,2.80566
				c-0.40479-0.91699-0.89014-1.5918-1.61865-2.29297c1.86133-0.75586,2.6167-1.1875,3.96582-2.32031
				c-0.99854-1.16016-2.05029-2.80566-2.91357-4.55957c-0.16211,0-0.24316,0-0.62061,0.05469v-2.53613
				c0.62061,0.08105,1.16016,0.10742,2.26611,0.10742h4.74805c1.05225,0,1.72656-0.02637,2.18506-0.10742L287.44592,125.19238z
				 M280.18909,126.08203c0.70117,1.26855,1.32178,2.1582,1.99609,2.88672c0.70166-0.83594,1.21436-1.67285,1.80762-2.88672
				H280.18909z" />
        <path fill="#EBA800" d="M301.02063,112.32324c-0.29688-0.53906-0.40479-0.75488-0.80957-1.42969l3.07568-0.94434
				c0.51221,0.91797,0.75537,1.43066,1.10596,2.37402h7.74268c1.21387,0,1.96924-0.05371,2.83252-0.16113v2.72461
				c-0.89014-0.1084-1.56445-0.13477-2.80566-0.13477h-18.61426c-1.21436,0-1.88867,0.02637-2.77881,0.13477v-2.72461
				c0.86328,0.10742,1.67236,0.16113,2.94043,0.16113H301.02063z M291.52454,125.24609c0-0.91699-0.02734-1.61914-0.10791-2.45508
				c0.86328,0.08105,1.64551,0.10742,2.83252,0.10742h17.42773c1.32178,0,1.96924-0.02637,2.67041-0.10742
				c-0.08057,0.83594-0.10791,1.45703-0.10791,2.42773v6.87988c0,1.34863-0.13477,1.86133-0.64746,2.31934
				c-0.53955,0.48633-1.32178,0.64746-3.26416,0.64746c-0.62061,0-0.72852,0-1.5376-0.05371
				c-0.43164-0.02734-0.43164-0.02734-0.86328-0.02734c-0.08105-1.21387-0.21582-1.83398-0.59375-2.69727
				c1.48389,0.16211,2.56299,0.24316,3.2373,0.24316c0.56641,0,0.70166-0.1084,0.70166-0.56738v-6.7168h-16.78027v7.17578
				c0,1.37598,0.02686,2.02344,0.16211,2.96777h-3.2915c0.10791-0.59375,0.16211-1.61914,0.16211-2.96777V125.24609z
				 M294.86975,117.66504c0-0.86328-0.02686-1.32129-0.08105-1.96875c0.78223,0.08008,1.42969,0.10742,2.6167,0.10742h11.22266
				c1.0791,0,1.64551-0.02734,2.40137-0.10742c-0.0542,0.70117-0.08105,1.10547-0.08105,1.96875v2.32031
				c0,1.05176,0.02686,1.34863,0.08105,1.99609c-0.72852-0.08105-1.34912-0.10742-2.53613-0.10742h-11.16895
				c-1.05176,0-1.75342,0.02637-2.53564,0.10742c0.0542-0.56641,0.08105-1.0791,0.08105-1.99609V117.66504z M308.62805,130.23633
				c0,0.7832,0.02734,1.32227,0.08105,1.80762c-0.5127-0.05371-1.5376-0.08105-2.23926-0.08105h-7.31055
				c-0.86328,0-1.34912,0.02734-2.23926,0.08105c0.05371-0.5127,0.08105-1.05176,0.08105-1.80762v-2.26562
				c0-0.75586-0.02734-1.21387-0.08105-1.75391c0.62012,0.05469,1.18701,0.08105,2.18506,0.08105h7.39209
				c1.0249,0,1.40234-0.02637,2.21191-0.08105c-0.05371,0.54004-0.08105,0.91797-0.08105,1.75391V130.23633z M297.67542,119.63477
				h10.43994v-1.64551h-10.43994V119.63477z M299.67151,129.83203h6.3667v-1.4834h-6.3667V129.83203z" />
      </g>
      <g>
        <path fill="#EBA800" d="M512.74475,172.98926c0,0.72852,0.2959,0.83594,2.07715,0.83594c1.8877,0,2.34668-0.16113,2.5625-0.94336
				c0.16211-0.5127,0.29688-1.91602,0.4043-3.77734c1.10645,0.54004,1.75391,0.75586,2.86035,0.97168
				c-0.32422,3.6416-0.45898,4.45117-0.99805,5.31445c-0.64746,1.02441-1.8623,1.32129-5.4502,1.32129
				c-2.1582,0-3.29102-0.21582-3.91113-0.75488c-0.40527-0.32422-0.54004-0.80957-0.54004-1.7002v-11.08691h-3.88477
				c0,3.29102-0.53906,6.28516-1.56445,8.3623c-0.80957,1.7002-1.99609,3.10254-3.56152,4.23535
				c-0.67383,0.48633-1.24023,0.80957-2.85938,1.64648c-0.62012-1.13379-1.24121-1.94238-2.0498-2.69824
				c3.02148-1.32227,4.61328-2.61719,5.69238-4.63965c0.83594-1.53809,1.26758-3.93945,1.26758-6.90625h-3.58789
				c-1.24121,0-2.13184,0.05371-3.02148,0.16113v-3.20996c0.88965,0.10742,1.75293,0.16211,3.02148,0.16211h18.04785
				c1.29492,0,2.13086-0.05469,2.99414-0.16211v3.20996c-0.91699-0.10742-1.78027-0.16113-2.99414-0.16113h-4.50488V172.98926z
				 M517.73499,156.80273c-0.67383-0.10742-1.5918-0.16211-2.75195-0.16211h-13.43457c-1.24121,0-2.0498,0.05469-2.75195,0.16211
				v-3.20996c0.70215,0.10742,1.53809,0.16113,2.83301,0.16113h13.2998c1.32227,0,2.10449-0.05371,2.80566-0.16113V156.80273z" />
      </g>
    </g>
    <path fill="#F2E347" d="M495.24127,36.90921c0,0,5.32352-11.50927,19.1076-13.08821
		c13.78412-1.57893,22.96918-3.90834,24.49091-6.97782S535.71832,0,535.71832,0s-15.29803,6.94663-29.08734,6.99342
		c-13.78931,0.04679-21.39804,15.39422-21.39804,15.39422L495.24127,36.90921z" />
    <g>
      <g>
        <g>
          <path fill-rule="evenodd" clip-rule="evenodd" fill="#FF5B58" d="M222.93481,21.20924
					c-0.18684,0.00072-0.30482,0.20096-0.21504,0.36469l17.26202,31.484c1.38126,2.51925,4.3703,3.53667,6.67625,2.27236
					l27.97174-15.33633c2.30588-1.26427,3.05548-4.3315,1.67422-6.85075l-17.26205-31.484
					c-0.08978-0.16379-0.32202-0.17194-0.42313-0.01486l-12.45619,19.36226c-0.04515,0.0702-0.12276,0.11275-0.20616,0.11304
					L222.93481,21.20924z" />
          <path fill-rule="evenodd" clip-rule="evenodd" fill="#FFEB92" d="M222.60117,21.35764l0.26874,0.49013l19.57193,0.40194
					c2.6561-0.01065,5.12627-1.36499,6.56363-3.59863l10.18665-16.71804l-0.26874-0.49013L222.60117,21.35764z" />
        </g>
      </g>
      <g>
        <path fill="#FFF4C7" d="M254.8224,42.12012l-2.1709-3.95996l-5.06055,2.77441l-0.62012-1.13086l5.06055-2.77441l-0.89307-1.62891
				l-5.06006,2.77441l-0.62012-1.13086l4.24365-2.32715l-9.24316-3.84863l3.06885-1.68262l5.95068,2.7998
				c0.94385,0.48242,1.67041,0.87793,2.43408,1.34277l0.09814-0.05371c-0.02051-0.81348,0.01904-1.74707,0.15283-2.82031
				l0.99512-6.54883l3.00291-1.64648l-2.08495,10.05957l4.24413-2.32715l0.62012,1.13086l-5.09276,2.79297l0.89307,1.62891
				l5.09325-2.79297l0.62012,1.13086l-5.09325,2.79297l2.17088,3.95898L254.8224,42.12012z" />
      </g>
    </g>
  </g>
</svg>
