<?xml version="1.0" encoding="utf-8"?>
<!-- Generator: Adobe Illustrator 18.0.0, SVG Export Plug-In . SVG Version: 6.00 Build 0)  -->
<!DOCTYPE svg PUBLIC "-//W3C//DTD SVG 1.1//EN" "http://www.w3.org/Graphics/SVG/1.1/DTD/svg11.dtd">
<svg version="1.1" id="图层_1" xmlns="http://www.w3.org/2000/svg" xmlns:xlink="http://www.w3.org/1999/xlink" x="0px" y="0px"
	 viewBox="0 0 243.42572 188.67586" enable-background="new 0 0 243.42572 188.67586" xml:space="preserve">
<g>
	<g>
		<g>
			<path fill-rule="evenodd" clip-rule="evenodd" fill="#FF5B58" d="M182.24078,26.23516
				c-0.02519-0.05759-0.10278-0.06727-0.14134-0.01767l-7.4149,9.53663c-0.59332,0.76309-0.5081,1.82196,0.19038,2.36504
				l8.47275,6.58772c0.69847,0.54307,1.74568,0.3647,2.339-0.39839l7.4149-9.53663c0.03857-0.04961,0.01007-0.12241-0.05194-0.13264
				l-7.64278-1.25907c-0.02771-0.00456-0.05122-0.02284-0.06245-0.04855L182.24078,26.23516z"/>
			<path fill-rule="evenodd" clip-rule="evenodd" fill="#FFEB92" d="M182.15038,26.15197l-0.11543,0.14846l2.49094,6.09693
				c0.35817,0.8187,1.1064,1.40046,1.98813,1.54583l6.52309,0.91161l0.11543-0.14846L182.15038,26.15197z"/>
		</g>
	</g>
	<g>
		<path fill="#FFF4C7" d="M180.04572,38.87557l0.93262-1.19971l-1.53223-1.19189l0.2666-0.34229l1.53223,1.19189l0.38379-0.49365
			l-1.53223-1.19189l0.26562-0.34277l1.28516,0.99951l-0.04688-3.36865l0.92969,0.72314l-0.06836,2.21094
			c-0.02441,0.35645-0.04883,0.63379-0.08984,0.93164l0.0293,0.02344c0.24805-0.11523,0.54199-0.22754,0.8916-0.33008
			l2.15527-0.56787l0.91016,0.70801l-3.38574,0.69971l1.28613,1l-0.26562,0.34277l-1.54297-1.19971l-0.38379,0.49365
			l1.54297,1.19971l-0.2666,0.34229l-1.54297-1.19971l-0.93262,1.19971L180.04572,38.87557z"/>
	</g>
</g>
<g>
	<defs>
		<circle id="SVGID_3_" cx="116.7712" cy="109.95111" r="93.74545"/>
	</defs>
	<clipPath id="SVGID_4_">
		<use xlink:href="#SVGID_3_"  overflow="visible"/>
	</clipPath>
	<rect x="14.64613" y="12.04837" clip-path="url(#SVGID_4_)" fill="#FFFFFF" width="207.38618" height="164.56956"/>
</g>
<path fill="#F2E347" d="M240.18661,82.47973c0,0-2.31223,4.07343-7.43451,4.23228c-5.12228,0.15884-8.57466,0.73486-9.22887,1.8181
	s0.63292,6.29559,0.63292,6.29559s5.84402-2.0883,10.92128-1.68301c5.07726,0.40529,8.34827-5.01093,8.34827-5.01093
	L240.18661,82.47973z"/>
<path fill="#F2E347" d="M7.88472,93.21689c0,0-2.41187-3.90494-0.13664-8.38161c2.27523-4.47667,3.40571-7.71471,2.78284-8.78693
	c-0.62288-1.07222-5.70818-2.42026-5.70818-2.42026s-0.95695,6.00536-3.69578,10.17773
	c-2.73882,4.17236,0.37557,9.53347,0.37557,9.53347L7.88472,93.21689z"/>
<g>
	<path fill="#E14442" d="M120.70699,89.57152h68.78309c0.02179,0,0.04285,0.00294,0.06453,0.00329h5.34654
		c2.11578,0,3.84688,1.7311,3.84688,3.84688v1.76123l0.06488-0.0205v-4.61289c0-0.55733-0.09915-1.0952-0.2722-1.60768h-77.83372
		V89.57152z"/>
	<path fill="#E14442" d="M40.02009,89.57152h80.6869v-0.62968h77.83372c-0.84198-2.49325-3.58011-4.33564-6.81221-4.33564H43.25764
		c-3.89642,0-7.08442,2.67451-7.08442,5.94332v2.86887C36.17321,91.30262,37.90428,89.57152,40.02009,89.57152z"/>
	<path fill="#E14442" d="M189.49008,89.57152h-68.78309v0.00329h68.84762C189.53293,89.57446,189.51187,89.57152,189.49008,89.57152
		z"/>
	<path fill="#E14442" d="M120.70699,119.06596V89.57481v-0.00329h-80.6869c-2.11581,0-3.84688,1.7311-3.84688,3.84688v3.39642
		L120.70699,119.06596z"/>
	<path fill="#E14442" d="M194.90115,89.57481h-5.34654c2.08603,0.0351,3.78235,1.74961,3.78235,3.84359v3.47625l5.41107-1.71173
		v-1.76123C198.74803,91.30591,197.01694,89.57481,194.90115,89.57481z"/>
	<path fill="#E14442" d="M189.55461,89.57481h-68.84762v29.49115l1.38701,0.3651l71.24296-22.53642V93.4184
		C193.33696,91.32442,191.64064,89.60991,189.55461,89.57481z"/>
	<path fill="#FFEB92" d="M190.32898,147.92046H45.1652c-3.3,0-6-2.7-6-6V54.67197c0-3.3,2.7-6,6-6h145.16377c3.3,0,6,2.7,6,6
		v87.24848C196.32898,145.22046,193.62898,147.92046,190.32898,147.92046z"/>
	<path fill="none" d="M198.54071,88.94184c0.17305,0.51248,0.2722,1.05035,0.2722,1.60768v4.61289l-0.06488,0.0205v72.61636
		c0,2.11577-1.73109,3.84686-3.84688,3.84686h-74.19416v0.77975h82.47651V88.94184H198.54071z"/>
	<path fill="#FF5B58" d="M36.17321,96.81482v70.98116c0,2.11577,1.73106,3.84688,3.84688,3.84688h80.6869v-52.5769
		L36.17321,96.81482z"/>
	<path fill="#FA504D" d="M193.33694,96.89467l-71.24292,22.53638l-1.38702-0.36511v52.5769v0.0033h74.19415
		c2.11578,0,3.84686-1.73108,3.84686-3.84686V95.18294L193.33694,96.89467z"/>
</g>
<g>
	<path fill="#EBA800" d="M107.70636,91.19783v5.14404H86.80109c0.22656-1.94434,0.90527-3.78711,2.03809-5.52832
		c1.13184-1.74072,3.36719-4.0498,6.70605-6.92773c2.68848-2.3252,4.33691-3.90186,4.94531-4.72998
		c0.82031-1.14307,1.23145-2.27295,1.23145-3.38965c0-1.23486-0.35742-2.18408-1.07227-2.84814
		c-0.71484-0.66309-1.70117-0.99512-2.96094-0.99512c-1.24512,0-2.23535,0.34814-2.9707,1.04443
		c-0.73633,0.69678-1.16016,1.85254-1.27344,3.46875l-5.94238-0.55176c0.35352-3.04785,1.46387-5.23584,3.33203-6.56299
		c1.86719-1.32666,4.20215-1.99072,7.00293-1.99072c3.07031,0,5.4834,0.76904,7.2373,2.30615
		c1.75488,1.53711,2.63184,3.44922,2.63184,5.73535c0,1.30078-0.25098,2.53906-0.75293,3.71484
		c-0.50293,1.17627-1.29883,2.40771-2.3877,3.69531c-0.72168,0.85449-2.02344,2.08252-3.90527,3.68555
		s-3.07422,2.66748-3.57617,3.19287c-0.50293,0.52539-0.90918,1.03809-1.2207,1.53711H107.70636z"/>
	<path fill="#EBA800" d="M131.88068,91.19783v5.14404h-20.90576c0.22656-1.94434,0.90527-3.78711,2.03809-5.52832
		c1.13184-1.74072,3.36719-4.0498,6.70605-6.92773c2.68896-2.3252,4.3374-3.90186,4.9458-4.72998
		c0.82031-1.14307,1.23145-2.27295,1.23145-3.38965c0-1.23486-0.35742-2.18408-1.07227-2.84814
		c-0.71484-0.66309-1.70117-0.99512-2.96094-0.99512c-1.24561,0-2.23584,0.34814-2.97119,1.04443
		c-0.73633,0.69678-1.16016,1.85254-1.27344,3.46875l-5.94238-0.55176c0.35352-3.04785,1.46387-5.23584,3.33203-6.56299
		c1.86719-1.32666,4.20215-1.99072,7.00342-1.99072c3.07031,0,5.4834,0.76904,7.2373,2.30615
		c1.75488,1.53711,2.63184,3.44922,2.63184,5.73535c0,1.30078-0.25098,2.53906-0.75293,3.71484
		c-0.50293,1.17627-1.29883,2.40771-2.3877,3.69531c-0.72168,0.85449-2.02344,2.08252-3.90527,3.68555
		s-3.07422,2.66748-3.57666,3.19287c-0.50293,0.52539-0.90918,1.03809-1.2207,1.53711H131.88068z"/>
	<path fill="#EBA800" d="M145.99396,67.33064c3.01367,0,5.36914,0.99902,7.06738,2.99609
		c2.02344,2.36475,3.03516,6.28662,3.03516,11.76562c0,5.46631-1.01855,9.39453-3.05664,11.78613
		c-1.68359,1.9707-4.03223,2.95605-7.0459,2.95605c-3.02832,0-5.46875-1.08057-7.32227-3.24219
		c-1.85352-2.16113-2.78027-6.01416-2.78027-11.55908c0-5.43945,1.01855-9.35449,3.05664-11.74609
		C140.63165,68.31648,142.98029,67.33064,145.99396,67.33064z M145.99396,71.92293c-0.72168,0-1.36621,0.21387-1.93164,0.64062
		c-0.56543,0.42725-1.00488,1.19238-1.31543,2.2959c-0.41113,1.43213-0.61621,3.84326-0.61621,7.23291
		c0,3.39014,0.18457,5.71924,0.55273,6.98682c0.36719,1.26807,0.83105,2.1123,1.38965,2.53271s1.19922,0.63037,1.9209,0.63037
		s1.36523-0.21338,1.93164-0.64014c0.56543-0.42676,1.00391-1.19238,1.31543-2.29639
		c0.41016-1.41895,0.61523-3.82324,0.61523-7.21338c0-3.38965-0.18359-5.71826-0.55176-6.98633s-0.83105-2.11523-1.38965-2.54248
		C147.35529,72.1368,146.71564,71.92293,145.99396,71.92293z"/>
</g>
<g>
	<path fill="#EBA800" d="M65.56378,75.93221l0.48438-0.06934l-0.05762,0.96924l-0.42676,0.05762v0.12695
		c0,0.54199,0.01172,0.86523,0.05762,1.17676h-1.26953c0.04688-0.27686,0.06934-0.57715,0.06934-1.15381l-3.99121,0.49609
		l-0.23047-1.15381c0.0918,0.01172,0.15039,0.01172,0.23047,0.01172c0.08105,0,0.39258-0.01172,0.94629-0.0459v-3.58789
		c-0.48438,0-0.7959,0.01172-1.14258,0.06934v-1.13037c0.31152,0.05762,0.61133,0.06885,1.18848,0.06885h8.15625
		c0.58789,0,0.87598-0.01123,1.19922-0.06885v1.13037c-0.36914-0.05762-0.64648-0.06934-1.21094-0.06934h-4.00293V75.93221z
		 M69.54327,70.38387c0,0.44971,0.01172,0.72656,0.0459,1.00342c-0.26465-0.02295-0.68066-0.03467-1.07227-0.03467h-5.86036
		c-0.51953,0-0.83008,0.01172-1.18848,0.03467c0.03516-0.28857,0.04688-0.57666,0.04688-0.99219v-1.55713
		c0-0.42676-0.01172-0.71533-0.04688-1.00391c0.38086,0.03467,0.69238,0.04639,1.22266,0.04639h5.67579
		c0.53125,0,0.83105-0.01172,1.22266-0.04639c-0.03418,0.27686-0.0459,0.55371-0.0459,1.00391V70.38387z M62.50616,72.75984v0.51904
		h1.91504v-0.51904H62.50616z M62.50616,74.12117v0.55371h1.91504v-0.55371H62.50616z M62.50616,75.51717v0.73828
		c0.13867-0.01172,0.13867-0.01172,0.39258-0.03467c0.09277,0,0.35742-0.03467,0.76172-0.08105
		c0.17285-0.01123,0.41504-0.03418,0.76075-0.06885v-0.55371H62.50616z M62.70245,69.23006h5.64161v-0.46143h-5.64161V69.23006z
		 M62.70245,70.4991h5.64161v-0.47314h-5.64161V70.4991z M70.40851,73.87898c-0.08105,0.11523-0.10352,0.16162-0.18457,0.33447
		c-0.33496,0.76123-0.72656,1.38428-1.24609,1.99561c0.4502,0.31152,1.07324,0.57666,1.82324,0.7959
		c-0.23145,0.34619-0.41602,0.70361-0.58887,1.13086c-1.07227-0.47314-1.47656-0.7041-2.00684-1.13086
		c-0.51953,0.46143-1.02734,0.7959-1.81152,1.19971c-0.17285-0.39209-0.38086-0.68066-0.69238-0.98047
		c0.79688-0.32275,1.11914-0.50732,1.69629-0.99219c-0.42676-0.49561-0.87695-1.19971-1.24609-1.94922
		c-0.06934,0-0.10352,0-0.26465,0.02295v-1.08447c0.26465,0.03467,0.49512,0.04639,0.96875,0.04639h2.03027
		c0.44922,0,0.73828-0.01172,0.93457-0.04639L70.40851,73.87898z M67.30499,74.25984
		c0.30078,0.54199,0.56543,0.92285,0.85449,1.23389c0.2998-0.35742,0.51855-0.71484,0.77246-1.23389H67.30499z"/>
	<path fill="#EBA800" d="M76.21613,68.37654c-0.12695-0.23096-0.17285-0.32324-0.3457-0.61133l1.31445-0.40381
		c0.21973,0.39209,0.32324,0.61133,0.47363,1.01514h3.31055c0.51953,0,0.8418-0.02295,1.21094-0.06934v1.16504
		c-0.38086-0.0459-0.66895-0.05762-1.19922-0.05762h-7.95996c-0.51855,0-0.80762,0.01172-1.18848,0.05762v-1.16504
		c0.36914,0.04639,0.71582,0.06934,1.25781,0.06934H76.21613z M72.15558,73.90193c0-0.39209-0.01172-0.69189-0.0459-1.0498
		c0.36914,0.03467,0.70312,0.04639,1.21094,0.04639h7.45215c0.56543,0,0.8418-0.01172,1.14258-0.04639
		c-0.03516,0.35791-0.04688,0.62305-0.04688,1.03857v2.94141c0,0.57666-0.05762,0.7959-0.27637,0.99219
		c-0.23047,0.20752-0.56543,0.27686-1.39648,0.27686c-0.26465,0-0.31055,0-0.65723-0.02344
		c-0.18457-0.01123-0.18457-0.01123-0.36914-0.01123c-0.03418-0.51904-0.0918-0.78467-0.25391-1.15381
		c0.63477,0.06934,1.09668,0.104,1.38477,0.104c0.24219,0,0.2998-0.04639,0.2998-0.24219v-2.87256h-7.1748v3.06836
		c0,0.58838,0.01074,0.86523,0.06836,1.26904h-1.40723c0.04688-0.25391,0.06934-0.69189,0.06934-1.26904V73.90193z
		 M73.58624,70.66023c0-0.36914-0.01172-0.56494-0.03516-0.8418c0.33496,0.03467,0.6123,0.0459,1.11914,0.0459h4.79883
		c0.46191,0,0.7041-0.01123,1.02734-0.0459c-0.02344,0.2998-0.03516,0.47266-0.03516,0.8418v0.99219
		c0,0.4502,0.01172,0.57715,0.03516,0.85352c-0.31152-0.03418-0.57715-0.0459-1.08496-0.0459h-4.77539
		c-0.4502,0-0.75,0.01172-1.08496,0.0459c0.02344-0.24219,0.03516-0.46094,0.03516-0.85352V70.66023z M79.46906,76.03621
		c0,0.33447,0.01172,0.56494,0.03516,0.77295c-0.21973-0.02344-0.6582-0.03467-0.95801-0.03467h-3.12598
		c-0.36914,0-0.57617,0.01123-0.95703,0.03467c0.02246-0.21924,0.03418-0.4502,0.03418-0.77295v-0.96924
		c0-0.32275-0.01172-0.51904-0.03418-0.74951c0.26465,0.02295,0.50684,0.03418,0.93359,0.03418h3.16113
		c0.43848,0,0.59961-0.01123,0.94629-0.03418c-0.02344,0.23047-0.03516,0.39209-0.03516,0.74951V76.03621z M74.78546,71.50252
		h4.46484V70.7989h-4.46484V71.50252z M75.63995,75.86287h2.72168v-0.63428h-2.72168V75.86287z"/>
</g>
<g>
	<path fill="#EBA800" d="M166.7713,94.32185c0,0.31152,0.12695,0.35742,0.88867,0.35742c0.80664,0,1.00293-0.06885,1.0957-0.40381
		c0.06934-0.21875,0.12695-0.81885,0.17285-1.61475c0.47266,0.23047,0.75,0.32275,1.22266,0.41504
		c-0.13867,1.55762-0.19629,1.90381-0.42676,2.27295c-0.27734,0.43799-0.7959,0.56494-2.33008,0.56494
		c-0.92285,0-1.40723-0.09229-1.67285-0.32275c-0.17285-0.13867-0.23047-0.34619-0.23047-0.72705v-4.74121h-1.66113
		c0,1.40771-0.23047,2.68799-0.66895,3.57617c-0.34668,0.72705-0.85449,1.32666-1.52344,1.81104
		c-0.28809,0.20801-0.53027,0.34619-1.22266,0.70361c-0.26465-0.48438-0.53027-0.83057-0.87598-1.15332
		c1.29102-0.56543,1.97168-1.11914,2.43359-1.98438c0.35742-0.65723,0.54199-1.68408,0.54199-2.95312h-1.53418
		c-0.53027,0-0.91113,0.02344-1.29199,0.06934v-1.37256c0.38086,0.0459,0.75,0.06934,1.29199,0.06934h7.71777
		c0.55371,0,0.91113-0.02344,1.28027-0.06934v1.37256c-0.39258-0.0459-0.76172-0.06934-1.28027-0.06934h-1.92676V94.32185z
		 M168.90509,87.40047c-0.28809-0.04639-0.68066-0.06934-1.17676-0.06934h-5.74414c-0.53125,0-0.87695,0.02295-1.17676,0.06934
		v-1.37305c0.2998,0.04639,0.65723,0.06934,1.21094,0.06934h5.6875c0.56543,0,0.89941-0.02295,1.19922-0.06934V87.40047z"/>
</g>
<g>
	<g>
		<g>
			<path fill-rule="evenodd" clip-rule="evenodd" fill="#FF5B58" d="M44.47995,9.12403
				c-0.08625,0.00033-0.14071,0.09276-0.09927,0.16834l7.96805,14.53283c0.63758,1.16287,2.0173,1.63251,3.08171,1.04891
				l12.91159-7.07916c1.06438-0.58358,1.41039-1.9994,0.77281-3.16227L61.1468,0.09985
				c-0.04145-0.07561-0.14865-0.07937-0.19532-0.00686l-5.7497,8.9375c-0.02084,0.0324-0.05666,0.05205-0.09517,0.05218
				L44.47995,9.12403z"/>
			<path fill-rule="evenodd" clip-rule="evenodd" fill="#FFEB92" d="M44.32594,9.19252l0.12404,0.22624l9.03429,0.18553
				c1.22604-0.00492,2.36625-0.63007,3.02973-1.6611l4.7021-7.71695l-0.12404-0.22624L44.32594,9.19252z"/>
		</g>
	</g>
	<g>
		<path fill="#FFF4C7" d="M59.19806,18.77694l-1.00195-1.82617l-2.33496,1.28027l-0.28613-0.52148l2.33496-1.28027l-0.41211-0.75195
			L55.1629,16.9576l-0.28516-0.52148l1.95801-1.07373l-4.26465-1.77539l1.41602-0.77637l2.74609,1.2915
			c0.43457,0.22217,0.77051,0.40527,1.12305,0.61963l0.04492-0.0249c-0.00879-0.37451,0.00879-0.80615,0.07031-1.30176
			l0.45996-3.02148l1.38574-0.75977l-0.96289,4.6416l1.95898-1.07373l0.28516,0.52148l-2.34961,1.28857l0.41211,0.75195
			l2.34961-1.28857l0.28711,0.52148l-2.35059,1.28858l1.00098,1.82617L59.19806,18.77694z"/>
	</g>
</g>
<g>
	<path fill="#FFE363" d="M32.48734,165.06192l-12.12852-16.16066l33.81285,0.13933l-0.36753-2.92564
		c0,0,60.09131-13.28786,128.45206-0.41794l-0.5513,2.0443l33.07777,1.15996l-13.23111,16.16066l13.23111,17.5538l-33.07777-2.78632
		v3.76152c0,0-46.3045-11.98117-127.53323,0l-0.29669-3.48636l-33.51616,2.51115L32.48734,165.06192z"/>
	<polygon fill="#F4D556" points="50.65211,149.04987 50.65211,180.34604 53.87497,180.10457 54.17166,149.04059 	"/>
	<polygon fill="#F4D556" points="181.7049,147.7413 181.7049,179.82941 184.54128,180.06833 184.83609,147.8511 	"/>
</g>
<path fill="#F2E347" d="M132.40167,26.74471c0,0,2.30304-4.9791,8.26628-5.66217c5.96323-0.68307,9.93683-1.69081,10.59517-3.01872
	c0.65833-1.32791-1.3504-7.28664-1.3504-7.28664s-6.61819,3.00523-12.58366,3.02547
	c-5.96548,0.02024-9.25714,6.65979-9.25714,6.65979L132.40167,26.74471z"/>
<g>
	<path fill="#FA504D" d="M73.24835,168.20711c0.18164,1.03418-0.17676,1.4248-1.55566,1.66699
		c-0.1377,0.02441-0.38867,0.05371-0.76562,0.0918c-0.16504-0.61035-0.28027-0.86035-0.5791-1.34863
		c0.37109,0.00586,0.69336-0.02246,1.02441-0.08008c0.39941-0.07031,0.45703-0.15137,0.39355-0.51074l-0.51465-2.92383
		c-0.39453,0.18262-0.6416,0.31152-0.74707,0.3584c-0.12793,0.08008-0.12793,0.08008-0.20898,0.1084
		c-0.04102,0.00684-0.08008,0.02832-0.20801,0.10742c-0.02832,0.00488-0.03906,0.02148-0.0918,0.04492
		c-0.02734,0.00488-0.02734,0.00488-0.05273,0.02344l-0.51562-1.47363c0.47559-0.12695,0.47559-0.12695,1.57422-0.58984
		l-0.46094-2.62109l-0.44141,0.07812c-0.3584,0.0625-0.57617,0.11523-0.96973,0.22754l-0.26367-1.50391
		c0.35449-0.00586,0.57715-0.03027,1.00488-0.10547l0.42773-0.0752l-0.19629-1.11719
		c-0.12402-0.7041-0.17871-0.93555-0.33008-1.39258l1.57227-0.27734c0.01074,0.46777,0.04102,0.71875,0.16211,1.4082
		l0.19922,1.13086c0.41309-0.07227,0.54883-0.11035,0.88672-0.21289l0.26172,1.49023
		c-0.35156,0.01855-0.46484,0.02441-0.90625,0.10254l0.39844,2.26172c0.48535-0.22754,0.6416-0.31152,1.03125-0.52246
		l0.22559,1.2832c-0.45996,0.29395-0.47461,0.2959-1.01953,0.59082L73.24835,168.20711z M76.51007,160.39461l0.76367-0.58887
		l0.23438,1.01074c-0.50977,0.33105-1.08887,0.76074-1.59863,1.17676l-0.58105-0.87891
		c0.18262-0.17383,0.2334-0.36816,0.17773-0.68555l-0.11133-0.63379l-0.42773,0.0752
		c0.03613,0.69043-0.00293,0.95312-0.16699,1.39453c-0.15527,0.41113-0.35059,0.75781-0.63281,1.0918
		c0.06934-0.01172,0.09863-0.00293,0.18164-0.01758c0.28125-0.02051,0.49023-0.04297,0.9043-0.11621l2.9375-0.5166
		c-0.27637-0.36328-0.37891-0.45996-0.76855-0.73242c0.69043-0.60449,0.82812-0.87109,0.80078-1.67676
		c-0.3457,0.06055-0.49414,0.10156-0.76562,0.17773l-0.2041-1.15918c0.33887-0.0166,0.46289-0.03809,0.95898-0.12598
		l0.74512-0.13086l-0.10156-0.5791l-0.82812,0.14551c-0.05957,0.22363-0.125,0.41992-0.19238,0.60254
		c-0.2959-0.14648-0.37207-0.17578-0.96973-0.34082c0.25879-0.62891,0.35059-1.15723,0.33887-1.95117l1.04102,0.01562
		c-0.00293,0.14258-0.00684,0.2002-0.01758,0.38672c0.00488,0.02832,0.00391,0.09961-0.00781,0.11523
		c0.00293,0.01367,0.00293,0.01367-0.00195,0.07129l0.45508-0.08008c-0.08203-0.46875-0.12207-0.61816-0.21387-0.81543
		l1.25488-0.2207c0.01074,0.14062,0.03125,0.33594,0.10449,0.83496l0.34473-0.06055
		c0.38574-0.06738,0.61816-0.12305,0.84766-0.19141l0.19727,1.11719c-0.36621,0.02148-0.47656,0.04102-0.9043,0.11621
		l-0.30371,0.05371l0.10254,0.5791l0.53711-0.09473c0.49707-0.08691,0.71484-0.13965,0.94238-0.22266l0.20898,1.18652
		c-0.29688,0.00977-0.49316,0.0293-0.96191,0.1123l-0.27539,0.04785l0.14551,0.82812
		c0.02637,0.15137,0.09375,0.21094,0.21777,0.18945c0.23438-0.04199,0.25879-0.14551,0.13086-0.87695
		c0.35547,0.16504,0.60742,0.2207,0.93164,0.20605c0.12012,1.33008,0.02051,1.49023-1.08301,1.68359
		c-0.78613,0.13867-0.92773,0.06348-1.02734-0.50195l-0.24023-1.36523l-0.3584,0.0625
		c0.04785,0.75977,0.00293,1.06641-0.15234,1.47754c-0.17773,0.44434-0.40527,0.76855-0.76172,1.08691l1.79297-0.31543
		c0.74512-0.13086,0.88281-0.15527,1.16797-0.2334c0.03125,0.4209,0.06055,0.58594,0.15723,1.1377l0.41016,2.33203
		c0.09961,0.56543,0.14941,0.76953,0.25,1.17871l-1.44824,0.25488l-0.59668-3.39355l-4.35938,0.7666l0.59668,3.39355
		l-1.44824,0.25488c-0.06152-0.51562-0.09863-0.80762-0.16406-1.17969l-0.41309-2.3457
		c-0.09473-0.53809-0.14746-0.75586-0.22754-1.05469c-0.08496,0.08594-0.14453,0.15332-0.29004,0.29297
		c-0.26562-0.29492-0.64551-0.59766-1.02734-0.8291c0.77539-0.52051,1.10449-1.07617,1.12012-1.875
		c-0.38574,0.06738-0.48242,0.08496-0.79297,0.18164l-0.20312-1.1582c0.31055-0.01172,0.4209-0.03125,0.87598-0.11133
		l0.81348-0.14355l-0.09863-0.56543l-0.80078,0.14062c-0.01758,0.06055-0.02637,0.08984-0.04395,0.15039
		c-0.06348,0.20996-0.08105,0.26953-0.15332,0.4248c-0.23145-0.18652-0.34082-0.23828-1.00781-0.47656
		c0.31641-0.625,0.43848-1.14355,0.44336-1.8418l1.03223,0.0459c-0.00781,0.11523-0.01465,0.15918-0.02051,0.28809
		c-0.00781,0.11523-0.00781,0.11523-0.01758,0.30176l0.38574-0.06738l-0.04102-0.23438
		c-0.02441-0.13867-0.1123-0.47852-0.14551-0.58594l1.24121-0.21875c-0.00684,0.04395,0.01562,0.16797,0.03516,0.36328
		c-0.00586,0.04395,0.01074,0.14062,0.02637,0.30859l0.0293,0.16504l0.31641-0.05566
		c0.46973-0.08203,0.56641-0.09961,0.78223-0.16602l0.19336,1.10352c-0.32422,0.01465-0.40723,0.0293-0.80664,0.09961
		l-0.30371,0.05371l0.09961,0.56543l0.33105-0.05859c0.52441-0.0918,0.70117-0.1377,0.95801-0.21094l0.2041,1.15918
		c-0.25293,0.01562-0.37988,0.02344-0.83496,0.10352L76.51007,160.39461z M78.60187,163.3116
		c0.35742,2.19824,0.30176,3.1748-0.22949,3.95117c-0.50977,0.74414-1.71094,1.50977-3.64746,2.30566
		c-0.31348-0.48535-0.49023-0.68164-0.95898-1.08301c1.60938-0.55273,2.61621-1.05762,3.21387-1.61719
		c0.5625-0.52539,0.67969-1.31445,0.40527-2.87305c-0.02441-0.1377-0.05078-0.29004-0.07812-0.44141L78.60187,163.3116z
		 M79.20148,166.32039c2.3584,0.22559,2.7959,0.29102,4.0459,0.52539l-0.35352,1.38477
		c-1.38477-0.35352-2.41113-0.52832-4.0332-0.69824L79.20148,166.32039z"/>
	<path fill="#FA504D" d="M87.62531,164.94539c0.0498-0.04785,0.62109-0.44434,1.69727-1.19922l0.19629,1.56836
		c-0.75293,0.51758-1.18066,0.8252-1.32422,0.91406c-0.65137,0.43359-0.65137,0.43359-0.95996,0.66992
		c-0.32129,0.25195-0.32129,0.25195-0.54102,0.40625l-0.71191-1.29297c0.2334-0.26855,0.2959-0.44629,0.28906-0.83984
		l-0.30078-2.40234l-0.69434,0.08691c-0.41602,0.05176-0.81543,0.13086-1.29492,0.24707l-0.18262-1.45801
		c0.29688,0.00488,0.54883-0.0127,1.32617-0.11035l0.68066-0.08496l-0.19629-1.56934l-0.375,0.04785
		c-0.18066,0.02246-0.76074,0.12305-0.89746,0.1543l-0.08887-0.70801c-0.05078,0.16113-0.09766,0.2373-0.23242,0.39551
		c-0.16895-0.44434-0.51074-0.92285-1.00879-1.41113c0.39551-0.55664,0.6709-1.05664,0.97266-1.7998
		c0.32617-0.77441,0.45312-1.22754,0.4707-1.76562l1.63867,0.24609c-0.05762,0.10645-0.07715,0.17871-0.20996,0.57617
		c-0.07129,0.2207-0.0918,0.2793-0.17676,0.50195l1.81836-0.22754l0.18066-0.02246c0.06934-0.00879,0.49512-0.10449,0.60449-0.13281
		l0.17871,1.43066c-0.35254,0.00195-0.36621,0.00293-1.10254,0.0957l-2.16602,0.27148
		c-0.06934,0.23438-0.30176,0.74316-0.52051,1.13672l2.47168-0.30957c0.22266-0.02734,0.22266-0.02734,0.56738-0.08496
		c0.12402-0.0293,0.2627-0.04688,0.40137-0.06445c0.09766-0.0127,0.16504-0.03516,0.35449-0.10059l0.16504,1.43164
		c-0.12695,0.00195-0.12695,0.00195-0.29395,0.02246c-0.08301,0.01074-0.08301,0.01074-0.51855,0.02246l-0.51172,0.0791
		l-0.36133,0.04492l0.19531,1.55469l0.65234-0.08105c0.01367-0.00195,0.04102-0.00586,0.09668-0.0127
		c0.02832-0.00293,0.05371-0.02051,0.10938-0.02734c0.42871-0.06836,0.69141-0.11523,0.88184-0.16699l0.18262,1.45801
		c-0.25293,0.00293-0.77051,0.04004-1.10352,0.08203l-0.65332,0.08105L87.62531,164.94539z M95.90558,161.35555
		c-0.1709,0.21875-0.20703,0.26562-0.41699,0.61621c-0.02441,0.03125-0.03613,0.04688-0.05859,0.0918
		c-0.10742,0.15527-0.16895,0.2334-0.33496,0.47949c-0.40625,0.58691-0.5625,0.80371-0.82129,1.10449
		c0.43262,0.52344,0.99219,0.93359,1.22754,0.90332c0.23633-0.0293,0.29004-0.50098,0.17871-1.61523
		c0.56445,0.33789,0.81738,0.44727,1.33691,0.53711c0.01172,1-0.02246,1.39941-0.13867,1.82324
		c-0.16309,0.6123-0.46191,0.93164-0.90625,0.9873c-0.74902,0.09375-1.88672-0.53906-2.74609-1.5459
		c-0.69727,0.73633-1.59082,1.37012-3.21191,2.27832c-0.23242-0.39355-0.61133-0.82617-1.02148-1.16992
		c0.37695-0.14551,0.77637-0.33691,1.17188-0.55566c0.88477-0.47754,1.95215-1.30176,2.27637-1.75195
		c-0.36426-0.65918-0.70605-1.47656-0.95312-2.32031l-0.90234,0.33887c-0.52637,0.19238-0.65918,0.25195-1.0293,0.45312
		l-0.47461-1.4209c0.49316-0.11816,0.6582-0.15332,1.12988-0.3252l0.86426-0.30566
		c-0.15625-0.68555-0.19727-0.90625-0.30859-1.45605l-0.49121,0.13184c-0.23242,0.05762-0.625,0.19141-1.17676,0.40137
		l-0.34277-1.38184c0.22266-0.02734,0.94824-0.20312,1.20605-0.27832l0.54395-0.16602l-0.30273-1.96484
		c-0.07129-0.45703-0.13379-0.73145-0.22949-1.04297l1.59668-0.2002c-0.01367,0.33984,0.00391,0.5918,0.04883,0.95312
		c0.01074,0.08301,0.04395,0.34668,0.09766,0.77734c0.04297,0.23438,0.08984,0.60938,0.14746,1.06738l2.19238-0.74023
		c0.27051-0.08984,0.61816-0.24707,0.96094-0.43066l0.38477,1.37598c-0.38184,0.10449-0.55957,0.15527-1.0625,0.30273
		l-2.21484,0.78516c0.09375,0.52441,0.13379,0.73047,0.28516,1.375l2.09277-0.74219
		c0.01465-0.00195,0.06836-0.02246,0.13379-0.05859c0.02832-0.00391,0.06836-0.02344,0.13574-0.0459
		c0.38867-0.16113,0.5498-0.22363,0.78613-0.36621l0.48145,1.36426c-0.50391,0.14746-0.80176,0.24121-1.08691,0.33398
		l-2.12109,0.74512c0.15332,0.54492,0.43164,1.2998,0.65527,1.7373c0.43066-0.50586,0.80371-1.13086,1.05957-1.7832
		L95.90558,161.35555z M93.94757,155.86043c-0.54492-0.41113-1.12305-0.74707-1.82617-1.06836l0.84863-0.99512
		c0.83594,0.375,1.14062,0.54883,1.79102,1.0166L93.94757,155.86043z"/>
	<path fill="#FA504D" d="M106.8089,156.8575c0.03027,1.75293-0.09277,3.15137-0.36035,4.2793
		c-0.24902,1.01562-0.66797,2-1.2207,2.88281c-0.3877,0.64648-0.68457,1.00488-1.37891,1.6875
		c-0.45508-0.47266-0.70801-0.66406-1.30957-1.01367c0.80469-0.7041,1.20605-1.16895,1.58008-1.81348
		c-1.53516,0.70215-2.8584,1.21973-5.14355,2.01855c-0.46582,0.16016-0.54883,0.18066-0.90332,0.31934l-0.40039-1.62695
		c0.25098-0.0332,0.38867-0.07129,0.9541-0.19629l-0.59473-8.12598c-0.04395-0.60059-0.10254-1.21387-0.15332-1.51855
		c0.31055,0.01953,0.60449,0.01172,1.05176-0.02148l2.90332-0.21191c0.44727-0.0332,0.72559-0.06738,1.04297-0.13281
		c-0.00879,0.25293,0.02539,0.91016,0.07031,1.52441l0.50488,6.89746l0.65332-0.27246l0.08887,1.21484
		c0.46973-0.87695,0.75781-1.72559,0.93359-2.77734c0.14844-0.85352,0.16992-1.33203,0.1875-3.00391l-0.39062,0.02832
		c-0.53125,0.03906-0.96289,0.08496-1.3916,0.17285l-0.11719-1.60547c0.43652,0.02344,0.81445,0.00977,1.49902-0.04004
		l0.36328-0.02637c-0.00391-0.43555-0.02148-0.67285-0.05664-1.14746c-0.07129-0.97656-0.10547-1.25488-0.20605-1.66895
		l1.66113-0.12207c-0.02832,0.38184-0.02832,0.38184,0.09473,2.8291l1.63379-0.12012
		c0.65625-0.04785,1.03223-0.08984,1.47461-0.17773c-0.01074,0.42188-0.01074,0.42188,0.08496,2.30957
		c0.14453,2.74023,0.12988,4.65039-0.05859,5.89941c-0.18652,1.29102-0.56934,1.62793-1.97949,1.73145
		c-0.37695,0.02734-0.37695,0.02734-1.40039,0.0459c-0.08203-0.55469-0.19922-0.99512-0.39062-1.50098
		c0.70703,0.06055,1.19824,0.06641,1.60352,0.03711c0.58594-0.04297,0.68457-0.23242,0.77441-1.50293
		c0.09961-1.3125,0.06543-2.74121-0.08496-5.36914L106.8089,156.8575z M101.49152,154.97273l-1.99707,0.14648l0.11523,1.57812
		l1.99707-0.14648L101.49152,154.97273z M101.70441,157.8907l-1.99609,0.14648l0.11523,1.57812l1.99707-0.14648L101.70441,157.8907z
		 M101.91827,160.80867l-1.99609,0.14648l0.14941,2.03809c0.71289-0.2207,0.71289-0.2207,1.95898-0.64844L101.91827,160.80867z"/>
	<path fill="#FA504D" d="M118.95343,155.99324l2.896-0.05371c0.79785-0.01465,1.28711-0.05176,1.74805-0.11621l0.0293,1.56641
		c-0.47754-0.04688-1.00977-0.06445-1.72266-0.05176l-2.92529,0.05469l0.03125,1.69238l3.58252-0.06641
		c0.78418-0.01465,1.24512-0.05078,1.70605-0.11523l0.0293,1.58105c-0.49121-0.04688-0.95312-0.06641-1.70898-0.05273
		l-3.58252,0.06641l0.05078,2.74316c0.01172,0.62988-0.17676,1.05273-0.52344,1.21289
		c-0.31934,0.14648-0.90527,0.24121-1.5625,0.25293c-0.44824,0.00879-1.07812-0.00781-1.90527-0.0625
		c-0.08105-0.61426-0.1709-0.93457-0.44824-1.51758c1.00977,0.10742,1.75293,0.16406,2.3125,0.15332
		c0.43359-0.00781,0.55762-0.1084,0.55176-0.44434l-0.04297-2.30859l-3.90332,0.07227
		c-0.76953,0.01465-1.23145,0.05078-1.71973,0.11621l-0.0293-1.58105c0.46289,0.04688,0.9248,0.06641,1.72266,0.05176
		l3.90332-0.07227l-0.03125-1.69336l-3.12012,0.05859c-0.61523,0.01074-1.27246,0.05078-1.74707,0.11621l-0.0293-1.56738
		c0.46289,0.04785,0.93945,0.06641,1.73633,0.05176l3.13477-0.05762l-0.03125-1.66504
		c-0.36328,0.04785-0.41895,0.04883-0.9082,0.10059c-0.68359,0.08203-2.16602,0.17969-3.45215,0.23145
		c-0.16504-0.55664-0.17969-0.62598-0.54492-1.43164c0.30762-0.00586,0.50391-0.00879,0.68555-0.0127
		c2.01465-0.03711,4.57227-0.28027,6.25977-0.5918c1.3252-0.24805,1.84082-0.38379,2.57666-0.71973l1.17383,1.37793
		c-1.19824,0.34473-3.03955,0.71484-4.22607,0.8623L118.95343,155.99324z"/>
	<path fill="#FA504D" d="M128.93048,160.2325c-0.54688,1.58887-1.29492,3.32227-1.84277,4.30762
		c-0.0752,0.12305-0.07617,0.15137-0.12402,0.27539l-1.33789-1.1377c0.19141-0.21582,0.31152-0.39355,0.50879-0.73535
		c0.63574-1.09375,1.07129-2.07031,1.57227-3.58984L128.93048,160.2325z M126.77911,155.54109
		c0.9668,0.65918,1.46777,1.05957,2.28906,1.83789l-0.96387,1.21973c-0.83105-0.87695-1.27734-1.26172-2.3252-1.98047
		L126.77911,155.54109z M128.62091,155.11629c-0.86914-0.97656-1.24707-1.31543-2.23926-2.01855l1.04004-1.01953
		c0.85645,0.6123,1.5459,1.18848,2.23145,1.86328L128.62091,155.11629z M133.21173,162.35457
		c-0.22266-0.68262-0.33496-0.99609-0.56445-1.53906c-0.32422,1.00977-0.79785,1.89941-1.41797,2.62988
		c-0.0625-0.1709-0.08887-0.21387-0.23535-0.38867c-0.04004-0.04395-0.13281-0.17383-0.27832-0.3623l-0.04395,0.99316
		c-0.02832,0.64355-0.02148,0.82617-0.00195,1.33105l-1.49707-0.06445c0.10742-0.54199,0.12988-0.72363,0.1543-1.29785
		l0.19922-4.54688c0.02734-0.64355,0.02441-0.88184,0.00391-1.37402c0.43164,0.06152,0.72461,0.08789,1.29883,0.11328
		l1.2168,0.05273c0.02051-0.47559,0.02344-0.5459,0.00488-1.06543l-1.10547-0.04785
		c-0.5459-0.02441-0.98145-0.01465-1.40234,0.00879l0.06055-1.39941c0.39062,0.05957,0.80859,0.10547,1.36816,0.12988
		l6.42285,0.28027c0.79785,0.03516,1.06348,0.03223,1.41602-0.00879l-0.06055,1.39941
		c-0.37598-0.05859-0.75293-0.10254-1.4248-0.13184l-1.25879-0.06934c-0.06152,0.76855-0.06152,0.76855-0.08887,1.07617
		l1.06348,0.0459c0.74219,0.03223,1.10645,0.03418,1.5,0.00977c-0.05859,0.37598-0.08691,0.71094-0.11523,1.35449l-0.19434,4.46387
		c-0.02734,0.61523-0.26855,1.01172-0.70898,1.14648c-0.21387,0.07422-0.86035,0.10254-1.47559,0.07617
		c-0.02832-0.00195-0.1543-0.00684-0.40527-0.03223c-0.00293-0.5752-0.0752-0.84473-0.30664-1.31738
		c0.38965,0.05957,0.70996,0.10156,0.93359,0.11133c0.39258,0.0166,0.62402-0.15527,0.63867-0.49121l0.05371-1.23145
		l-0.65625,0.91113c-0.30176-0.79883-0.56934-1.42676-0.81445-1.91406c-0.35742,1.13379-0.99414,2.24121-1.6416,2.92871
		c-0.25195-0.32031-0.46777-0.51172-0.97266-0.82812c0.64551-0.67285,0.94434-1.09375,1.25586-1.7959
		c0.35742-0.79688,0.35742-0.79688,0.55957-2.23242l-1.60938-0.07031c-0.05078,0.20801-0.05078,0.20801-0.06934,0.30566
		c0.48535,0.77832,0.62695,1.05078,1.06738,1.88281L133.21173,162.35457z M135.00177,155.38094
		c0.07031-0.33398,0.1084-0.55664,0.11719-0.76562l0.00391-0.08398l-2.00098-0.08789l0.01074,0.07031
		c0,0.01465-0.00195,0.04199-0.00293,0.07031c-0.00195,0.04199-0.00391,0.08398-0.00488,0.1123
		c-0.01074,0.2373-0.00391,0.41992,0.03027,0.60352l-1.52539-0.06641c0.08398-0.33301,0.10645-0.52832,0.11914-0.80762
		l0.00195-0.04199l-0.78418-0.03418c-0.54492-0.02344-0.83984-0.02246-1.24707,0.00195l0.06152-1.41406
		c0.3623,0.05859,0.78027,0.10449,1.27051,0.12598l0.75488,0.0332c0.01758-0.40625,0.00195-0.6875-0.04004-0.99707l1.53906,0.06641
		c-0.06738,0.26367-0.0918,0.50098-0.11328,0.99121l1.98633,0.08594c0.01855-0.40527,0.00195-0.67285-0.04004-0.99707
		l1.53906,0.06738c-0.05371,0.26367-0.0791,0.51562-0.09961,0.99121l0.95215,0.04102
		c0.47559,0.02148,0.91016,0.01172,1.30371-0.0127l-0.06152,1.41309c-0.45996-0.0625-0.87891-0.09473-1.27051-0.11133
		l-0.97949-0.04297l-0.00293,0.07031c-0.0166,0.36328-0.01953,0.44727,0.02148,0.78613L135.00177,155.38094z M130.74493,162.02254
		c0.22168-0.27051,0.50977-0.7627,0.68164-1.17578c0.20312-0.46777,0.31934-0.89746,0.4668-1.7041l-1.03516-0.04492
		L130.74493,162.02254z M134.81622,158.02254c0.00586-0.14062,0.01172-0.2666,0.01367-0.32227
		c0.00879-0.19531,0.01855-0.40527,0.01855-0.74219l-1.55273-0.06738l-0.07422,1.06152L134.81622,158.02254z M135.83966,159.31453
		c-0.02051,0.13965-0.02051,0.13965-0.04395,0.34863c0.06641,0.10059,0.06641,0.10059,0.18457,0.27441
		c0.39453,0.5918,0.82617,1.31152,1.00586,1.68457l0.09863-2.25293L135.83966,159.31453z"/>
	<path fill="#FA504D" d="M142.79962,160.6075c-1.13086,2.50781-1.13086,2.50781-2.31445,4.47266l-1.17578-1.30371
		c0.32227-0.3584,0.53809-0.64355,0.88672-1.22461c0.63086-1.08398,1.07227-1.99219,1.51172-3.12598L142.79962,160.6075z
		 M141.79083,153.38777c0.78613,1.02051,1.21582,1.70312,1.71484,2.76172l-1.30664,0.9502
		c-0.54883-1.24707-0.9375-1.91113-1.68848-2.87109L141.79083,153.38777z M151.65607,155.51375
		c0.06934,0.00781,0.09668,0.01074,0.36133,0.04102c-0.34863-0.40625-0.70605-0.72852-1.1709-1.10645l0.9707-0.7207
		c0.50586,0.38184,0.90234,0.7373,1.32812,1.20898l-0.83398,0.6377c0.29199,0.0332,0.47461,0.04004,0.82715,0.03809
		l-0.16797,1.47461c-0.46777-0.0957-0.68945-0.13477-1.46875-0.22363l-1.11328-0.12695
		c-0.13379,1.42285-0.19727,3.09277-0.15723,4.09863c0.55859-1.06445,0.94824-2.13379,1.10742-3.03125l1.34766,0.66113
		c-0.07715,0.18848-0.09473,0.21484-0.19238,0.45703c-0.03418,0.05273-0.0752,0.16113-0.12012,0.31055
		c-0.11523,0.26855-0.11523,0.26855-1.14062,2.33691c-0.38281,0.75977-0.38281,0.75977-0.53516,0.98242
		c-0.05078,0.07812-0.13379,0.18164-0.23438,0.3252c0.17383,0.82324,0.625,2.05957,0.78125,2.04883
		c0.09961-0.00293,0.28906-0.79883,0.44141-1.89453c0.35156,0.37793,0.59766,0.5752,1.0332,0.83594
		c-0.15625,0.87109-0.2998,1.38965-0.52246,1.8584c-0.28027,0.60156-0.68359,0.92285-1.11426,0.87305
		c-0.6543-0.07422-1.19922-0.85547-1.67188-2.40332c-0.79297,0.89648-1.59375,1.49512-2.8291,2.18652
		c-0.32129-0.51562-0.54492-0.78125-0.9834-1.1416c0.83008-0.35645,1.48047-0.74707,2.24219-1.36523
		c-0.19531-0.02246-0.42969-0.06348-0.68066-0.0918l-1.33594-0.15234l-0.08496,0.75195l-1.16895-0.13379
		c0.08398-0.24414,0.14062-0.61816,0.20703-1.20215l0.31934-2.79785c0.03906-0.34766,0.07031-0.73926,0.06641-0.95117
		c0.20703,0.03809,0.51172,0.08691,0.94238,0.13574l1.61426,0.18457c0.29297,0.0332,0.58594,0.05273,0.7832,0.06055
		c-0.06348,0.30371-0.0791,0.44238-0.10742,0.69336l-0.2998,2.62988c-0.03516,0.30566-0.05273,0.45898-0.06738,0.71094
		c0.26562-0.22363,0.78223-0.79883,1.03027-1.12305c-0.2334-1.53516-0.2334-3.1416-0.01953-6.00684l-3.91016-0.44629
		l-0.0459,0.40332c-0.64355,5.63574-1.12793,7.41309-2.51562,9.32715c-0.3252-0.48828-0.59082-0.75781-1.09668-1.13965
		c1.19336-1.56934,1.69434-3.35938,2.23633-8.11816c0.11426-1.00195,0.14941-1.43555,0.13574-2.05762
		c0.30176,0.07715,0.8418,0.16699,1.53711,0.24609l3.78516,0.43164c0.1084-1.07324,0.11621-1.26953,0.10254-1.6377l1.53027,0.1748
		c-0.1377,0.46387-0.19238,0.82324-0.2832,1.61719L151.65607,155.51375z M145.2713,157.1114
		c0.20508,0.05176,0.39844,0.08789,0.76074,0.12891l1.94727,0.22266c0.39062,0.04395,0.57227,0.05078,0.78418,0.04688
		l-0.15039,1.32227c-0.21973-0.05371-0.46875-0.0957-0.76074-0.12891l-1.97559-0.22559
		c-0.25098-0.02832-0.57227-0.05078-0.75684-0.04395L145.2713,157.1114z M145.98322,162.36629l1.05664,0.12109l0.2002-1.75391
		l-1.05762-0.12012L145.98322,162.36629z"/>
	<path fill="#FA504D" d="M160.11115,157.6075c0.23145-0.59668,0.67188-1.96484,0.71777-2.19824
		c0.00293-0.01367,0.01074-0.05469,0.01855-0.09668l1.61328,0.50293c-0.02441,0.05273-0.04688,0.09082-0.05176,0.11816
		c-0.1582,0.29688-0.18555,0.36328-0.71973,1.77051c-0.02441,0.05176-0.02441,0.05176-0.08105,0.19727l1.22168,0.24023
		c0.61328-0.50684,1.13867-1.07324,1.63379-1.77539l1.46777,0.73145c-0.93066,0.95801-1.08887,1.1123-1.42578,1.37402
		l0.65918,0.12988c0.76855,0.15039,1.11523,0.20508,1.55469,0.21973l-0.28906,1.46973
		c-0.44238-0.14453-0.85156-0.23926-1.52539-0.37109l-3.87207-0.76172c-0.22656,0.42578-0.37109,0.6543-0.63672,1.05859
		l5.0957,1.00195c0.80957,0.15918,1.14258,0.20996,1.56738,0.22266l-0.28906,1.46973
		c-0.43066-0.12793-0.86523-0.24219-1.53809-0.37402l-1.62012-0.31836c0.68359,0.94727,1.65234,1.75098,3.17578,2.63574
		c-0.58105,0.41309-0.79102,0.61426-1.27539,1.26074c-0.80566-0.61523-1.10059-0.8584-1.79199-1.55078
		c-0.15137,0.62695-0.39258,1.49219-0.59668,2.09375c-0.56836,1.72852-0.9707,1.96289-2.70117,1.62305
		c-0.35742-0.07031-0.62891-0.13867-1.17578-0.25977c0.06348-0.75781,0.05469-1.00195-0.06543-1.55371
		c0.69531,0.23633,1.1543,0.37012,1.58008,0.45312c0.37012,0.07324,0.56543,0.02637,0.66113-0.16895
		c0.21289-0.35742,0.36719-0.85547,0.71973-2.21191l-2.22461-0.4375c-0.43066,1.02734-0.89258,1.63574-1.64551,2.20117
		c-0.93359,0.68652-2.07422,1.04688-3.60547,1.14453c-0.12598-0.66602-0.2666-1.03613-0.57031-1.52441
		c0.88672-0.01074,1.29492-0.05859,1.83789-0.20898c0.90234-0.23535,1.49707-0.5752,1.97559-1.12305
		c0.18848-0.23438,0.26855-0.34668,0.46973-0.79199l-0.41211-0.08105c-0.64551-0.12695-1.04883-0.17773-1.47168-0.2041
		l0.0918-0.4668c-0.66309,0.25488-1.04688,0.39355-2.24316,0.74316c-0.10547-0.54883-0.28027-0.89746-0.70117-1.43652
		c2.05664-0.45117,2.77539-0.69531,3.87109-1.33496l-1.60645-0.31641c-0.71484-0.14062-1.10156-0.20215-1.53809-0.23145
		l0.28906-1.46875c0.38477,0.14648,0.75293,0.2334,1.50781,0.38184l2.67773,0.52637
		c0.27637-0.31641,0.44043-0.56934,0.70508-1.04492l-2.30664-0.4541c-0.67285-0.13184-1.06055-0.19434-1.52441-0.22852
		l0.28906-1.46875c0.38477,0.14648,0.75293,0.2334,1.49414,0.37891l0.19238,0.03809
		c-0.13379-0.48242-0.34961-1.05273-0.67285-1.72949l1.51465-0.15918c0.29297,0.68555,0.57617,1.56836,0.70996,2.19434
		L160.11115,157.6075z M162.50665,163.27058l0.12305,0.02441c-0.39648-0.52051-0.62598-0.87891-0.92676-1.45215l-2.32129-0.45605
		c-0.49805,0.42969-0.88086,0.71094-1.37988,0.99805L162.50665,163.27058z"/>
</g>
</svg>
