<?xml version="1.0" encoding="utf-8"?>
<!-- Generator: Adobe Illustrator 18.0.0, SVG Export Plug-In . SVG Version: 6.00 Build 0)  -->
<!DOCTYPE svg PUBLIC "-//W3C//DTD SVG 1.1//EN" "http://www.w3.org/Graphics/SVG/1.1/DTD/svg11.dtd">
<svg version="1.1" id="图层_1" xmlns="http://www.w3.org/2000/svg" xmlns:xlink="http://www.w3.org/1999/xlink" x="0px" y="0px"
	 viewBox="0 0 524.44 227.76" enable-background="new 0 0 524.44 227.76" xml:space="preserve">
<g>
	<g id="XMLID_719_">
		<g>
			<g>
				<g>
					<path fill="#EE9833" d="M409.81,227.76H114.64c-4.12,0-7.46-3.34-7.46-7.46l0,0c0-4.12,3.34-7.46,7.46-7.46h295.17
						c4.12,0,7.46,3.34,7.46,7.46l0,0C417.27,224.42,413.93,227.76,409.81,227.76z"/>
				</g>
			</g>
		</g>
	</g>
	<g id="XMLID_716_">
		<g>
			<g>
				<g>
					<polygon fill="#FFFF64" points="273.9,151.28 290.19,127.51 289.39,156.32 316.54,146.66 298.96,169.49 326.6,177.63 
						298.96,185.78 316.54,208.61 289.39,198.95 290.19,227.76 273.9,203.99 257.62,227.76 258.41,198.95 231.26,208.61 
						248.84,185.78 221.2,177.63 248.84,169.49 231.26,146.66 258.41,156.32 257.62,127.51 					"/>
				</g>
			</g>
		</g>
	</g>
	<g id="XMLID_704_">
		<g id="XMLID_713_">
			<g>
				<g>
					<g>
						<path fill="#0075FF" d="M365.55,55.54c-19.87-19.87-52.1-19.87-71.97,0c-19.87,19.87-19.87,52.1,0,71.97"/>
					</g>
				</g>
			</g>
		</g>
		<g id="XMLID_712_">
			<g>
				<g>
					<g>
						<path fill="#55008D" d="M329.56,91.52c0,0-22.33-22.33-35.99-35.99c-19.87,19.87-19.87,52.1,0,71.97"/>
					</g>
				</g>
			</g>
		</g>
		<g id="XMLID_711_">
			<g>
				<g>
					<g>
						<path fill="#FFFFFF" d="M343.13,63.97c-0.73,0-1.48-0.14-2.2-0.43c-3.62-1.47-7.44-2.21-11.37-2.21
							c-3.24,0-5.87-2.63-5.87-5.87s2.63-5.87,5.87-5.87c5.44,0,10.75,1.03,15.78,3.07c3,1.22,4.45,4.64,3.23,7.65
							C347.65,62.59,345.45,63.97,343.13,63.97z"/>
					</g>
				</g>
			</g>
		</g>
		<g id="XMLID_710_">
			<g>
				<g>
					<g>
						<path fill="#00D0FF" d="M410.74,59.77c-7.94,19.61-19.33,36.94-33.78,51.39l-14.62,14.62l-14.62,14.62
							c-14.45,14.45-31.78,25.84-51.39,33.78l-15.14,6.13c-4.33,1.75-8.65-2.56-6.89-6.89l17.7-43.73c0.27-0.66,0.66-1.25,1.16-1.76
							l35.66-35.66l35.66-35.66c0.5-0.5,1.1-0.9,1.76-1.16l43.73-17.7c4.33-1.75,8.65,2.56,6.89,6.89L410.74,59.77z"/>
					</g>
				</g>
			</g>
		</g>
		<g id="XMLID_708_">
			<g id="XMLID_709_">
				<g>
					<g>
						<g>
							<path fill="#00B9FF" d="M275.64,179.3c1.4,1.28,3.47,1.84,5.55,1l15.14-6.13c19.61-7.94,36.94-19.33,51.39-33.78l14.62-14.62
								l14.62-14.62c14.45-14.45,25.84-31.78,33.78-51.39l6.13-15.14c0.84-2.08,0.28-4.15-1-5.55L275.64,179.3z"/>
						</g>
					</g>
				</g>
			</g>
		</g>
		<g id="XMLID_707_">
			<g>
				<g>
					<g>
						<circle fill="#FCEE21" cx="346.39" cy="108.22" r="7.94"/>
					</g>
				</g>
			</g>
		</g>
		<g id="XMLID_706_">
			<g>
				<g>
					<g>
						<circle fill="#FCEE21" cx="312.65" cy="141.96" r="7.94"/>
					</g>
				</g>
			</g>
		</g>
		<g id="XMLID_705_">
			<g>
				<g>
					<g>
						<circle fill="#FCEE21" cx="380.13" cy="74.47" r="7.94"/>
					</g>
				</g>
			</g>
		</g>
	</g>
	<g id="XMLID_691_">
		<g id="XMLID_700_">
			<g id="XMLID_703_">
				<g>
					<g>
						<g>
							<path fill="#55008D" d="M207.23,125.9l-59.19-14.76c-1.89-0.47-3.31-0.83-3.31-0.83l-24.03,22.06l21.34,5.32L241,162.37
								l-1.86-0.46l-23.01-29.9C215.14,130.34,209.13,126.37,207.23,125.9z"/>
						</g>
					</g>
				</g>
			</g>
			<g id="XMLID_702_">
				<g>
					<g>
						<g>
							
								<path fill="none" stroke="#FF3000" stroke-width="10" stroke-linecap="round" stroke-linejoin="round" stroke-miterlimit="10" d="
								M115.63,128.46"/>
						</g>
					</g>
				</g>
			</g>
			<g id="XMLID_701_">
				<g>
					<g>
						<g>
							<path fill="#FF3000" d="M248.91,174.57c-0.86,0-1.71-0.37-2.29-1.09l-7.34-9.12l-20.46-25.65
								c-4.9-6.15-11.79-10.58-19.42-12.49l-55.2-13.76c-1.57-0.39-2.53-1.99-2.14-3.56c0.39-1.57,1.99-2.53,3.56-2.14l55.2,13.76
								c8.87,2.21,16.89,7.37,22.59,14.52l20.45,25.64l7.34,9.11c1.02,1.26,0.82,3.11-0.44,4.13
								C250.21,174.35,249.56,174.57,248.91,174.57z"/>
						</g>
					</g>
				</g>
			</g>
		</g>
		<g id="XMLID_699_">
			<g>
				<g>
					<g>
						<path fill="#FF3000" d="M250.66,166.19l-9.82-4.09l-97.13-24.22l-4.07-1.01l-17.65-4.4c-2.53-0.63-5.09,0.91-5.72,3.43
							l-6.28,25.18c-1.89,7.58,2.72,15.26,10.3,17.15l5.82,1.45l0.06-0.15l-0.04,0.15l30.84,7.69l7.88,1.96l60.27,15.03
							c7.24,1.81,16.85,4.2,30.84,7.69l2.21,0.55c3.79,0.94,7.62-1.36,8.56-5.15l1.55-6.21C271.9,186.82,264.4,171.91,250.66,166.19
							z"/>
					</g>
				</g>
			</g>
		</g>
		<g id="XMLID_698_">
			<g>
				<g>
					<g>
						<circle fill="#FF3000" cx="220.16" cy="152.55" r="7.07"/>
					</g>
				</g>
			</g>
		</g>
		<g id="XMLID_696_">
			<g id="XMLID_697_">
				<g>
					<g>
						<g>
							<polygon fill="#FF3000" points="129.06,146.94 121.04,138.36 150.89,110.44 150.89,110.44 160.34,112.29 163.03,115.17 
															"/>
						</g>
					</g>
				</g>
			</g>
		</g>
		<g id="XMLID_695_">
			<g>
				<g>
					<g>
						<circle fill="#55008D" cx="140.37" cy="176.15" r="17.61"/>
					</g>
				</g>
			</g>
		</g>
		<g id="XMLID_694_">
			<g>
				<g>
					<g>
						<circle fill="#FFFFFF" cx="140.37" cy="176.15" r="5.87"/>
					</g>
				</g>
			</g>
		</g>
		<g id="XMLID_693_">
			<g>
				<g>
					<g>
						<circle fill="#55008D" cx="239.19" cy="200.78" r="17.61"/>
					</g>
				</g>
			</g>
		</g>
		<g id="XMLID_692_">
			<g>
				<g>
					<g>
						<circle fill="#FFFFFF" cx="239.19" cy="200.78" r="5.87"/>
					</g>
				</g>
			</g>
		</g>
	</g>
</g>
</svg>
