<?xml version="1.0" encoding="utf-8"?>
<!-- Generator: Adobe Illustrator 18.0.0, SVG Export Plug-In . SVG Version: 6.00 Build 0)  -->
<!DOCTYPE svg PUBLIC "-//W3C//DTD SVG 1.1//EN" "http://www.w3.org/Graphics/SVG/1.1/DTD/svg11.dtd">
<svg version="1.1" id="图层_1" xmlns="http://www.w3.org/2000/svg" xmlns:xlink="http://www.w3.org/1999/xlink" x="0px" y="0px"
	 viewBox="0 0 524.44 227.76" enable-background="new 0 0 524.44 227.76" xml:space="preserve">
<g>
	<g id="XMLID_556_">
		<g id="XMLID_558_">
			<g id="XMLID_588_">
				<g id="XMLID_590_">
					<g>
						<path fill="#9050E8" d="M302.48,208.52c-1.08,0-2.13-0.56-2.71-1.55l-8.29-14.09c-2.23-3.8-3.41-8.13-3.41-12.54v-11.01
							c0-5.54,1.89-10.98,5.32-15.32c5.96-7.55,15.14-10.43,28.9-9.09c0.07,0.01,0.14,0.02,0.22,0.03l77.17,12.95
							c11.54,1.94,20.52,11.23,21.85,22.6c0.12,0.99,0.17,1.98,0.17,2.97v2.77c0,1.74-1.41,3.15-3.15,3.15
							c-1.74,0-3.15-1.41-3.15-3.15v-2.77c0-0.74-0.04-1.49-0.13-2.24c-1.01-8.61-7.85-15.65-16.64-17.12l-77.06-12.93
							c-14.93-1.43-20.42,3.16-23.24,6.74c-2.56,3.24-3.97,7.3-3.97,11.43v11.01c0,3.28,0.88,6.52,2.54,9.35l8.29,14.09
							c0.88,1.5,0.38,3.43-1.12,4.31C303.58,208.38,303.03,208.52,302.48,208.52z"/>
					</g>
				</g>
				<g id="XMLID_589_">
					<g>
						<path fill="#9050E8" d="M302.49,211.66c-2.16,0-4.26-1.11-5.43-3.1l-5.63-9.58c-1.76-3-0.76-6.85,2.23-8.61
							c3-1.76,6.85-0.76,8.61,2.23l5.63,9.58c1.76,3,0.76,6.85-2.23,8.61C304.67,211.38,303.57,211.66,302.49,211.66z"/>
					</g>
				</g>
			</g>
			<g id="XMLID_585_">
				<g id="XMLID_587_">
					<g>
						<path fill="#9050E8" d="M316.14,227.76c-10.41,0-17.72-3.05-22.74-9.41c-3.43-4.35-5.32-9.79-5.32-15.32v-11.01
							c0-4.4,1.18-8.74,3.41-12.53l8.29-14.09c0.88-1.5,2.81-2,4.31-1.12c1.5,0.88,2,2.81,1.12,4.31l-8.29,14.09
							c-1.66,2.83-2.54,6.06-2.54,9.35v11.01c0,4.13,1.41,8.19,3.97,11.43c2.83,3.58,8.31,8.17,23.24,6.74l77.06-12.93
							c8.79-1.48,15.64-8.52,16.64-17.12c0.09-0.75,0.13-1.5,0.13-2.24v-2.77c0-1.74,1.41-3.15,3.15-3.15
							c1.74,0,3.15,1.41,3.15,3.15v2.77c0,0.98-0.06,1.98-0.17,2.97c-1.33,11.37-10.31,20.66-21.85,22.6l-77.17,12.95
							c-0.07,0.01-0.14,0.02-0.22,0.03C320.13,227.65,318.08,227.76,316.14,227.76z"/>
					</g>
				</g>
				<g id="XMLID_586_">
					<g>
						<path fill="#9050E8" d="M296.84,182.85c-1.08,0-2.18-0.28-3.18-0.87c-2.99-1.76-4-5.62-2.23-8.61l5.63-9.58
							c1.76-3,5.62-4,8.61-2.23c2.99,1.76,4,5.62,2.23,8.61l-5.63,9.58C301.1,181.74,299,182.85,296.84,182.85z"/>
					</g>
				</g>
			</g>
			<g id="XMLID_584_">
				<g>
					<path fill="#9050E8" d="M418.78,138.77H94.14c-1.74,0-3.15-1.41-3.15-3.15s1.41-3.15,3.15-3.15h324.64
						c1.74,0,3.15,1.41,3.15,3.15S420.52,138.77,418.78,138.77z"/>
				</g>
			</g>
			<g id="XMLID_583_">
				<g>
					<path fill="#9050E8" d="M418.78,189.32c-1.74,0-3.15-1.41-3.15-3.15s1.41-3.15,3.15-3.15c12.2,0,22.13-9.93,22.13-22.13
						s-9.93-22.13-22.13-22.13c-1.74,0-3.15-1.41-3.15-3.15s1.41-3.15,3.15-3.15c15.67,0,28.42,12.75,28.42,28.42
						S434.45,189.32,418.78,189.32z"/>
				</g>
			</g>
			<g id="XMLID_582_">
				<g>
					<path fill="#9050E8" d="M200.45,166.28H94.14c-9.32,0-16.9-7.58-16.9-16.9s7.58-16.9,16.9-16.9c1.74,0,3.15,1.41,3.15,3.15
						s-1.41,3.15-3.15,3.15c-5.85,0-10.61,4.76-10.61,10.61c0,5.85,4.76,10.61,10.61,10.61h106.31c1.74,0,3.15,1.41,3.15,3.15
						S202.19,166.28,200.45,166.28z"/>
				</g>
			</g>
			<g id="XMLID_581_">
				<g>
					<path fill="#FFF08E" d="M418.78,127.94H94.14c-1.74,0-3.15-1.41-3.15-3.15s1.41-3.15,3.15-3.15h324.64
						c1.74,0,3.15,1.41,3.15,3.15S420.52,127.94,418.78,127.94z"/>
				</g>
			</g>
			<g id="XMLID_580_">
				<g>
					<path fill="#9050E8" d="M276.66,187.39H176.09c-3.94,0-7.13-3.19-7.13-7.13l0,0c0-3.94,3.19-7.13,7.13-7.13h100.57
						c3.94,0,7.13,3.19,7.13,7.13l0,0C283.8,184.2,280.6,187.39,276.66,187.39z"/>
				</g>
			</g>
			<g id="XMLID_577_">
				<g>
					<path fill="#FF5283" d="M284.97,109.1c0-0.08,0.01-0.16,0.01-0.25c0-17.59-14.26-31.84-31.84-31.84
						c-10.84,0-20.41,5.42-26.16,13.69c-5.75-8.27-15.32-13.69-26.16-13.69c-17.59,0-31.84,14.26-31.84,31.84
						c0,9.57-1.82,22.75,36.39,51.86c9.28,7.07,16.82,14.47,21.61,19.55c4.78-5.08,12.32-12.47,21.61-19.55
						C286.46,131.85,285,118.65,284.97,109.1z"/>
				</g>
			</g>
			<g id="XMLID_570_">
				<g>
					<path fill="#EB355F" d="M226.98,90.7c-5.75-8.27-15.32-13.69-26.16-13.69c-17.59,0-31.84,14.26-31.84,31.84
						c0,9.57-1.82,22.75,36.39,51.86c9.28,7.07,16.82,14.47,21.61,19.55 M284.97,109.1"/>
				</g>
			</g>
			<g id="XMLID_569_">
				<g>
					<path fill="#FFF08E" d="M418.78,178.48c-1.74,0-3.15-1.41-3.15-3.15s1.41-3.15,3.15-3.15c12.2,0,22.13-9.93,22.13-22.13
						c0-12.2-9.93-22.13-22.13-22.13c-1.74,0-3.15-1.41-3.15-3.15s1.41-3.15,3.15-3.15c15.67,0,28.42,12.75,28.42,28.42
						S434.45,178.48,418.78,178.48z"/>
				</g>
			</g>
			<g id="XMLID_566_">
				<g>
					<path fill="#FFC749" d="M200.45,155.45H94.14c-9.32,0-16.9-7.58-16.9-16.9c0-9.32,7.58-16.9,16.9-16.9v6.29
						c-5.85,0-10.61,4.76-10.61,10.61c0,5.85,4.76,10.61,10.61,10.61h106.31V155.45z"/>
				</g>
			</g>
			<g id="XMLID_563_">
				<g id="XMLID_565_">
					<g>
						<path fill="#FFF08E" d="M302.48,197.65c-1.08,0-2.13-0.56-2.71-1.55l-8.29-14.09c-2.23-3.8-3.41-8.13-3.41-12.53v-11.01
							c0-5.54,1.89-10.98,5.32-15.32c5.96-7.55,15.14-10.43,28.9-9.09c0.07,0.01,0.14,0.02,0.22,0.03l77.17,12.95
							c11.54,1.94,20.52,11.23,21.85,22.6c0.12,0.99,0.17,1.98,0.17,2.97v2.77c0,1.74-1.41,3.15-3.15,3.15
							c-1.74,0-3.15-1.41-3.15-3.15v-2.77c0-0.74-0.04-1.49-0.13-2.24c-1.01-8.61-7.85-15.65-16.64-17.12l-77.06-12.93
							c-14.93-1.43-20.42,3.16-23.24,6.74c-2.56,3.24-3.97,7.3-3.97,11.43v11.01c0,3.28,0.88,6.52,2.54,9.35l8.29,14.09
							c0.88,1.5,0.38,3.43-1.12,4.31C303.58,197.51,303.03,197.65,302.48,197.65z"/>
					</g>
				</g>
				<g id="XMLID_564_">
					<g>
						<path fill="#6335C3" d="M302.49,200.8c-2.16,0-4.26-1.11-5.43-3.1l-5.63-9.58c-1.76-2.99-0.76-6.85,2.23-8.61
							c3-1.76,6.85-0.76,8.61,2.23l5.63,9.58c1.76,2.99,0.76,6.85-2.23,8.61C304.67,200.52,303.57,200.8,302.49,200.8z"/>
					</g>
				</g>
			</g>
			<g id="XMLID_559_">
				<g id="XMLID_562_">
					<g>
						<path fill="#FFC749" d="M316.14,216.89c-10.41,0-17.72-3.05-22.74-9.41c-3.43-4.35-5.32-9.79-5.32-15.32v-11.01
							c0-4.4,1.18-8.74,3.41-12.53l8.29-14.09l5.42,3.19l-8.29,14.09c-1.66,2.83-2.54,6.06-2.54,9.35v11.01
							c0,4.13,1.41,8.19,3.97,11.43c2.83,3.58,8.31,8.17,23.24,6.74l77.06-12.93c8.79-1.48,15.64-8.52,16.64-17.12
							c0.09-0.75,0.13-1.5,0.13-2.24v-2.77h6.29v2.77c0,0.98-0.06,1.98-0.17,2.97c-1.33,11.37-10.31,20.66-21.85,22.6l-77.17,12.95
							c-0.07,0.01-0.14,0.02-0.22,0.03C320.13,216.79,318.08,216.89,316.14,216.89z"/>
					</g>
				</g>
				<g id="XMLID_561_">
					<g>
						<path fill="#6335C3" d="M296.84,171.98c-1.08,0-2.18-0.28-3.18-0.87c-2.99-1.76-4-5.62-2.23-8.61l5.63-9.58
							c1.76-3,5.62-4,8.61-2.23c2.99,1.76,4,5.62,2.23,8.61l-5.63,9.58C301.1,170.87,299,171.98,296.84,171.98z"/>
					</g>
				</g>
			</g>
		</g>
	</g>
	<g id="XMLID_555_">
		<path fill="#FFAAFF" d="M273.76,111.86c-1.73,0-3.13-1.39-3.15-3.12c-0.01-1.71-0.27-3.39-0.76-5c-0.51-1.66,0.42-3.42,2.08-3.93
			c1.66-0.51,3.42,0.42,3.93,2.08c0.68,2.2,1.03,4.49,1.04,6.81c0.01,1.74-1.39,3.15-3.12,3.17
			C273.77,111.86,273.77,111.86,273.76,111.86z"/>
	</g>
	<g id="XMLID_553_">
		<path fill="#FFAAFF" d="M267.51,97.22c-0.79,0-1.58-0.3-2.19-0.89c-3.29-3.19-7.61-4.95-12.18-4.95c-1.74,0-3.15-1.41-3.15-3.15
			s1.41-3.15,3.15-3.15c6.22,0,12.1,2.39,16.56,6.74c1.25,1.21,1.27,3.2,0.06,4.45C269.14,96.9,268.32,97.22,267.51,97.22z"/>
	</g>
	<g id="XMLID_547_">
		<path fill="#FFFFFF" d="M272.85,105.95c-1.35,0-2.59-0.87-3.01-2.22c-0.65-2.12-1.69-4.08-3.1-5.82
			c-0.45-0.55-0.93-1.09-1.44-1.58c-1.25-1.21-1.27-3.2-0.06-4.45c1.21-1.25,3.2-1.27,4.45-0.06c0.69,0.67,1.35,1.39,1.95,2.14
			c1.91,2.37,3.32,5.03,4.21,7.92c0.51,1.66-0.42,3.42-2.08,3.93C273.47,105.91,273.16,105.95,272.85,105.95z"/>
	</g>
	<g id="XMLID_526_">
		<g id="XMLID_539_">
			<path fill="#FFC749" d="M187.68,152.3c0-7.06,5.72-12.78,12.78-12.78v-9.58c-12.35,0-22.36,10.01-22.36,22.36
				c0,12.35,10.01,22.36,22.36,22.36v-9.58C193.4,165.08,187.68,159.36,187.68,152.3z"/>
		</g>
		<g id="XMLID_534_">
			<path fill="#FFF08E" d="M200.45,129.94v9.58c7.06,0,12.78,5.72,12.78,12.78c0,7.06-5.72,12.78-12.78,12.78v9.58
				c12.35,0,22.36-10.01,22.36-22.36C222.81,139.95,212.8,129.94,200.45,129.94z"/>
		</g>
		<g id="XMLID_533_">
			<path fill="#FFF08E" d="M213.23,152.3c0-7.06-5.72-12.78-12.78-12.78v25.55C207.51,165.08,213.23,159.36,213.23,152.3z"/>
			<path fill="#6335C3" d="M200.45,168.22h-3.15v-31.85h3.15c8.78,0,15.92,7.14,15.92,15.92
				C216.38,161.08,209.23,168.22,200.45,168.22z M203.6,143.2v18.21c3.77-1.31,6.49-4.89,6.49-9.1
				C210.09,148.09,207.37,144.5,203.6,143.2z"/>
		</g>
		<g id="XMLID_530_">
			<path fill="#FFC749" d="M187.68,152.3c0,7.06,5.72,12.78,12.78,12.78v-25.55C193.4,139.52,187.68,145.24,187.68,152.3z"/>
			<path fill="#6335C3" d="M203.6,168.22h-3.15c-8.78,0-15.92-7.14-15.92-15.92c0-8.78,7.14-15.92,15.92-15.92h3.15V168.22z
				 M197.31,143.2c-3.77,1.31-6.49,4.89-6.49,9.1c0,4.21,2.72,7.8,6.49,9.1V143.2z"/>
		</g>
		<g id="XMLID_528_">
			<path fill="#FFF08E" d="M211.67,152.3c0-6.2-5.02-11.22-11.22-11.22v22.44C206.65,163.52,211.67,158.5,211.67,152.3z"/>
		</g>
		<g id="XMLID_527_">
			<path fill="#FFC749" d="M189.23,152.3c0,6.2,5.02,11.22,11.22,11.22v-22.44C194.26,141.08,189.23,146.1,189.23,152.3z"/>
		</g>
	</g>
</g>
</svg>
