<?xml version="1.0" encoding="utf-8"?>
<!-- Generator: Adobe Illustrator 18.0.0, SVG Export Plug-In . SVG Version: 6.00 Build 0)  -->
<!DOCTYPE svg PUBLIC "-//W3C//DTD SVG 1.1//EN" "http://www.w3.org/Graphics/SVG/1.1/DTD/svg11.dtd">
<svg version="1.1" id="图层_1" xmlns="http://www.w3.org/2000/svg" xmlns:xlink="http://www.w3.org/1999/xlink" x="0px" y="0px"
	 viewBox="0 0 524.44 227.76" enable-background="new 0 0 524.44 227.76" xml:space="preserve">
<g>
	<g id="XMLID_621_">
		<g id="XMLID_690_">
			<circle fill="#CF5170" cx="191.11" cy="91.78" r="37.34"/>
		</g>
		<g id="XMLID_689_">
			<path fill="#CF5170" d="M399.3,103.29v43.48c0,25.91-21.01,46.92-46.92,46.92h0c-25.91,0-46.92-21.01-46.92-46.92v-44.18
				c0-26.12,21.34-47.26,47.54-46.92C378.79,56.01,399.3,77.51,399.3,103.29z"/>
		</g>
		<g id="XMLID_688_">
			<path fill="#CF5170" d="M399.3,131.71v43.48c0,25.91-21.01,46.92-46.92,46.92h0c-25.91,0-46.92-21.01-46.92-46.92v-44.18
				c0-26.12,21.34-47.26,47.54-46.92C378.79,84.43,399.3,105.92,399.3,131.71z"/>
		</g>
		<g id="XMLID_687_">
			<path fill="#CF5170" d="M390.35,160.23H367c-3.94,0-7.13-3.19-7.13-7.13c0-3.94,3.19-7.13,7.13-7.13h23.34
				c7.86,0,14.25-6.39,14.25-14.25V94.35c0-3.94,3.19-7.13,7.13-7.13c3.94,0,7.13,3.19,7.13,7.13v37.38
				C418.85,147.44,406.06,160.23,390.35,160.23z"/>
		</g>
		<g id="XMLID_686_">
			<path fill="#CF5170" d="M222.77,107.23h-63.33c-6.51,0-11.79-5.28-11.79-11.79l0,0c0-6.51,5.28-11.79,11.79-11.79h63.33
				c6.51,0,11.79,5.28,11.79,11.79l0,0C234.56,101.95,229.28,107.23,222.77,107.23z"/>
		</g>
		<g id="XMLID_685_">
			<path fill="#CF5170" d="M411.72,108.45c-6.89,0-12.47-5.58-12.47-12.47V89.5c0-6.89,5.58-12.47,12.47-12.47
				c6.89,0,12.47,5.58,12.47,12.47v6.49C424.19,102.87,418.61,108.45,411.72,108.45z"/>
		</g>
		<g id="XMLID_684_">
			<path fill="#CF5170" d="M381.77,129.12h-58.76c-6.04,0-10.94-4.9-10.94-10.94l0,0c0-6.04,4.9-10.94,10.94-10.94h58.76
				c6.04,0,10.94,4.9,10.94,10.94l0,0C392.71,124.22,387.82,129.12,381.77,129.12z"/>
		</g>
		<g id="XMLID_683_">
			<circle fill="#CF5170" cx="352.38" cy="106.81" r="36.07"/>
		</g>
		<g id="XMLID_682_">
			<rect x="154.24" y="131.7" fill="#CF5170" width="73.73" height="96.06"/>
		</g>
		<g id="XMLID_681_">
			<path fill="#CF5170" d="M306.58,227.76H249.6v-9.8c0-10.17,8.25-18.42,18.42-18.42h20.15c10.17,0,18.42,8.25,18.42,18.42V227.76z
				"/>
		</g>
		<g id="XMLID_680_">
			<path fill="#CF5170" d="M160,153.17h-16.64c-17.68,0-32.07-14.38-32.07-32.07V83.72c0-5.9,4.79-10.69,10.69-10.69
				c5.9,0,10.69,4.79,10.69,10.69v37.38c0,5.89,4.79,10.69,10.69,10.69H160c5.9,0,10.69,4.79,10.69,10.69S165.9,153.17,160,153.17z"
				/>
		</g>
		<g id="XMLID_679_">
			<path fill="#CF5170" d="M121.98,96.19c-6.89,0-12.47-5.58-12.47-12.47v-6.49c0-6.89,5.58-12.47,12.47-12.47
				s12.47,5.58,12.47,12.47v6.49C134.45,90.61,128.87,96.19,121.98,96.19z"/>
		</g>
		<g id="XMLID_678_">
			<path fill="#CF5170" d="M251.01,204.72h-2.02c-11.69,0-21.2-9.51-21.2-21.2v-30.36c-5.82-0.1-10.51-4.84-10.51-10.69
				c0-5.9,4.79-10.69,10.69-10.69c11.69,0,21.2,9.51,21.2,21.2v30.36h1.84c5.9,0,10.69,4.79,10.69,10.69
				S256.92,204.72,251.01,204.72z"/>
		</g>
		<g id="XMLID_677_">
			<path fill="#CF5170" d="M306.09,182.15h-54.88c-5.64,0-10.22-4.57-10.22-10.22l0,0c0-5.64,4.57-10.22,10.22-10.22h54.88
				c5.64,0,10.22,4.57,10.22,10.22l0,0C316.31,177.57,311.74,182.15,306.09,182.15z"/>
		</g>
		<g id="XMLID_662_">
			<circle fill="#CF5170" cx="278.09" cy="164.39" r="33.41"/>
		</g>
		<g id="XMLID_661_">
			<path fill="#CF5170" d="M191.11,146.42c-5.9,0-10.69-4.79-10.69-10.69v-11.52c0-5.9,4.79-10.69,10.69-10.69
				s10.69,4.79,10.69,10.69v11.52C201.79,141.63,197.01,146.42,191.11,146.42z"/>
		</g>
		<g id="XMLID_660_">
			<path fill="#CF5170" d="M278.09,211.75c-5.9,0-10.69-4.79-10.69-10.69v-11.52c0-5.9,4.79-10.69,10.69-10.69
				c5.9,0,10.69,4.79,10.69,10.69v11.52C288.77,206.97,283.99,211.75,278.09,211.75z"/>
		</g>
		<g id="XMLID_658_">
			<g id="XMLID_659_">
				<path fill="#CF5170" d="M316.68,159.21c0-21.31-17.28-38.59-38.59-38.59c-21.31,0-38.59,17.28-38.59,38.59
					c0,3.18,0.39,6.26,1.12,9.22h74.96C316.29,165.47,316.68,162.39,316.68,159.21z"/>
			</g>
		</g>
		<g id="XMLID_657_">
			<path fill="#CF5170" d="M309.88,112.24h8.55c12.51,0,22.66-10.14,22.66-22.66v0v0c8.07,14.02,23.01,22.66,39.19,22.66h14.61
				v-3.19c0-23.47-19.03-42.51-42.51-42.51h0c-23.47,0-42.51,19.03-42.51,42.51V112.24z"/>
		</g>
		<g id="XMLID_655_">
			<path fill="#CF5170" d="M147.65,92.25l14.72-14.72l0,0c8.94,8.94,21.06,13.96,33.71,13.96h38.49v-5.83
				c0-24-19.46-43.46-43.46-43.46h0c-24,0-43.46,19.46-43.46,43.46V92.25z"/>
		</g>
		<g id="XMLID_653_">
			<path fill="#CF5170" d="M314.09,200.6h-7.52c-3.94,0-7.13-3.19-7.13-7.13s3.19-7.13,7.13-7.13h7.52c1.87,0,3.38-1.52,3.38-3.38
				v-19.36c0-9.72,7.91-17.64,17.64-17.64c3.94,0,7.13,3.19,7.13,7.13c0,3.94-3.19,7.13-7.13,7.13c-1.87,0-3.38,1.52-3.38,3.38
				v19.36C331.73,192.69,323.82,200.6,314.09,200.6z"/>
		</g>
		<g id="XMLID_651_">
			<path fill="#CF5170" d="M305.46,214.93c-6.89,0-12.47-5.58-12.47-12.47v-2.92c0-6.89,5.58-12.47,12.47-12.47
				c6.89,0,12.47,5.58,12.47,12.47v2.92C317.93,209.35,312.35,214.93,305.46,214.93z"/>
		</g>
		<g id="XMLID_649_">
			<path fill="#CF5170" d="M251.01,214.93c-6.89,0-12.47-5.58-12.47-12.47v-2.92c0-6.89,5.58-12.47,12.47-12.47
				c6.89,0,12.47,5.58,12.47,12.47v2.92C263.48,209.35,257.9,214.93,251.01,214.93z"/>
		</g>
		<g id="XMLID_646_">
			<g id="XMLID_647_">
				<path fill="#CF5170" d="M375.71,160.04c1.05-7.42-4.71-14.06-12.21-14.06h-5.48H346.6h-5.48c-7.5,0-13.26,6.64-12.21,14.06
					v67.72l0,0h17.69h11.42h17.69l0,0V160.04z"/>
			</g>
		</g>
		<g id="XMLID_623_">
			<path fill="#CF5170" d="M339.95,160.23h-4.84c-3.94,0-7.13-3.19-7.13-7.13c0-3.94,3.19-7.13,7.13-7.13h4.84
				c3.94,0,7.13,3.19,7.13,7.13C347.08,157.04,343.89,160.23,339.95,160.23z"/>
		</g>
		<g id="XMLID_622_">
			<path fill="#CF5170" d="M352.39,156.5c-5.9,0-10.69-4.79-10.69-10.69v-11.52c0-5.9,4.79-10.69,10.69-10.69
				c5.9,0,10.69,4.79,10.69,10.69v11.52C363.08,151.71,358.3,156.5,352.39,156.5z"/>
		</g>
	</g>
	<g id="XMLID_620_">
		<circle fill="#EBB468" cx="181.84" cy="91.78" r="37.34"/>
	</g>
	<g id="XMLID_619_">
		<path fill="#563418" d="M390.04,103.29v43.48c0,25.91-21.01,46.92-46.92,46.92h0c-25.91,0-46.92-21.01-46.92-46.92v-44.18
			c0-26.12,21.34-47.26,47.54-46.92C369.53,56.01,390.04,77.51,390.04,103.29z"/>
	</g>
	<g id="XMLID_618_">
		<path fill="#563418" d="M390.04,131.71v43.48c0,25.91-21.01,46.92-46.92,46.92h0c-25.91,0-46.92-21.01-46.92-46.92v-44.18
			c0-26.12,21.34-47.26,47.54-46.92C369.53,84.43,390.04,105.92,390.04,131.71z"/>
	</g>
	<g id="XMLID_617_">
		<path fill="#FF7AFF" d="M381.08,160.23h-23.34c-3.94,0-7.13-3.19-7.13-7.13c0-3.94,3.19-7.13,7.13-7.13h23.34
			c7.86,0,14.25-6.39,14.25-14.25V94.35c0-3.94,3.19-7.13,7.13-7.13c3.94,0,7.13,3.19,7.13,7.13v37.38
			C409.59,147.44,396.8,160.23,381.08,160.23z"/>
	</g>
	<g id="XMLID_616_">
		<path fill="#EBB468" d="M213.51,107.23h-63.33c-6.51,0-11.79-5.28-11.79-11.79l0,0c0-6.51,5.28-11.79,11.79-11.79h63.33
			c6.51,0,11.79,5.28,11.79,11.79l0,0C225.3,101.95,220.02,107.23,213.51,107.23z"/>
	</g>
	<g id="XMLID_615_">
		<path fill="#FED8A8" d="M402.46,108.45c-6.89,0-12.47-5.58-12.47-12.47V89.5c0-6.89,5.58-12.47,12.47-12.47
			s12.47,5.58,12.47,12.47v6.49C414.93,102.87,409.35,108.45,402.46,108.45z"/>
	</g>
	<g id="XMLID_614_">
		<path fill="#FED8A8" d="M372.51,129.12h-58.76c-6.04,0-10.94-4.9-10.94-10.94l0,0c0-6.04,4.9-10.94,10.94-10.94h58.76
			c6.04,0,10.94,4.9,10.94,10.94l0,0C383.45,124.22,378.55,129.12,372.51,129.12z"/>
	</g>
	<g id="XMLID_613_">
		<circle fill="#FED8A8" cx="343.12" cy="106.81" r="36.07"/>
	</g>
	<g id="XMLID_612_">
		<rect x="144.98" y="131.7" fill="#5D2E94" width="73.73" height="96.06"/>
	</g>
	<g id="XMLID_611_">
		<path fill="#FFFF6E" d="M293.88,227.76h-51.4v-9.49c0-9.18,7.44-16.61,16.61-16.61h18.18c9.18,0,16.61,7.44,16.61,16.61V227.76z"
			/>
	</g>
	<g id="XMLID_610_">
		<path fill="#5D2E94" d="M150.74,153.17H134.1c-17.68,0-32.07-14.38-32.07-32.07V83.72c0-5.9,4.79-10.69,10.69-10.69
			s10.69,4.79,10.69,10.69v37.38c0,5.89,4.79,10.69,10.69,10.69h16.64c5.9,0,10.69,4.79,10.69,10.69S156.64,153.17,150.74,153.17z"
			/>
	</g>
	<g id="XMLID_609_">
		<path fill="#EBB468" d="M112.72,96.19c-6.89,0-12.47-5.58-12.47-12.47v-6.49c0-6.89,5.58-12.47,12.47-12.47
			s12.47,5.58,12.47,12.47v6.49C125.19,90.61,119.61,96.19,112.72,96.19z"/>
	</g>
	<g id="XMLID_608_">
		<path fill="#5D2E94" d="M241.75,204.72h-2.02c-11.69,0-21.2-9.51-21.2-21.2v-30.36c-5.82-0.1-10.51-4.84-10.51-10.69
			c0-5.9,4.78-10.69,10.69-10.69c11.69,0,21.2,9.51,21.2,21.2v30.36h1.84c5.9,0,10.69,4.79,10.69,10.69S247.65,204.72,241.75,204.72
			z"/>
	</g>
	<g id="XMLID_607_">
		<path fill="#FED8A8" d="M296.83,182.15h-54.88c-5.64,0-10.22-4.57-10.22-10.22l0,0c0-5.64,4.57-10.22,10.22-10.22h54.88
			c5.64,0,10.22,4.57,10.22,10.22l0,0C307.05,177.57,302.47,182.15,296.83,182.15z"/>
	</g>
	<g id="XMLID_606_">
		<circle fill="#FED8A8" cx="268.82" cy="164.39" r="33.41"/>
	</g>
	<g id="XMLID_605_">
		<path fill="#EBB468" d="M181.84,146.42c-5.9,0-10.69-4.79-10.69-10.69v-11.52c0-5.9,4.79-10.69,10.69-10.69
			c5.9,0,10.69,4.79,10.69,10.69v11.52C192.53,141.63,187.75,146.42,181.84,146.42z"/>
	</g>
	<g id="XMLID_604_">
		<path fill="#FED8A8" d="M268.82,211.75c-5.9,0-10.69-4.79-10.69-10.69v-11.52c0-5.9,4.79-10.69,10.69-10.69
			c5.9,0,10.69,4.79,10.69,10.69v11.52C279.51,206.97,274.73,211.75,268.82,211.75z"/>
	</g>
	<g id="XMLID_602_">
		<g id="XMLID_603_">
			<path fill="#563418" d="M307.42,159.21c0-21.31-17.28-38.59-38.59-38.59s-38.59,17.28-38.59,38.59c0,3.18,0.39,6.26,1.12,9.22
				h74.96C307.02,165.47,307.42,162.39,307.42,159.21z"/>
		</g>
	</g>
	<g id="XMLID_601_">
		<path fill="#563418" d="M300.61,112.24h8.55c12.51,0,22.66-10.14,22.66-22.66v0l0,0c8.07,14.02,23.01,22.66,39.19,22.66h14.61
			v-3.19c0-23.47-19.03-42.51-42.51-42.51h0c-23.47,0-42.51,19.03-42.51,42.51V112.24z"/>
	</g>
	<g id="XMLID_598_">
		<path fill="#563418" d="M138.39,92.25l14.72-14.72l0,0c8.94,8.94,21.06,13.96,33.71,13.96h38.49v-5.83
			c0-24-19.46-43.46-43.46-43.46h0c-24,0-43.46,19.46-43.46,43.46V92.25z"/>
	</g>
	<g id="XMLID_597_">
		<path fill="#FF7AE7" d="M304.83,200.6h-7.52c-3.94,0-7.13-3.19-7.13-7.13s3.19-7.13,7.13-7.13h7.52c1.87,0,3.38-1.52,3.38-3.38
			v-19.36c0-9.72,7.91-17.64,17.64-17.64c3.94,0,7.13,3.19,7.13,7.13c0,3.94-3.19,7.13-7.13,7.13c-1.87,0-3.38,1.52-3.38,3.38v19.36
			C322.46,192.69,314.55,200.6,304.83,200.6z"/>
	</g>
	<g id="XMLID_596_">
		<path fill="#FED8A8" d="M292.87,215.54c-6.21,0-11.25-5.04-11.25-11.25v-2.64c0-6.21,5.04-11.25,11.25-11.25
			c6.21,0,11.25,5.04,11.25,11.25v2.64C304.12,210.5,299.09,215.54,292.87,215.54z"/>
	</g>
	<g id="XMLID_595_">
		<path fill="#EBB468" d="M243.75,215.54c-6.21,0-11.25-5.04-11.25-11.25v-2.64c0-6.21,5.04-11.25,11.25-11.25
			c6.21,0,11.25,5.04,11.25,11.25v2.64C255,210.5,249.97,215.54,243.75,215.54z"/>
	</g>
	<g id="XMLID_593_">
		<g id="XMLID_594_">
			<path fill="#FF7AE7" d="M366.45,160.04c1.05-7.42-4.71-14.06-12.21-14.06h-5.48h-11.42h-5.48c-7.5,0-13.26,6.64-12.21,14.06
				v67.72l0,0h17.69h11.42h17.69l0,0V160.04z"/>
		</g>
	</g>
	<g id="XMLID_592_">
		<path fill="#FF7AE7" d="M330.69,160.23h-4.84c-3.94,0-7.13-3.19-7.13-7.13c0-3.94,3.19-7.13,7.13-7.13h4.84
			c3.94,0,7.13,3.19,7.13,7.13C337.81,157.04,334.62,160.23,330.69,160.23z"/>
	</g>
	<g id="XMLID_591_">
		<path fill="#FED8A8" d="M343.13,156.5c-5.9,0-10.69-4.79-10.69-10.69v-11.52c0-5.9,4.79-10.69,10.69-10.69
			c5.9,0,10.69,4.79,10.69,10.69v11.52C353.82,151.71,349.03,156.5,343.13,156.5z"/>
	</g>
</g>
</svg>
