<?xml version="1.0" encoding="utf-8"?>
<!-- Generator: Adobe Illustrator 18.0.0, SVG Export Plug-In . SVG Version: 6.00 Build 0)  -->
<!DOCTYPE svg PUBLIC "-//W3C//DTD SVG 1.1//EN" "http://www.w3.org/Graphics/SVG/1.1/DTD/svg11.dtd">
<svg version="1.1" id="图层_1" xmlns="http://www.w3.org/2000/svg" xmlns:xlink="http://www.w3.org/1999/xlink" x="0px" y="0px"
	 viewBox="0 0 524.44 227.76" enable-background="new 0 0 524.44 227.76" xml:space="preserve">
<g>
	<ellipse id="XMLID_2323_" fill="#85B735" cx="261.33" cy="195" rx="128.8" ry="31.14"/>
	<g id="XMLID_2296_">
		<g id="XMLID_2322_">
			<path fill="#CFE8B0" d="M314.18,0l2.17,23.35c0.11,1.2-0.77,2.26-1.97,2.37c-1.2,0.11-2.26-0.77-2.37-1.97
				c-0.01-0.13-0.01-0.28,0-0.4L314.18,0z"/>
		</g>
		<g id="XMLID_2321_">
			<path fill="#CFE8B0" d="M210.18,0l2.17,23.35c0.11,1.2-0.77,2.26-1.97,2.37c-1.2,0.11-2.26-0.77-2.37-1.97
				c-0.01-0.13-0.01-0.28,0-0.4L210.18,0z"/>
		</g>
		<g id="XMLID_2320_">
			<path fill="#CFE8B0" d="M106.18,0l2.17,23.35c0.11,1.2-0.77,2.26-1.97,2.37c-1.2,0.11-2.26-0.77-2.37-1.97
				c-0.01-0.13-0.01-0.28,0-0.4L106.18,0z"/>
		</g>
		<g id="XMLID_2319_">
			<path fill="#CFE8B0" d="M2.18,0l2.17,23.35c0.11,1.2-0.77,2.26-1.97,2.37c-1.2,0.11-2.26-0.77-2.37-1.97
				c-0.01-0.13-0.01-0.28,0-0.4L2.18,0z"/>
		</g>
		<g id="XMLID_2318_">
			<path fill="#CFE8B0" d="M369.34,55.13l2.17,23.35c0.11,1.2-0.77,2.26-1.97,2.37c-1.2,0.11-2.26-0.77-2.37-1.97
				c-0.01-0.13-0.01-0.28,0-0.4L369.34,55.13z"/>
		</g>
		<g id="XMLID_2317_">
			<path fill="#CFE8B0" d="M265.34,55.13l2.17,23.35c0.11,1.2-0.77,2.26-1.97,2.37c-1.2,0.11-2.26-0.77-2.37-1.97
				c-0.01-0.13-0.01-0.28,0-0.4L265.34,55.13z"/>
		</g>
		<g id="XMLID_2316_">
			<path fill="#CFE8B0" d="M161.34,55.13l2.17,23.35c0.11,1.2-0.77,2.26-1.97,2.37c-1.2,0.11-2.26-0.77-2.37-1.97
				c-0.01-0.13-0.01-0.28,0-0.4L161.34,55.13z"/>
		</g>
		<g id="XMLID_2315_">
			<path fill="#CFE8B0" d="M57.34,55.13l2.17,23.35c0.11,1.2-0.77,2.26-1.97,2.37c-1.2,0.11-2.26-0.77-2.37-1.97
				c-0.01-0.13-0.01-0.28,0-0.4L57.34,55.13z"/>
		</g>
		<g id="XMLID_2314_">
			<path fill="#CFE8B0" d="M314.18,110.26l2.17,23.35c0.11,1.2-0.77,2.26-1.97,2.37c-1.2,0.11-2.26-0.77-2.37-1.97
				c-0.01-0.13-0.01-0.28,0-0.4L314.18,110.26z"/>
		</g>
		<g id="XMLID_2313_">
			<path fill="#CFE8B0" d="M210.18,110.26l2.17,23.35c0.11,1.2-0.77,2.26-1.97,2.37c-1.2,0.11-2.26-0.77-2.37-1.97
				c-0.01-0.13-0.01-0.28,0-0.4L210.18,110.26z"/>
		</g>
		<g id="XMLID_2312_">
			<path fill="#CFE8B0" d="M106.18,110.26l2.17,23.35c0.11,1.2-0.77,2.26-1.97,2.37c-1.2,0.11-2.26-0.77-2.37-1.97
				c-0.01-0.13-0.01-0.28,0-0.4L106.18,110.26z"/>
		</g>
		<g id="XMLID_2311_">
			<path fill="#CFE8B0" d="M2.18,110.26l2.17,23.35c0.11,1.2-0.77,2.26-1.97,2.37c-1.2,0.11-2.26-0.77-2.37-1.97
				c-0.01-0.13-0.01-0.28,0-0.4L2.18,110.26z"/>
		</g>
		<g id="XMLID_2310_">
			<path fill="#CFE8B0" d="M369.34,165.39l2.17,23.35c0.11,1.2-0.77,2.26-1.97,2.37c-1.2,0.11-2.26-0.77-2.37-1.97
				c-0.01-0.13-0.01-0.28,0-0.4L369.34,165.39z"/>
		</g>
		<g id="XMLID_2309_">
			<path fill="#CFE8B0" d="M265.34,165.39l2.17,23.35c0.11,1.2-0.77,2.26-1.97,2.37c-1.2,0.11-2.26-0.77-2.37-1.97
				c-0.01-0.13-0.01-0.28,0-0.4L265.34,165.39z"/>
		</g>
		<g id="XMLID_2308_">
			<path fill="#CFE8B0" d="M161.34,165.39l2.17,23.35c0.11,1.2-0.77,2.26-1.97,2.37c-1.2,0.11-2.26-0.77-2.37-1.97
				c-0.01-0.13-0.01-0.28,0-0.4L161.34,165.39z"/>
		</g>
		<g id="XMLID_2307_">
			<path fill="#CFE8B0" d="M57.34,165.39l2.17,23.35c0.11,1.2-0.77,2.26-1.97,2.37c-1.2,0.11-2.26-0.77-2.37-1.97
				c-0.01-0.13-0.01-0.28,0-0.4L57.34,165.39z"/>
		</g>
		<g id="XMLID_2306_">
			<path fill="#CFE8B0" d="M522.26,0l2.17,23.35c0.11,1.2-0.77,2.26-1.97,2.37c-1.2,0.11-2.26-0.77-2.37-1.97
				c-0.01-0.13-0.01-0.28,0-0.4L522.26,0z"/>
		</g>
		<g id="XMLID_2305_">
			<path fill="#CFE8B0" d="M418.26,0l2.17,23.35c0.11,1.2-0.77,2.26-1.97,2.37c-1.2,0.11-2.26-0.77-2.37-1.97
				c-0.01-0.13-0.01-0.28,0-0.4L418.26,0z"/>
		</g>
		<g id="XMLID_2304_">
			<path fill="#CFE8B0" d="M314.26,0l2.17,23.35c0.11,1.2-0.77,2.26-1.97,2.37c-1.2,0.11-2.26-0.77-2.37-1.97
				c-0.01-0.13-0.01-0.28,0-0.4L314.26,0z"/>
		</g>
		<g id="XMLID_2303_">
			<path fill="#CFE8B0" d="M473.42,55.13l2.17,23.35c0.11,1.2-0.77,2.26-1.97,2.37c-1.2,0.11-2.26-0.77-2.37-1.97
				c-0.01-0.13-0.01-0.28,0-0.4L473.42,55.13z"/>
		</g>
		<g id="XMLID_2302_">
			<path fill="#CFE8B0" d="M369.41,55.13l2.17,23.35c0.11,1.2-0.77,2.26-1.97,2.37c-1.2,0.11-2.26-0.77-2.37-1.97
				c-0.01-0.13-0.01-0.28,0-0.4L369.41,55.13z"/>
		</g>
		<g id="XMLID_2301_">
			<path fill="#CFE8B0" d="M522.26,110.26l2.17,23.35c0.11,1.2-0.77,2.26-1.97,2.37c-1.2,0.11-2.26-0.77-2.37-1.97
				c-0.01-0.13-0.01-0.28,0-0.4L522.26,110.26z"/>
		</g>
		<g id="XMLID_2300_">
			<path fill="#CFE8B0" d="M418.26,110.26l2.17,23.35c0.11,1.2-0.77,2.26-1.97,2.37c-1.2,0.11-2.26-0.77-2.37-1.97
				c-0.01-0.13-0.01-0.28,0-0.4L418.26,110.26z"/>
		</g>
		<g id="XMLID_2299_">
			<path fill="#CFE8B0" d="M314.26,110.26l2.17,23.35c0.11,1.2-0.77,2.26-1.97,2.37c-1.2,0.11-2.26-0.77-2.37-1.97
				c-0.01-0.13-0.01-0.28,0-0.4L314.26,110.26z"/>
		</g>
		<g id="XMLID_2298_">
			<path fill="#CFE8B0" d="M473.42,165.39l2.17,23.35c0.11,1.2-0.77,2.26-1.97,2.37c-1.2,0.11-2.26-0.77-2.37-1.97
				c-0.01-0.13-0.01-0.28,0-0.4L473.42,165.39z"/>
		</g>
		<g id="XMLID_2297_">
			<path fill="#CFE8B0" d="M369.41,165.39l2.17,23.35c0.11,1.2-0.77,2.26-1.97,2.37c-1.2,0.11-2.26-0.77-2.37-1.97
				c-0.01-0.13-0.01-0.28,0-0.4L369.41,165.39z"/>
		</g>
	</g>
	<g id="XMLID_201_">
		<g id="XMLID_2295_">
			<ellipse fill="#85B735" cx="338.91" cy="221.7" rx="19.47" ry="6.06"/>
		</g>
		<g id="XMLID_2268_">
			<g id="XMLID_2294_">
				<path fill="none" d="M273.15,15.84c-0.45-0.35-0.89-0.66-1.33-0.92C272.26,15.18,272.7,15.49,273.15,15.84z"/>
			</g>
			<g id="XMLID_2293_">
				<path fill="none" d="M237.34,71.56c-0.06,0.2-0.11,0.41-0.17,0.62l0,0C237.23,71.97,237.29,71.76,237.34,71.56z"/>
			</g>
			<g id="XMLID_2292_">
				<path fill="none" d="M288.78,41.76c-0.73-1.79-1.45-3.5-2.18-5.13C287.33,38.27,288.05,39.98,288.78,41.76z"/>
			</g>
			<g id="XMLID_2291_">
				<path fill="none" d="M298.7,71.56c-1.14-4.09-2.29-7.99-3.47-11.7C296.41,63.57,297.57,67.47,298.7,71.56z"/>
			</g>
			<g id="XMLID_2290_">
				<path fill="none" d="M293.82,55.5c-0.95-2.84-1.91-5.56-2.87-8.15C291.91,49.94,292.87,52.65,293.82,55.5z"/>
			</g>
			<g id="XMLID_2289_">
				<path fill="none" d="M274.5,17.01c-0.45-0.43-0.9-0.83-1.35-1.18C273.6,16.19,274.05,16.58,274.5,17.01z"/>
			</g>
			<g id="XMLID_2288_">
				<path fill="none" d="M285.14,33.48c-0.48-1.02-0.97-2-1.45-2.94C284.18,31.48,284.66,32.46,285.14,33.48z"/>
			</g>
			<g id="XMLID_2287_">
				<path fill="none" d="M280.09,24.17c-0.48-0.75-0.95-1.47-1.42-2.15C279.14,22.7,279.62,23.41,280.09,24.17z"/>
			</g>
			<g id="XMLID_2286_">
				<path fill="none" d="M261.55,17.01c-0.45,0.43-0.91,0.91-1.37,1.43C260.64,17.92,261.09,17.45,261.55,17.01z"/>
			</g>
			<g id="XMLID_2285_">
				<path fill="none" d="M247.27,41.76c0.73-1.79,1.45-3.5,2.18-5.13C248.72,38.27,247.99,39.98,247.27,41.76z"/>
			</g>
			<g id="XMLID_2284_">
				<path fill="none" d="M245.82,45.44c-0.24,0.63-0.48,1.27-0.72,1.91c0.48-1.29,0.96-2.55,1.45-3.78
					C246.3,44.19,246.06,44.81,245.82,45.44z"/>
			</g>
			<g id="XMLID_2283_">
				<path fill="none" d="M242.23,55.5c0.95-2.84,1.91-5.56,2.87-8.15C244.13,49.94,243.17,52.65,242.23,55.5z"/>
			</g>
			<g id="XMLID_2282_">
				<path fill="none" d="M237.34,71.56c1.14-4.09,2.29-7.99,3.47-11.7C239.64,63.57,238.48,67.47,237.34,71.56z"/>
			</g>
			<g id="XMLID_2281_">
				<path fill="none" d="M274.5,17.01c0.45,0.43,0.91,0.91,1.37,1.43C275.41,17.92,274.95,17.45,274.5,17.01z"/>
			</g>
			<g id="XMLID_2280_">
				<path fill="none" d="M262.9,15.84c0.45-0.35,0.89-0.66,1.33-0.92C263.78,15.18,263.34,15.49,262.9,15.84z"/>
			</g>
			<g id="XMLID_2279_">
				<path fill="none" d="M250.9,33.48c0.48-1.02,0.97-2,1.45-2.94C251.87,31.48,251.39,32.46,250.9,33.48z"/>
			</g>
			<g id="XMLID_2278_">
				<path fill="none" d="M255.95,24.17c0.48-0.75,0.95-1.47,1.42-2.15C256.9,22.7,256.43,23.41,255.95,24.17z"/>
			</g>
			<g id="XMLID_2277_">
				<path fill="none" d="M261.55,17.01c0.45-0.43,0.9-0.83,1.35-1.18C262.45,16.19,262,16.58,261.55,17.01z"/>
			</g>
			<g id="XMLID_2276_">
				<path fill="none" d="M289.5,43.58c0.48,1.23,0.97,2.48,1.45,3.78c-0.24-0.65-0.48-1.28-0.72-1.91
					C289.99,44.81,289.75,44.19,289.5,43.58z"/>
			</g>
			<g id="XMLID_2275_">
				<path fill="none" d="M298.7,71.56c0.06,0.2,0.11,0.41,0.17,0.62l0,0C298.82,71.97,298.76,71.76,298.7,71.56z"/>
			</g>
			<g id="XMLID_2274_">
				<path fill="#57A651" d="M302.68,87.03c0.43,1.8,0.85,3.63,1.27,5.48C303.53,90.66,303.11,88.83,302.68,87.03z"/>
			</g>
			<g id="XMLID_2273_">
				<path fill="#57A651" d="M237.17,72.17L237.17,72.17c-0.4,1.44-0.79,2.89-1.18,4.37C236.38,75.07,236.78,73.61,237.17,72.17z"/>
			</g>
			<g id="XMLID_2272_">
				<path fill="#57A651" d="M298.87,72.17L298.87,72.17c0.4,1.44,0.79,2.89,1.18,4.37C299.66,75.07,299.27,73.61,298.87,72.17z"/>
			</g>
			<g id="XMLID_2271_">
				<path fill="#57A651" d="M300.72,79.1c0.44,1.72,0.88,3.47,1.31,5.24C301.6,82.57,301.16,80.82,300.72,79.1z"/>
			</g>
			<g id="XMLID_2270_">
				<path fill="#57A651" d="M235.32,79.1c-0.44,1.72-0.88,3.47-1.31,5.24C234.44,82.57,234.88,80.82,235.32,79.1z"/>
			</g>
			<g id="XMLID_2269_">
				<path fill="#57A651" d="M233.37,87.03c-0.43,1.8-0.85,3.63-1.27,5.48C232.51,90.66,232.94,88.83,233.37,87.03z"/>
			</g>
		</g>
		<g id="XMLID_2207_">
			<g id="XMLID_2267_">
				<path fill="none" d="M251.01,42.42c-0.76-0.59-1.52-1.16-2.26-1.71C249.5,41.26,250.25,41.83,251.01,42.42z"/>
			</g>
			<g id="XMLID_2266_">
				<path fill="none" d="M216.66,62.25c-0.13-0.96-0.25-1.89-0.35-2.82C216.42,60.36,216.53,61.29,216.66,62.25z"/>
			</g>
			<g id="XMLID_2265_">
				<path fill="#FFB4D1" d="M185.96,78.37c7.67-22.86,19.77-40.39,34.64-48.97c-26.43,15.26-48.11,37.31-63.82,63.17
					c-14.68,24.16-24.14,51.63-27.4,79.96c4.39-9.25,21.88-25.13,47.69-43.81C177.87,110.35,180.97,93.23,185.96,78.37z"/>
			</g>
			<g id="XMLID_2264_">
				<polygon fill="#82F251" points="128.78,178.5 128.78,178.5 128.78,178.5 				"/>
			</g>
			<g id="XMLID_2263_">
				<path fill="#FFFFFF" d="M153.79,145.98c9.66-6.68,20.16-13.69,31.35-20.9c10.09-6.51,20.74-13.19,31.86-19.97
					c-0.3-1.42-0.59-2.82-0.87-4.21c-0.32-1.59-0.62-3.16-0.9-4.71c-0.28-1.55-0.55-3.08-0.8-4.59c-0.25-1.51-0.48-3-0.7-4.48
					c-0.22-1.47-0.42-2.92-0.6-4.35c-0.18-1.43-0.35-2.84-0.51-4.22c-0.15-1.39-0.29-2.75-0.41-4.09s-0.22-2.66-0.31-3.95
					c-0.09-1.29-0.16-2.56-0.22-3.8c-0.05-1.06-0.08-2.09-0.11-3.11c-0.02-0.78-0.03-1.55-0.04-2.31c-0.01-1.17,0-2.31,0.02-3.42
					c0.02-1.11,0.06-2.2,0.11-3.26c0.05-1.06,0.12-2.09,0.2-3.1c0.04-0.5,0.09-1,0.14-1.48c0.29-2.93,0.73-5.59,1.29-7.98
					c0.09-0.4,0.19-0.79,0.29-1.17c0.51-1.91,1.11-3.62,1.8-5.12c0.28-0.6,0.57-1.16,0.87-1.7c0.3-0.53,0.62-1.03,0.96-1.49
					c0.5-0.69,1.03-1.3,1.6-1.83c0.56-0.53,1.16-0.98,1.79-1.34c-19.77,11.42-37.12,32.53-49.54,59.07
					C162.98,105.73,157.01,125.29,153.79,145.98z"/>
			</g>
			<g id="XMLID_2262_">
				<path fill="#FFB4D1" d="M328.37,41.36c29.07-13.01,51.57-20.22,61.78-19.4C363.98,10.62,335.46,5.08,307.2,5.71
					c-30.24,0.68-60.18,8.43-86.61,23.68c14.87-8.59,36.1-10.29,59.73-5.51C295.69,27,312.06,32.87,328.37,41.36z"/>
			</g>
			<g id="XMLID_2261_">
				<polygon fill="#82F251" points="395.63,24.44 395.63,24.44 395.63,24.44 				"/>
			</g>
			<g id="XMLID_2260_">
				<path fill="#FFFFFF" d="M225.03,28.05c0.57-0.06,1.16-0.09,1.77-0.09c0.61,0,1.25,0.03,1.9,0.09c1.64,0.15,3.42,0.49,5.33,1
					c0.38,0.1,0.77,0.21,1.16,0.33c2.35,0.7,4.87,1.66,7.55,2.87c0.45,0.2,0.9,0.41,1.35,0.62c0.91,0.43,1.84,0.89,2.78,1.37
					c0.94,0.48,1.9,1,2.88,1.54c0.98,0.54,1.97,1.1,2.97,1.7c0.65,0.38,1.32,0.78,1.98,1.19c0.87,0.53,1.75,1.08,2.64,1.65
					c1.05,0.67,2.11,1.37,3.19,2.09c1.08,0.72,2.16,1.47,3.26,2.25c1.1,0.77,2.21,1.57,3.34,2.4c1.12,0.82,2.26,1.67,3.4,2.55
					c1.15,0.87,2.3,1.77,3.47,2.7c1.17,0.92,2.34,1.87,3.52,2.85c1.18,0.97,2.38,1.97,3.58,2.99c1.2,1.02,2.41,2.07,3.63,3.13
					c1.06,0.93,2.14,1.89,3.21,2.86c24.11-13.16,46.81-24.75,67-34.31c-19.52-7.56-39.45-12.17-58.44-13.81
					c-29.2-2.52-56.16,1.95-75.93,13.37c0.63-0.36,1.31-0.65,2.05-0.88C223.39,28.29,224.18,28.14,225.03,28.05z"/>
			</g>
			<g id="XMLID_2259_">
				<path fill="#82F251" d="M218.15,31.96c0.34-0.58,0.72-1.09,1.12-1.51C218.87,30.88,218.5,31.38,218.15,31.96z"/>
			</g>
			<g id="XMLID_2258_">
				<path fill="#82F251" d="M216.96,34.67c-0.42,1.29-0.76,2.78-1,4.46C216.2,37.45,216.54,35.97,216.96,34.67z"/>
			</g>
			<g id="XMLID_2257_">
				<path fill="#82F251" d="M223.17,93.45c0.34,1.28,0.7,2.57,1.06,3.87c0,0,0,0,0,0C223.87,96.02,223.52,94.72,223.17,93.45z"/>
			</g>
			<g id="XMLID_2256_">
				<path fill="#82F251" d="M215.6,51.33c-0.05-0.95-0.08-1.88-0.1-2.77C215.52,49.46,215.55,50.38,215.6,51.33z"/>
			</g>
			<g id="XMLID_2255_">
				<path fill="#82F251" d="M215.79,54.26c-0.08-1-0.14-1.98-0.19-2.93C215.65,52.28,215.72,53.26,215.79,54.26z"/>
			</g>
			<g id="XMLID_2254_">
				<path fill="#82F251" d="M217.52,33.22c0.2-0.45,0.41-0.87,0.64-1.26C217.93,32.35,217.71,32.77,217.52,33.22z"/>
			</g>
			<g id="XMLID_2253_">
				<path fill="#82F251" d="M216.96,34.67c0.17-0.52,0.35-1,0.55-1.45C217.32,33.67,217.13,34.16,216.96,34.67z"/>
			</g>
			<g id="XMLID_2252_">
				<path fill="#82F251" d="M215.48,47.23c-0.02-2.61,0.1-4.98,0.35-7.08C215.58,42.26,215.46,44.62,215.48,47.23z"/>
			</g>
			<g id="XMLID_2251_">
				<path fill="#82F251" d="M222.05,89.13c-0.36-1.42-0.71-2.83-1.04-4.21C221.34,86.3,221.69,87.71,222.05,89.13z"/>
			</g>
			<g id="XMLID_2250_">
				<path fill="#82F251" d="M221.01,84.92c-0.33-1.38-0.65-2.75-0.95-4.09C220.36,82.17,220.68,83.53,221.01,84.92z"/>
			</g>
			<g id="XMLID_2249_">
				<path fill="#82F251" d="M219.2,76.85c-0.27-1.3-0.53-2.59-0.77-3.85C218.68,74.26,218.93,75.55,219.2,76.85z"/>
			</g>
			<g id="XMLID_2248_">
				<path fill="#82F251" d="M223.17,93.45c-0.39-1.46-0.77-2.9-1.13-4.32C222.41,90.55,222.78,91.99,223.17,93.45z"/>
			</g>
			<g id="XMLID_2247_">
				<path fill="#82F251" d="M217.16,65.7c-0.18-1.17-0.35-2.32-0.5-3.45C216.81,63.38,216.98,64.53,217.16,65.7z"/>
			</g>
			<g id="XMLID_2246_">
				<path fill="#82F251" d="M216.31,59.44c-0.08-0.71-0.16-1.4-0.23-2.09C216.15,58.03,216.22,58.73,216.31,59.44z"/>
			</g>
			<g id="XMLID_2245_">
				<path fill="#82F251" d="M218.43,73c-0.24-1.26-0.47-2.5-0.68-3.72C217.97,70.5,218.19,71.74,218.43,73z"/>
			</g>
			<g id="XMLID_2244_">
				<path fill="#82F251" d="M217.75,69.28c-0.21-1.22-0.41-2.41-0.59-3.59C217.35,66.87,217.54,68.07,217.75,69.28z"/>
			</g>
			<g id="XMLID_2243_">
				<path fill="#82F251" d="M220.06,80.82c-0.3-1.34-0.59-2.67-0.86-3.97C219.47,78.15,219.76,79.48,220.06,80.82z"/>
			</g>
			<g id="XMLID_2242_">
				<path fill="#82F251" d="M248.75,40.7c-0.57-0.42-1.13-0.84-1.69-1.24C247.62,39.86,248.18,40.28,248.75,40.7z"/>
			</g>
			<g id="XMLID_2241_">
				<path fill="#82F251" d="M259.44,49.33c-0.97-0.84-1.93-1.66-2.88-2.45C257.51,47.67,258.47,48.49,259.44,49.33z"/>
			</g>
			<g id="XMLID_2240_">
				<path fill="#82F251" d="M256.56,46.88c-0.95-0.79-1.89-1.56-2.81-2.3C254.67,45.32,255.61,46.09,256.56,46.88z"/>
			</g>
			<g id="XMLID_2239_">
				<path fill="#82F251" d="M253.75,44.58c-0.92-0.74-1.84-1.46-2.73-2.16C251.91,43.11,252.82,43.83,253.75,44.58z"/>
			</g>
			<g id="XMLID_2238_">
				<path fill="#82F251" d="M262.39,51.92c-0.99-0.89-1.98-1.75-2.95-2.59C260.41,50.17,261.39,51.03,262.39,51.92z"/>
			</g>
			<g id="XMLID_2237_">
				<path fill="#82F251" d="M274.78,63.66c-1.07-1.07-2.13-2.11-3.18-3.14C272.65,61.54,273.71,62.59,274.78,63.66z"/>
			</g>
			<g id="XMLID_2236_">
				<path fill="#82F251" d="M268.47,57.52c-1.03-0.98-2.06-1.93-3.07-2.87C266.41,55.58,267.44,56.54,268.47,57.52z"/>
			</g>
			<g id="XMLID_2235_">
				<path fill="#82F251" d="M265.4,54.65c-1.01-0.93-2.02-1.84-3.01-2.73C263.38,52.81,264.38,53.72,265.4,54.65z"/>
			</g>
			<g id="XMLID_2234_">
				<path fill="#82F251" d="M271.6,60.52c-1.05-1.02-2.09-2.02-3.13-3C269.5,58.5,270.55,59.5,271.6,60.52z"/>
			</g>
			<g id="XMLID_2233_">
				<path fill="#82F251" d="M226.98,28.89c1.33,0.28,2.79,0.73,4.36,1.36C229.77,29.62,228.31,29.17,226.98,28.89z"/>
			</g>
			<g id="XMLID_2232_">
				<path fill="#82F251" d="M224.04,28.57c-0.67,0.01-1.3,0.08-1.87,0.21C222.74,28.64,223.36,28.57,224.04,28.57z"/>
			</g>
			<g id="XMLID_2231_">
				<path fill="#82F251" d="M225.45,28.64c-0.49-0.05-0.96-0.08-1.41-0.08C224.48,28.56,224.96,28.59,225.45,28.64z"/>
			</g>
			<g id="XMLID_2230_">
				<path fill="#82F251" d="M274.78,63.66c0.93,0.93,1.87,1.89,2.82,2.85l0,0C276.65,65.54,275.71,64.59,274.78,63.66z"/>
			</g>
			<g id="XMLID_2229_">
				<path fill="#82F251" d="M244.53,37.67c-0.83-0.57-1.64-1.11-2.44-1.63C242.89,36.56,243.7,37.1,244.53,37.67z"/>
			</g>
			<g id="XMLID_2228_">
				<path fill="#82F251" d="M226.98,28.89c-0.53-0.11-1.04-0.19-1.53-0.25C225.94,28.7,226.45,28.78,226.98,28.89z"/>
			</g>
			<g id="XMLID_2227_">
				<path fill="#82F251" d="M242.09,36.04c-0.8-0.52-1.58-1.01-2.35-1.48C240.51,35.03,241.29,35.52,242.09,36.04z"/>
			</g>
			<g id="XMLID_2226_">
				<path fill="#82F251" d="M238.6,33.89c-2.25-1.32-4.36-2.4-6.3-3.24C234.24,31.48,236.35,32.57,238.6,33.89z"/>
			</g>
			<g id="XMLID_2225_">
				<path fill="#57A651" d="M390.15,21.97c1.84,0.8,3.66,1.62,5.48,2.47C394.78,22.99,392.91,22.19,390.15,21.97z"/>
			</g>
			<g id="XMLID_2224_">
				<path fill="#57A651" d="M128.78,178.5c0.17-1.99,0.37-3.99,0.6-5.97C128.2,175.02,127.96,177.04,128.78,178.5z"/>
			</g>
			<g id="XMLID_2223_">
				<path fill="#57A651" d="M230.16,116.58c0.54,1.62,1.1,3.25,1.67,4.9C231.26,119.84,230.7,118.2,230.16,116.58z"/>
			</g>
			<g id="XMLID_2222_">
				<path fill="#57A651" d="M231.83,121.49c0.57,1.65,1.16,3.31,1.76,4.98C232.99,124.8,232.4,123.13,231.83,121.49z"/>
			</g>
			<g id="XMLID_2221_">
				<path fill="#57A651" d="M228.58,111.77c0.51,1.59,1.04,3.2,1.58,4.82C229.62,114.96,229.09,113.36,228.58,111.77z"/>
			</g>
			<g id="XMLID_2220_">
				<path fill="#57A651" d="M235.44,131.53c-0.63-1.7-1.25-3.39-1.85-5.06C234.19,128.14,234.81,129.83,235.44,131.53z"/>
			</g>
			<g id="XMLID_2219_">
				<path fill="#57A651" d="M224.24,97.32C224.24,97.32,224.24,97.32,224.24,97.32c0.05,0.19,0.1,0.37,0.15,0.56
					C224.34,97.69,224.29,97.51,224.24,97.32z"/>
			</g>
			<g id="XMLID_2218_">
				<path fill="#57A651" d="M224.39,97.88c0.42,1.49,0.86,3,1.31,4.53C225.25,100.88,224.81,99.37,224.39,97.88z"/>
			</g>
			<g id="XMLID_2217_">
				<path fill="#57A651" d="M225.7,102.41c0.45,1.53,0.92,3.07,1.4,4.63C226.61,105.48,226.15,103.94,225.7,102.41z"/>
			</g>
			<g id="XMLID_2216_">
				<path fill="#57A651" d="M227.1,107.04c0.48,1.56,0.98,3.14,1.49,4.73C228.07,110.18,227.58,108.6,227.1,107.04z"/>
			</g>
			<g id="XMLID_2215_">
				<path fill="#57A651" d="M277.6,66.51L277.6,66.51c0.14,0.14,0.27,0.27,0.41,0.41C277.87,66.79,277.73,66.65,277.6,66.51z"/>
			</g>
			<g id="XMLID_2214_">
				<path fill="#57A651" d="M281.28,70.32c1.1,1.15,2.2,2.33,3.31,3.53C283.48,72.65,282.37,71.48,281.28,70.32z"/>
			</g>
			<g id="XMLID_2213_">
				<path fill="#57A651" d="M278,66.93c1.08,1.11,2.17,2.24,3.27,3.4C280.18,69.17,279.09,68.04,278,66.93z"/>
			</g>
			<g id="XMLID_2212_">
				<path fill="#57A651" d="M284.59,73.85c1.11,1.2,2.23,2.41,3.35,3.65C286.81,76.26,285.7,75.05,284.59,73.85z"/>
			</g>
			<g id="XMLID_2211_">
				<path fill="#57A651" d="M294.73,85.17c1.14,1.32,2.29,2.66,3.44,4.02C297.01,87.83,295.87,86.49,294.73,85.17z"/>
			</g>
			<g id="XMLID_2210_">
				<path fill="#57A651" d="M301.62,93.32c-1.16-1.4-2.31-2.77-3.46-4.13C299.31,90.55,300.47,91.92,301.62,93.32z"/>
			</g>
			<g id="XMLID_2209_">
				<path fill="#57A651" d="M291.32,81.28c1.13,1.28,2.27,2.58,3.41,3.9C293.59,83.85,292.45,82.56,291.32,81.28z"/>
			</g>
			<g id="XMLID_2208_">
				<path fill="#57A651" d="M287.94,77.5c1.12,1.24,2.25,2.5,3.38,3.77C290.19,80,289.06,78.74,287.94,77.5z"/>
			</g>
		</g>
		<g id="XMLID_2201_">
			<g id="XMLID_2206_">
				<path fill="#FF7199" d="M128.8,178.53c3.19,5.53,21.06,1.88,47.36-8.48c-1.04-14.14-0.95-27.82,0.13-40.77
					C143.95,152.77,124.89,171.75,128.8,178.53z"/>
			</g>
			<g id="XMLID_2205_">
				<path fill="#FFA2A6" d="M228.33,112.11c-0.26-0.89-0.53-1.77-0.78-2.65c-0.51-1.75-1.01-3.49-1.48-5.2
					c-0.24-0.86-0.47-1.7-0.7-2.55c-0.4-1.48-0.79-2.93-1.16-4.38c-17.89,11.07-34.11,21.91-47.91,31.94
					c-1.09,12.95-1.17,26.63-0.13,40.77c17.49-6.89,38.71-16.75,61.82-28.86c-2.97-8.2-5.64-16.12-8-23.69
					C229.41,115.68,228.86,113.88,228.33,112.11z"/>
			</g>
			<g id="XMLID_2204_">
				<path fill="#FF7199" d="M395.64,24.46c-3.91-6.77-29.88,0.24-66.4,16.5c11.76,5.53,23.65,12.3,35.37,20.27
					C386.74,43.64,398.83,29.99,395.64,24.46z"/>
			</g>
			<g id="XMLID_2203_">
				<path fill="#FFA2A6" d="M280.84,69.69c0.62,0.62,1.24,1.25,1.86,1.88c1.24,1.27,2.5,2.56,3.76,3.88c0.63,0.66,1.26,1.33,1.9,2
					c1.27,1.35,2.55,2.72,3.84,4.12c5.38,5.83,10.9,12.1,16.52,18.77c22.04-13.96,41.19-27.4,55.9-39.11
					C352.89,53.27,341,46.5,329.25,40.97c-15.58,6.94-33.08,15.56-51.61,25.52C278.69,67.54,279.76,68.6,280.84,69.69z"/>
			</g>
			<g id="XMLID_2202_">
				<path fill="#FF7199" d="M292.2,81.57c-1.29-1.4-2.57-2.77-3.84-4.12c-0.64-0.67-1.27-1.34-1.9-2c-1.26-1.32-2.52-2.61-3.76-3.88
					c-0.62-0.63-1.24-1.26-1.86-1.88c-1.08-1.09-2.15-2.15-3.21-3.19c-8.78,4.72-17.8,9.74-26.95,15.02c0,0,0,0,0,0
					c-9.15,5.28-18,10.58-26.49,15.83c0.37,1.44,0.76,2.9,1.16,4.38c0.23,0.84,0.46,1.69,0.7,2.55c0.48,1.71,0.97,3.44,1.48,5.2
					c0.26,0.88,0.52,1.76,0.78,2.65c0.53,1.77,1.08,3.57,1.64,5.38c2.36,7.57,5.03,15.49,8,23.69
					c11.53-6.04,23.54-12.64,35.78-19.71l0,0c12.25-7.07,23.96-14.17,34.96-21.13C303.1,93.66,297.58,87.39,292.2,81.57z"/>
			</g>
		</g>
		<g id="XMLID_2200_">
			<path fill="none" stroke="#FFFFFF" stroke-width="7" stroke-linecap="round" stroke-linejoin="round" stroke-miterlimit="10" d="
				M345.3,221.53"/>
		</g>
		<g id="XMLID_2199_">
			<path fill="#E6EBF1" d="M314.26,192.26c-0.75,0-1.48-0.39-1.88-1.09L230.49,49.34c-0.6-1.04-0.24-2.37,0.8-2.97
				c1.04-0.6,2.37-0.24,2.97,0.8L316.14,189c0.6,1.04,0.24,2.37-0.8,2.97C315,192.17,314.63,192.26,314.26,192.26z"/>
		</g>
		<g id="XMLID_2198_">
			<path fill="#FFA2A6" d="M346.39,223.41l-2.17-3.76c4.29-2.48,5.77-7.98,3.3-12.27l-3.38-5.87l3.77-2.17l3.38,5.87
				C354.94,211.57,352.75,219.74,346.39,223.41z"/>
		</g>
		<g id="XMLID_2197_">
			<path fill="#FFB4D1" d="M339.74,225.2c-1.16,0-2.32-0.15-3.47-0.46c-3.44-0.92-6.32-3.13-8.1-6.22l-15.79-27.35l3.76-2.17
				l15.79,27.35c1.2,2.08,3.14,3.57,5.46,4.19c2.32,0.62,4.74,0.3,6.82-0.9l2.17,3.76C344.33,224.59,342.05,225.2,339.74,225.2z"/>
		</g>
		<g id="XMLID_2196_">
			<path fill="#FFFFFF" d="M232.37,50.43c-0.75,0-1.48-0.39-1.88-1.09L207.71,9.89c-0.6-1.04-0.24-2.37,0.8-2.97
				c1.04-0.6,2.37-0.24,2.97,0.8l22.78,39.45c0.6,1.04,0.24,2.37-0.8,2.97C233.11,50.33,232.74,50.43,232.37,50.43z"/>
		</g>
		<g id="XMLID_2195_">
			<path fill="#FFB4D1" d="M216.64,32.85c-0.4,0.49-0.79,1.01-1.16,1.57c-0.37,0.56-0.74,1.15-1.09,1.77
				c-0.87,1.56-1.66,3.33-2.36,5.29c-0.14,0.39-0.28,0.79-0.41,1.2c-0.8,2.44-1.48,5.16-2.03,8.13c-0.09,0.49-0.18,1-0.26,1.51
				c-0.17,1.02-0.32,2.06-0.46,3.13c-0.14,1.07-0.26,2.17-0.37,3.29c-0.11,1.12-0.2,2.27-0.28,3.45c-0.05,0.76-0.09,1.54-0.13,2.33
				c-0.05,1.03-0.09,2.07-0.12,3.13c-0.03,1.25-0.05,2.52-0.05,3.81c0,1.29,0.01,2.61,0.04,3.95c0.03,1.34,0.07,2.7,0.13,4.09
				s0.14,2.79,0.23,4.21c0.09,1.42,0.2,2.87,0.33,4.34c0.13,1.46,0.27,2.95,0.43,4.45c0.16,1.5,0.33,3.03,0.52,4.57
				c0.19,1.54,0.4,3.1,0.62,4.67c0.2,1.38,0.41,2.77,0.63,4.17c12.91-7.81,26.35-15.76,40.2-23.75c13.85-8,27.45-15.66,40.67-22.94
				c-1.1-0.89-2.2-1.78-3.3-2.64c-1.25-0.98-2.5-1.94-3.74-2.88c-1.24-0.94-2.47-1.85-3.69-2.74c-1.22-0.89-2.44-1.75-3.64-2.59
				c-1.21-0.84-2.4-1.66-3.59-2.45c-1.19-0.79-2.37-1.56-3.53-2.31c-1.17-0.74-2.32-1.46-3.47-2.16c-1.15-0.7-2.28-1.37-3.4-2.01
				c-1.12-0.65-2.23-1.27-3.33-1.86c-0.93-0.51-1.85-0.99-2.77-1.46c-0.7-0.36-1.39-0.71-2.08-1.05c-1.06-0.52-2.1-1.01-3.13-1.48
				c-1.03-0.47-2.04-0.91-3.04-1.32c-1-0.42-1.98-0.81-2.94-1.17c-0.48-0.18-0.96-0.36-1.43-0.53c-2.84-1.01-5.54-1.78-8.05-2.31
				c-0.42-0.09-0.83-0.17-1.24-0.24c-2.05-0.37-3.97-0.57-5.76-0.6c-0.72-0.01-1.41,0.01-2.08,0.05c-0.67,0.05-1.32,0.12-1.94,0.22
				c-0.94,0.15-1.82,0.37-2.65,0.65c-0.83,0.28-1.6,0.63-2.32,1.04c-0.71,0.41-1.4,0.91-2.06,1.48
				C217.88,31.46,217.25,32.11,216.64,32.85z"/>
		</g>
		<g id="XMLID_360_">
			<g id="XMLID_2190_">
				<g id="XMLID_2194_">
					<path fill="#B88A32" d="M227.32,194.93c-1.59,0-3.18-0.61-4.39-1.82c-2.42-2.42-2.42-6.36,0-8.78l23.79-23.79
						c2.42-2.42,6.35-2.42,8.78,0c2.42,2.42,2.42,6.36,0,8.78l-23.79,23.79C230.5,194.32,228.91,194.93,227.32,194.93z"/>
				</g>
				<g id="XMLID_2193_">
					<circle fill="#B88A32" cx="227.32" cy="185.05" r="8.22"/>
				</g>
				<g id="XMLID_2192_">
					<circle fill="#B88A32" cx="299.8" cy="185.05" r="8.22"/>
				</g>
				<g id="XMLID_2191_">
					<path fill="#B88A32" d="M300.06,194.93c-1.59,0-3.18-0.61-4.39-1.82l-23.79-23.79c-2.42-2.42-2.42-6.36,0-8.78
						c2.42-2.42,6.35-2.42,8.78,0l23.79,23.79c2.42,2.42,2.42,6.36,0,8.78C303.24,194.32,301.65,194.93,300.06,194.93z"/>
				</g>
			</g>
			<g id="XMLID_2185_">
				<g id="XMLID_2189_">
					<circle fill="#C59436" cx="234.12" cy="111.07" r="13.84"/>
				</g>
				<g id="XMLID_2188_">
					<circle fill="#DFC36D" cx="234.12" cy="111.07" r="6.67"/>
				</g>
				<g id="XMLID_2187_">
					<circle fill="#C59436" cx="293" cy="111.07" r="13.84"/>
				</g>
				<g id="XMLID_2186_">
					<circle fill="#DFC36D" cx="293" cy="111.07" r="6.67"/>
				</g>
			</g>
			<g id="XMLID_2182_">
				<g id="XMLID_2184_">
					<path fill="#B88A32" d="M233.17,221.73c-2.38,0-4.77-0.91-6.58-2.73c-3.64-3.64-3.64-9.53,0-13.17l19.88-19.88
						c3.64-3.64,9.53-3.64,13.17,0c3.64,3.64,3.64,9.53,0,13.17L239.75,219C237.94,220.82,235.55,221.73,233.17,221.73z"/>
				</g>
				<g id="XMLID_2183_">
					<path fill="#B88A32" d="M293.95,221.73c-2.38,0-4.77-0.91-6.58-2.73l-19.88-19.88c-3.64-3.64-3.64-9.53,0-13.17
						c3.64-3.64,9.53-3.64,13.17,0l19.88,19.88c3.64,3.64,3.64,9.53,0,13.17C298.71,220.82,296.33,221.73,293.95,221.73z"/>
				</g>
			</g>
			<g id="XMLID_2175_">
				<g id="XMLID_2179_">
					<g id="XMLID_2181_">
						<path fill="#C59436" d="M230.51,223.68L230.51,223.68c-4.72,0-8.76-3.4-9.55-8.06l-2.54-14.89
							c-1.28-7.49,4.49-14.33,12.09-14.33l0,0c7.6,0,13.37,6.84,12.09,14.33l-2.54,14.89C239.27,220.28,235.24,223.68,230.51,223.68
							z"/>
					</g>
					<g id="XMLID_2180_">
						<path fill="#DFC36D" d="M230.51,218.59c-1.94,0-3.58-1.27-3.91-3.02l-2.54-13.63c-0.33-1.77,0.18-3.5,1.45-4.87
							c1.26-1.37,3.04-2.13,5-2.13c1.96,0,3.73,0.76,5,2.13c1.26,1.37,1.78,3.1,1.45,4.87l-2.54,13.63
							C234.09,217.32,232.45,218.59,230.51,218.59z"/>
					</g>
				</g>
				<g id="XMLID_2176_">
					<g id="XMLID_2178_">
						<path fill="#C59436" d="M296.6,223.68L296.6,223.68c-4.72,0-8.76-3.4-9.55-8.06l-2.54-14.89
							c-1.28-7.49,4.49-14.33,12.09-14.33h0c7.6,0,13.37,6.84,12.09,14.33l-2.54,14.89C305.36,220.28,301.32,223.68,296.6,223.68z"
							/>
					</g>
					<g id="XMLID_2177_">
						<path fill="#DFC36D" d="M296.6,218.59c-1.94,0-3.58-1.27-3.91-3.02l-2.54-13.63c-0.33-1.77,0.18-3.5,1.45-4.87
							c1.26-1.37,3.04-2.13,5-2.13c1.96,0,3.73,0.76,5,2.13c1.26,1.37,1.78,3.1,1.45,4.87l-2.54,13.63
							C300.18,217.32,298.54,218.59,296.6,218.59z"/>
					</g>
				</g>
			</g>
			<g id="XMLID_2118_">
				<g id="XMLID_2171_">
					<path fill="#B88A32" d="M263.65,203.3h-0.19c-11.24,0-20.35-9.11-20.35-20.35v-10.06c0-11.29,9.16-20.45,20.45-20.45h0
						c11.29,0,20.45,9.16,20.45,20.45v10.06C284.01,194.18,274.9,203.3,263.65,203.3z"/>
				</g>
				<g id="XMLID_2170_">
					<path fill="#FF9FD1" d="M263.65,167.94h-0.19c-10.29,0-18.63-8.34-18.63-18.63v-17.76c0-10.34,8.38-18.72,18.72-18.72l0,0
						c10.34,0,18.72,8.38,18.72,18.72v17.76C282.28,159.6,273.94,167.94,263.65,167.94z"/>
				</g>
				<g id="XMLID_2169_">
					<path fill="#B88A32" d="M299.67,134.7c0,17.05-16.17,28.9-36.11,28.9c-19.94,0-36.11-11.85-36.11-28.9
						c0-17.05,16.17-32.85,36.11-32.85C283.5,101.85,299.67,117.65,299.67,134.7z"/>
				</g>
				<g id="XMLID_2168_">
					<ellipse fill="#DFC36D" cx="263.56" cy="148.45" rx="12.82" ry="12.86"/>
				</g>
				<g id="XMLID_2167_">
					<path fill="#403413" d="M263.56,157.23c-4.94,0-8.96-4.03-8.96-8.98c0-0.34,0.28-0.62,0.62-0.62s0.62,0.28,0.62,0.62
						c0,4.27,3.46,7.74,7.72,7.74c4.26,0,7.72-3.47,7.72-7.74c0-0.34,0.28-0.62,0.62-0.62c0.34,0,0.62,0.28,0.62,0.62
						C272.52,153.2,268.5,157.23,263.56,157.23z"/>
				</g>
				<g id="XMLID_2166_">
					<circle fill="#403413" cx="263.56" cy="142.27" r="4.77"/>
				</g>
				<g id="XMLID_2163_">
					<circle fill="#FFFFFF" cx="263.56" cy="140.53" r="1.74"/>
				</g>
				<g id="XMLID_2161_">
					<g id="XMLID_2162_">
						<path fill="#A36E36" d="M262.7,108.52c-1.02,0-1.8,0.84-1.79,1.86c0,0.01,0,0.01,0,0.02c0,3.19-1.35,6.06-3.5,8.09
							c1.33,0.58,2.82,0.84,4.4,0.68c3.37-0.34,6.26-2.67,7.4-5.86c0.37-1.03,0.52-2.04,0.51-3.01c-0.01-0.98-0.82-1.78-1.8-1.78
							H262.7z"/>
					</g>
				</g>
				<g id="XMLID_2160_">
					<ellipse fill="#DFC36D" cx="263.56" cy="184.05" rx="14.23" ry="14.27"/>
				</g>
			</g>
			<g id="XMLID_383_">
				<g id="XMLID_385_">
					<path fill="#403413" d="M246.62,141.8L246.62,141.8c-1.96,0-3.55-1.59-3.55-3.55v-0.82c0-1.96,1.59-3.55,3.55-3.55l0,0
						c1.96,0,3.55,1.59,3.55,3.55v0.82C250.16,140.21,248.58,141.8,246.62,141.8z"/>
				</g>
				<g id="XMLID_384_">
					<path fill="#403413" d="M280.5,141.8L280.5,141.8c-1.96,0-3.55-1.59-3.55-3.55v-0.82c0-1.96,1.59-3.55,3.55-3.55l0,0
						c1.96,0,3.55,1.59,3.55,3.55v0.82C284.05,140.21,282.46,141.8,280.5,141.8z"/>
				</g>
			</g>
		</g>
	</g>
</g>
</svg>
