<?xml version="1.0" encoding="utf-8"?>
<!-- Generator: Adobe Illustrator 18.0.0, SVG Export Plug-In . SVG Version: 6.00 Build 0)  -->
<!DOCTYPE svg PUBLIC "-//W3C//DTD SVG 1.1//EN" "http://www.w3.org/Graphics/SVG/1.1/DTD/svg11.dtd">
<svg version="1.1" id="图层_1" xmlns="http://www.w3.org/2000/svg" xmlns:xlink="http://www.w3.org/1999/xlink" x="0px" y="0px"
	 viewBox="0 0 524.44 227.76" enable-background="new 0 0 524.44 227.76" xml:space="preserve">
<g>
	<g id="XMLID_524_">
		<g id="XMLID_525_">
			<path fill="#A5E4FF" d="M259.89,173.82c-83.38,0-162.23,19.41-232.28,53.94h464.56C422.12,193.23,343.27,173.82,259.89,173.82z"
				/>
		</g>
	</g>
	<g id="XMLID_523_">
		<path fill="#6DBFE4" d="M296.84,219.19h-73.91c-3.74,0-6.76-3.03-6.76-6.76l0,0c0-3.74,3.03-6.76,6.76-6.76h73.91
			c3.74,0,6.76,3.03,6.76,6.76l0,0C303.61,216.16,300.58,219.19,296.84,219.19z"/>
	</g>
	<g id="XMLID_522_">
		<path fill="#6DBFE4" d="M403.43,205.94H339.7c-3.22,0-5.83-2.61-5.83-5.83l0,0c0-3.22,2.61-5.83,5.83-5.83h63.74
			c3.22,0,5.83,2.61,5.83,5.83l0,0C409.27,203.33,406.66,205.94,403.43,205.94z"/>
	</g>
	<g id="XMLID_517_">
		<g id="XMLID_520_">
			<path fill="#6DBFE4" d="M452.68,214.05c-3.22,0-5.83,2.61-5.83,5.83c0,3.22,2.61,5.83,5.83,5.83h35.27
				c-8.54-4.12-17.21-8.01-26-11.67H452.68z"/>
		</g>
		<g id="XMLID_519_">
			<path fill="#6DBFE4" d="M131.37,216.55L131.37,216.55c0-4.54-3.68-8.22-8.22-8.22H72.16c-13.05,4.99-25.86,10.47-38.39,16.45
				h89.37C127.68,224.77,131.37,221.09,131.37,216.55z"/>
		</g>
	</g>
	<g id="XMLID_504_">
		<g id="XMLID_514_">
			<path fill="#564B34" d="M279.12,136.35h-38.47V21.09c0-4.58,3.72-8.3,8.3-8.3h21.87c4.58,0,8.3,3.72,8.3,8.3V136.35z
				 M243.35,133.66h33.08V21.09c0-3.09-2.51-5.6-5.6-5.6h-21.87c-3.09,0-5.6,2.51-5.6,5.6V133.66z"/>
		</g>
		<g id="XMLID_512_">
			<path fill="#FFDD34" d="M288.08,195.43H231.7c-11.05,0-20-8.95-20-20V94.57c0-11.05,8.95-20,20-20h56.38c11.05,0,20,8.95,20,20
				v80.86C308.08,186.48,299.13,195.43,288.08,195.43z"/>
		</g>
		<g id="XMLID_505_">
			<g id="XMLID_509_">
				<g id="XMLID_511_">
					<circle fill="#564B34" cx="229.76" cy="203.04" r="8.8"/>
				</g>
				<g id="XMLID_510_">
					<circle fill="#FFFFFF" cx="229.76" cy="203.04" r="2.93"/>
				</g>
			</g>
			<g id="XMLID_506_">
				<g id="XMLID_508_">
					<circle fill="#564B34" cx="289.85" cy="203.04" r="8.8"/>
				</g>
				<g id="XMLID_507_">
					<circle fill="#FFFFFF" cx="289.85" cy="203.04" r="2.93"/>
				</g>
			</g>
		</g>
	</g>
	<g id="XMLID_503_">
		<path fill="#FCF7FF" d="M264.61,106.07h-17.07c-2.76,0-5-2.24-5-5V92.6c0-2.76,2.24-5,5-5h17.07c2.76,0,5,2.24,5,5v8.47
			C269.61,103.84,267.37,106.07,264.61,106.07z"/>
	</g>
	<g id="XMLID_502_">
		<path fill="#DAC5CA" d="M247.72,190.18l-16.32-5.03c-2.64-0.81-4.12-3.61-3.31-6.25l2.5-8.1c0.81-2.64,3.61-4.12,6.25-3.31
			l16.31,5.03c2.64,0.81,4.12,3.61,3.31,6.25l-2.5,8.1C253.15,189.52,250.36,191,247.72,190.18z"/>
	</g>
	<g id="XMLID_501_">
		<path fill="#FFFFFF" d="M271.69,169.19l-22.33-4.05c-2.72-0.49-4.52-3.1-4.03-5.81l2-11.02c0.49-2.72,3.1-4.52,5.81-4.03
			l22.33,4.05c2.72,0.49,4.52,3.1,4.03,5.81l-2,11.02C277.01,167.88,274.4,169.68,271.69,169.19z"/>
	</g>
	<g id="XMLID_500_">
		<path fill="#FFFFC4" d="M256.81,134.96l-30.97,8.27c-2.67,0.71-5.41-0.87-6.12-3.54l-2.89-10.82c-0.71-2.67,0.87-5.41,3.54-6.12
			l30.97-8.27c2.67-0.71,5.41,0.87,6.12,3.54l2.89,10.82C261.07,131.51,259.48,134.25,256.81,134.96z"/>
	</g>
	<g id="XMLID_498_">
		<path fill="#E78500" d="M289.82,132.13l-16.11,5.65c-2.61,0.91-5.46-0.46-6.37-3.06l-2.8-7.99c-0.91-2.61,0.46-5.46,3.06-6.37
			l16.11-5.65c2.61-0.91,5.46,0.46,6.37,3.06l2.8,7.99C293.8,128.36,292.43,131.21,289.82,132.13z"/>
	</g>
	<g id="XMLID_496_">
		<path fill="#FFFFFF" d="M446.69,37.92c-0.71-1.05-3.65-2.44-13.47-2.44c0,0-0.5,0.01-1.35,0.03c-0.32,0.01-0.63-0.13-0.84-0.38
			l-4.78-5.56h0.11c0.6,0,1.08-0.48,1.08-1.08v-1.06c0-0.6-0.48-1.08-1.08-1.08h-2.38c-0.31,0-0.61-0.14-0.82-0.38l-1.06-1.23h0
			c0.6,0,1.08-0.48,1.08-1.08v-1.06c0-0.6-0.48-1.08-1.08-1.08h-2.27c-0.31,0-0.61-0.14-0.82-0.38l-5.71-6.64
			c-0.21-0.24-0.5-0.38-0.82-0.38h-1.04c-0.79,0-1.31,0.81-0.98,1.53l7.44,16.34c0.37,0.82,0.62,1.69,0.75,2.57
			c0.09,0.63-0.41,1.2-1.05,1.21c-2.77,0.06-5.31,0.12-7.03,0.16c-1.81,0.05-3.62,0.18-5.28,0.37c-0.34,0.04-0.67-0.08-0.9-0.32
			l-6.6-6.87c-0.22-0.23-0.54-0.35-0.85-0.33l-0.19,0.01c-0.75,0.05-1.22,0.84-0.9,1.53l3.45,7.45c0.12,0.25,0.12,0.66,0,0.91
			l-3.45,7.45c-0.32,0.69,0.15,1.48,0.9,1.53l0.19,0.01c0.32,0.02,0.63-0.1,0.85-0.33l6.6-6.87c0.23-0.24,0.56-0.36,0.9-0.32
			c1.65,0.19,3.46,0.32,5.28,0.37c1.72,0.05,4.26,0.1,7.03,0.16c0.64,0.01,1.14,0.58,1.05,1.21c-0.13,0.89-0.38,1.75-0.75,2.57
			l-7.44,16.34c-0.33,0.71,0.2,1.53,0.98,1.53h1.04c0.31,0,0.61-0.14,0.82-0.38l5.71-6.64c0.21-0.24,0.5-0.38,0.82-0.38h2.27
			c0.6,0,1.08-0.48,1.08-1.08v-1.06c0-0.6-0.48-1.08-1.08-1.08h0l1.06-1.23c0.2-0.24,0.5-0.38,0.82-0.38h2.38
			c0.6,0,1.08-0.48,1.08-1.08V48c0-0.6-0.48-1.08-1.08-1.08h-0.11l4.78-5.56c0.21-0.24,0.52-0.38,0.84-0.38
			c0.85,0.02,1.35,0.03,1.35,0.03c9.81,0,12.76-1.4,13.47-2.44c0.08-0.12,0.13-0.23,0.16-0.33
			C446.82,38.14,446.77,38.03,446.69,37.92z"/>
	</g>
	<g id="XMLID_495_">
		<path fill="#FFFFFF" d="M86.05,69.1c0.71-1.05,3.65-2.44,13.47-2.44c0,0,0.5,0.01,1.35,0.03c0.32,0.01,0.63-0.13,0.84-0.38
			l4.78-5.56h-0.11c-0.6,0-1.08-0.48-1.08-1.08v-1.06c0-0.6,0.48-1.08,1.08-1.08h2.38c0.31,0,0.61-0.14,0.82-0.38l1.06-1.23h0
			c-0.6,0-1.08-0.48-1.08-1.08v-1.06c0-0.6,0.48-1.08,1.08-1.08h2.27c0.31,0,0.61-0.14,0.82-0.38l5.71-6.64
			c0.21-0.24,0.5-0.38,0.82-0.38h1.04c0.79,0,1.31,0.81,0.98,1.53l-7.44,16.34c-0.37,0.82-0.62,1.69-0.75,2.57
			c-0.09,0.63,0.41,1.2,1.05,1.21c2.77,0.06,5.31,0.12,7.03,0.16c1.81,0.05,3.62,0.18,5.28,0.37c0.34,0.04,0.67-0.08,0.9-0.32
			l6.6-6.87c0.22-0.23,0.54-0.35,0.85-0.33l0.19,0.01c0.75,0.05,1.22,0.84,0.9,1.53l-3.45,7.45c-0.12,0.25-0.12,0.66,0,0.91
			l3.45,7.45c0.32,0.69-0.15,1.48-0.9,1.53l-0.19,0.01c-0.32,0.02-0.63-0.1-0.85-0.33l-6.6-6.87c-0.23-0.24-0.56-0.36-0.9-0.32
			c-1.65,0.19-3.46,0.32-5.28,0.37c-1.72,0.05-4.26,0.1-7.03,0.16c-0.64,0.01-1.14,0.58-1.05,1.21c0.13,0.89,0.38,1.75,0.75,2.57
			L122.28,92c0.33,0.71-0.2,1.53-0.98,1.53h-1.04c-0.31,0-0.61-0.14-0.82-0.38l-5.71-6.64c-0.2-0.24-0.5-0.38-0.82-0.38h-2.27
			c-0.6,0-1.08-0.48-1.08-1.08V84c0-0.6,0.48-1.08,1.08-1.08h0l-1.06-1.23c-0.21-0.24-0.5-0.38-0.82-0.38h-2.38
			c-0.6,0-1.08-0.48-1.08-1.08v-1.06c0-0.6,0.48-1.08,1.08-1.08h0.11l-4.78-5.56c-0.21-0.24-0.52-0.38-0.84-0.38
			c-0.85,0.02-1.35,0.03-1.35,0.03c-9.81,0-12.76-1.4-13.47-2.44c-0.08-0.12-0.13-0.23-0.16-0.33
			C85.92,69.32,85.97,69.21,86.05,69.1z"/>
	</g>
	<g id="XMLID_494_">
		<path fill="#564B34" d="M277.77,17.86H242c-1.55,0-2.8-1.25-2.8-2.8s1.25-2.8,2.8-2.8h35.77c1.55,0,2.8,1.25,2.8,2.8
			S279.32,17.86,277.77,17.86z"/>
	</g>
	<g id="XMLID_493_">
		<circle fill="#FFFFFF" cx="292.73" cy="170.53" r="11.68"/>
	</g>
	<g id="XMLID_492_">
		
			<ellipse transform="matrix(0.8466 0.5322 -0.5322 0.8466 94.3544 -137.6411)" fill="#FFFFA7" cx="285.99" cy="94.89" rx="13.19" ry="9.12"/>
	</g>
	<g id="XMLID_491_">
		<path fill="#FFFFFF" d="M228.01,103.72l-6.19-1.93c-2.64-0.82-4.11-3.62-3.29-6.26l1.93-6.19c0.82-2.64,3.62-4.11,6.26-3.29
			l6.19,1.93c2.64,0.82,4.11,3.62,3.29,6.26l-1.93,6.19C233.45,103.07,230.64,104.54,228.01,103.72z"/>
	</g>
	<g id="XMLID_482_">
		<g id="XMLID_490_">
			<path fill="#FFFFFF" d="M117.95,159.8c-2.73,0-5.35,0.49-7.77,1.39c-5.88-6.82-14.57-11.14-24.28-11.14s-18.41,4.32-24.28,11.14
				c-2.42-0.9-5.04-1.39-7.77-1.39c-12.32,0-22.31,9.99-22.31,22.31s9.99,22.31,22.31,22.31c2.73,0,5.35-0.49,7.77-1.39
				c5.88,6.82,14.57,11.14,24.28,11.14c9.71,0,18.41-4.32,24.28-11.14c2.42,0.9,5.04,1.39,7.77,1.39c12.32,0,22.31-9.99,22.31-22.31
				S130.27,159.8,117.95,159.8z"/>
		</g>
		<g id="XMLID_489_">
			<path fill="#FFFFFF" d="M485.7,194.26c-1.36,0-2.66,0.26-3.87,0.71c-2.93-3.41-7.28-5.57-12.13-5.57
				c-4.85,0-9.19,2.16-12.13,5.57c-1.21-0.45-2.51-0.71-3.87-0.71c-6.15,0-11.13,4.98-11.13,11.13c0,6.15,4.98,11.13,11.13,11.13
				c1.36,0,2.66-0.26,3.87-0.71c2.93,3.41,7.28,5.57,12.13,5.57c4.85,0,9.19-2.16,12.13-5.57c1.21,0.45,2.51,0.71,3.87,0.71
				c6.15,0,11.13-4.98,11.13-11.13C496.83,199.24,491.85,194.26,485.7,194.26z"/>
		</g>
		<g id="XMLID_486_">
			<path fill="#FFFFFF" d="M398.23,153.5c-2.27,0-4.45,0.41-6.47,1.16c-4.89-5.67-12.12-9.27-20.2-9.27c-8.08,0-15.31,3.6-20.2,9.27
				c-2.01-0.75-4.19-1.16-6.47-1.16c-10.25,0-18.56,8.31-18.56,18.56c0,10.25,8.31,18.56,18.56,18.56c2.27,0,4.45-0.41,6.47-1.16
				c4.89,5.67,12.12,9.27,20.2,9.27c8.08,0,15.31-3.6,20.2-9.27c2.01,0.75,4.19,1.16,6.47,1.16c10.25,0,18.56-8.31,18.56-18.56
				C416.79,161.81,408.48,153.5,398.23,153.5z"/>
		</g>
	</g>
</g>
</svg>
