<?xml version="1.0" encoding="utf-8"?>
<!-- Generator: Adobe Illustrator 18.0.0, SVG Export Plug-In . SVG Version: 6.00 Build 0)  -->
<!DOCTYPE svg PUBLIC "-//W3C//DTD SVG 1.1//EN" "http://www.w3.org/Graphics/SVG/1.1/DTD/svg11.dtd">
<svg version="1.1" id="图层_1" xmlns="http://www.w3.org/2000/svg" xmlns:xlink="http://www.w3.org/1999/xlink" x="0px" y="0px"
	 viewBox="0 0 244.5 183.7" enable-background="new 0 0 244.5 183.7" xml:space="preserve">
<g>
	<path id="XMLID_2910_" fill="#74A73C" d="M220.2,162.1c0,7-42.5,12.7-95,12.7s-95-5.7-95-12.7c0-7,42.5-18.6,95-18.6
		S220.2,155,220.2,162.1z"/>
	<g>
		<g id="XMLID_198_">
			<path id="XMLID_199_" fill="#CED1C0" d="M178.6,160.8c-0.1,0-0.3,0.1-0.4,0.1c-2.3,0.6-4.9,0.2-7-1.1c-2.6-1.7-4.9-4.4-5-4.5
				l-9.9-11.7c-0.6-0.7-0.5-1.7,0.2-2.3c0.7-0.6,1.7-0.5,2.3,0.2l9.9,11.7c0,0,2.1,2.5,4.3,3.9c1.3,0.8,3,1.1,4.4,0.7
				c1.2-0.4,2.2-1.2,2.9-2.6c2.1-4.4-1.8-10.7-4.6-12.8c-0.7-0.6-0.8-1.6-0.3-2.3c0.6-0.7,1.6-0.8,2.3-0.3c2,1.6,4,4.3,5.2,7.1
				c1.5,3.6,1.6,7,0.3,9.8C182.1,158.7,180.5,160.1,178.6,160.8z"/>
		</g>
		<path id="XMLID_197_" fill="#FFFFFF" d="M175.5,157.9c-0.9-0.1-1.8-0.4-2.6-0.9c-2.2-1.4-4.3-3.9-4.3-3.9l-9.9-11.7
			c-0.6-0.7-1.6-0.8-2.3-0.2c-0.7,0.6-0.8,1.6-0.2,2.3l9.9,11.7c0.1,0.1,2.4,2.8,5,4.5c1.5,0.9,3.2,1.4,4.9,1.4
			c-1.6-0.3-4.2-1.1-6.7-3.4c-4.2-3.8-13.1-15-13.1-15l1.7-1.4C157.9,141.5,171.6,158.8,175.5,157.9z"/>
		<circle id="XMLID_401_" fill="#FFFFFF" cx="157.5" cy="142.5" r="1.7"/>
		
			<line id="XMLID_196_" fill="none" stroke="#312F1D" stroke-width="3" stroke-linecap="round" stroke-linejoin="round" stroke-miterlimit="10" x1="91.2" y1="64" x2="157.5" y2="142.5"/>
		
			<line id="XMLID_195_" fill="none" stroke="#000000" stroke-width="5" stroke-linecap="round" stroke-linejoin="round" stroke-miterlimit="10" x1="77.2" y1="47.5" x2="91.2" y2="64"/>
		<path id="XMLID_191_" fill="none" stroke="#000000" stroke-width="1.2835" stroke-miterlimit="10" d="M204.3,9.3"/>
		<path id="XMLID_378_" fill="none" stroke="#000000" stroke-width="1.2835" stroke-miterlimit="10" d="M75,26.3"/>
		<path id="XMLID_190_" fill="none" stroke="#000000" stroke-width="1.4064" stroke-miterlimit="10" d="M56.9,22.9"/>
		<g id="XMLID_189_">
			<path fill="#93E464" d="M180.9,104.2c0,0-32.3,10.3-61.9,51.4c-16.8,3-46,12.2-59.1,16.8c-12.6-8.3-26.5-12.4-35.2-12.8
				c-0.1-4.3-5.3-24.9-5.4-38.1c4.5-18.2,11.8-40.4,14.8-46.6c5.1-9.4,18.6-27.3,18.6-27.3l21-20.3c0,0,20.8-14.3,27.4-16.4
				c22.8-8.8,51.3-11,59.7-10.7C179.4,2.3,194.9,9,194.9,9s4.7,20.4,12.3,35.6C198,61.2,186.5,83.3,180.9,104.2z"/>
		</g>
		<path id="XMLID_397_" fill="#57AE56" d="M207.1,44.6C199.6,29.4,194.9,9,194.9,9s-22.2-5.3-34.1-8.9c-8.4-0.4-36.6,2.6-59.4,11.5
			c-5.3,1.8-19.7,11.3-25.2,15c-5.8,6.4-4.4,14.1-4.4,14.1c11,44.3,37.1,89.7,50.4,110.9c23.5-28.9,58.8-47.4,58.8-47.4
			C184.9,78.8,198,61.2,207.1,44.6z"/>
		<path id="XMLID_188_" fill="#FFFFED" d="M60,172.4c-4.9-21.1-13-74.7,11.7-131.8c-43.2,45-47.4,99.2-46.9,118.5c0,0.2,0,0.4,0,0.5
			l0,0C33.1,162.9,48.9,168.1,60,172.4z"/>
		<path id="XMLID_187_" fill="#CADBDB" d="M71.7,40.7c58-17.6,116.1-2.3,135.4,3.9C202.8,31.5,194.9,9,194.9,9l0,0
			C175.7,6.1,130.2,3,71.7,40.7z"/>
		<path id="XMLID_454_" fill="#CADBCB" d="M71.7,40.7c0,0,5.3,44.6,47.4,114.9c35.9-38.7,61.9-51.4,61.9-51.4l0,0
			C166.5,92.6,114.2,52.5,71.7,40.7z"/>
		<g id="XMLID_387_">
			<path id="XMLID_388_" fill="#FFFFED" d="M71.7,40.7c-11.1,2.1-19,6.9-26.3,17c-4,5.7-8.7,12.5-11.3,17.2
				c-1.2,2.5-3.1,7.6-5.3,13.9c-0.9,2.6-1.7,5.3-1.7,5.3l0.9-1.6C36.6,74.5,48.3,54,70.9,41.3C71.2,41.1,71.4,40.9,71.7,40.7z"/>
		</g>
		<path id="XMLID_406_" fill="#FFFFED" d="M71.7,40.7c0,0-4.1-7.2,2-13.4l0,0L56.1,44.3C61.6,39.7,66.3,40.2,71.7,40.7z"/>
		<path id="XMLID_185_" fill="#CADBDB" d="M160.8,0.1c0,0-11.9-1.4-42.1,5.2c-35.1,7.6-46.9,35.4-46.9,35.4
			C91.7,15.9,139.2,1.6,160.8,0.1z"/>
		<g id="XMLID_156_">
			<path id="XMLID_180_" fill="#636154" d="M72.1,41.9c-0.5,0.2-1,0-1.4-0.4l-8.5-9.8c-0.5-0.5-0.4-1.3,0.1-1.8
				c0.5-0.5,1.3-0.4,1.8,0.1l8.5,9.8c0.5,0.5,0.4,1.3-0.1,1.8C72.4,41.7,72.3,41.8,72.1,41.9z"/>
		</g>
		<path id="XMLID_155_" fill="#312F1D" d="M72.7,39.8L64.1,30c-0.5-0.5-1.7,0.5-0.7,1.7c0,0,6.9,8,7.7,9c0.9,1,1.2,1,1.4,0.9
			C73.1,41.2,73.1,40.4,72.7,39.8z"/>
		<path id="XMLID_4_" fill="#FFFFFF" d="M177.3,142.7c-0.2-0.3-0.3-0.8,0.1-1.1s0.6-0.9,0.4-1.5c0-0.1-0.1-0.2-0.2-0.4
			c-0.7-0.5-1.7-0.4-2.2,0.3c-0.6,0.7-0.4,1.7,0.3,2.3c2.2,1.7,5.2,6.2,5.2,10.1c0.1-0.5,0.1-1.1,0.1-1.7
			C181.1,146.9,177.5,143,177.3,142.7z"/>
	</g>
</g>
<g>
	<path id="XMLID_2988_" fill="none" stroke="#000000" stroke-width="1.2835" stroke-miterlimit="10" d="M215.2,19"/>
	<path id="XMLID_2987_" fill="none" stroke="#000000" stroke-width="1.2835" stroke-miterlimit="10" d="M62.1,39.4"/>
	<path id="XMLID_2986_" fill="none" stroke="#000000" stroke-width="1.4064" stroke-miterlimit="10" d="M40.6,35.4"/>
	<g id="XMLID_2971_">
		<path fill="#FFFFFF" d="M5.5,97.7c0-2.6-2.9-5.5-5.5-5.5c2.6,0,5.5-2.9,5.5-5.5c0,2.6,2.9,5.5,5.5,5.5C8.4,92.2,5.5,95.1,5.5,97.7
			z"/>
	</g>
	<g id="XMLID_2968_">
		<path fill="#FFFFFF" d="M91,183.7c0-1.3-1.4-2.7-2.7-2.7c1.3,0,2.7-1.4,2.7-2.7c0,1.3,1.4,2.7,2.7,2.7C92.5,181,91,182.4,91,183.7
			z"/>
	</g>
	<g id="XMLID_2959_">
		<path fill="#FFFFFF" d="M240,68.9c0-2.2-2.4-4.6-4.6-4.6c2.2,0,4.6-2.4,4.6-4.6c0,2.2,2.4,4.6,4.6,4.6
			C242.4,64.3,240,66.7,240,68.9z"/>
	</g>
	<g id="XMLID_2937_">
		<path fill="#FFFFFF" d="M184.2,66.2c0-1.3-1.4-2.7-2.7-2.7c1.3,0,2.7-1.4,2.7-2.7c0,1.3,1.4,2.7,2.7,2.7
			C185.6,63.5,184.2,64.9,184.2,66.2z"/>
	</g>
	<g id="XMLID_2934_">
		<path fill="#FFFFFF" d="M199,143.2c0-1.3-1.4-2.7-2.7-2.7c1.3,0,2.7-1.4,2.7-2.7c0,1.3,1.4,2.7,2.7,2.7
			C200.4,140.6,199,142,199,143.2z"/>
	</g>
	<g id="XMLID_2931_">
		<path fill="#FFFFFF" d="M184.3,117.1c0-1.3-1.4-2.6-2.6-2.6c1.3,0,2.6-1.4,2.6-2.6c0,1.3,1.4,2.6,2.6,2.6
			C185.7,114.4,184.3,115.8,184.3,117.1z"/>
	</g>
	<g id="XMLID_2922_">
		<path fill="#FFFFFF" d="M57,6.8c0-1.3-1.4-2.7-2.7-2.7c1.3,0,2.7-1.4,2.7-2.7c0,1.3,1.4,2.7,2.7,2.7C58.4,4.1,57,5.5,57,6.8z"/>
	</g>
	<g id="XMLID_2913_">
		<path fill="#FFFFFF" d="M44.7,152.1c0-1.8-2-3.7-3.7-3.7c1.8,0,3.7-2,3.7-3.7c0,1.8,2,3.7,3.7,3.7
			C46.7,148.4,44.7,150.4,44.7,152.1z"/>
	</g>
	<g id="XMLID_2907_">
		<path fill="#FFFFFF" d="M126.7,33.5c0-3.2-3.6-6.9-6.9-6.9c3.2,0,6.9-3.6,6.9-6.9c0,3.2,3.6,6.9,6.9,6.9
			C130.3,26.6,126.7,30.2,126.7,33.5z"/>
	</g>
	<g id="XMLID_193_">
		<path fill="#FFFFFF" d="M152.9,99.3c0-3.9-4.3-8.2-8.2-8.2c3.9,0,8.2-4.3,8.2-8.2c0,3.9,4.3,8.2,8.2,8.2
			C157.2,91.1,152.9,95.4,152.9,99.3z"/>
	</g>
</g>
<path fill="#FFFFED" d="M72.6,43.9c3.2,15.1,11.8,53.7,46.5,111.6c1.9-2,1.2-1.1,3-3C101.1,123.6,82.1,72.1,72.6,43.9z"/>
</svg>
