<?xml version="1.0" encoding="utf-8"?>
<!-- Generator: Adobe Illustrator 18.0.0, SVG Export Plug-In . SVG Version: 6.00 Build 0)  -->
<!DOCTYPE svg PUBLIC "-//W3C//DTD SVG 1.1//EN" "http://www.w3.org/Graphics/SVG/1.1/DTD/svg11.dtd">
<svg version="1.1" id="图层_1" xmlns="http://www.w3.org/2000/svg" xmlns:xlink="http://www.w3.org/1999/xlink" x="0px" y="0px"
	 viewBox="0 0 188.5 169.27" enable-background="new 0 0 188.5 169.27" xml:space="preserve">
<g>
	<g id="XMLID_2892_" opacity="0.5">
		<g>
			<polygon fill="#74A83C" points="188.5,169.27 0,169.27 0,57.66 94.25,12.94 188.5,57.66 			"/>
		</g>
	</g>
	<g id="XMLID_2882_">
		<g id="XMLID_2891_">
			<g>
				<path fill="#FFFFFF" d="M82.84,146.79c-7.41,0-13.43-6.02-13.43-13.43v-3.96h4.04v3.96c0,5.18,4.21,9.39,9.39,9.39
					c5.18,0,9.39-4.21,9.39-9.39V0h4.04v133.36C96.27,140.76,90.25,146.79,82.84,146.79z"/>
			</g>
		</g>
		<g id="XMLID_2890_">
			<g>
				<path fill="#94E564" stroke="#94E564" stroke-miterlimit="10" d="M82.84,146.63c-7.32,0-13.27-5.95-13.27-13.27v-3.96h3.73v3.96
					c0,5.26,4.28,9.55,9.55,9.55V146.63z"/>
			</g>
		</g>
		<g id="XMLID_2889_">
			<g>
				<path fill="#94E564" stroke="#94E564" stroke-miterlimit="10" d="M82.84,146.63v-3.73c5.26,0,9.55-4.28,9.55-9.55v-7.15h3.73
					v7.15C96.11,140.68,90.16,146.63,82.84,146.63z"/>
			</g>
		</g>
		<g id="XMLID_2888_">
			<g>
				<rect x="92.15" y="38.13" fill="#DDDEDF" width="4.19" height="31.46"/>
			</g>
		</g>
		<g id="XMLID_2887_">
			<g>
				<path fill="#94E564" d="M94.25,6.75c-18.67,0-36.9,5.05-53.13,13.94C24.89,29.58,10.66,42.31,0,57.66c0,0,5.99-2.44,16.49-0.92
					c10.5,1.52,15.39,5.75,15.39,5.75C39.52,45.8,49.86,31.86,60.92,22.1C71.97,12.34,83.75,6.75,94.25,6.75z"/>
			</g>
		</g>
		<g id="XMLID_2886_">
			<g>
				<path fill="#FFFFFF" d="M31.88,62.49c0,0,6.36-3.14,18.98-2.22c13.61,0.99,20.02,5.13,20.02,5.13
					c2.96-17.5,7.03-32.16,11.24-42.45s8.58-16.2,12.13-16.2c-10.5,0-22.28,5.59-33.33,15.35C49.86,31.86,39.52,45.8,31.88,62.49z"
					/>
			</g>
		</g>
		<g id="XMLID_2885_">
			<g>
				<path fill="#94E564" d="M94.25,6.75c18.67,0,36.9,5.05,53.13,13.94s30.46,21.62,41.12,36.97c0,0-5.99-2.44-16.49-0.92
					c-10.5,1.52-15.39,5.75-15.39,5.75c-7.65-16.69-17.99-30.63-29.04-40.39S104.75,6.75,94.25,6.75z"/>
			</g>
		</g>
		<g id="XMLID_2884_">
			<g>
				<path fill="#FFFFFF" d="M156.62,62.49c0,0-6.36-3.14-18.98-2.22c-13.61,0.99-20.02,5.13-20.02,5.13
					c-2.96-17.5-7.03-32.16-11.24-42.45c-4.22-10.29-8.58-16.2-12.13-16.2c10.5,0,22.28,5.59,33.33,15.35S148.98,45.8,156.62,62.49z
					"/>
			</g>
		</g>
		<g id="XMLID_2883_">
			<g>
				<path fill="#94E564" d="M70.88,65.4c0,0,11.13-4.07,23.37-4.07c12.24,0,23.37,4.07,23.37,4.07
					c-5.91-34.99-16.27-58.65-23.37-58.65C87.15,6.75,76.79,30.41,70.88,65.4z"/>
			</g>
		</g>
	</g>
</g>
</svg>
