<?xml version="1.0" encoding="utf-8"?>
<!-- Generator: Adobe Illustrator 18.0.0, SVG Export Plug-In . SVG Version: 6.00 Build 0)  -->
<!DOCTYPE svg PUBLIC "-//W3C//DTD SVG 1.1//EN" "http://www.w3.org/Graphics/SVG/1.1/DTD/svg11.dtd">
<svg version="1.1" id="图层_1" xmlns="http://www.w3.org/2000/svg" xmlns:xlink="http://www.w3.org/1999/xlink" x="0px" y="0px"
	 viewBox="-0.4 17.1 37.5 9" enable-background="new -0.4 17.1 37.5 9" xml:space="preserve">
<g>
	<g>
		<path fill="#666666" d="M1.4,19.8h5.2v5.2h1.8v1h-8.8v-1h1.8V19.8z M3.4,17.1c0.4,0,0.8,0,1.3,0.1c0.2,0,0.2,0.1,0.1,0.3
			c0,0,0,0.1,0,0.1v0.6h3.5v2.2H7.1v-1.2H1v1.2h-1.2v-2.2h3.6V17.1z M2.7,20.9v0.6h2.8v-0.6H2.7z M2.7,22.6v0.6h2.8v-0.6H2.7z
			 M5.4,24.3H2.7v0.7h2.8V24.3z"/>
	</g>
	<g>
		<path fill="#666666" d="M12,19.3L12,18.6L11.3,21h0.4v5H10v-4.5H9.5l1-3.8h1.7L12,18.5h2l-0.2-0.7h1.9l0.2,0.7H18v0.9H12z
			 M12.2,20.8v-0.9h5.5v0.9H12.2z M12.2,22.2v-0.9h5.5v0.9H12.2z M12.2,26v-3.2h5.5V26H12.2z M16,23.8h-2v1.4h2V23.8z"/>
		<path fill="#666666" d="M21,20.6h0.1v5.5h-1.7v-4.5H19l0.8-3.8h1.8L21,20.6z M22.9,25.8h-1.6l0.5-2.9h1.6L22.9,25.8z M25.3,22.6
			v3.5h-1.7v-3.5h-2.3v-0.9h2.3v-0.7h-1.9v-3.3h5.5v3.3h-1.9v0.7h2.2v0.9H25.3z M25.5,18.7h-2.1v1.4h2.1V18.7z M26,25.8L25.5,23h1.6
			l0.5,2.9H26z"/>
		<path fill="#666666" d="M35.4,21.1l-0.1-0.4h-1.9l-0.1,0.4h-1.7l0-0.2l-0.6,0.4l0.6,0.5V25h-1.6v1.1h-1.4v-8.3h3v3l0.9-3h3.5
			l1,3.3H35.4z M30.5,18.8h-0.3V21h0.3V18.8z M30.5,21.9h-0.3v2.2h0.3V21.9z M31.8,26.1v-0.9h3.1l0.1-0.4h-1.1l-0.5-3.3h1.4l0.3,2.2
			l0.3-2.2H37l-0.5,3.7h0.6v0.9H31.8z M32.3,24.7l-0.5-3.3h1.4l0.5,3.3H32.3z M34.7,18.8H34l-0.3,1H35L34.7,18.8z"/>
	</g>
</g>
</svg>
