<?xml version="1.0" encoding="utf-8"?>
<!-- Generator: Adobe Illustrator 18.0.0, SVG Export Plug-In . SVG Version: 6.00 Build 0)  -->
<!DOCTYPE svg PUBLIC "-//W3C//DTD SVG 1.1//EN" "http://www.w3.org/Graphics/SVG/1.1/DTD/svg11.dtd">
<svg version="1.1" id="图层_1" xmlns="http://www.w3.org/2000/svg" xmlns:xlink="http://www.w3.org/1999/xlink" x="0px" y="0px"
	 viewBox="1.304 15.143 35.364 10.454" enable-background="new 1.304 15.143 35.364 10.454" xml:space="preserve">
<g>
	<g id="JtmrTM_1_">
		<g>
			<g>
				<path fill="#666666" d="M10.007,18.584c0.009,0.162,0.023,0.325,0.025,0.487c0.006,0.407-0.126,0.776-0.381,1.083
					c-0.412,0.497-0.846,0.977-1.276,1.459c-0.367,0.411-0.74,0.817-1.111,1.225c-0.695,0.763-1.392,1.526-2.084,2.291
					c-0.071,0.079-0.147,0.087-0.229,0.049c-0.331-0.154-0.666-0.301-0.987-0.474c-0.525-0.284-0.98-0.666-1.382-1.103
					c-0.368-0.4-0.658-0.856-0.881-1.357c-0.375-0.841-0.473-1.715-0.344-2.619c0.072-0.506,0.246-0.98,0.482-1.433
					c0.508-0.978,1.272-1.699,2.22-2.242c0.824-0.473,1.714-0.719,2.654-0.805c0.07-0.006,0.141,0.005,0.212,0.008
					c-0.043,0.068-0.076,0.143-0.129,0.201c-0.471,0.521-0.944,1.04-1.418,1.557c-0.407,0.443-0.814,0.886-1.225,1.324
					c-0.272,0.29-0.554,0.578-0.667,0.967c-0.074,0.256-0.12,0.534-0.107,0.799c0.026,0.496,0.185,0.963,0.449,1.388
					c0.131,0.211,0.279,0.41,0.419,0.615c0.018-0.006,0.036-0.012,0.054-0.019c0-0.13,0.008-0.26-0.001-0.39
					c-0.04-0.584,0.214-1.046,0.592-1.461c0.452-0.497,0.899-0.998,1.349-1.497c0.346-0.383,0.693-0.765,1.04-1.147
					c0.602-0.662,1.206-1.323,1.804-1.988c0.076-0.085,0.146-0.105,0.25-0.071c0.913,0.294,1.718,0.774,2.405,1.438
					c0.382,0.37,0.696,0.797,0.956,1.268c0.276,0.5,0.446,1.032,0.525,1.589c0.088,0.621,0.051,1.241-0.12,1.85
					c-0.298,1.06-0.901,1.914-1.744,2.609c-0.685,0.564-1.465,0.953-2.316,1.174c-0.501,0.13-1.027,0.166-1.543,0.237
					c-0.071,0.01-0.149-0.026-0.223-0.04c0.04-0.067,0.07-0.142,0.121-0.198c0.332-0.369,0.668-0.735,1.003-1.101
					c0.474-0.517,0.95-1.033,1.425-1.551c0.244-0.266,0.496-0.525,0.727-0.802c0.217-0.259,0.33-0.574,0.374-0.906
					c0.103-0.77-0.158-1.44-0.591-2.058c-0.09-0.128-0.182-0.255-0.273-0.383C10.042,18.567,10.024,18.576,10.007,18.584z
					 M8.911,20.691c0.041-0.016,0.068-0.019,0.085-0.034c0.441-0.368,0.747-0.819,0.841-1.396c0.061-0.377,0.017-0.737-0.245-1.031
					c-0.383-0.43-0.777-0.851-1.171-1.271c-0.225-0.24-0.229-0.236-0.455,0.015c-0.017,0.019-0.036,0.035-0.053,0.054
					c-0.253,0.285-0.506,0.569-0.757,0.855c-0.133,0.152-0.136,0.21-0.001,0.36c0.241,0.269,0.488,0.531,0.73,0.798
					c0.212,0.234,0.413,0.478,0.633,0.702c0.152,0.155,0.271,0.319,0.316,0.532C8.862,20.407,8.884,20.539,8.911,20.691z
					 M4.456,21.491c-0.012,0.431,0.099,0.687,0.354,0.916c0.026,0.023,0.05,0.049,0.073,0.075c0.381,0.42,0.763,0.837,1.14,1.26
					c0.078,0.088,0.14,0.084,0.209,0.004c0.326-0.38,0.65-0.763,0.977-1.142c0.079-0.091,0.068-0.163-0.011-0.248
					c-0.351-0.378-0.698-0.761-1.047-1.141c-0.146-0.159-0.3-0.311-0.436-0.477c-0.176-0.214-0.282-0.46-0.275-0.746
					c0.001-0.036-0.021-0.073-0.032-0.11c-0.035,0.012-0.077,0.016-0.104,0.038C4.789,20.356,4.5,20.908,4.456,21.491z"/>
			</g>
		</g>
	</g>
	<g>
		<path fill="#666666" d="M15.947,22.442L15.594,23.5c-0.11,0.355-0.355,0.533-0.735,0.533h-0.555l-0.18-0.893h0.165
			c0.135,0,0.22-0.075,0.255-0.226l0.15-0.473L15.947,22.442L15.947,22.442z M14.386,21.46h5.492c0.125,0,0.188-0.062,0.188-0.188
			v-0.061h-5.53v-0.593h5.53v-0.217h-5.62v-0.652h1.028v-0.337h-1.118v-0.653h1.118v-0.248h-1.058v-0.593h1.058v-0.247h-1.118
			v-0.653h1.118V16.71h1.253v0.308h0.96v0.653h-0.96v0.248h0.93v0.593h-0.93v0.248h0.96v0.653h-0.96v0.337h2.349v-0.309h-1.059
			v-0.653h1.059v-0.277h-0.968v-0.593h0.968v-0.247h-0.999v-0.653h0.999V16.71h1.253v0.308h1.11v0.653h-1.11v0.248h1.05v0.593h-1.05
			v0.277h1.14v0.653h-1.14v0.308h0.359h0.631v1.628c-0.006,0.49-0.251,0.735-0.735,0.735h-6.198V21.46z M17.462,22.322v0.735
			c0,0.125,0.062,0.188,0.188,0.188h2.018v0.803h-2.753c-0.49-0.005-0.735-0.25-0.735-0.735v-0.99L17.462,22.322L17.462,22.322z
			 M19.023,22.442c0.06,0.065,0.157,0.098,0.292,0.098h0.353v0.473h-0.9c-0.34,0-0.584-0.075-0.735-0.225l-0.188-0.436h1.133
			L19.023,22.442z M21.221,22.96c0.024,0.12,0.104,0.181,0.24,0.181h0.067v0.893h-0.705c-0.36,0-0.596-0.221-0.706-0.66
			l-0.247-1.021h1.223L21.221,22.96z"/>
		<path fill="#666666" d="M23.585,23.778c-0.15,0.17-0.338,0.255-0.563,0.255h-0.803l-0.165-1.013h0.195
			c0.101-0.005,0.173-0.033,0.218-0.083c0.04-0.05,0.06-0.115,0.06-0.195v-1.32l-0.638,0.24V20.47l0.638-0.241v-1.778h-0.638v-1.013
			h0.638V16.71h1.253v0.728h0.57v1.013h-0.57v1.291l0.45-0.173v1.193l-0.45,0.173v2.341C23.774,23.455,23.71,23.623,23.585,23.778z
			 M26.097,21.843H24.44v-1.014h1.657v-0.54c-0.13,0.035-0.257,0.053-0.382,0.053h-1.133l-0.166-0.953h0.69
			c0.285-0.005,0.498-0.093,0.638-0.263l0.143-0.127l-1.035-0.938h1.644l0.232,0.195l0.562-0.495h-2.671v-0.953h4.329v1.013
			l-1.312,1.17l0.203,0.165c0.145,0.155,0.338,0.233,0.577,0.233h0.796v0.953h-1.336c-0.195,0-0.37-0.032-0.525-0.098v0.585h1.681
			v1.014h-1.681v0.487h1.801v1.013h-1.801v0.69h-1.253v-0.69H24.23V22.33h1.868L26.097,21.843L26.097,21.843z M26.593,19.921
			c-0.09,0.115-0.188,0.206-0.292,0.271h0.953c-0.091-0.055-0.168-0.115-0.233-0.18l-0.262-0.24L26.593,19.921z"/>
		<path fill="#666666" d="M35.933,24.003h-0.907l-0.165-0.772h0.397c0.125,0,0.188-0.062,0.188-0.188v-0.03
			c-0.516-0.02-0.881-0.175-1.096-0.465l-0.022-0.053l-0.015,0.082c-0.125,0.311-0.408,0.466-0.848,0.466h-0.022H33.15h-0.037
			c-0.426,0-0.7-0.19-0.825-0.57l-0.053-0.135l-0.053,0.21c-0.125,0.31-0.408,0.465-0.848,0.465h-0.338v0.99h-1.223v-6.182v-0.51
			v-0.502h5.672h0.607h0.615v6.459C36.664,23.758,36.419,24.003,35.933,24.003z M32.13,19.254l0.33-1.133h0.511h0.383h0.51
			l0.412,1.298l0.405-1.298h0.766v-0.3h-4.449v0.3h0.705L32.13,19.254z M30.997,18.691V22h0.128c0.149,0,0.242-0.053,0.277-0.157
			l0.3-1.073L30.997,18.691z M33.173,18.796l-0.495,1.853l0.487,1.245c0.025,0.07,0.085,0.115,0.181,0.136
			c0.09-0.025,0.152-0.078,0.188-0.158l0.3-0.99L33.173,18.796z M35.446,18.571l-0.683,2.386l0.3,0.938
			C35.118,21.965,35.201,22,35.311,22h0.135V18.571z"/>
	</g>
</g>
</svg>
