<?xml version="1.0" encoding="utf-8"?>
<!-- Generator: Adobe Illustrator 18.0.0, SVG Export Plug-In . SVG Version: 6.00 Build 0)  -->
<!DOCTYPE svg PUBLIC "-//W3C//DTD SVG 1.1//EN" "http://www.w3.org/Graphics/SVG/1.1/DTD/svg11.dtd">
<svg version="1.1" id="图层_1" xmlns="http://www.w3.org/2000/svg" xmlns:xlink="http://www.w3.org/1999/xlink" x="0px" y="0px"
	 viewBox="0 0 52.79491 46.61481" enable-background="new 0 0 52.79491 46.61481" xml:space="preserve">
<g id="bQPrts.tif">
	<g>
		<g>
			<path fill="#DDDDDD" d="M18.08615,39.5011c0.33987,0.0157,0.67973,0.04504,1.0196,0.04512
				c9.99778,0.00245,19.99556,0.00237,29.99333,0.00158c1.63629-0.00013,1.9703-0.33372,1.97233-1.97588
				c0.00302-2.4509,0.00078-4.9018,0.00078-7.32024c-4.72421-1.53959-6.67514-3.83468-6.6256-7.7125
				c0.0458-3.58483,2.17196-5.94948,6.61588-7.28944c0-2.28781,0.02039-4.60242-0.01168-6.9163
				c-0.01044-0.75348-0.48471-1.17059-1.24754-1.21999c-0.20396-0.01321-0.40932-0.00605-0.61404-0.00605
				C39.15732,7.1072,29.12541,7.10633,19.09352,7.11109c-0.33644,0.00016-0.67284,0.05736-1.00926,0.08798l0.02966,0.02515
				c-0.07275-0.63691-0.1455-1.27381-0.2283-1.99868c0.29945-0.01407,0.62134-0.04234,0.94323-0.04241
				C28.92763,5.18079,39.02642,5.1802,49.12521,5.1819c2.63551,0.00045,3.66722,1.02764,3.66887,3.64321
				c0.00165,2.61953,0.00035,5.23907,0.00035,7.96506c-2.24355-0.12447-4.13197,0.46492-5.54509,2.17315
				c-0.95103,1.14963-1.41127,2.48003-1.36592,3.97055c0.10312,3.38829,2.27704,5.25146,6.911,5.85408
				c0,0.34892,0.00001,0.71461,0.00001,1.0803c0.00001,2.62705,0.00096,5.25409-0.00026,7.88115
				c-0.00126,2.68896-0.99533,3.6787-3.71818,3.68061c-6.00468,0.00421-12.00936,0.00136-18.01404,0.00138
				c-3.95764,0.00002-7.91527-0.00001-11.8729-0.00002c-0.40455,0-0.80911,0-1.28516,0
				c0.07798-0.71129,0.1462-1.33348,0.21441-1.95568L18.08615,39.5011z"/>
			<path fill="#DDDDDD" d="M16.18098,39.54822c0.07026,0.6957,0.12428,1.23067,0.18482,1.83002
				c-0.29931,0.01771-0.59826,0.05053-0.89724,0.05079c-3.95709,0.0034-7.9142,0.00911-11.87127-0.00026
				c-2.63354-0.00624-3.5887-0.9643-3.58924-3.56088c-0.00056-2.6949-0.00151-5.38979,0.00224-8.08468
				c0.00046-0.33274,0.02882-0.66545,0.04364-0.9849c4.25021-0.61848,6.47851-2.71419,6.48463-6.047
				c0.00614-3.34443-2.27542-5.49693-6.53067-6.05927c0-1.67611-0.00044-3.3716,0.00015-5.06709
				C0.00846,10.3969-0.01601,9.16811,0.01844,7.941c0.03833-1.36518,0.92278-2.37877,2.25933-2.64994
				C2.57666,5.23042,2.8851,5.18688,3.18922,5.18642c4.2641-0.00646,8.5282-0.00451,12.79231-0.00174
				c0.13086,0.00008,0.26171,0.03111,0.39876,0.0485c-0.06628,0.59754-0.12915,1.16443-0.20785,1.87398
				c-0.37634,0-0.73716,0-1.09797,0C11.2197,7.10719,7.36495,7.10515,3.5102,7.10829C2.0283,7.10949,1.6638,7.48371,1.66082,8.99645
				c-0.00356,1.80797,0.03125,3.61682-0.01701,5.42351c-0.01859,0.69587,0.17381,0.99103,0.88077,1.18496
				c3.3143,0.90916,5.4599,3.77885,5.4566,7.17449c-0.00327,3.36414-2.18208,6.19275-5.53214,7.11495
				c-0.5899,0.16238-0.81504,0.4016-0.80435,1.03601c0.03905,2.31901,0.00635,4.63914,0.01934,6.95874
				c0.00664,1.1856,0.48772,1.65388,1.69119,1.6562c3.88885,0.00747,7.77772,0.00287,11.66659,0.00292
				C15.39267,39.54823,15.76354,39.54822,16.18098,39.54822z"/>
			<path fill="#DDDDDD" d="M17.9733,18.38541c-0.00098,0.81527,0.08169,1.64314-0.03969,2.43992
				c-0.0521,0.34202-0.48474,0.80761-0.82098,0.88509c-0.60578,0.1396-0.77467-0.36998-0.77324-0.91021
				c0.00422-1.59659,0.00872-3.19325-0.00305-4.78976c-0.00404-0.54801,0.15724-0.96284,0.76546-0.97904
				c0.66245-0.01764,0.86397,0.43605,0.87033,1.01009C17.98077,16.82272,17.97428,17.6041,17.9733,18.38541z"/>
			<path fill="#DDDDDD" d="M16.34454,28.20808c0.0011-0.84947-0.05959-1.70573,0.03413-2.54473
				c0.03265-0.29233,0.50328-0.79576,0.67457-0.75755c0.33938,0.0757,0.8563,0.45014,0.8684,0.72042
				c0.07744,1.72904,0.07574,3.46507-0.00401,5.194c-0.01216,0.26355-0.53947,0.63572-0.87663,0.69828
				c-0.17923,0.03325-0.63265-0.4711-0.66508-0.76552C16.28347,29.91367,16.34344,29.05757,16.34454,28.20808z"/>
			<path fill="#DDDDDD" d="M18.1183,39.4757c-0.53915,0-1.0783,0-1.75625,0c0-1.42063-0.0345-2.80317,0.03558-4.18039
				c0.01107-0.2174,0.58705-0.63327,0.74101-0.56944c0.33229,0.13776,0.75623,0.50421,0.79356,0.81855
				c0.10772,0.90696,0.03233,1.83466,0.04963,2.75383c0.00758,0.40242,0.06569,0.8039,0.10259,1.20432
				C18.08615,39.5011,18.1183,39.4757,18.1183,39.4757z"/>
			<path fill="#DDDDDD" d="M18.08426,7.19907c-0.03587,1.17985-0.07775,2.35955-0.10513,3.5396
				c-0.01427,0.61497-0.05943,1.20156-0.88642,1.18581c-0.81171-0.01546-0.75028-0.62464-0.7524-1.17099
				c-0.00446-1.14742-0.00135-2.29487-0.00135-3.53122c0.65044,0,1.21142,0,1.77369,0.00097
				C18.11392,7.22421,18.08426,7.19907,18.08426,7.19907z"/>
		</g>
	</g>
</g>
</svg>
