<?xml version="1.0" encoding="utf-8"?>
<!-- Generator: Adobe Illustrator 18.0.0, SVG Export Plug-In . SVG Version: 6.00 Build 0)  -->
<!DOCTYPE svg PUBLIC "-//W3C//DTD SVG 1.1//EN" "http://www.w3.org/Graphics/SVG/1.1/DTD/svg11.dtd">
<svg version="1.1" id="图层_1" xmlns="http://www.w3.org/2000/svg" xmlns:xlink="http://www.w3.org/1999/xlink" x="0px" y="0px"
	 viewBox="0 0 107.50932 41.24518" enable-background="new 0 0 107.50932 41.24518" xml:space="preserve">
<g>
	<polygon fill-rule="evenodd" clip-rule="evenodd" fill="#CCCCCC" points="7.64801,35.93054 3.73688,21.14752 0.03821,24.48602 
		4.78119,41.24518 20.66296,36.89276 19.4278,32.37842 	"/>
	<polygon fill-rule="evenodd" clip-rule="evenodd" fill="#CCCCCC" points="26.13287,0 22.85559,3.75305 23.70593,6.82898 
		28.13324,6.3009 	"/>
</g>
<g>
	<path fill="#4B7CA4" d="M26.25159,0.19434c-1.02899,0.44287-2.43158,0.79443-6.92236,5.57446
		c-3.66815,3.92645-7.15967,9.09644-10.27106,18.19165L3.62225,21.2381L0,24.34222l12.49701,6.07574
		c0,0,1.99066-14.35657,9.12683-25.0611C22.37866,4.23517,23.10278,2.62671,26.25159,0.19434z"/>
	<path fill="#4B7CA4" d="M45.04602,18.66931l4.39221-5.34515V8.99402H35.91925v4.33911h7.85413l-3.46954,4.19958v2.15881h-5.42834
		v4.43671h5.42834v4.88739c0.07642,1.15192-0.53326,1.67749-1.84546,1.59363H35.7901
		c-1.15131-1.05115-2.30304-2.08862-3.46179-3.0661c1.53308-2.57623,2.41766-7.59296,2.66187-15.03467h-5.89392
		c0,0,0.12146-4.63538,0.06091-4.80353c-2.81403,0.03961-4.4837,0.02271-4.4837,0.02271
		c0.3208,1.99854,0.13739,4.27759,0.0686,4.80322l-2.15015-0.0224v4.21649l1.63904-0.01532
		c-0.4574,2.78357-1.20441,5.44476-2.21838,7.53339c1.38745,1.22046,3.15588,2.57581,4.54456,3.86487
		c-1.24365,1.22089-2.89819,2.46289-4.96387,3.76025c1.53241,1.50934,2.61493,2.61499,3.23285,3.30005
		c1.92126-1.43958,3.57581-2.76703,4.96362-3.97894c0.99164,0.90656,1.96692,1.82178,2.88916,2.73029l2.88269-2.85217
		c0.22852,0.83881,0.50262,2.08081,0.8158,3.76611h4.27777c3.00385-0.09052,4.46729-1.487,4.39087-4.22424v-6.48102h4.84979
		v-4.43671h-4.84979V18.66931z M28.74487,24.57855c-0.54083-0.52557-1.15814-1.01392-1.85248-1.47211
		c0.46521-1.96674,1.20459-3.61322,1.7149-6.39679l0.19104,0.06079l1.44843-0.04547
		C30.01062,19.98822,29.50714,22.61102,28.74487,24.57855z"/>
	<path fill="#4B7CA4" d="M74.37,29.68622c-0.06799,0.91516-0.42639,1.33533-1.02826,1.25146
		c-0.54932,0.08386-0.81598-0.3363-0.81598-1.25146v-5.5882h-1.60089c0.34985-1.1217,0.57123-2.87402,0.64001-5.23743
		c0-0.52716,0.02277-1.32001,0.09918-2.38763v-2.27325h-3.85883v2.27325c-0.06879,1.14404-0.10559,2.02118-0.10559,2.61536
		c-0.07697,2.89014-0.51166,5.05518-1.28943,6.49591V12.82874h6.79395v12.75549h4.16315V8.73456H62.36932v17.07855h3.65204
		c-0.86084,1.89935-2.96613,3.87311-6.29736,5.92371c0.37354,0.45819,0.99841,1.21387,1.84485,2.2807
		c0.3811,0.59454,0.68585,1.01434,0.91498,1.242c2.7135-2.05017,4.78821-4.11566,6.22113-6.25916v1.93732
		c0,2.41669,1.12134,3.64343,3.36261,3.64343H74.37c1.85382,0.06897,3.00494-0.8764,3.4696-2.8443
		c0.22906-1.43958,0.22906-4.03961,0.45819-5.18256c-1.57129,0-1.21307-0.05487-3.56897-0.05487
		C74.72882,27.4071,74.60669,28.47479,74.37,29.68622z"/>
	<path fill="#4B7CA4" d="M62.59021,28.13104c-1.62341-1.44073-3.12592-2.69965-4.50549-3.76611
		c0-0.29626,0.03058-0.5636,0.11383-0.79248h3.4696v-4.09454h-3.35492c0,0,0.12207-2.50836,0.12207-2.8678h2.76764v-3.97968H58.4353
		c0.06879-1.50934,0.10699-2.96539,0.10699-4.3313h-4.1557v4.30817l-2.88269,0.02313v3.97968h2.76825l-0.00763,2.8678h-3.45355
		v4.09454l3.24738-0.0321c-0.15204,3.2644-1.73096,6.40576-3.88055,8.68524c0.99908,1.2052,2.24896,2.07452,3.1723,3.30127
		c1.99756-2.50836,3.27032-4.73419,3.8042-6.70996c1.07483,1.06024,1.95941,2.00598,2.66064,2.83685L62.59021,28.13104z"/>
	<path fill="#4B7CA4" d="M92.39447,13.99591l2.7688-3.07239c-0.92334-0.59534-2.30298-1.47247-4.15601-2.62439l-2.43219,2.62439
		c0.69348,0.61731,1.54779,1.29572,2.53918,2.04944C91.65509,13.43115,92.07446,13.78235,92.39447,13.99591z"/>
	<path fill="#4B7CA4" d="M100.71313,11.38055h-4.16321v15.94232c-1.38666-0.59454-2.57733-1.13623-3.57581-1.59357
		c-0.24359,1.22827-0.51086,2.36487-0.815,3.42389c-0.22906,0.76233-0.52698,1.13507-0.92279,1.13507
		c-0.31244,0-0.61847-0.30414-0.92267-0.91357c-0.31256-0.52563-0.58807-1.13666-0.80048-1.82257
		c2.06549-1.75269,4.10962-3.90363,6.11395-6.49628l-3.69708-2.2807c-1.15051,1.52466-2.31012,2.85217-3.46198,3.995
		c-0.07623-1.14282-0.19849-2.50677-0.34235-4.10083l7.39465-0.80029l-0.46466-3.97968l-7.05206,0.68585
		c-0.16052-2.42487-0.16052-2.54675,0-0.35156c-0.16052-2.95123-0.22913-5.08459-0.22913-6.38147h-4.49786
		c0.14447,2.36371,0.26654,4.75769,0.34241,7.18219l-3.57587,0.33588l0.45758,4.10242l3.34735-0.3363
		c0.14441,2.66162,0.37274,4.88739,0.69354,6.71777c-0.62494,0.45032-1.73865,1.09821-3.34735,1.93695
		c-0.61725,0.38055-1.08313,0.6463-1.38782,0.79285c0.38116,0.6095,0.83936,1.41022,1.38782,2.39398
		c0.37354,0.68585,0.67847,1.16602,0.92285,1.47913c1.38721-0.60321,2.65295-1.31885,3.80408-2.15875
		c0.23694,0.52673,0.46527,1.01587,0.70142,1.4729c1.22046,2.20264,2.84467,3.26282,4.85034,3.1864
		c1.68396,0,3.03436-1.02802,4.04736-3.06451c0.37408-0.83875,0.80188-2.17249,1.2663-3.99658h3.92645V11.38055z"/>
	<path fill="#4B7CA4" d="M102.99274,8.07141V29.0321c0.07684,1.05902-1.79089,1.04999-1.79089,1.04999l-3.7514,0.03174
		l-0.01587,4.51355c0,0,5.17017,0.06232,5.79492-0.01532c2.98969,0.07764,4.41479-1.25769,4.26978-3.98639V8.07141H102.99274z"/>
</g>
</svg>
