<?xml version="1.0" encoding="utf-8"?>
<!-- Generator: Adobe Illustrator 18.0.0, SVG Export Plug-In . SVG Version: 6.00 Build 0)  -->
<!DOCTYPE svg PUBLIC "-//W3C//DTD SVG 1.1//EN" "http://www.w3.org/Graphics/SVG/1.1/DTD/svg11.dtd">
<svg version="1.1" id="图层_1" xmlns="http://www.w3.org/2000/svg" xmlns:xlink="http://www.w3.org/1999/xlink" x="0px" y="0px"
	 viewBox="0 0 52.79491 46.61481" enable-background="new 0 0 52.79491 46.61481" xml:space="preserve">
<g id="UwfZaJ.tif">
	<g>
		<path fill="#DDDDDD" d="M47.81546,20.92078c-0.54761,0-1.02822,0-1.60044,0c0-0.24557,0-0.46945,0-0.69334
			c0-3.77006,0.00179-7.54013-0.00049-11.31019c-0.00251-4.1554-3.10022-7.25701-7.25924-7.25876
			c-8.84216-0.0037-17.68431-0.00422-26.52647,0.0002c-4.3102,0.00216-7.3656,3.07376-7.36591,7.39073
			c-0.00064,8.80329-0.00102,17.60658,0.0002,26.40986c0.00053,3.8054,2.39672,6.65478,6.12717,7.27655
			c0.34214,0.05702,0.69646,0.05613,1.04514,0.05648c3.78949,0.00373,7.57899,0.00233,11.36848,0.00233
			c0.20835,0,0.4167,0,0.65314,0c0,0.55585,0,1.05318,0,1.58858c-0.10731,0.02135-0.2149,0.06159-0.32244,0.06143
			c-4.1389-0.00609-8.2791,0.04526-12.41631-0.04292c-3.89238-0.08296-7.43723-3.37291-7.97251-7.24261
			c-0.06627-0.47911-0.11764-0.96502-0.11801-1.44782C3.42084,26.73312,3.41276,17.75491,3.42703,8.77675
			c0.00674-4.23691,2.8494-7.71915,6.98066-8.58085c0.62222-0.12978,1.27092-0.18492,1.90748-0.18574
			c8.95874-0.01167,17.9175-0.01275,26.87625-0.00596c4.69711,0.00356,8.60836,3.83563,8.65494,8.52402
			c0.03958,3.98343,0.00874,7.96757,0.00703,11.9514C47.85334,20.61166,47.83128,20.7437,47.81546,20.92078z"/>
		<path fill="#DDDDDD" d="M43.32131,38.34894c0.56935,0.55925,1.13917,1.11218,1.70146,1.67267
			c1.27985,1.27571,2.55864,2.55252,3.83229,3.83441c0.47766,0.48076,0.6493,1.05414,0.42006,1.70806
			c-0.20395,0.5818-0.63421,0.92254-1.23417,1.02779c-0.64031,0.11232-1.12346-0.20206-1.55177-0.62958
			c-1.03143-1.02952-2.06146-2.06044-3.09205-3.09081c-0.67332-0.67316-1.36431-1.32989-2.01213-2.02675
			c-0.30201-0.32488-0.51181-0.30969-0.87495-0.07978c-6.48674,4.10664-15.07342,1.06699-17.54892-6.19924
			c-2.3753-6.97208,2.01236-14.38216,9.26574-15.64839c6.84479-1.19491,13.40683,4.03402,13.79438,10.97848
			c0.16925,3.03282-0.65055,5.75167-2.4994,8.1611C43.46415,38.1321,43.41415,38.21321,43.32131,38.34894z M44.27112,30.71014
			c-0.0066-5.65392-4.50704-10.19084-10.1091-10.19101c-5.52917-0.00017-10.06548,4.581-10.08134,10.18105
			c-0.01574,5.55746,4.5073,10.12252,10.04196,10.13525C39.76411,40.84842,44.27769,36.34514,44.27112,30.71014z"/>
		<path fill="#DDDDDD" d="M11.38229,9.97761c0-0.53607,0-1.03214,0-1.56166c9.51316,0,18.99546,0,28.5109,0
			c0,0.52487,0,1.02102,0,1.56166C30.40312,9.97761,20.9208,9.97761,11.38229,9.97761z"/>
		<path fill="#DDDDDD" d="M20.57147,16.16454c0,0.53295,0,1.03212,0,1.58128c-3.0565,0-6.09122,0-9.17314,0
			c0-0.50643,0-1.01908,0-1.58128C14.42391,16.16454,17.45888,16.16454,20.57147,16.16454z"/>
	</g>
</g>
</svg>
